M48
; DRILL file {KiCad (5.1.4)-1} date 18.10.2021 17:11:59
; FORMAT={-:-/ absolute / metric / decimal}
; #@! TF.CreationDate,2021-10-18T17:11:59+02:00
; #@! TF.GenerationSoftware,Kicad,Pcbnew,(5.1.4)-1
; #@! TF.FileFunction,NonPlated,1,2,NPTH
FMAT,2
METRIC
T1C0.650
T2C1.750
T3C3.048
T4C3.988
%
G90
G05
T1
X25.685Y-35.714
X31.465Y-35.714
T2
X71.12Y-44.45
X81.28Y-44.45
X202.089Y-120.65
X212.249Y-120.65
X109.22Y-44.45
X119.38Y-44.45
X21.114Y-82.55
X31.274Y-82.55
X228.282Y-101.6
X238.442Y-101.6
X33.02Y-44.45
X43.18Y-44.45
X18.732Y-63.5
X28.892Y-63.5
X113.983Y-101.6
X124.142Y-101.6
X275.907Y-63.5
X286.067Y-63.5
X137.795Y-63.5
X147.955Y-63.5
X180.657Y-82.55
X190.817Y-82.55
X52.07Y-44.45
X62.23Y-44.45
X42.545Y-63.5
X52.705Y-63.5
X75.882Y-101.6
X86.042Y-101.6
X252.095Y-63.5
X262.255Y-63.5
X104.457Y-82.55
X114.617Y-82.55
X99.695Y-63.5
X109.855Y-63.5
X152.082Y-101.6
X162.243Y-101.6
X242.57Y-44.45
X252.73Y-44.45
X309.245Y-120.65
X319.405Y-120.65
X85.407Y-82.55
X95.567Y-82.55
X25.876Y-101.6
X36.036Y-101.6
X290.195Y-101.6
X300.355Y-101.6
X204.47Y-44.45
X214.63Y-44.45
X37.782Y-120.65
X47.942Y-120.65
X249.714Y-120.65
X259.874Y-120.65
X166.37Y-44.45
X176.53Y-44.45
X209.232Y-101.6
X219.392Y-101.6
X175.895Y-63.5
X186.055Y-63.5
X199.707Y-82.55
X209.867Y-82.55
X225.901Y-120.65
X236.061Y-120.65
X147.32Y-44.45
X157.48Y-44.45
X194.945Y-63.5
X205.105Y-63.5
X161.607Y-82.55
X171.767Y-82.55
X13.97Y-44.45
X24.13Y-44.45
X309.245Y-63.5
X319.405Y-63.5
X123.507Y-82.55
X133.667Y-82.55
X223.52Y-44.45
X233.68Y-44.45
X61.595Y-63.5
X71.755Y-63.5
X94.932Y-101.6
X105.093Y-101.6
X156.845Y-63.5
X167.005Y-63.5
X237.807Y-82.55
X247.968Y-82.55
X16.351Y-120.65
X26.511Y-120.65
X213.995Y-63.5
X224.155Y-63.5
X59.214Y-120.65
X69.374Y-120.65
X130.651Y-120.65
X140.811Y-120.65
X128.27Y-44.45
X138.43Y-44.45
X259.239Y-101.6
X269.399Y-101.6
X90.17Y-44.45
X100.33Y-44.45
X271.145Y-44.45
X281.305Y-44.45
X133.032Y-101.6
X143.192Y-101.6
X268.764Y-82.55
X278.924Y-82.55
X47.307Y-82.55
X57.467Y-82.55
X171.132Y-101.6
X181.292Y-101.6
X185.42Y-44.45
X195.58Y-44.45
X118.745Y-63.5
X128.905Y-63.5
X142.558Y-82.55
X152.718Y-82.55
X80.645Y-63.5
X90.805Y-63.5
X190.183Y-101.6
X200.343Y-101.6
X233.045Y-63.5
X243.205Y-63.5
X56.832Y-101.6
X66.992Y-101.6
X309.245Y-44.45
X319.405Y-44.45
X218.757Y-82.55
X228.917Y-82.55
X290.195Y-120.65
X300.355Y-120.65
X66.358Y-82.55
X76.517Y-82.55
X271.145Y-120.65
X281.305Y-120.65
T3
X19.05Y-94.615
X42.862Y-94.615
X85.731Y-113.665
X185.731Y-113.665
X252.412Y-94.615
X276.225Y-94.615
X264.319Y-37.465
X288.131Y-37.465
X261.938Y-75.565
X285.75Y-75.565
T4
X257.175Y-63.5
X109.537Y-82.55
X104.775Y-63.5
X157.162Y-101.6
X247.65Y-44.45
X314.325Y-120.65
X90.487Y-82.55
X19.05Y-109.855
X30.956Y-101.6
X42.862Y-109.855
X295.275Y-101.6
X209.55Y-44.45
X42.862Y-120.65
X254.794Y-120.65
X171.45Y-44.45
X214.312Y-101.6
X180.975Y-63.5
X204.787Y-82.55
X230.981Y-120.65
X152.4Y-44.45
X200.025Y-63.5
X166.688Y-82.55
X19.05Y-44.45
X314.325Y-63.5
X128.588Y-82.55
X228.6Y-44.45
X66.675Y-63.5
X100.012Y-101.6
X161.925Y-63.5
X242.887Y-82.55
X21.431Y-120.65
X219.075Y-63.5
X64.294Y-120.65
X85.731Y-128.905
X135.731Y-120.65
X185.731Y-128.905
X133.35Y-44.45
X252.412Y-109.855
X264.319Y-101.6
X276.225Y-109.855
X95.25Y-44.45
X264.319Y-52.705
X276.225Y-44.45
X288.131Y-52.705
X138.112Y-101.6
X261.938Y-90.805
X273.844Y-82.55
X285.75Y-90.805
X52.387Y-82.55
X176.213Y-101.6
X190.5Y-44.45
X123.825Y-63.5
X147.637Y-82.55
X85.725Y-63.5
X195.262Y-101.6
X238.125Y-63.5
X61.912Y-101.6
X314.325Y-44.45
X223.837Y-82.55
X295.275Y-120.65
X71.438Y-82.55
X276.225Y-120.65
X76.2Y-44.45
X207.169Y-120.65
X114.3Y-44.45
X26.194Y-82.55
X233.362Y-101.6
X38.1Y-44.45
X23.812Y-63.5
X119.062Y-101.6
X280.988Y-63.5
X142.875Y-63.5
X185.737Y-82.55
X57.15Y-44.45
X47.625Y-63.5
X80.962Y-101.6
T0
M30
