G04 #@! TF.GenerationSoftware,KiCad,Pcbnew,(5.1.4)-1*
G04 #@! TF.CreationDate,2021-10-18T17:11:36+02:00*
G04 #@! TF.ProjectId,CrowMiniMk2,43726f77-4d69-46e6-994d-6b322e6b6963,rev?*
G04 #@! TF.SameCoordinates,Original*
G04 #@! TF.FileFunction,Paste,Bot*
G04 #@! TF.FilePolarity,Positive*
%FSLAX46Y46*%
G04 Gerber Fmt 4.6, Leading zero omitted, Abs format (unit mm)*
G04 Created by KiCad (PCBNEW (5.1.4)-1) date 2021-10-18 17:11:36*
%MOMM*%
%LPD*%
G04 APERTURE LIST*
%ADD10R,1.200000X1.400000*%
%ADD11R,0.600000X1.450000*%
%ADD12R,0.300000X1.450000*%
%ADD13C,0.100000*%
%ADD14C,0.975000*%
%ADD15C,1.250000*%
%ADD16R,0.700000X1.000000*%
%ADD17R,0.700000X0.600000*%
%ADD18R,1.200000X0.900000*%
%ADD19R,1.500000X0.550000*%
%ADD20R,0.550000X1.500000*%
%ADD21R,1.800000X1.100000*%
G04 APERTURE END LIST*
D10*
X175729000Y-121115000D03*
X175729000Y-118915000D03*
X174029000Y-118915000D03*
X174029000Y-121115000D03*
D11*
X31800000Y-37159000D03*
X25350000Y-37159000D03*
X31025000Y-37159000D03*
X26125000Y-37159000D03*
D12*
X26825000Y-37159000D03*
X30325000Y-37159000D03*
X27325000Y-37159000D03*
X29825000Y-37159000D03*
X27825000Y-37159000D03*
X29325000Y-37159000D03*
X28825000Y-37159000D03*
X28325000Y-37159000D03*
D13*
G36*
X154778142Y-108267174D02*
G01*
X154801803Y-108270684D01*
X154825007Y-108276496D01*
X154847529Y-108284554D01*
X154869153Y-108294782D01*
X154889670Y-108307079D01*
X154908883Y-108321329D01*
X154926607Y-108337393D01*
X154942671Y-108355117D01*
X154956921Y-108374330D01*
X154969218Y-108394847D01*
X154979446Y-108416471D01*
X154987504Y-108438993D01*
X154993316Y-108462197D01*
X154996826Y-108485858D01*
X154998000Y-108509750D01*
X154998000Y-109422250D01*
X154996826Y-109446142D01*
X154993316Y-109469803D01*
X154987504Y-109493007D01*
X154979446Y-109515529D01*
X154969218Y-109537153D01*
X154956921Y-109557670D01*
X154942671Y-109576883D01*
X154926607Y-109594607D01*
X154908883Y-109610671D01*
X154889670Y-109624921D01*
X154869153Y-109637218D01*
X154847529Y-109647446D01*
X154825007Y-109655504D01*
X154801803Y-109661316D01*
X154778142Y-109664826D01*
X154754250Y-109666000D01*
X154266750Y-109666000D01*
X154242858Y-109664826D01*
X154219197Y-109661316D01*
X154195993Y-109655504D01*
X154173471Y-109647446D01*
X154151847Y-109637218D01*
X154131330Y-109624921D01*
X154112117Y-109610671D01*
X154094393Y-109594607D01*
X154078329Y-109576883D01*
X154064079Y-109557670D01*
X154051782Y-109537153D01*
X154041554Y-109515529D01*
X154033496Y-109493007D01*
X154027684Y-109469803D01*
X154024174Y-109446142D01*
X154023000Y-109422250D01*
X154023000Y-108509750D01*
X154024174Y-108485858D01*
X154027684Y-108462197D01*
X154033496Y-108438993D01*
X154041554Y-108416471D01*
X154051782Y-108394847D01*
X154064079Y-108374330D01*
X154078329Y-108355117D01*
X154094393Y-108337393D01*
X154112117Y-108321329D01*
X154131330Y-108307079D01*
X154151847Y-108294782D01*
X154173471Y-108284554D01*
X154195993Y-108276496D01*
X154219197Y-108270684D01*
X154242858Y-108267174D01*
X154266750Y-108266000D01*
X154754250Y-108266000D01*
X154778142Y-108267174D01*
X154778142Y-108267174D01*
G37*
D14*
X154510500Y-108966000D03*
D13*
G36*
X156653142Y-108267174D02*
G01*
X156676803Y-108270684D01*
X156700007Y-108276496D01*
X156722529Y-108284554D01*
X156744153Y-108294782D01*
X156764670Y-108307079D01*
X156783883Y-108321329D01*
X156801607Y-108337393D01*
X156817671Y-108355117D01*
X156831921Y-108374330D01*
X156844218Y-108394847D01*
X156854446Y-108416471D01*
X156862504Y-108438993D01*
X156868316Y-108462197D01*
X156871826Y-108485858D01*
X156873000Y-108509750D01*
X156873000Y-109422250D01*
X156871826Y-109446142D01*
X156868316Y-109469803D01*
X156862504Y-109493007D01*
X156854446Y-109515529D01*
X156844218Y-109537153D01*
X156831921Y-109557670D01*
X156817671Y-109576883D01*
X156801607Y-109594607D01*
X156783883Y-109610671D01*
X156764670Y-109624921D01*
X156744153Y-109637218D01*
X156722529Y-109647446D01*
X156700007Y-109655504D01*
X156676803Y-109661316D01*
X156653142Y-109664826D01*
X156629250Y-109666000D01*
X156141750Y-109666000D01*
X156117858Y-109664826D01*
X156094197Y-109661316D01*
X156070993Y-109655504D01*
X156048471Y-109647446D01*
X156026847Y-109637218D01*
X156006330Y-109624921D01*
X155987117Y-109610671D01*
X155969393Y-109594607D01*
X155953329Y-109576883D01*
X155939079Y-109557670D01*
X155926782Y-109537153D01*
X155916554Y-109515529D01*
X155908496Y-109493007D01*
X155902684Y-109469803D01*
X155899174Y-109446142D01*
X155898000Y-109422250D01*
X155898000Y-108509750D01*
X155899174Y-108485858D01*
X155902684Y-108462197D01*
X155908496Y-108438993D01*
X155916554Y-108416471D01*
X155926782Y-108394847D01*
X155939079Y-108374330D01*
X155953329Y-108355117D01*
X155969393Y-108337393D01*
X155987117Y-108321329D01*
X156006330Y-108307079D01*
X156026847Y-108294782D01*
X156048471Y-108284554D01*
X156070993Y-108276496D01*
X156094197Y-108270684D01*
X156117858Y-108267174D01*
X156141750Y-108266000D01*
X156629250Y-108266000D01*
X156653142Y-108267174D01*
X156653142Y-108267174D01*
G37*
D14*
X156385500Y-108966000D03*
D13*
G36*
X154778142Y-105981174D02*
G01*
X154801803Y-105984684D01*
X154825007Y-105990496D01*
X154847529Y-105998554D01*
X154869153Y-106008782D01*
X154889670Y-106021079D01*
X154908883Y-106035329D01*
X154926607Y-106051393D01*
X154942671Y-106069117D01*
X154956921Y-106088330D01*
X154969218Y-106108847D01*
X154979446Y-106130471D01*
X154987504Y-106152993D01*
X154993316Y-106176197D01*
X154996826Y-106199858D01*
X154998000Y-106223750D01*
X154998000Y-107136250D01*
X154996826Y-107160142D01*
X154993316Y-107183803D01*
X154987504Y-107207007D01*
X154979446Y-107229529D01*
X154969218Y-107251153D01*
X154956921Y-107271670D01*
X154942671Y-107290883D01*
X154926607Y-107308607D01*
X154908883Y-107324671D01*
X154889670Y-107338921D01*
X154869153Y-107351218D01*
X154847529Y-107361446D01*
X154825007Y-107369504D01*
X154801803Y-107375316D01*
X154778142Y-107378826D01*
X154754250Y-107380000D01*
X154266750Y-107380000D01*
X154242858Y-107378826D01*
X154219197Y-107375316D01*
X154195993Y-107369504D01*
X154173471Y-107361446D01*
X154151847Y-107351218D01*
X154131330Y-107338921D01*
X154112117Y-107324671D01*
X154094393Y-107308607D01*
X154078329Y-107290883D01*
X154064079Y-107271670D01*
X154051782Y-107251153D01*
X154041554Y-107229529D01*
X154033496Y-107207007D01*
X154027684Y-107183803D01*
X154024174Y-107160142D01*
X154023000Y-107136250D01*
X154023000Y-106223750D01*
X154024174Y-106199858D01*
X154027684Y-106176197D01*
X154033496Y-106152993D01*
X154041554Y-106130471D01*
X154051782Y-106108847D01*
X154064079Y-106088330D01*
X154078329Y-106069117D01*
X154094393Y-106051393D01*
X154112117Y-106035329D01*
X154131330Y-106021079D01*
X154151847Y-106008782D01*
X154173471Y-105998554D01*
X154195993Y-105990496D01*
X154219197Y-105984684D01*
X154242858Y-105981174D01*
X154266750Y-105980000D01*
X154754250Y-105980000D01*
X154778142Y-105981174D01*
X154778142Y-105981174D01*
G37*
D14*
X154510500Y-106680000D03*
D13*
G36*
X156653142Y-105981174D02*
G01*
X156676803Y-105984684D01*
X156700007Y-105990496D01*
X156722529Y-105998554D01*
X156744153Y-106008782D01*
X156764670Y-106021079D01*
X156783883Y-106035329D01*
X156801607Y-106051393D01*
X156817671Y-106069117D01*
X156831921Y-106088330D01*
X156844218Y-106108847D01*
X156854446Y-106130471D01*
X156862504Y-106152993D01*
X156868316Y-106176197D01*
X156871826Y-106199858D01*
X156873000Y-106223750D01*
X156873000Y-107136250D01*
X156871826Y-107160142D01*
X156868316Y-107183803D01*
X156862504Y-107207007D01*
X156854446Y-107229529D01*
X156844218Y-107251153D01*
X156831921Y-107271670D01*
X156817671Y-107290883D01*
X156801607Y-107308607D01*
X156783883Y-107324671D01*
X156764670Y-107338921D01*
X156744153Y-107351218D01*
X156722529Y-107361446D01*
X156700007Y-107369504D01*
X156676803Y-107375316D01*
X156653142Y-107378826D01*
X156629250Y-107380000D01*
X156141750Y-107380000D01*
X156117858Y-107378826D01*
X156094197Y-107375316D01*
X156070993Y-107369504D01*
X156048471Y-107361446D01*
X156026847Y-107351218D01*
X156006330Y-107338921D01*
X155987117Y-107324671D01*
X155969393Y-107308607D01*
X155953329Y-107290883D01*
X155939079Y-107271670D01*
X155926782Y-107251153D01*
X155916554Y-107229529D01*
X155908496Y-107207007D01*
X155902684Y-107183803D01*
X155899174Y-107160142D01*
X155898000Y-107136250D01*
X155898000Y-106223750D01*
X155899174Y-106199858D01*
X155902684Y-106176197D01*
X155908496Y-106152993D01*
X155916554Y-106130471D01*
X155926782Y-106108847D01*
X155939079Y-106088330D01*
X155953329Y-106069117D01*
X155969393Y-106051393D01*
X155987117Y-106035329D01*
X156006330Y-106021079D01*
X156026847Y-106008782D01*
X156048471Y-105998554D01*
X156070993Y-105990496D01*
X156094197Y-105984684D01*
X156117858Y-105981174D01*
X156141750Y-105980000D01*
X156629250Y-105980000D01*
X156653142Y-105981174D01*
X156653142Y-105981174D01*
G37*
D14*
X156385500Y-106680000D03*
D13*
G36*
X161128142Y-106743174D02*
G01*
X161151803Y-106746684D01*
X161175007Y-106752496D01*
X161197529Y-106760554D01*
X161219153Y-106770782D01*
X161239670Y-106783079D01*
X161258883Y-106797329D01*
X161276607Y-106813393D01*
X161292671Y-106831117D01*
X161306921Y-106850330D01*
X161319218Y-106870847D01*
X161329446Y-106892471D01*
X161337504Y-106914993D01*
X161343316Y-106938197D01*
X161346826Y-106961858D01*
X161348000Y-106985750D01*
X161348000Y-107898250D01*
X161346826Y-107922142D01*
X161343316Y-107945803D01*
X161337504Y-107969007D01*
X161329446Y-107991529D01*
X161319218Y-108013153D01*
X161306921Y-108033670D01*
X161292671Y-108052883D01*
X161276607Y-108070607D01*
X161258883Y-108086671D01*
X161239670Y-108100921D01*
X161219153Y-108113218D01*
X161197529Y-108123446D01*
X161175007Y-108131504D01*
X161151803Y-108137316D01*
X161128142Y-108140826D01*
X161104250Y-108142000D01*
X160616750Y-108142000D01*
X160592858Y-108140826D01*
X160569197Y-108137316D01*
X160545993Y-108131504D01*
X160523471Y-108123446D01*
X160501847Y-108113218D01*
X160481330Y-108100921D01*
X160462117Y-108086671D01*
X160444393Y-108070607D01*
X160428329Y-108052883D01*
X160414079Y-108033670D01*
X160401782Y-108013153D01*
X160391554Y-107991529D01*
X160383496Y-107969007D01*
X160377684Y-107945803D01*
X160374174Y-107922142D01*
X160373000Y-107898250D01*
X160373000Y-106985750D01*
X160374174Y-106961858D01*
X160377684Y-106938197D01*
X160383496Y-106914993D01*
X160391554Y-106892471D01*
X160401782Y-106870847D01*
X160414079Y-106850330D01*
X160428329Y-106831117D01*
X160444393Y-106813393D01*
X160462117Y-106797329D01*
X160481330Y-106783079D01*
X160501847Y-106770782D01*
X160523471Y-106760554D01*
X160545993Y-106752496D01*
X160569197Y-106746684D01*
X160592858Y-106743174D01*
X160616750Y-106742000D01*
X161104250Y-106742000D01*
X161128142Y-106743174D01*
X161128142Y-106743174D01*
G37*
D14*
X160860500Y-107442000D03*
D13*
G36*
X163003142Y-106743174D02*
G01*
X163026803Y-106746684D01*
X163050007Y-106752496D01*
X163072529Y-106760554D01*
X163094153Y-106770782D01*
X163114670Y-106783079D01*
X163133883Y-106797329D01*
X163151607Y-106813393D01*
X163167671Y-106831117D01*
X163181921Y-106850330D01*
X163194218Y-106870847D01*
X163204446Y-106892471D01*
X163212504Y-106914993D01*
X163218316Y-106938197D01*
X163221826Y-106961858D01*
X163223000Y-106985750D01*
X163223000Y-107898250D01*
X163221826Y-107922142D01*
X163218316Y-107945803D01*
X163212504Y-107969007D01*
X163204446Y-107991529D01*
X163194218Y-108013153D01*
X163181921Y-108033670D01*
X163167671Y-108052883D01*
X163151607Y-108070607D01*
X163133883Y-108086671D01*
X163114670Y-108100921D01*
X163094153Y-108113218D01*
X163072529Y-108123446D01*
X163050007Y-108131504D01*
X163026803Y-108137316D01*
X163003142Y-108140826D01*
X162979250Y-108142000D01*
X162491750Y-108142000D01*
X162467858Y-108140826D01*
X162444197Y-108137316D01*
X162420993Y-108131504D01*
X162398471Y-108123446D01*
X162376847Y-108113218D01*
X162356330Y-108100921D01*
X162337117Y-108086671D01*
X162319393Y-108070607D01*
X162303329Y-108052883D01*
X162289079Y-108033670D01*
X162276782Y-108013153D01*
X162266554Y-107991529D01*
X162258496Y-107969007D01*
X162252684Y-107945803D01*
X162249174Y-107922142D01*
X162248000Y-107898250D01*
X162248000Y-106985750D01*
X162249174Y-106961858D01*
X162252684Y-106938197D01*
X162258496Y-106914993D01*
X162266554Y-106892471D01*
X162276782Y-106870847D01*
X162289079Y-106850330D01*
X162303329Y-106831117D01*
X162319393Y-106813393D01*
X162337117Y-106797329D01*
X162356330Y-106783079D01*
X162376847Y-106770782D01*
X162398471Y-106760554D01*
X162420993Y-106752496D01*
X162444197Y-106746684D01*
X162467858Y-106743174D01*
X162491750Y-106742000D01*
X162979250Y-106742000D01*
X163003142Y-106743174D01*
X163003142Y-106743174D01*
G37*
D14*
X162735500Y-107442000D03*
D13*
G36*
X150714142Y-111315174D02*
G01*
X150737803Y-111318684D01*
X150761007Y-111324496D01*
X150783529Y-111332554D01*
X150805153Y-111342782D01*
X150825670Y-111355079D01*
X150844883Y-111369329D01*
X150862607Y-111385393D01*
X150878671Y-111403117D01*
X150892921Y-111422330D01*
X150905218Y-111442847D01*
X150915446Y-111464471D01*
X150923504Y-111486993D01*
X150929316Y-111510197D01*
X150932826Y-111533858D01*
X150934000Y-111557750D01*
X150934000Y-112470250D01*
X150932826Y-112494142D01*
X150929316Y-112517803D01*
X150923504Y-112541007D01*
X150915446Y-112563529D01*
X150905218Y-112585153D01*
X150892921Y-112605670D01*
X150878671Y-112624883D01*
X150862607Y-112642607D01*
X150844883Y-112658671D01*
X150825670Y-112672921D01*
X150805153Y-112685218D01*
X150783529Y-112695446D01*
X150761007Y-112703504D01*
X150737803Y-112709316D01*
X150714142Y-112712826D01*
X150690250Y-112714000D01*
X150202750Y-112714000D01*
X150178858Y-112712826D01*
X150155197Y-112709316D01*
X150131993Y-112703504D01*
X150109471Y-112695446D01*
X150087847Y-112685218D01*
X150067330Y-112672921D01*
X150048117Y-112658671D01*
X150030393Y-112642607D01*
X150014329Y-112624883D01*
X150000079Y-112605670D01*
X149987782Y-112585153D01*
X149977554Y-112563529D01*
X149969496Y-112541007D01*
X149963684Y-112517803D01*
X149960174Y-112494142D01*
X149959000Y-112470250D01*
X149959000Y-111557750D01*
X149960174Y-111533858D01*
X149963684Y-111510197D01*
X149969496Y-111486993D01*
X149977554Y-111464471D01*
X149987782Y-111442847D01*
X150000079Y-111422330D01*
X150014329Y-111403117D01*
X150030393Y-111385393D01*
X150048117Y-111369329D01*
X150067330Y-111355079D01*
X150087847Y-111342782D01*
X150109471Y-111332554D01*
X150131993Y-111324496D01*
X150155197Y-111318684D01*
X150178858Y-111315174D01*
X150202750Y-111314000D01*
X150690250Y-111314000D01*
X150714142Y-111315174D01*
X150714142Y-111315174D01*
G37*
D14*
X150446500Y-112014000D03*
D13*
G36*
X152589142Y-111315174D02*
G01*
X152612803Y-111318684D01*
X152636007Y-111324496D01*
X152658529Y-111332554D01*
X152680153Y-111342782D01*
X152700670Y-111355079D01*
X152719883Y-111369329D01*
X152737607Y-111385393D01*
X152753671Y-111403117D01*
X152767921Y-111422330D01*
X152780218Y-111442847D01*
X152790446Y-111464471D01*
X152798504Y-111486993D01*
X152804316Y-111510197D01*
X152807826Y-111533858D01*
X152809000Y-111557750D01*
X152809000Y-112470250D01*
X152807826Y-112494142D01*
X152804316Y-112517803D01*
X152798504Y-112541007D01*
X152790446Y-112563529D01*
X152780218Y-112585153D01*
X152767921Y-112605670D01*
X152753671Y-112624883D01*
X152737607Y-112642607D01*
X152719883Y-112658671D01*
X152700670Y-112672921D01*
X152680153Y-112685218D01*
X152658529Y-112695446D01*
X152636007Y-112703504D01*
X152612803Y-112709316D01*
X152589142Y-112712826D01*
X152565250Y-112714000D01*
X152077750Y-112714000D01*
X152053858Y-112712826D01*
X152030197Y-112709316D01*
X152006993Y-112703504D01*
X151984471Y-112695446D01*
X151962847Y-112685218D01*
X151942330Y-112672921D01*
X151923117Y-112658671D01*
X151905393Y-112642607D01*
X151889329Y-112624883D01*
X151875079Y-112605670D01*
X151862782Y-112585153D01*
X151852554Y-112563529D01*
X151844496Y-112541007D01*
X151838684Y-112517803D01*
X151835174Y-112494142D01*
X151834000Y-112470250D01*
X151834000Y-111557750D01*
X151835174Y-111533858D01*
X151838684Y-111510197D01*
X151844496Y-111486993D01*
X151852554Y-111464471D01*
X151862782Y-111442847D01*
X151875079Y-111422330D01*
X151889329Y-111403117D01*
X151905393Y-111385393D01*
X151923117Y-111369329D01*
X151942330Y-111355079D01*
X151962847Y-111342782D01*
X151984471Y-111332554D01*
X152006993Y-111324496D01*
X152030197Y-111318684D01*
X152053858Y-111315174D01*
X152077750Y-111314000D01*
X152565250Y-111314000D01*
X152589142Y-111315174D01*
X152589142Y-111315174D01*
G37*
D14*
X152321500Y-112014000D03*
D13*
G36*
X173708142Y-114751174D02*
G01*
X173731803Y-114754684D01*
X173755007Y-114760496D01*
X173777529Y-114768554D01*
X173799153Y-114778782D01*
X173819670Y-114791079D01*
X173838883Y-114805329D01*
X173856607Y-114821393D01*
X173872671Y-114839117D01*
X173886921Y-114858330D01*
X173899218Y-114878847D01*
X173909446Y-114900471D01*
X173917504Y-114922993D01*
X173923316Y-114946197D01*
X173926826Y-114969858D01*
X173928000Y-114993750D01*
X173928000Y-115481250D01*
X173926826Y-115505142D01*
X173923316Y-115528803D01*
X173917504Y-115552007D01*
X173909446Y-115574529D01*
X173899218Y-115596153D01*
X173886921Y-115616670D01*
X173872671Y-115635883D01*
X173856607Y-115653607D01*
X173838883Y-115669671D01*
X173819670Y-115683921D01*
X173799153Y-115696218D01*
X173777529Y-115706446D01*
X173755007Y-115714504D01*
X173731803Y-115720316D01*
X173708142Y-115723826D01*
X173684250Y-115725000D01*
X172771750Y-115725000D01*
X172747858Y-115723826D01*
X172724197Y-115720316D01*
X172700993Y-115714504D01*
X172678471Y-115706446D01*
X172656847Y-115696218D01*
X172636330Y-115683921D01*
X172617117Y-115669671D01*
X172599393Y-115653607D01*
X172583329Y-115635883D01*
X172569079Y-115616670D01*
X172556782Y-115596153D01*
X172546554Y-115574529D01*
X172538496Y-115552007D01*
X172532684Y-115528803D01*
X172529174Y-115505142D01*
X172528000Y-115481250D01*
X172528000Y-114993750D01*
X172529174Y-114969858D01*
X172532684Y-114946197D01*
X172538496Y-114922993D01*
X172546554Y-114900471D01*
X172556782Y-114878847D01*
X172569079Y-114858330D01*
X172583329Y-114839117D01*
X172599393Y-114821393D01*
X172617117Y-114805329D01*
X172636330Y-114791079D01*
X172656847Y-114778782D01*
X172678471Y-114768554D01*
X172700993Y-114760496D01*
X172724197Y-114754684D01*
X172747858Y-114751174D01*
X172771750Y-114750000D01*
X173684250Y-114750000D01*
X173708142Y-114751174D01*
X173708142Y-114751174D01*
G37*
D14*
X173228000Y-115237500D03*
D13*
G36*
X173708142Y-112876174D02*
G01*
X173731803Y-112879684D01*
X173755007Y-112885496D01*
X173777529Y-112893554D01*
X173799153Y-112903782D01*
X173819670Y-112916079D01*
X173838883Y-112930329D01*
X173856607Y-112946393D01*
X173872671Y-112964117D01*
X173886921Y-112983330D01*
X173899218Y-113003847D01*
X173909446Y-113025471D01*
X173917504Y-113047993D01*
X173923316Y-113071197D01*
X173926826Y-113094858D01*
X173928000Y-113118750D01*
X173928000Y-113606250D01*
X173926826Y-113630142D01*
X173923316Y-113653803D01*
X173917504Y-113677007D01*
X173909446Y-113699529D01*
X173899218Y-113721153D01*
X173886921Y-113741670D01*
X173872671Y-113760883D01*
X173856607Y-113778607D01*
X173838883Y-113794671D01*
X173819670Y-113808921D01*
X173799153Y-113821218D01*
X173777529Y-113831446D01*
X173755007Y-113839504D01*
X173731803Y-113845316D01*
X173708142Y-113848826D01*
X173684250Y-113850000D01*
X172771750Y-113850000D01*
X172747858Y-113848826D01*
X172724197Y-113845316D01*
X172700993Y-113839504D01*
X172678471Y-113831446D01*
X172656847Y-113821218D01*
X172636330Y-113808921D01*
X172617117Y-113794671D01*
X172599393Y-113778607D01*
X172583329Y-113760883D01*
X172569079Y-113741670D01*
X172556782Y-113721153D01*
X172546554Y-113699529D01*
X172538496Y-113677007D01*
X172532684Y-113653803D01*
X172529174Y-113630142D01*
X172528000Y-113606250D01*
X172528000Y-113118750D01*
X172529174Y-113094858D01*
X172532684Y-113071197D01*
X172538496Y-113047993D01*
X172546554Y-113025471D01*
X172556782Y-113003847D01*
X172569079Y-112983330D01*
X172583329Y-112964117D01*
X172599393Y-112946393D01*
X172617117Y-112930329D01*
X172636330Y-112916079D01*
X172656847Y-112903782D01*
X172678471Y-112893554D01*
X172700993Y-112885496D01*
X172724197Y-112879684D01*
X172747858Y-112876174D01*
X172771750Y-112875000D01*
X173684250Y-112875000D01*
X173708142Y-112876174D01*
X173708142Y-112876174D01*
G37*
D14*
X173228000Y-113362500D03*
D13*
G36*
X181545142Y-120967174D02*
G01*
X181568803Y-120970684D01*
X181592007Y-120976496D01*
X181614529Y-120984554D01*
X181636153Y-120994782D01*
X181656670Y-121007079D01*
X181675883Y-121021329D01*
X181693607Y-121037393D01*
X181709671Y-121055117D01*
X181723921Y-121074330D01*
X181736218Y-121094847D01*
X181746446Y-121116471D01*
X181754504Y-121138993D01*
X181760316Y-121162197D01*
X181763826Y-121185858D01*
X181765000Y-121209750D01*
X181765000Y-122122250D01*
X181763826Y-122146142D01*
X181760316Y-122169803D01*
X181754504Y-122193007D01*
X181746446Y-122215529D01*
X181736218Y-122237153D01*
X181723921Y-122257670D01*
X181709671Y-122276883D01*
X181693607Y-122294607D01*
X181675883Y-122310671D01*
X181656670Y-122324921D01*
X181636153Y-122337218D01*
X181614529Y-122347446D01*
X181592007Y-122355504D01*
X181568803Y-122361316D01*
X181545142Y-122364826D01*
X181521250Y-122366000D01*
X181033750Y-122366000D01*
X181009858Y-122364826D01*
X180986197Y-122361316D01*
X180962993Y-122355504D01*
X180940471Y-122347446D01*
X180918847Y-122337218D01*
X180898330Y-122324921D01*
X180879117Y-122310671D01*
X180861393Y-122294607D01*
X180845329Y-122276883D01*
X180831079Y-122257670D01*
X180818782Y-122237153D01*
X180808554Y-122215529D01*
X180800496Y-122193007D01*
X180794684Y-122169803D01*
X180791174Y-122146142D01*
X180790000Y-122122250D01*
X180790000Y-121209750D01*
X180791174Y-121185858D01*
X180794684Y-121162197D01*
X180800496Y-121138993D01*
X180808554Y-121116471D01*
X180818782Y-121094847D01*
X180831079Y-121074330D01*
X180845329Y-121055117D01*
X180861393Y-121037393D01*
X180879117Y-121021329D01*
X180898330Y-121007079D01*
X180918847Y-120994782D01*
X180940471Y-120984554D01*
X180962993Y-120976496D01*
X180986197Y-120970684D01*
X181009858Y-120967174D01*
X181033750Y-120966000D01*
X181521250Y-120966000D01*
X181545142Y-120967174D01*
X181545142Y-120967174D01*
G37*
D14*
X181277500Y-121666000D03*
D13*
G36*
X179670142Y-120967174D02*
G01*
X179693803Y-120970684D01*
X179717007Y-120976496D01*
X179739529Y-120984554D01*
X179761153Y-120994782D01*
X179781670Y-121007079D01*
X179800883Y-121021329D01*
X179818607Y-121037393D01*
X179834671Y-121055117D01*
X179848921Y-121074330D01*
X179861218Y-121094847D01*
X179871446Y-121116471D01*
X179879504Y-121138993D01*
X179885316Y-121162197D01*
X179888826Y-121185858D01*
X179890000Y-121209750D01*
X179890000Y-122122250D01*
X179888826Y-122146142D01*
X179885316Y-122169803D01*
X179879504Y-122193007D01*
X179871446Y-122215529D01*
X179861218Y-122237153D01*
X179848921Y-122257670D01*
X179834671Y-122276883D01*
X179818607Y-122294607D01*
X179800883Y-122310671D01*
X179781670Y-122324921D01*
X179761153Y-122337218D01*
X179739529Y-122347446D01*
X179717007Y-122355504D01*
X179693803Y-122361316D01*
X179670142Y-122364826D01*
X179646250Y-122366000D01*
X179158750Y-122366000D01*
X179134858Y-122364826D01*
X179111197Y-122361316D01*
X179087993Y-122355504D01*
X179065471Y-122347446D01*
X179043847Y-122337218D01*
X179023330Y-122324921D01*
X179004117Y-122310671D01*
X178986393Y-122294607D01*
X178970329Y-122276883D01*
X178956079Y-122257670D01*
X178943782Y-122237153D01*
X178933554Y-122215529D01*
X178925496Y-122193007D01*
X178919684Y-122169803D01*
X178916174Y-122146142D01*
X178915000Y-122122250D01*
X178915000Y-121209750D01*
X178916174Y-121185858D01*
X178919684Y-121162197D01*
X178925496Y-121138993D01*
X178933554Y-121116471D01*
X178943782Y-121094847D01*
X178956079Y-121074330D01*
X178970329Y-121055117D01*
X178986393Y-121037393D01*
X179004117Y-121021329D01*
X179023330Y-121007079D01*
X179043847Y-120994782D01*
X179065471Y-120984554D01*
X179087993Y-120976496D01*
X179111197Y-120970684D01*
X179134858Y-120967174D01*
X179158750Y-120966000D01*
X179646250Y-120966000D01*
X179670142Y-120967174D01*
X179670142Y-120967174D01*
G37*
D14*
X179402500Y-121666000D03*
D13*
G36*
X181545142Y-117919174D02*
G01*
X181568803Y-117922684D01*
X181592007Y-117928496D01*
X181614529Y-117936554D01*
X181636153Y-117946782D01*
X181656670Y-117959079D01*
X181675883Y-117973329D01*
X181693607Y-117989393D01*
X181709671Y-118007117D01*
X181723921Y-118026330D01*
X181736218Y-118046847D01*
X181746446Y-118068471D01*
X181754504Y-118090993D01*
X181760316Y-118114197D01*
X181763826Y-118137858D01*
X181765000Y-118161750D01*
X181765000Y-119074250D01*
X181763826Y-119098142D01*
X181760316Y-119121803D01*
X181754504Y-119145007D01*
X181746446Y-119167529D01*
X181736218Y-119189153D01*
X181723921Y-119209670D01*
X181709671Y-119228883D01*
X181693607Y-119246607D01*
X181675883Y-119262671D01*
X181656670Y-119276921D01*
X181636153Y-119289218D01*
X181614529Y-119299446D01*
X181592007Y-119307504D01*
X181568803Y-119313316D01*
X181545142Y-119316826D01*
X181521250Y-119318000D01*
X181033750Y-119318000D01*
X181009858Y-119316826D01*
X180986197Y-119313316D01*
X180962993Y-119307504D01*
X180940471Y-119299446D01*
X180918847Y-119289218D01*
X180898330Y-119276921D01*
X180879117Y-119262671D01*
X180861393Y-119246607D01*
X180845329Y-119228883D01*
X180831079Y-119209670D01*
X180818782Y-119189153D01*
X180808554Y-119167529D01*
X180800496Y-119145007D01*
X180794684Y-119121803D01*
X180791174Y-119098142D01*
X180790000Y-119074250D01*
X180790000Y-118161750D01*
X180791174Y-118137858D01*
X180794684Y-118114197D01*
X180800496Y-118090993D01*
X180808554Y-118068471D01*
X180818782Y-118046847D01*
X180831079Y-118026330D01*
X180845329Y-118007117D01*
X180861393Y-117989393D01*
X180879117Y-117973329D01*
X180898330Y-117959079D01*
X180918847Y-117946782D01*
X180940471Y-117936554D01*
X180962993Y-117928496D01*
X180986197Y-117922684D01*
X181009858Y-117919174D01*
X181033750Y-117918000D01*
X181521250Y-117918000D01*
X181545142Y-117919174D01*
X181545142Y-117919174D01*
G37*
D14*
X181277500Y-118618000D03*
D13*
G36*
X179670142Y-117919174D02*
G01*
X179693803Y-117922684D01*
X179717007Y-117928496D01*
X179739529Y-117936554D01*
X179761153Y-117946782D01*
X179781670Y-117959079D01*
X179800883Y-117973329D01*
X179818607Y-117989393D01*
X179834671Y-118007117D01*
X179848921Y-118026330D01*
X179861218Y-118046847D01*
X179871446Y-118068471D01*
X179879504Y-118090993D01*
X179885316Y-118114197D01*
X179888826Y-118137858D01*
X179890000Y-118161750D01*
X179890000Y-119074250D01*
X179888826Y-119098142D01*
X179885316Y-119121803D01*
X179879504Y-119145007D01*
X179871446Y-119167529D01*
X179861218Y-119189153D01*
X179848921Y-119209670D01*
X179834671Y-119228883D01*
X179818607Y-119246607D01*
X179800883Y-119262671D01*
X179781670Y-119276921D01*
X179761153Y-119289218D01*
X179739529Y-119299446D01*
X179717007Y-119307504D01*
X179693803Y-119313316D01*
X179670142Y-119316826D01*
X179646250Y-119318000D01*
X179158750Y-119318000D01*
X179134858Y-119316826D01*
X179111197Y-119313316D01*
X179087993Y-119307504D01*
X179065471Y-119299446D01*
X179043847Y-119289218D01*
X179023330Y-119276921D01*
X179004117Y-119262671D01*
X178986393Y-119246607D01*
X178970329Y-119228883D01*
X178956079Y-119209670D01*
X178943782Y-119189153D01*
X178933554Y-119167529D01*
X178925496Y-119145007D01*
X178919684Y-119121803D01*
X178916174Y-119098142D01*
X178915000Y-119074250D01*
X178915000Y-118161750D01*
X178916174Y-118137858D01*
X178919684Y-118114197D01*
X178925496Y-118090993D01*
X178933554Y-118068471D01*
X178943782Y-118046847D01*
X178956079Y-118026330D01*
X178970329Y-118007117D01*
X178986393Y-117989393D01*
X179004117Y-117973329D01*
X179023330Y-117959079D01*
X179043847Y-117946782D01*
X179065471Y-117936554D01*
X179087993Y-117928496D01*
X179111197Y-117922684D01*
X179134858Y-117919174D01*
X179158750Y-117918000D01*
X179646250Y-117918000D01*
X179670142Y-117919174D01*
X179670142Y-117919174D01*
G37*
D14*
X179402500Y-118618000D03*
D13*
G36*
X171422142Y-125322174D02*
G01*
X171445803Y-125325684D01*
X171469007Y-125331496D01*
X171491529Y-125339554D01*
X171513153Y-125349782D01*
X171533670Y-125362079D01*
X171552883Y-125376329D01*
X171570607Y-125392393D01*
X171586671Y-125410117D01*
X171600921Y-125429330D01*
X171613218Y-125449847D01*
X171623446Y-125471471D01*
X171631504Y-125493993D01*
X171637316Y-125517197D01*
X171640826Y-125540858D01*
X171642000Y-125564750D01*
X171642000Y-126052250D01*
X171640826Y-126076142D01*
X171637316Y-126099803D01*
X171631504Y-126123007D01*
X171623446Y-126145529D01*
X171613218Y-126167153D01*
X171600921Y-126187670D01*
X171586671Y-126206883D01*
X171570607Y-126224607D01*
X171552883Y-126240671D01*
X171533670Y-126254921D01*
X171513153Y-126267218D01*
X171491529Y-126277446D01*
X171469007Y-126285504D01*
X171445803Y-126291316D01*
X171422142Y-126294826D01*
X171398250Y-126296000D01*
X170485750Y-126296000D01*
X170461858Y-126294826D01*
X170438197Y-126291316D01*
X170414993Y-126285504D01*
X170392471Y-126277446D01*
X170370847Y-126267218D01*
X170350330Y-126254921D01*
X170331117Y-126240671D01*
X170313393Y-126224607D01*
X170297329Y-126206883D01*
X170283079Y-126187670D01*
X170270782Y-126167153D01*
X170260554Y-126145529D01*
X170252496Y-126123007D01*
X170246684Y-126099803D01*
X170243174Y-126076142D01*
X170242000Y-126052250D01*
X170242000Y-125564750D01*
X170243174Y-125540858D01*
X170246684Y-125517197D01*
X170252496Y-125493993D01*
X170260554Y-125471471D01*
X170270782Y-125449847D01*
X170283079Y-125429330D01*
X170297329Y-125410117D01*
X170313393Y-125392393D01*
X170331117Y-125376329D01*
X170350330Y-125362079D01*
X170370847Y-125349782D01*
X170392471Y-125339554D01*
X170414993Y-125331496D01*
X170438197Y-125325684D01*
X170461858Y-125322174D01*
X170485750Y-125321000D01*
X171398250Y-125321000D01*
X171422142Y-125322174D01*
X171422142Y-125322174D01*
G37*
D14*
X170942000Y-125808500D03*
D13*
G36*
X171422142Y-127197174D02*
G01*
X171445803Y-127200684D01*
X171469007Y-127206496D01*
X171491529Y-127214554D01*
X171513153Y-127224782D01*
X171533670Y-127237079D01*
X171552883Y-127251329D01*
X171570607Y-127267393D01*
X171586671Y-127285117D01*
X171600921Y-127304330D01*
X171613218Y-127324847D01*
X171623446Y-127346471D01*
X171631504Y-127368993D01*
X171637316Y-127392197D01*
X171640826Y-127415858D01*
X171642000Y-127439750D01*
X171642000Y-127927250D01*
X171640826Y-127951142D01*
X171637316Y-127974803D01*
X171631504Y-127998007D01*
X171623446Y-128020529D01*
X171613218Y-128042153D01*
X171600921Y-128062670D01*
X171586671Y-128081883D01*
X171570607Y-128099607D01*
X171552883Y-128115671D01*
X171533670Y-128129921D01*
X171513153Y-128142218D01*
X171491529Y-128152446D01*
X171469007Y-128160504D01*
X171445803Y-128166316D01*
X171422142Y-128169826D01*
X171398250Y-128171000D01*
X170485750Y-128171000D01*
X170461858Y-128169826D01*
X170438197Y-128166316D01*
X170414993Y-128160504D01*
X170392471Y-128152446D01*
X170370847Y-128142218D01*
X170350330Y-128129921D01*
X170331117Y-128115671D01*
X170313393Y-128099607D01*
X170297329Y-128081883D01*
X170283079Y-128062670D01*
X170270782Y-128042153D01*
X170260554Y-128020529D01*
X170252496Y-127998007D01*
X170246684Y-127974803D01*
X170243174Y-127951142D01*
X170242000Y-127927250D01*
X170242000Y-127439750D01*
X170243174Y-127415858D01*
X170246684Y-127392197D01*
X170252496Y-127368993D01*
X170260554Y-127346471D01*
X170270782Y-127324847D01*
X170283079Y-127304330D01*
X170297329Y-127285117D01*
X170313393Y-127267393D01*
X170331117Y-127251329D01*
X170350330Y-127237079D01*
X170370847Y-127224782D01*
X170392471Y-127214554D01*
X170414993Y-127206496D01*
X170438197Y-127200684D01*
X170461858Y-127197174D01*
X170485750Y-127196000D01*
X171398250Y-127196000D01*
X171422142Y-127197174D01*
X171422142Y-127197174D01*
G37*
D14*
X170942000Y-127683500D03*
D13*
G36*
X153351142Y-127063174D02*
G01*
X153374803Y-127066684D01*
X153398007Y-127072496D01*
X153420529Y-127080554D01*
X153442153Y-127090782D01*
X153462670Y-127103079D01*
X153481883Y-127117329D01*
X153499607Y-127133393D01*
X153515671Y-127151117D01*
X153529921Y-127170330D01*
X153542218Y-127190847D01*
X153552446Y-127212471D01*
X153560504Y-127234993D01*
X153566316Y-127258197D01*
X153569826Y-127281858D01*
X153571000Y-127305750D01*
X153571000Y-128218250D01*
X153569826Y-128242142D01*
X153566316Y-128265803D01*
X153560504Y-128289007D01*
X153552446Y-128311529D01*
X153542218Y-128333153D01*
X153529921Y-128353670D01*
X153515671Y-128372883D01*
X153499607Y-128390607D01*
X153481883Y-128406671D01*
X153462670Y-128420921D01*
X153442153Y-128433218D01*
X153420529Y-128443446D01*
X153398007Y-128451504D01*
X153374803Y-128457316D01*
X153351142Y-128460826D01*
X153327250Y-128462000D01*
X152839750Y-128462000D01*
X152815858Y-128460826D01*
X152792197Y-128457316D01*
X152768993Y-128451504D01*
X152746471Y-128443446D01*
X152724847Y-128433218D01*
X152704330Y-128420921D01*
X152685117Y-128406671D01*
X152667393Y-128390607D01*
X152651329Y-128372883D01*
X152637079Y-128353670D01*
X152624782Y-128333153D01*
X152614554Y-128311529D01*
X152606496Y-128289007D01*
X152600684Y-128265803D01*
X152597174Y-128242142D01*
X152596000Y-128218250D01*
X152596000Y-127305750D01*
X152597174Y-127281858D01*
X152600684Y-127258197D01*
X152606496Y-127234993D01*
X152614554Y-127212471D01*
X152624782Y-127190847D01*
X152637079Y-127170330D01*
X152651329Y-127151117D01*
X152667393Y-127133393D01*
X152685117Y-127117329D01*
X152704330Y-127103079D01*
X152724847Y-127090782D01*
X152746471Y-127080554D01*
X152768993Y-127072496D01*
X152792197Y-127066684D01*
X152815858Y-127063174D01*
X152839750Y-127062000D01*
X153327250Y-127062000D01*
X153351142Y-127063174D01*
X153351142Y-127063174D01*
G37*
D14*
X153083500Y-127762000D03*
D13*
G36*
X151476142Y-127063174D02*
G01*
X151499803Y-127066684D01*
X151523007Y-127072496D01*
X151545529Y-127080554D01*
X151567153Y-127090782D01*
X151587670Y-127103079D01*
X151606883Y-127117329D01*
X151624607Y-127133393D01*
X151640671Y-127151117D01*
X151654921Y-127170330D01*
X151667218Y-127190847D01*
X151677446Y-127212471D01*
X151685504Y-127234993D01*
X151691316Y-127258197D01*
X151694826Y-127281858D01*
X151696000Y-127305750D01*
X151696000Y-128218250D01*
X151694826Y-128242142D01*
X151691316Y-128265803D01*
X151685504Y-128289007D01*
X151677446Y-128311529D01*
X151667218Y-128333153D01*
X151654921Y-128353670D01*
X151640671Y-128372883D01*
X151624607Y-128390607D01*
X151606883Y-128406671D01*
X151587670Y-128420921D01*
X151567153Y-128433218D01*
X151545529Y-128443446D01*
X151523007Y-128451504D01*
X151499803Y-128457316D01*
X151476142Y-128460826D01*
X151452250Y-128462000D01*
X150964750Y-128462000D01*
X150940858Y-128460826D01*
X150917197Y-128457316D01*
X150893993Y-128451504D01*
X150871471Y-128443446D01*
X150849847Y-128433218D01*
X150829330Y-128420921D01*
X150810117Y-128406671D01*
X150792393Y-128390607D01*
X150776329Y-128372883D01*
X150762079Y-128353670D01*
X150749782Y-128333153D01*
X150739554Y-128311529D01*
X150731496Y-128289007D01*
X150725684Y-128265803D01*
X150722174Y-128242142D01*
X150721000Y-128218250D01*
X150721000Y-127305750D01*
X150722174Y-127281858D01*
X150725684Y-127258197D01*
X150731496Y-127234993D01*
X150739554Y-127212471D01*
X150749782Y-127190847D01*
X150762079Y-127170330D01*
X150776329Y-127151117D01*
X150792393Y-127133393D01*
X150810117Y-127117329D01*
X150829330Y-127103079D01*
X150849847Y-127090782D01*
X150871471Y-127080554D01*
X150893993Y-127072496D01*
X150917197Y-127066684D01*
X150940858Y-127063174D01*
X150964750Y-127062000D01*
X151452250Y-127062000D01*
X151476142Y-127063174D01*
X151476142Y-127063174D01*
G37*
D14*
X151208500Y-127762000D03*
D13*
G36*
X152118142Y-122782174D02*
G01*
X152141803Y-122785684D01*
X152165007Y-122791496D01*
X152187529Y-122799554D01*
X152209153Y-122809782D01*
X152229670Y-122822079D01*
X152248883Y-122836329D01*
X152266607Y-122852393D01*
X152282671Y-122870117D01*
X152296921Y-122889330D01*
X152309218Y-122909847D01*
X152319446Y-122931471D01*
X152327504Y-122953993D01*
X152333316Y-122977197D01*
X152336826Y-123000858D01*
X152338000Y-123024750D01*
X152338000Y-123512250D01*
X152336826Y-123536142D01*
X152333316Y-123559803D01*
X152327504Y-123583007D01*
X152319446Y-123605529D01*
X152309218Y-123627153D01*
X152296921Y-123647670D01*
X152282671Y-123666883D01*
X152266607Y-123684607D01*
X152248883Y-123700671D01*
X152229670Y-123714921D01*
X152209153Y-123727218D01*
X152187529Y-123737446D01*
X152165007Y-123745504D01*
X152141803Y-123751316D01*
X152118142Y-123754826D01*
X152094250Y-123756000D01*
X151181750Y-123756000D01*
X151157858Y-123754826D01*
X151134197Y-123751316D01*
X151110993Y-123745504D01*
X151088471Y-123737446D01*
X151066847Y-123727218D01*
X151046330Y-123714921D01*
X151027117Y-123700671D01*
X151009393Y-123684607D01*
X150993329Y-123666883D01*
X150979079Y-123647670D01*
X150966782Y-123627153D01*
X150956554Y-123605529D01*
X150948496Y-123583007D01*
X150942684Y-123559803D01*
X150939174Y-123536142D01*
X150938000Y-123512250D01*
X150938000Y-123024750D01*
X150939174Y-123000858D01*
X150942684Y-122977197D01*
X150948496Y-122953993D01*
X150956554Y-122931471D01*
X150966782Y-122909847D01*
X150979079Y-122889330D01*
X150993329Y-122870117D01*
X151009393Y-122852393D01*
X151027117Y-122836329D01*
X151046330Y-122822079D01*
X151066847Y-122809782D01*
X151088471Y-122799554D01*
X151110993Y-122791496D01*
X151134197Y-122785684D01*
X151157858Y-122782174D01*
X151181750Y-122781000D01*
X152094250Y-122781000D01*
X152118142Y-122782174D01*
X152118142Y-122782174D01*
G37*
D14*
X151638000Y-123268500D03*
D13*
G36*
X152118142Y-124657174D02*
G01*
X152141803Y-124660684D01*
X152165007Y-124666496D01*
X152187529Y-124674554D01*
X152209153Y-124684782D01*
X152229670Y-124697079D01*
X152248883Y-124711329D01*
X152266607Y-124727393D01*
X152282671Y-124745117D01*
X152296921Y-124764330D01*
X152309218Y-124784847D01*
X152319446Y-124806471D01*
X152327504Y-124828993D01*
X152333316Y-124852197D01*
X152336826Y-124875858D01*
X152338000Y-124899750D01*
X152338000Y-125387250D01*
X152336826Y-125411142D01*
X152333316Y-125434803D01*
X152327504Y-125458007D01*
X152319446Y-125480529D01*
X152309218Y-125502153D01*
X152296921Y-125522670D01*
X152282671Y-125541883D01*
X152266607Y-125559607D01*
X152248883Y-125575671D01*
X152229670Y-125589921D01*
X152209153Y-125602218D01*
X152187529Y-125612446D01*
X152165007Y-125620504D01*
X152141803Y-125626316D01*
X152118142Y-125629826D01*
X152094250Y-125631000D01*
X151181750Y-125631000D01*
X151157858Y-125629826D01*
X151134197Y-125626316D01*
X151110993Y-125620504D01*
X151088471Y-125612446D01*
X151066847Y-125602218D01*
X151046330Y-125589921D01*
X151027117Y-125575671D01*
X151009393Y-125559607D01*
X150993329Y-125541883D01*
X150979079Y-125522670D01*
X150966782Y-125502153D01*
X150956554Y-125480529D01*
X150948496Y-125458007D01*
X150942684Y-125434803D01*
X150939174Y-125411142D01*
X150938000Y-125387250D01*
X150938000Y-124899750D01*
X150939174Y-124875858D01*
X150942684Y-124852197D01*
X150948496Y-124828993D01*
X150956554Y-124806471D01*
X150966782Y-124784847D01*
X150979079Y-124764330D01*
X150993329Y-124745117D01*
X151009393Y-124727393D01*
X151027117Y-124711329D01*
X151046330Y-124697079D01*
X151066847Y-124684782D01*
X151088471Y-124674554D01*
X151110993Y-124666496D01*
X151134197Y-124660684D01*
X151157858Y-124657174D01*
X151181750Y-124656000D01*
X152094250Y-124656000D01*
X152118142Y-124657174D01*
X152118142Y-124657174D01*
G37*
D14*
X151638000Y-125143500D03*
D13*
G36*
X107377142Y-122237174D02*
G01*
X107400803Y-122240684D01*
X107424007Y-122246496D01*
X107446529Y-122254554D01*
X107468153Y-122264782D01*
X107488670Y-122277079D01*
X107507883Y-122291329D01*
X107525607Y-122307393D01*
X107541671Y-122325117D01*
X107555921Y-122344330D01*
X107568218Y-122364847D01*
X107578446Y-122386471D01*
X107586504Y-122408993D01*
X107592316Y-122432197D01*
X107595826Y-122455858D01*
X107597000Y-122479750D01*
X107597000Y-123392250D01*
X107595826Y-123416142D01*
X107592316Y-123439803D01*
X107586504Y-123463007D01*
X107578446Y-123485529D01*
X107568218Y-123507153D01*
X107555921Y-123527670D01*
X107541671Y-123546883D01*
X107525607Y-123564607D01*
X107507883Y-123580671D01*
X107488670Y-123594921D01*
X107468153Y-123607218D01*
X107446529Y-123617446D01*
X107424007Y-123625504D01*
X107400803Y-123631316D01*
X107377142Y-123634826D01*
X107353250Y-123636000D01*
X106865750Y-123636000D01*
X106841858Y-123634826D01*
X106818197Y-123631316D01*
X106794993Y-123625504D01*
X106772471Y-123617446D01*
X106750847Y-123607218D01*
X106730330Y-123594921D01*
X106711117Y-123580671D01*
X106693393Y-123564607D01*
X106677329Y-123546883D01*
X106663079Y-123527670D01*
X106650782Y-123507153D01*
X106640554Y-123485529D01*
X106632496Y-123463007D01*
X106626684Y-123439803D01*
X106623174Y-123416142D01*
X106622000Y-123392250D01*
X106622000Y-122479750D01*
X106623174Y-122455858D01*
X106626684Y-122432197D01*
X106632496Y-122408993D01*
X106640554Y-122386471D01*
X106650782Y-122364847D01*
X106663079Y-122344330D01*
X106677329Y-122325117D01*
X106693393Y-122307393D01*
X106711117Y-122291329D01*
X106730330Y-122277079D01*
X106750847Y-122264782D01*
X106772471Y-122254554D01*
X106794993Y-122246496D01*
X106818197Y-122240684D01*
X106841858Y-122237174D01*
X106865750Y-122236000D01*
X107353250Y-122236000D01*
X107377142Y-122237174D01*
X107377142Y-122237174D01*
G37*
D14*
X107109500Y-122936000D03*
D13*
G36*
X105502142Y-122237174D02*
G01*
X105525803Y-122240684D01*
X105549007Y-122246496D01*
X105571529Y-122254554D01*
X105593153Y-122264782D01*
X105613670Y-122277079D01*
X105632883Y-122291329D01*
X105650607Y-122307393D01*
X105666671Y-122325117D01*
X105680921Y-122344330D01*
X105693218Y-122364847D01*
X105703446Y-122386471D01*
X105711504Y-122408993D01*
X105717316Y-122432197D01*
X105720826Y-122455858D01*
X105722000Y-122479750D01*
X105722000Y-123392250D01*
X105720826Y-123416142D01*
X105717316Y-123439803D01*
X105711504Y-123463007D01*
X105703446Y-123485529D01*
X105693218Y-123507153D01*
X105680921Y-123527670D01*
X105666671Y-123546883D01*
X105650607Y-123564607D01*
X105632883Y-123580671D01*
X105613670Y-123594921D01*
X105593153Y-123607218D01*
X105571529Y-123617446D01*
X105549007Y-123625504D01*
X105525803Y-123631316D01*
X105502142Y-123634826D01*
X105478250Y-123636000D01*
X104990750Y-123636000D01*
X104966858Y-123634826D01*
X104943197Y-123631316D01*
X104919993Y-123625504D01*
X104897471Y-123617446D01*
X104875847Y-123607218D01*
X104855330Y-123594921D01*
X104836117Y-123580671D01*
X104818393Y-123564607D01*
X104802329Y-123546883D01*
X104788079Y-123527670D01*
X104775782Y-123507153D01*
X104765554Y-123485529D01*
X104757496Y-123463007D01*
X104751684Y-123439803D01*
X104748174Y-123416142D01*
X104747000Y-123392250D01*
X104747000Y-122479750D01*
X104748174Y-122455858D01*
X104751684Y-122432197D01*
X104757496Y-122408993D01*
X104765554Y-122386471D01*
X104775782Y-122364847D01*
X104788079Y-122344330D01*
X104802329Y-122325117D01*
X104818393Y-122307393D01*
X104836117Y-122291329D01*
X104855330Y-122277079D01*
X104875847Y-122264782D01*
X104897471Y-122254554D01*
X104919993Y-122246496D01*
X104943197Y-122240684D01*
X104966858Y-122237174D01*
X104990750Y-122236000D01*
X105478250Y-122236000D01*
X105502142Y-122237174D01*
X105502142Y-122237174D01*
G37*
D14*
X105234500Y-122936000D03*
D13*
G36*
X23255504Y-47760204D02*
G01*
X23279773Y-47763804D01*
X23303571Y-47769765D01*
X23326671Y-47778030D01*
X23348849Y-47788520D01*
X23369893Y-47801133D01*
X23389598Y-47815747D01*
X23407777Y-47832223D01*
X23424253Y-47850402D01*
X23438867Y-47870107D01*
X23451480Y-47891151D01*
X23461970Y-47913329D01*
X23470235Y-47936429D01*
X23476196Y-47960227D01*
X23479796Y-47984496D01*
X23481000Y-48009000D01*
X23481000Y-48759000D01*
X23479796Y-48783504D01*
X23476196Y-48807773D01*
X23470235Y-48831571D01*
X23461970Y-48854671D01*
X23451480Y-48876849D01*
X23438867Y-48897893D01*
X23424253Y-48917598D01*
X23407777Y-48935777D01*
X23389598Y-48952253D01*
X23369893Y-48966867D01*
X23348849Y-48979480D01*
X23326671Y-48989970D01*
X23303571Y-48998235D01*
X23279773Y-49004196D01*
X23255504Y-49007796D01*
X23231000Y-49009000D01*
X21981000Y-49009000D01*
X21956496Y-49007796D01*
X21932227Y-49004196D01*
X21908429Y-48998235D01*
X21885329Y-48989970D01*
X21863151Y-48979480D01*
X21842107Y-48966867D01*
X21822402Y-48952253D01*
X21804223Y-48935777D01*
X21787747Y-48917598D01*
X21773133Y-48897893D01*
X21760520Y-48876849D01*
X21750030Y-48854671D01*
X21741765Y-48831571D01*
X21735804Y-48807773D01*
X21732204Y-48783504D01*
X21731000Y-48759000D01*
X21731000Y-48009000D01*
X21732204Y-47984496D01*
X21735804Y-47960227D01*
X21741765Y-47936429D01*
X21750030Y-47913329D01*
X21760520Y-47891151D01*
X21773133Y-47870107D01*
X21787747Y-47850402D01*
X21804223Y-47832223D01*
X21822402Y-47815747D01*
X21842107Y-47801133D01*
X21863151Y-47788520D01*
X21885329Y-47778030D01*
X21908429Y-47769765D01*
X21932227Y-47763804D01*
X21956496Y-47760204D01*
X21981000Y-47759000D01*
X23231000Y-47759000D01*
X23255504Y-47760204D01*
X23255504Y-47760204D01*
G37*
D15*
X22606000Y-48384000D03*
D13*
G36*
X23255504Y-50560204D02*
G01*
X23279773Y-50563804D01*
X23303571Y-50569765D01*
X23326671Y-50578030D01*
X23348849Y-50588520D01*
X23369893Y-50601133D01*
X23389598Y-50615747D01*
X23407777Y-50632223D01*
X23424253Y-50650402D01*
X23438867Y-50670107D01*
X23451480Y-50691151D01*
X23461970Y-50713329D01*
X23470235Y-50736429D01*
X23476196Y-50760227D01*
X23479796Y-50784496D01*
X23481000Y-50809000D01*
X23481000Y-51559000D01*
X23479796Y-51583504D01*
X23476196Y-51607773D01*
X23470235Y-51631571D01*
X23461970Y-51654671D01*
X23451480Y-51676849D01*
X23438867Y-51697893D01*
X23424253Y-51717598D01*
X23407777Y-51735777D01*
X23389598Y-51752253D01*
X23369893Y-51766867D01*
X23348849Y-51779480D01*
X23326671Y-51789970D01*
X23303571Y-51798235D01*
X23279773Y-51804196D01*
X23255504Y-51807796D01*
X23231000Y-51809000D01*
X21981000Y-51809000D01*
X21956496Y-51807796D01*
X21932227Y-51804196D01*
X21908429Y-51798235D01*
X21885329Y-51789970D01*
X21863151Y-51779480D01*
X21842107Y-51766867D01*
X21822402Y-51752253D01*
X21804223Y-51735777D01*
X21787747Y-51717598D01*
X21773133Y-51697893D01*
X21760520Y-51676849D01*
X21750030Y-51654671D01*
X21741765Y-51631571D01*
X21735804Y-51607773D01*
X21732204Y-51583504D01*
X21731000Y-51559000D01*
X21731000Y-50809000D01*
X21732204Y-50784496D01*
X21735804Y-50760227D01*
X21741765Y-50736429D01*
X21750030Y-50713329D01*
X21760520Y-50691151D01*
X21773133Y-50670107D01*
X21787747Y-50650402D01*
X21804223Y-50632223D01*
X21822402Y-50615747D01*
X21842107Y-50601133D01*
X21863151Y-50588520D01*
X21885329Y-50578030D01*
X21908429Y-50569765D01*
X21932227Y-50563804D01*
X21956496Y-50560204D01*
X21981000Y-50559000D01*
X23231000Y-50559000D01*
X23255504Y-50560204D01*
X23255504Y-50560204D01*
G37*
D15*
X22606000Y-51184000D03*
D16*
X27448000Y-48502000D03*
D17*
X29448000Y-48702000D03*
X27448000Y-46802000D03*
X29448000Y-46802000D03*
D13*
G36*
X26605142Y-41369924D02*
G01*
X26628803Y-41373434D01*
X26652007Y-41379246D01*
X26674529Y-41387304D01*
X26696153Y-41397532D01*
X26716670Y-41409829D01*
X26735883Y-41424079D01*
X26753607Y-41440143D01*
X26769671Y-41457867D01*
X26783921Y-41477080D01*
X26796218Y-41497597D01*
X26806446Y-41519221D01*
X26814504Y-41541743D01*
X26820316Y-41564947D01*
X26823826Y-41588608D01*
X26825000Y-41612500D01*
X26825000Y-42525000D01*
X26823826Y-42548892D01*
X26820316Y-42572553D01*
X26814504Y-42595757D01*
X26806446Y-42618279D01*
X26796218Y-42639903D01*
X26783921Y-42660420D01*
X26769671Y-42679633D01*
X26753607Y-42697357D01*
X26735883Y-42713421D01*
X26716670Y-42727671D01*
X26696153Y-42739968D01*
X26674529Y-42750196D01*
X26652007Y-42758254D01*
X26628803Y-42764066D01*
X26605142Y-42767576D01*
X26581250Y-42768750D01*
X26093750Y-42768750D01*
X26069858Y-42767576D01*
X26046197Y-42764066D01*
X26022993Y-42758254D01*
X26000471Y-42750196D01*
X25978847Y-42739968D01*
X25958330Y-42727671D01*
X25939117Y-42713421D01*
X25921393Y-42697357D01*
X25905329Y-42679633D01*
X25891079Y-42660420D01*
X25878782Y-42639903D01*
X25868554Y-42618279D01*
X25860496Y-42595757D01*
X25854684Y-42572553D01*
X25851174Y-42548892D01*
X25850000Y-42525000D01*
X25850000Y-41612500D01*
X25851174Y-41588608D01*
X25854684Y-41564947D01*
X25860496Y-41541743D01*
X25868554Y-41519221D01*
X25878782Y-41497597D01*
X25891079Y-41477080D01*
X25905329Y-41457867D01*
X25921393Y-41440143D01*
X25939117Y-41424079D01*
X25958330Y-41409829D01*
X25978847Y-41397532D01*
X26000471Y-41387304D01*
X26022993Y-41379246D01*
X26046197Y-41373434D01*
X26069858Y-41369924D01*
X26093750Y-41368750D01*
X26581250Y-41368750D01*
X26605142Y-41369924D01*
X26605142Y-41369924D01*
G37*
D14*
X26337500Y-42068750D03*
D13*
G36*
X24730142Y-41369924D02*
G01*
X24753803Y-41373434D01*
X24777007Y-41379246D01*
X24799529Y-41387304D01*
X24821153Y-41397532D01*
X24841670Y-41409829D01*
X24860883Y-41424079D01*
X24878607Y-41440143D01*
X24894671Y-41457867D01*
X24908921Y-41477080D01*
X24921218Y-41497597D01*
X24931446Y-41519221D01*
X24939504Y-41541743D01*
X24945316Y-41564947D01*
X24948826Y-41588608D01*
X24950000Y-41612500D01*
X24950000Y-42525000D01*
X24948826Y-42548892D01*
X24945316Y-42572553D01*
X24939504Y-42595757D01*
X24931446Y-42618279D01*
X24921218Y-42639903D01*
X24908921Y-42660420D01*
X24894671Y-42679633D01*
X24878607Y-42697357D01*
X24860883Y-42713421D01*
X24841670Y-42727671D01*
X24821153Y-42739968D01*
X24799529Y-42750196D01*
X24777007Y-42758254D01*
X24753803Y-42764066D01*
X24730142Y-42767576D01*
X24706250Y-42768750D01*
X24218750Y-42768750D01*
X24194858Y-42767576D01*
X24171197Y-42764066D01*
X24147993Y-42758254D01*
X24125471Y-42750196D01*
X24103847Y-42739968D01*
X24083330Y-42727671D01*
X24064117Y-42713421D01*
X24046393Y-42697357D01*
X24030329Y-42679633D01*
X24016079Y-42660420D01*
X24003782Y-42639903D01*
X23993554Y-42618279D01*
X23985496Y-42595757D01*
X23979684Y-42572553D01*
X23976174Y-42548892D01*
X23975000Y-42525000D01*
X23975000Y-41612500D01*
X23976174Y-41588608D01*
X23979684Y-41564947D01*
X23985496Y-41541743D01*
X23993554Y-41519221D01*
X24003782Y-41497597D01*
X24016079Y-41477080D01*
X24030329Y-41457867D01*
X24046393Y-41440143D01*
X24064117Y-41424079D01*
X24083330Y-41409829D01*
X24103847Y-41397532D01*
X24125471Y-41387304D01*
X24147993Y-41379246D01*
X24171197Y-41373434D01*
X24194858Y-41369924D01*
X24218750Y-41368750D01*
X24706250Y-41368750D01*
X24730142Y-41369924D01*
X24730142Y-41369924D01*
G37*
D14*
X24462500Y-42068750D03*
D13*
G36*
X30286392Y-41369924D02*
G01*
X30310053Y-41373434D01*
X30333257Y-41379246D01*
X30355779Y-41387304D01*
X30377403Y-41397532D01*
X30397920Y-41409829D01*
X30417133Y-41424079D01*
X30434857Y-41440143D01*
X30450921Y-41457867D01*
X30465171Y-41477080D01*
X30477468Y-41497597D01*
X30487696Y-41519221D01*
X30495754Y-41541743D01*
X30501566Y-41564947D01*
X30505076Y-41588608D01*
X30506250Y-41612500D01*
X30506250Y-42525000D01*
X30505076Y-42548892D01*
X30501566Y-42572553D01*
X30495754Y-42595757D01*
X30487696Y-42618279D01*
X30477468Y-42639903D01*
X30465171Y-42660420D01*
X30450921Y-42679633D01*
X30434857Y-42697357D01*
X30417133Y-42713421D01*
X30397920Y-42727671D01*
X30377403Y-42739968D01*
X30355779Y-42750196D01*
X30333257Y-42758254D01*
X30310053Y-42764066D01*
X30286392Y-42767576D01*
X30262500Y-42768750D01*
X29775000Y-42768750D01*
X29751108Y-42767576D01*
X29727447Y-42764066D01*
X29704243Y-42758254D01*
X29681721Y-42750196D01*
X29660097Y-42739968D01*
X29639580Y-42727671D01*
X29620367Y-42713421D01*
X29602643Y-42697357D01*
X29586579Y-42679633D01*
X29572329Y-42660420D01*
X29560032Y-42639903D01*
X29549804Y-42618279D01*
X29541746Y-42595757D01*
X29535934Y-42572553D01*
X29532424Y-42548892D01*
X29531250Y-42525000D01*
X29531250Y-41612500D01*
X29532424Y-41588608D01*
X29535934Y-41564947D01*
X29541746Y-41541743D01*
X29549804Y-41519221D01*
X29560032Y-41497597D01*
X29572329Y-41477080D01*
X29586579Y-41457867D01*
X29602643Y-41440143D01*
X29620367Y-41424079D01*
X29639580Y-41409829D01*
X29660097Y-41397532D01*
X29681721Y-41387304D01*
X29704243Y-41379246D01*
X29727447Y-41373434D01*
X29751108Y-41369924D01*
X29775000Y-41368750D01*
X30262500Y-41368750D01*
X30286392Y-41369924D01*
X30286392Y-41369924D01*
G37*
D14*
X30018750Y-42068750D03*
D13*
G36*
X32161392Y-41369924D02*
G01*
X32185053Y-41373434D01*
X32208257Y-41379246D01*
X32230779Y-41387304D01*
X32252403Y-41397532D01*
X32272920Y-41409829D01*
X32292133Y-41424079D01*
X32309857Y-41440143D01*
X32325921Y-41457867D01*
X32340171Y-41477080D01*
X32352468Y-41497597D01*
X32362696Y-41519221D01*
X32370754Y-41541743D01*
X32376566Y-41564947D01*
X32380076Y-41588608D01*
X32381250Y-41612500D01*
X32381250Y-42525000D01*
X32380076Y-42548892D01*
X32376566Y-42572553D01*
X32370754Y-42595757D01*
X32362696Y-42618279D01*
X32352468Y-42639903D01*
X32340171Y-42660420D01*
X32325921Y-42679633D01*
X32309857Y-42697357D01*
X32292133Y-42713421D01*
X32272920Y-42727671D01*
X32252403Y-42739968D01*
X32230779Y-42750196D01*
X32208257Y-42758254D01*
X32185053Y-42764066D01*
X32161392Y-42767576D01*
X32137500Y-42768750D01*
X31650000Y-42768750D01*
X31626108Y-42767576D01*
X31602447Y-42764066D01*
X31579243Y-42758254D01*
X31556721Y-42750196D01*
X31535097Y-42739968D01*
X31514580Y-42727671D01*
X31495367Y-42713421D01*
X31477643Y-42697357D01*
X31461579Y-42679633D01*
X31447329Y-42660420D01*
X31435032Y-42639903D01*
X31424804Y-42618279D01*
X31416746Y-42595757D01*
X31410934Y-42572553D01*
X31407424Y-42548892D01*
X31406250Y-42525000D01*
X31406250Y-41612500D01*
X31407424Y-41588608D01*
X31410934Y-41564947D01*
X31416746Y-41541743D01*
X31424804Y-41519221D01*
X31435032Y-41497597D01*
X31447329Y-41477080D01*
X31461579Y-41457867D01*
X31477643Y-41440143D01*
X31495367Y-41424079D01*
X31514580Y-41409829D01*
X31535097Y-41397532D01*
X31556721Y-41387304D01*
X31579243Y-41379246D01*
X31602447Y-41373434D01*
X31626108Y-41369924D01*
X31650000Y-41368750D01*
X32137500Y-41368750D01*
X32161392Y-41369924D01*
X32161392Y-41369924D01*
G37*
D14*
X31893750Y-42068750D03*
D18*
X322262500Y-63437500D03*
X322262500Y-66737500D03*
X288925000Y-63437500D03*
X288925000Y-66737500D03*
X265112500Y-63437500D03*
X265112500Y-66737500D03*
X246062500Y-63437500D03*
X246062500Y-66737500D03*
X227012500Y-63437500D03*
X227012500Y-66737500D03*
X207962500Y-63437500D03*
X207962500Y-66737500D03*
X188912500Y-63437500D03*
X188912500Y-66737500D03*
X169862500Y-63437500D03*
X169862500Y-66737500D03*
X150812500Y-63437500D03*
X150812500Y-66737500D03*
X131762500Y-63437500D03*
X131762500Y-66737500D03*
X112712500Y-63437500D03*
X112712500Y-66737500D03*
X93662500Y-63437500D03*
X93662500Y-66737500D03*
X74612500Y-63437500D03*
X74612500Y-66737500D03*
X55562500Y-63437500D03*
X55562500Y-66737500D03*
X31750000Y-63437500D03*
X31750000Y-66737500D03*
X322326000Y-44324000D03*
X322326000Y-47624000D03*
X284226000Y-44324000D03*
X284226000Y-47624000D03*
X255524000Y-44324000D03*
X255524000Y-47624000D03*
X236474000Y-44324000D03*
X236474000Y-47624000D03*
X217424000Y-44324000D03*
X217424000Y-47624000D03*
X198374000Y-44324000D03*
X198374000Y-47624000D03*
X179324000Y-44324000D03*
X179324000Y-47624000D03*
X160274000Y-44070000D03*
X160274000Y-47370000D03*
X141224000Y-44070000D03*
X141224000Y-47370000D03*
X122428000Y-42800000D03*
X122428000Y-46100000D03*
X103378000Y-44324000D03*
X103378000Y-47624000D03*
X84328000Y-44324000D03*
X84328000Y-47624000D03*
X65024000Y-44324000D03*
X65024000Y-47624000D03*
X45974000Y-44070000D03*
X45974000Y-47370000D03*
X11176000Y-42800000D03*
X11176000Y-46100000D03*
D13*
G36*
X35207642Y-35432674D02*
G01*
X35231303Y-35436184D01*
X35254507Y-35441996D01*
X35277029Y-35450054D01*
X35298653Y-35460282D01*
X35319170Y-35472579D01*
X35338383Y-35486829D01*
X35356107Y-35502893D01*
X35372171Y-35520617D01*
X35386421Y-35539830D01*
X35398718Y-35560347D01*
X35408946Y-35581971D01*
X35417004Y-35604493D01*
X35422816Y-35627697D01*
X35426326Y-35651358D01*
X35427500Y-35675250D01*
X35427500Y-36587750D01*
X35426326Y-36611642D01*
X35422816Y-36635303D01*
X35417004Y-36658507D01*
X35408946Y-36681029D01*
X35398718Y-36702653D01*
X35386421Y-36723170D01*
X35372171Y-36742383D01*
X35356107Y-36760107D01*
X35338383Y-36776171D01*
X35319170Y-36790421D01*
X35298653Y-36802718D01*
X35277029Y-36812946D01*
X35254507Y-36821004D01*
X35231303Y-36826816D01*
X35207642Y-36830326D01*
X35183750Y-36831500D01*
X34696250Y-36831500D01*
X34672358Y-36830326D01*
X34648697Y-36826816D01*
X34625493Y-36821004D01*
X34602971Y-36812946D01*
X34581347Y-36802718D01*
X34560830Y-36790421D01*
X34541617Y-36776171D01*
X34523893Y-36760107D01*
X34507829Y-36742383D01*
X34493579Y-36723170D01*
X34481282Y-36702653D01*
X34471054Y-36681029D01*
X34462996Y-36658507D01*
X34457184Y-36635303D01*
X34453674Y-36611642D01*
X34452500Y-36587750D01*
X34452500Y-35675250D01*
X34453674Y-35651358D01*
X34457184Y-35627697D01*
X34462996Y-35604493D01*
X34471054Y-35581971D01*
X34481282Y-35560347D01*
X34493579Y-35539830D01*
X34507829Y-35520617D01*
X34523893Y-35502893D01*
X34541617Y-35486829D01*
X34560830Y-35472579D01*
X34581347Y-35460282D01*
X34602971Y-35450054D01*
X34625493Y-35441996D01*
X34648697Y-35436184D01*
X34672358Y-35432674D01*
X34696250Y-35431500D01*
X35183750Y-35431500D01*
X35207642Y-35432674D01*
X35207642Y-35432674D01*
G37*
D14*
X34940000Y-36131500D03*
D13*
G36*
X37082642Y-35432674D02*
G01*
X37106303Y-35436184D01*
X37129507Y-35441996D01*
X37152029Y-35450054D01*
X37173653Y-35460282D01*
X37194170Y-35472579D01*
X37213383Y-35486829D01*
X37231107Y-35502893D01*
X37247171Y-35520617D01*
X37261421Y-35539830D01*
X37273718Y-35560347D01*
X37283946Y-35581971D01*
X37292004Y-35604493D01*
X37297816Y-35627697D01*
X37301326Y-35651358D01*
X37302500Y-35675250D01*
X37302500Y-36587750D01*
X37301326Y-36611642D01*
X37297816Y-36635303D01*
X37292004Y-36658507D01*
X37283946Y-36681029D01*
X37273718Y-36702653D01*
X37261421Y-36723170D01*
X37247171Y-36742383D01*
X37231107Y-36760107D01*
X37213383Y-36776171D01*
X37194170Y-36790421D01*
X37173653Y-36802718D01*
X37152029Y-36812946D01*
X37129507Y-36821004D01*
X37106303Y-36826816D01*
X37082642Y-36830326D01*
X37058750Y-36831500D01*
X36571250Y-36831500D01*
X36547358Y-36830326D01*
X36523697Y-36826816D01*
X36500493Y-36821004D01*
X36477971Y-36812946D01*
X36456347Y-36802718D01*
X36435830Y-36790421D01*
X36416617Y-36776171D01*
X36398893Y-36760107D01*
X36382829Y-36742383D01*
X36368579Y-36723170D01*
X36356282Y-36702653D01*
X36346054Y-36681029D01*
X36337996Y-36658507D01*
X36332184Y-36635303D01*
X36328674Y-36611642D01*
X36327500Y-36587750D01*
X36327500Y-35675250D01*
X36328674Y-35651358D01*
X36332184Y-35627697D01*
X36337996Y-35604493D01*
X36346054Y-35581971D01*
X36356282Y-35560347D01*
X36368579Y-35539830D01*
X36382829Y-35520617D01*
X36398893Y-35502893D01*
X36416617Y-35486829D01*
X36435830Y-35472579D01*
X36456347Y-35460282D01*
X36477971Y-35450054D01*
X36500493Y-35441996D01*
X36523697Y-35436184D01*
X36547358Y-35432674D01*
X36571250Y-35431500D01*
X37058750Y-35431500D01*
X37082642Y-35432674D01*
X37082642Y-35432674D01*
G37*
D14*
X36815000Y-36131500D03*
D19*
X155336000Y-116142000D03*
X155336000Y-116942000D03*
X155336000Y-117742000D03*
X155336000Y-118542000D03*
X155336000Y-119342000D03*
X155336000Y-120142000D03*
X155336000Y-120942000D03*
X155336000Y-121742000D03*
X155336000Y-122542000D03*
X155336000Y-123342000D03*
X155336000Y-124142000D03*
D20*
X157036000Y-125842000D03*
X157836000Y-125842000D03*
X158636000Y-125842000D03*
X159436000Y-125842000D03*
X160236000Y-125842000D03*
X161036000Y-125842000D03*
X161836000Y-125842000D03*
X162636000Y-125842000D03*
X163436000Y-125842000D03*
X164236000Y-125842000D03*
X165036000Y-125842000D03*
D19*
X166736000Y-124142000D03*
X166736000Y-123342000D03*
X166736000Y-122542000D03*
X166736000Y-121742000D03*
X166736000Y-120942000D03*
X166736000Y-120142000D03*
X166736000Y-119342000D03*
X166736000Y-118542000D03*
X166736000Y-117742000D03*
X166736000Y-116942000D03*
X166736000Y-116142000D03*
D20*
X165036000Y-114442000D03*
X164236000Y-114442000D03*
X163436000Y-114442000D03*
X162636000Y-114442000D03*
X161836000Y-114442000D03*
X161036000Y-114442000D03*
X160236000Y-114442000D03*
X159436000Y-114442000D03*
X158636000Y-114442000D03*
X157836000Y-114442000D03*
X157036000Y-114442000D03*
D21*
X95960000Y-122754000D03*
X102160000Y-122754000D03*
X95960000Y-119054000D03*
X102160000Y-119054000D03*
D18*
X322262500Y-120587500D03*
X322262500Y-123887500D03*
X303212500Y-120587500D03*
X303212500Y-123887500D03*
X284162500Y-120587500D03*
X284162500Y-123887500D03*
X262731250Y-120587500D03*
X262731250Y-123887500D03*
X238918750Y-120587500D03*
X238918750Y-123887500D03*
X215106250Y-120587500D03*
X215106250Y-123887500D03*
X143668750Y-120587500D03*
X143668750Y-123887500D03*
X72231250Y-120587500D03*
X72231250Y-123887500D03*
X50800000Y-120587500D03*
X50800000Y-123887500D03*
X29368750Y-123887500D03*
X29368750Y-120587500D03*
X303212500Y-101537500D03*
X303212500Y-104837500D03*
X272256250Y-101537500D03*
X272256250Y-104837500D03*
X241300000Y-104837500D03*
X241300000Y-101537500D03*
X222250000Y-104837500D03*
X222250000Y-101537500D03*
X203200000Y-104837500D03*
X203200000Y-101537500D03*
X184150000Y-101537500D03*
X184150000Y-104837500D03*
X165100000Y-104837500D03*
X165100000Y-101537500D03*
X130175000Y-104837500D03*
X130175000Y-101537500D03*
X127000000Y-104837500D03*
X127000000Y-101537500D03*
X107950000Y-104837500D03*
X107950000Y-101537500D03*
X88900000Y-104837500D03*
X88900000Y-101537500D03*
X69850000Y-104837500D03*
X69850000Y-101537500D03*
X38893750Y-101537500D03*
X38893750Y-104837500D03*
X281781250Y-82487500D03*
X281781250Y-85787500D03*
X250825000Y-82487500D03*
X250825000Y-85787500D03*
X231775000Y-82487500D03*
X231775000Y-85787500D03*
X212725000Y-82487500D03*
X212725000Y-85787500D03*
X193675000Y-82487500D03*
X193675000Y-85787500D03*
X174625000Y-82487500D03*
X174625000Y-85787500D03*
X155575000Y-82487500D03*
X155575000Y-85787500D03*
X136525000Y-82487500D03*
X136525000Y-85787500D03*
X117475000Y-82487500D03*
X117475000Y-85787500D03*
X98425000Y-82487500D03*
X98425000Y-85787500D03*
X79375000Y-82487500D03*
X79375000Y-85787500D03*
X60325000Y-82487500D03*
X60325000Y-85787500D03*
X34131250Y-82487500D03*
X34131250Y-85787500D03*
M02*
