M48
; DRILL file {KiCad (5.1.4)-1} date 28.09.2021 20:34:16
; FORMAT={-:-/ absolute / metric / decimal}
; #@! TF.CreationDate,2021-09-28T20:34:16+02:00
; #@! TF.GenerationSoftware,Kicad,Pcbnew,(5.1.4)-1
; #@! TF.FileFunction,Plated,1,2,PTH
FMAT,2
METRIC
T1C0.400
T2C0.600
T3C1.000
T4C1.470
T5C2.200
%
G90
G05
T1
X18.796Y-52.832
X25.908Y-45.72
X26.162Y-51.308
X26.416Y-39.878
X30.734Y-40.386
X30.988Y-44.958
X32.512Y-48.006
X33.528Y-50.8
X35.052Y-65.786
X35.052Y-67.818
X36.068Y-65.786
X36.068Y-67.818
X82.804Y-74.168
X83.82Y-74.422
X88.138Y-92.98
X88.138Y-93.98
X106.426Y-117.856
X106.68Y-120.396
X106.934Y-124.46
X109.728Y-103.632
X109.728Y-113.538
X110.744Y-103.632
X113.03Y-118.618
X114.554Y-124.968
X118.618Y-115.316
X119.38Y-125.984
X122.428Y-49.276
X129.032Y-109.474
X129.032Y-110.49
X129.54Y-114.046
X130.556Y-112.522
X130.81Y-115.57
X131.064Y-55.118
X132.842Y-112.522
X133.858Y-113.538
X135.128Y-71.12
X136.398Y-65.532
X137.16Y-108.458
X137.668Y-88.138
X137.922Y-126.746
X138.43Y-109.474
X140.208Y-103.886
X141.296Y-130.426
X141.478Y-107.696
X141.478Y-111.76
X141.732Y-112.522
X141.732Y-126.746
X142.122Y-129.862
X142.748Y-105.664
X142.99Y-129.366
X143.764Y-103.124
X143.764Y-106.68
X143.769Y-113.279
X143.948Y-129.079
X144.272Y-126.746
X144.78Y-106.68
X144.78Y-125.222
X144.78Y-128.524
X145.78Y-106.68
X146.558Y-104.902
X147.32Y-102.886
X147.32Y-103.886
X147.574Y-122.682
X148.308Y-123.444
X149.098Y-126.238
X149.994Y-118.738
X150.047Y-126.554
X150.114Y-115.062
X150.622Y-104.902
X151.892Y-68.58
X151.892Y-109.982
X153.416Y-114.046
X155.702Y-88.392
X157.226Y-68.58
X160.02Y-88.392
X161.29Y-116.84
X162.052Y-111.76
X165.608Y-106.934
X166.37Y-109.474
X166.915Y-108.636
X167.64Y-110.49
X169.164Y-113.03
X169.164Y-121.412
X169.889Y-114.3
X170.688Y-111.76
X171.704Y-119.126
X173.482Y-128.016
X174.752Y-128.778
X175.752Y-128.778
X176.784Y-129.032
X178.054Y-130.556
X179.324Y-115.316
X181.356Y-120.142
X184.404Y-120.396
X205.486Y-114.3
X209.296Y-112.014
X247.142Y-115.57
T3
X116.078Y-117.348
X116.078Y-119.888
X116.078Y-122.428
X118.618Y-117.348
X118.618Y-119.888
X118.618Y-122.428
T4
X17.621Y-118.11
X23.971Y-115.57
X224.79Y-41.91
X231.14Y-39.37
X310.515Y-41.91
X316.865Y-39.37
X139.065Y-60.96
X145.415Y-58.42
X148.59Y-41.91
X154.94Y-39.37
X250.984Y-118.11
X257.334Y-115.57
X100.965Y-60.96
X107.315Y-58.42
X200.977Y-80.01
X207.327Y-77.47
X22.384Y-80.01
X28.734Y-77.47
X143.827Y-80.01
X150.177Y-77.47
X153.352Y-99.06
X159.702Y-96.52
X310.515Y-60.96
X316.865Y-58.42
X115.252Y-99.06
X121.602Y-96.52
X34.29Y-41.91
X40.64Y-39.37
X234.315Y-60.96
X240.665Y-58.42
X210.502Y-99.06
X216.852Y-96.52
X203.359Y-118.11
X209.709Y-115.57
X48.578Y-80.01
X54.927Y-77.47
X191.452Y-99.06
X197.802Y-96.52
X220.028Y-80.01
X226.377Y-77.47
X131.921Y-118.11
X138.271Y-115.57
X27.146Y-99.06
X33.496Y-96.52
X53.34Y-41.91
X59.69Y-39.37
X272.415Y-41.91
X278.765Y-39.37
X20.002Y-60.96
X26.352Y-58.42
X110.49Y-41.91
X116.84Y-39.37
X162.877Y-80.01
X169.227Y-77.47
X15.24Y-41.91
X21.59Y-39.37
X243.84Y-41.91
X250.19Y-39.37
X124.777Y-80.01
X131.127Y-77.47
X310.515Y-118.11
X316.865Y-115.57
X227.171Y-118.11
X233.521Y-115.57
X167.64Y-41.91
X173.99Y-39.37
X86.677Y-80.01
X93.027Y-77.47
X272.415Y-118.11
X278.765Y-115.57
X39.052Y-118.11
X45.402Y-115.57
X105.727Y-80.01
X112.078Y-77.47
X239.077Y-80.01
X245.427Y-77.47
X215.265Y-60.96
X221.615Y-58.42
X172.403Y-99.06
X178.752Y-96.52
X158.115Y-60.96
X164.465Y-58.42
X77.153Y-99.06
X83.502Y-96.52
X186.69Y-41.91
X193.04Y-39.37
X96.203Y-99.06
X102.552Y-96.52
X60.484Y-118.11
X66.834Y-115.57
X91.44Y-41.91
X97.79Y-39.37
X277.178Y-60.96
X283.527Y-58.42
X62.865Y-60.96
X69.215Y-58.42
X72.39Y-41.91
X78.74Y-39.37
X196.215Y-60.96
X202.565Y-58.42
X181.927Y-80.01
X188.278Y-77.47
X81.915Y-60.96
X88.265Y-58.42
X67.627Y-80.01
X73.977Y-77.47
X134.302Y-99.06
X140.653Y-96.52
X43.815Y-60.96
X50.165Y-58.42
X253.365Y-60.96
X259.715Y-58.42
X291.465Y-99.06
X297.815Y-96.52
X129.54Y-41.91
X135.89Y-39.37
X177.165Y-60.96
X183.515Y-58.42
X291.465Y-118.11
X297.815Y-115.57
X120.015Y-60.96
X126.365Y-58.42
X58.102Y-99.06
X64.453Y-96.52
X270.034Y-80.01
X276.384Y-77.47
X205.74Y-41.91
X212.09Y-39.37
X229.552Y-99.06
X235.903Y-96.52
X260.509Y-99.06
X266.859Y-96.52
T5
X317.5Y-127.0
X261.938Y-43.656
X48.419Y-100.012
X14.287Y-69.056
X143.669Y-71.438
T2
G00X24.255Y-31.669
M15
G01X24.255Y-32.269
M16
G05
G00X24.255Y-35.599
M15
G01X24.255Y-36.699
M16
G05
G00X32.895Y-31.669
M15
G01X32.895Y-32.269
M16
G05
G00X32.895Y-35.599
M15
G01X32.895Y-36.699
M16
G05
T0
M30
