G04 #@! TF.GenerationSoftware,KiCad,Pcbnew,(5.1.4)-1*
G04 #@! TF.CreationDate,2021-09-28T20:31:06+02:00*
G04 #@! TF.ProjectId,CrowMiniMk2,43726f77-4d69-46e6-994d-6b322e6b6963,rev?*
G04 #@! TF.SameCoordinates,Original*
G04 #@! TF.FileFunction,Legend,Bot*
G04 #@! TF.FilePolarity,Positive*
%FSLAX46Y46*%
G04 Gerber Fmt 4.6, Leading zero omitted, Abs format (unit mm)*
G04 Created by KiCad (PCBNEW (5.1.4)-1) date 2021-09-28 20:31:06*
%MOMM*%
%LPD*%
G04 APERTURE LIST*
%ADD10C,0.600000*%
%ADD11C,0.300000*%
%ADD12C,0.150000*%
%ADD13C,0.120000*%
%ADD14C,0.250000*%
G04 APERTURE END LIST*
D10*
X319816666Y-85566071D02*
X320007142Y-85756547D01*
X320578571Y-85947023D01*
X320959523Y-85947023D01*
X321530952Y-85756547D01*
X321911904Y-85375595D01*
X322102380Y-84994642D01*
X322292857Y-84232738D01*
X322292857Y-83661309D01*
X322102380Y-82899404D01*
X321911904Y-82518452D01*
X321530952Y-82137500D01*
X320959523Y-81947023D01*
X320578571Y-81947023D01*
X320007142Y-82137500D01*
X319816666Y-82327976D01*
X315816666Y-85947023D02*
X317150000Y-84042261D01*
X318102380Y-85947023D02*
X318102380Y-81947023D01*
X316578571Y-81947023D01*
X316197619Y-82137500D01*
X316007142Y-82327976D01*
X315816666Y-82708928D01*
X315816666Y-83280357D01*
X316007142Y-83661309D01*
X316197619Y-83851785D01*
X316578571Y-84042261D01*
X318102380Y-84042261D01*
X313530952Y-85947023D02*
X313911904Y-85756547D01*
X314102380Y-85566071D01*
X314292857Y-85185119D01*
X314292857Y-84042261D01*
X314102380Y-83661309D01*
X313911904Y-83470833D01*
X313530952Y-83280357D01*
X312959523Y-83280357D01*
X312578571Y-83470833D01*
X312388095Y-83661309D01*
X312197619Y-84042261D01*
X312197619Y-85185119D01*
X312388095Y-85566071D01*
X312578571Y-85756547D01*
X312959523Y-85947023D01*
X313530952Y-85947023D01*
X310864285Y-81947023D02*
X309911904Y-85947023D01*
X309150000Y-83089880D01*
X308388095Y-85947023D01*
X307435714Y-81947023D01*
X304197619Y-81947023D02*
X304959523Y-81947023D01*
X305340476Y-82137500D01*
X305530952Y-82327976D01*
X305911904Y-82899404D01*
X306102380Y-83661309D01*
X306102380Y-85185119D01*
X305911904Y-85566071D01*
X305721428Y-85756547D01*
X305340476Y-85947023D01*
X304578571Y-85947023D01*
X304197619Y-85756547D01*
X304007142Y-85566071D01*
X303816666Y-85185119D01*
X303816666Y-84232738D01*
X304007142Y-83851785D01*
X304197619Y-83661309D01*
X304578571Y-83470833D01*
X305340476Y-83470833D01*
X305721428Y-83661309D01*
X305911904Y-83851785D01*
X306102380Y-84232738D01*
X300388095Y-81947023D02*
X301150000Y-81947023D01*
X301530952Y-82137500D01*
X301721428Y-82327976D01*
X302102380Y-82899404D01*
X302292857Y-83661309D01*
X302292857Y-85185119D01*
X302102380Y-85566071D01*
X301911904Y-85756547D01*
X301530952Y-85947023D01*
X300769047Y-85947023D01*
X300388095Y-85756547D01*
X300197619Y-85566071D01*
X300007142Y-85185119D01*
X300007142Y-84232738D01*
X300197619Y-83851785D01*
X300388095Y-83661309D01*
X300769047Y-83470833D01*
X301530952Y-83470833D01*
X301911904Y-83661309D01*
X302102380Y-83851785D01*
X302292857Y-84232738D01*
D11*
X107314464Y-127757964D02*
X107385892Y-127829392D01*
X107600178Y-127900821D01*
X107743035Y-127900821D01*
X107957321Y-127829392D01*
X108100178Y-127686535D01*
X108171607Y-127543678D01*
X108243035Y-127257964D01*
X108243035Y-127043678D01*
X108171607Y-126757964D01*
X108100178Y-126615107D01*
X107957321Y-126472250D01*
X107743035Y-126400821D01*
X107600178Y-126400821D01*
X107385892Y-126472250D01*
X107314464Y-126543678D01*
X106671607Y-127900821D02*
X106671607Y-126900821D01*
X106671607Y-127186535D02*
X106600178Y-127043678D01*
X106528750Y-126972250D01*
X106385892Y-126900821D01*
X106243035Y-126900821D01*
X105528750Y-127900821D02*
X105671607Y-127829392D01*
X105743035Y-127757964D01*
X105814464Y-127615107D01*
X105814464Y-127186535D01*
X105743035Y-127043678D01*
X105671607Y-126972250D01*
X105528750Y-126900821D01*
X105314464Y-126900821D01*
X105171607Y-126972250D01*
X105100178Y-127043678D01*
X105028750Y-127186535D01*
X105028750Y-127615107D01*
X105100178Y-127757964D01*
X105171607Y-127829392D01*
X105314464Y-127900821D01*
X105528750Y-127900821D01*
X104528750Y-126900821D02*
X104243035Y-127900821D01*
X103957321Y-127186535D01*
X103671607Y-127900821D01*
X103385892Y-126900821D01*
X101671607Y-127900821D02*
X101671607Y-126400821D01*
X101171607Y-127472250D01*
X100671607Y-126400821D01*
X100671607Y-127900821D01*
X99957321Y-127900821D02*
X99957321Y-126900821D01*
X99957321Y-126400821D02*
X100028750Y-126472250D01*
X99957321Y-126543678D01*
X99885892Y-126472250D01*
X99957321Y-126400821D01*
X99957321Y-126543678D01*
X99243035Y-126900821D02*
X99243035Y-127900821D01*
X99243035Y-127043678D02*
X99171607Y-126972250D01*
X99028750Y-126900821D01*
X98814464Y-126900821D01*
X98671607Y-126972250D01*
X98600178Y-127115107D01*
X98600178Y-127900821D01*
X97885892Y-127900821D02*
X97885892Y-126900821D01*
X97885892Y-126400821D02*
X97957321Y-126472250D01*
X97885892Y-126543678D01*
X97814464Y-126472250D01*
X97885892Y-126400821D01*
X97885892Y-126543678D01*
D12*
X111514464Y-129274928D02*
X111314464Y-129874928D01*
X111114464Y-129274928D01*
X110600178Y-129874928D02*
X110943035Y-129874928D01*
X110771607Y-129874928D02*
X110771607Y-129274928D01*
X110828750Y-129360642D01*
X110885892Y-129417785D01*
X110943035Y-129446357D01*
X110343035Y-129817785D02*
X110314464Y-129846357D01*
X110343035Y-129874928D01*
X110371607Y-129846357D01*
X110343035Y-129817785D01*
X110343035Y-129874928D01*
X110085892Y-129332071D02*
X110057321Y-129303500D01*
X110000178Y-129274928D01*
X109857321Y-129274928D01*
X109800178Y-129303500D01*
X109771607Y-129332071D01*
X109743035Y-129389214D01*
X109743035Y-129446357D01*
X109771607Y-129532071D01*
X110114464Y-129874928D01*
X109743035Y-129874928D01*
X109485892Y-129817785D02*
X109457321Y-129846357D01*
X109485892Y-129874928D01*
X109514464Y-129846357D01*
X109485892Y-129817785D01*
X109485892Y-129874928D01*
X109085892Y-129274928D02*
X109028750Y-129274928D01*
X108971607Y-129303500D01*
X108943035Y-129332071D01*
X108914464Y-129389214D01*
X108885892Y-129503500D01*
X108885892Y-129646357D01*
X108914464Y-129760642D01*
X108943035Y-129817785D01*
X108971607Y-129846357D01*
X109028750Y-129874928D01*
X109085892Y-129874928D01*
X109143035Y-129846357D01*
X109171607Y-129817785D01*
X109200178Y-129760642D01*
X109228750Y-129646357D01*
X109228750Y-129503500D01*
X109200178Y-129389214D01*
X109171607Y-129332071D01*
X109143035Y-129303500D01*
X109085892Y-129274928D01*
X108171607Y-129646357D02*
X107714464Y-129646357D01*
X106485892Y-129417785D02*
X106543035Y-129389214D01*
X106657321Y-129389214D01*
X106714464Y-129417785D01*
X106771607Y-129474928D01*
X106800178Y-129532071D01*
X106800178Y-129646357D01*
X106771607Y-129703500D01*
X106714464Y-129760642D01*
X106657321Y-129789214D01*
X106543035Y-129789214D01*
X106485892Y-129760642D01*
X106600178Y-129189214D02*
X106743035Y-129217785D01*
X106885892Y-129303500D01*
X106971607Y-129446357D01*
X107000178Y-129589214D01*
X106971607Y-129732071D01*
X106885892Y-129874928D01*
X106743035Y-129960642D01*
X106600178Y-129989214D01*
X106457321Y-129960642D01*
X106314464Y-129874928D01*
X106228750Y-129732071D01*
X106200178Y-129589214D01*
X106228750Y-129446357D01*
X106314464Y-129303500D01*
X106457321Y-129217785D01*
X106600178Y-129189214D01*
X105514464Y-129703500D02*
X105228750Y-129703500D01*
X105571607Y-129874928D02*
X105371607Y-129274928D01*
X105171607Y-129874928D01*
X104714464Y-129874928D02*
X104714464Y-129274928D01*
X104714464Y-129846357D02*
X104771607Y-129874928D01*
X104885892Y-129874928D01*
X104943035Y-129846357D01*
X104971607Y-129817785D01*
X105000178Y-129760642D01*
X105000178Y-129589214D01*
X104971607Y-129532071D01*
X104943035Y-129503500D01*
X104885892Y-129474928D01*
X104771607Y-129474928D01*
X104714464Y-129503500D01*
X104428750Y-129874928D02*
X104428750Y-129474928D01*
X104428750Y-129589214D02*
X104400178Y-129532071D01*
X104371607Y-129503500D01*
X104314464Y-129474928D01*
X104257321Y-129474928D01*
X104057321Y-129874928D02*
X104057321Y-129474928D01*
X104057321Y-129274928D02*
X104085892Y-129303500D01*
X104057321Y-129332071D01*
X104028750Y-129303500D01*
X104057321Y-129274928D01*
X104057321Y-129332071D01*
X103514464Y-129874928D02*
X103514464Y-129560642D01*
X103543035Y-129503500D01*
X103600178Y-129474928D01*
X103714464Y-129474928D01*
X103771607Y-129503500D01*
X103514464Y-129846357D02*
X103571607Y-129874928D01*
X103714464Y-129874928D01*
X103771607Y-129846357D01*
X103800178Y-129789214D01*
X103800178Y-129732071D01*
X103771607Y-129674928D01*
X103714464Y-129646357D01*
X103571607Y-129646357D01*
X103514464Y-129617785D01*
X103228750Y-129474928D02*
X103228750Y-129874928D01*
X103228750Y-129532071D02*
X103200178Y-129503500D01*
X103143035Y-129474928D01*
X103057321Y-129474928D01*
X103000178Y-129503500D01*
X102971607Y-129560642D01*
X102971607Y-129874928D01*
X102228750Y-129874928D02*
X102228750Y-129274928D01*
X102228750Y-129560642D02*
X101885892Y-129560642D01*
X101885892Y-129874928D02*
X101885892Y-129274928D01*
X101600178Y-129817785D02*
X101571607Y-129846357D01*
X101600178Y-129874928D01*
X101628750Y-129846357D01*
X101600178Y-129817785D01*
X101600178Y-129874928D01*
X100857321Y-129560642D02*
X100657321Y-129560642D01*
X100571607Y-129874928D02*
X100857321Y-129874928D01*
X100857321Y-129274928D01*
X100571607Y-129274928D01*
X100371607Y-129474928D02*
X100228750Y-129874928D01*
X100085892Y-129474928D01*
X99857321Y-129474928D02*
X99857321Y-129989214D01*
X99885892Y-130046357D01*
X99943035Y-130074928D01*
X99971607Y-130074928D01*
X99857321Y-129274928D02*
X99885892Y-129303500D01*
X99857321Y-129332071D01*
X99828750Y-129303500D01*
X99857321Y-129274928D01*
X99857321Y-129332071D01*
X99343035Y-129846357D02*
X99400178Y-129874928D01*
X99514464Y-129874928D01*
X99571607Y-129846357D01*
X99600178Y-129789214D01*
X99600178Y-129560642D01*
X99571607Y-129503500D01*
X99514464Y-129474928D01*
X99400178Y-129474928D01*
X99343035Y-129503500D01*
X99314464Y-129560642D01*
X99314464Y-129617785D01*
X99600178Y-129674928D01*
X99057321Y-129874928D02*
X99057321Y-129274928D01*
X99057321Y-129503500D02*
X99000178Y-129474928D01*
X98885892Y-129474928D01*
X98828750Y-129503500D01*
X98800178Y-129532071D01*
X98771607Y-129589214D01*
X98771607Y-129760642D01*
X98800178Y-129817785D01*
X98828750Y-129846357D01*
X98885892Y-129874928D01*
X99000178Y-129874928D01*
X99057321Y-129846357D01*
X98285892Y-129846357D02*
X98343035Y-129874928D01*
X98457321Y-129874928D01*
X98514464Y-129846357D01*
X98543035Y-129789214D01*
X98543035Y-129560642D01*
X98514464Y-129503500D01*
X98457321Y-129474928D01*
X98343035Y-129474928D01*
X98285892Y-129503500D01*
X98257321Y-129560642D01*
X98257321Y-129617785D01*
X98543035Y-129674928D01*
X98000178Y-129874928D02*
X98000178Y-129474928D01*
X98000178Y-129589214D02*
X97971607Y-129532071D01*
X97943035Y-129503500D01*
X97885892Y-129474928D01*
X97828750Y-129474928D01*
X97371607Y-129474928D02*
X97371607Y-129960642D01*
X97400178Y-130017785D01*
X97428750Y-130046357D01*
X97485892Y-130074928D01*
X97571607Y-130074928D01*
X97628750Y-130046357D01*
X97371607Y-129846357D02*
X97428750Y-129874928D01*
X97543035Y-129874928D01*
X97600178Y-129846357D01*
X97628750Y-129817785D01*
X97657321Y-129760642D01*
X97657321Y-129589214D01*
X97628750Y-129532071D01*
X97600178Y-129503500D01*
X97543035Y-129474928D01*
X97428750Y-129474928D01*
X97371607Y-129503500D01*
X96657321Y-129332071D02*
X96628750Y-129303500D01*
X96571607Y-129274928D01*
X96428750Y-129274928D01*
X96371607Y-129303500D01*
X96343035Y-129332071D01*
X96314464Y-129389214D01*
X96314464Y-129446357D01*
X96343035Y-129532071D01*
X96685892Y-129874928D01*
X96314464Y-129874928D01*
X95943035Y-129274928D02*
X95885892Y-129274928D01*
X95828750Y-129303500D01*
X95800178Y-129332071D01*
X95771607Y-129389214D01*
X95743035Y-129503500D01*
X95743035Y-129646357D01*
X95771607Y-129760642D01*
X95800178Y-129817785D01*
X95828750Y-129846357D01*
X95885892Y-129874928D01*
X95943035Y-129874928D01*
X96000178Y-129846357D01*
X96028750Y-129817785D01*
X96057321Y-129760642D01*
X96085892Y-129646357D01*
X96085892Y-129503500D01*
X96057321Y-129389214D01*
X96028750Y-129332071D01*
X96000178Y-129303500D01*
X95943035Y-129274928D01*
X95514464Y-129332071D02*
X95485892Y-129303500D01*
X95428750Y-129274928D01*
X95285892Y-129274928D01*
X95228750Y-129303500D01*
X95200178Y-129332071D01*
X95171607Y-129389214D01*
X95171607Y-129446357D01*
X95200178Y-129532071D01*
X95543035Y-129874928D01*
X95171607Y-129874928D01*
X94600178Y-129874928D02*
X94943035Y-129874928D01*
X94771607Y-129874928D02*
X94771607Y-129274928D01*
X94828750Y-129360642D01*
X94885892Y-129417785D01*
X94943035Y-129446357D01*
D13*
X37345252Y-35358000D02*
X36822748Y-35358000D01*
X37345252Y-36778000D02*
X36822748Y-36778000D01*
X162059252Y-106986000D02*
X161536748Y-106986000D01*
X162059252Y-108406000D02*
X161536748Y-108406000D01*
X151645252Y-111304000D02*
X151122748Y-111304000D01*
X151645252Y-112724000D02*
X151122748Y-112724000D01*
D12*
X27798000Y-46302000D02*
X29098000Y-46302000D01*
X27798000Y-49202000D02*
X27798000Y-46302000D01*
X29098000Y-49202000D02*
X27798000Y-49202000D01*
X29098000Y-49202000D02*
X29098000Y-46302000D01*
D13*
X177182000Y-122722000D02*
X172682000Y-122722000D01*
X172682000Y-122722000D02*
X172682000Y-117322000D01*
D12*
X155861000Y-114967000D02*
X156436000Y-114967000D01*
X155861000Y-125317000D02*
X156536000Y-125317000D01*
X166211000Y-125317000D02*
X165536000Y-125317000D01*
X166211000Y-114967000D02*
X165536000Y-114967000D01*
X155861000Y-114967000D02*
X155861000Y-115642000D01*
X166211000Y-114967000D02*
X166211000Y-115642000D01*
X166211000Y-125317000D02*
X166211000Y-124642000D01*
X155861000Y-125317000D02*
X155861000Y-124642000D01*
X156436000Y-114967000D02*
X156436000Y-113692000D01*
D13*
X101780000Y-121944000D02*
X101780000Y-119864000D01*
X97610000Y-118184000D02*
X97120000Y-118674000D01*
X96340000Y-121944000D02*
X96340000Y-119864000D01*
X100510000Y-118184000D02*
X101000000Y-118674000D01*
X100510000Y-118184000D02*
X97610000Y-118184000D01*
X100510000Y-123624000D02*
X101000000Y-123134000D01*
X100510000Y-123624000D02*
X97610000Y-123624000D01*
X97610000Y-123624000D02*
X97120000Y-123134000D01*
X25129748Y-42778750D02*
X25652252Y-42778750D01*
X25129748Y-41358750D02*
X25652252Y-41358750D01*
X31217502Y-41358750D02*
X30694998Y-41358750D01*
X31217502Y-42778750D02*
X30694998Y-42778750D01*
X151884748Y-128472000D02*
X152407252Y-128472000D01*
X151884748Y-127052000D02*
X152407252Y-127052000D01*
X155709252Y-108256000D02*
X155186748Y-108256000D01*
X155709252Y-109676000D02*
X155186748Y-109676000D01*
X155709252Y-105970000D02*
X155186748Y-105970000D01*
X155709252Y-107390000D02*
X155186748Y-107390000D01*
X105910748Y-123392000D02*
X106433252Y-123392000D01*
X105910748Y-121972000D02*
X106433252Y-121972000D01*
D14*
X119848000Y-123638000D02*
X119848000Y-121138000D01*
X114848000Y-123638000D02*
X119848000Y-123638000D01*
X114848000Y-121138000D02*
X114848000Y-123638000D01*
X119848000Y-121138000D02*
X114848000Y-121138000D01*
D13*
X23516000Y-49624064D02*
X23516000Y-48419936D01*
X21696000Y-49624064D02*
X21696000Y-48419936D01*
X323262500Y-124487500D02*
X321262500Y-124487500D01*
X321262500Y-124487500D02*
X321262500Y-120587500D01*
X323262500Y-124487500D02*
X323262500Y-120587500D01*
X304212500Y-124487500D02*
X302212500Y-124487500D01*
X302212500Y-124487500D02*
X302212500Y-120587500D01*
X304212500Y-124487500D02*
X304212500Y-120587500D01*
X285162500Y-124487500D02*
X283162500Y-124487500D01*
X283162500Y-124487500D02*
X283162500Y-120587500D01*
X285162500Y-124487500D02*
X285162500Y-120587500D01*
X263731250Y-124487500D02*
X261731250Y-124487500D01*
X261731250Y-124487500D02*
X261731250Y-120587500D01*
X263731250Y-124487500D02*
X263731250Y-120587500D01*
X239918750Y-124487500D02*
X237918750Y-124487500D01*
X237918750Y-124487500D02*
X237918750Y-120587500D01*
X239918750Y-124487500D02*
X239918750Y-120587500D01*
X216106250Y-124487500D02*
X214106250Y-124487500D01*
X214106250Y-124487500D02*
X214106250Y-120587500D01*
X216106250Y-124487500D02*
X216106250Y-120587500D01*
X144668750Y-124487500D02*
X142668750Y-124487500D01*
X142668750Y-124487500D02*
X142668750Y-120587500D01*
X144668750Y-124487500D02*
X144668750Y-120587500D01*
X73231250Y-124487500D02*
X71231250Y-124487500D01*
X71231250Y-124487500D02*
X71231250Y-120587500D01*
X73231250Y-124487500D02*
X73231250Y-120587500D01*
X51800000Y-124487500D02*
X49800000Y-124487500D01*
X49800000Y-124487500D02*
X49800000Y-120587500D01*
X51800000Y-124487500D02*
X51800000Y-120587500D01*
X30368750Y-124487500D02*
X30368750Y-120587500D01*
X28368750Y-124487500D02*
X28368750Y-120587500D01*
X30368750Y-124487500D02*
X28368750Y-124487500D01*
X304212500Y-105437500D02*
X302212500Y-105437500D01*
X302212500Y-105437500D02*
X302212500Y-101537500D01*
X304212500Y-105437500D02*
X304212500Y-101537500D01*
X273256250Y-105437500D02*
X271256250Y-105437500D01*
X271256250Y-105437500D02*
X271256250Y-101537500D01*
X273256250Y-105437500D02*
X273256250Y-101537500D01*
X242300000Y-105437500D02*
X242300000Y-101537500D01*
X240300000Y-105437500D02*
X240300000Y-101537500D01*
X242300000Y-105437500D02*
X240300000Y-105437500D01*
X223250000Y-105437500D02*
X223250000Y-101537500D01*
X221250000Y-105437500D02*
X221250000Y-101537500D01*
X223250000Y-105437500D02*
X221250000Y-105437500D01*
X204200000Y-105437500D02*
X204200000Y-101537500D01*
X202200000Y-105437500D02*
X202200000Y-101537500D01*
X204200000Y-105437500D02*
X202200000Y-105437500D01*
X185150000Y-105437500D02*
X183150000Y-105437500D01*
X183150000Y-105437500D02*
X183150000Y-101537500D01*
X185150000Y-105437500D02*
X185150000Y-101537500D01*
X166100000Y-105437500D02*
X166100000Y-101537500D01*
X164100000Y-105437500D02*
X164100000Y-101537500D01*
X166100000Y-105437500D02*
X164100000Y-105437500D01*
X131175000Y-105437500D02*
X131175000Y-101537500D01*
X129175000Y-105437500D02*
X129175000Y-101537500D01*
X131175000Y-105437500D02*
X129175000Y-105437500D01*
X128000000Y-105437500D02*
X128000000Y-101537500D01*
X126000000Y-105437500D02*
X126000000Y-101537500D01*
X128000000Y-105437500D02*
X126000000Y-105437500D01*
X108950000Y-105437500D02*
X108950000Y-101537500D01*
X106950000Y-105437500D02*
X106950000Y-101537500D01*
X108950000Y-105437500D02*
X106950000Y-105437500D01*
X89900000Y-105437500D02*
X89900000Y-101537500D01*
X87900000Y-105437500D02*
X87900000Y-101537500D01*
X89900000Y-105437500D02*
X87900000Y-105437500D01*
X70850000Y-105437500D02*
X70850000Y-101537500D01*
X68850000Y-105437500D02*
X68850000Y-101537500D01*
X70850000Y-105437500D02*
X68850000Y-105437500D01*
X39893750Y-105437500D02*
X37893750Y-105437500D01*
X37893750Y-105437500D02*
X37893750Y-101537500D01*
X39893750Y-105437500D02*
X39893750Y-101537500D01*
X282781250Y-86387500D02*
X280781250Y-86387500D01*
X280781250Y-86387500D02*
X280781250Y-82487500D01*
X282781250Y-86387500D02*
X282781250Y-82487500D01*
X251825000Y-86387500D02*
X249825000Y-86387500D01*
X249825000Y-86387500D02*
X249825000Y-82487500D01*
X251825000Y-86387500D02*
X251825000Y-82487500D01*
X232775000Y-86387500D02*
X230775000Y-86387500D01*
X230775000Y-86387500D02*
X230775000Y-82487500D01*
X232775000Y-86387500D02*
X232775000Y-82487500D01*
X213725000Y-86387500D02*
X211725000Y-86387500D01*
X211725000Y-86387500D02*
X211725000Y-82487500D01*
X213725000Y-86387500D02*
X213725000Y-82487500D01*
X194675000Y-86387500D02*
X192675000Y-86387500D01*
X192675000Y-86387500D02*
X192675000Y-82487500D01*
X194675000Y-86387500D02*
X194675000Y-82487500D01*
X175625000Y-86387500D02*
X173625000Y-86387500D01*
X173625000Y-86387500D02*
X173625000Y-82487500D01*
X175625000Y-86387500D02*
X175625000Y-82487500D01*
X156575000Y-86387500D02*
X154575000Y-86387500D01*
X154575000Y-86387500D02*
X154575000Y-82487500D01*
X156575000Y-86387500D02*
X156575000Y-82487500D01*
X137525000Y-86387500D02*
X135525000Y-86387500D01*
X135525000Y-86387500D02*
X135525000Y-82487500D01*
X137525000Y-86387500D02*
X137525000Y-82487500D01*
X118475000Y-86387500D02*
X116475000Y-86387500D01*
X116475000Y-86387500D02*
X116475000Y-82487500D01*
X118475000Y-86387500D02*
X118475000Y-82487500D01*
X99425000Y-86387500D02*
X97425000Y-86387500D01*
X97425000Y-86387500D02*
X97425000Y-82487500D01*
X99425000Y-86387500D02*
X99425000Y-82487500D01*
X80375000Y-86387500D02*
X78375000Y-86387500D01*
X78375000Y-86387500D02*
X78375000Y-82487500D01*
X80375000Y-86387500D02*
X80375000Y-82487500D01*
X61325000Y-86387500D02*
X59325000Y-86387500D01*
X59325000Y-86387500D02*
X59325000Y-82487500D01*
X61325000Y-86387500D02*
X61325000Y-82487500D01*
X35131250Y-86387500D02*
X33131250Y-86387500D01*
X33131250Y-86387500D02*
X33131250Y-82487500D01*
X35131250Y-86387500D02*
X35131250Y-82487500D01*
X323262500Y-67337500D02*
X321262500Y-67337500D01*
X321262500Y-67337500D02*
X321262500Y-63437500D01*
X323262500Y-67337500D02*
X323262500Y-63437500D01*
X289925000Y-67337500D02*
X287925000Y-67337500D01*
X287925000Y-67337500D02*
X287925000Y-63437500D01*
X289925000Y-67337500D02*
X289925000Y-63437500D01*
X266112500Y-67337500D02*
X264112500Y-67337500D01*
X264112500Y-67337500D02*
X264112500Y-63437500D01*
X266112500Y-67337500D02*
X266112500Y-63437500D01*
X247062500Y-67337500D02*
X245062500Y-67337500D01*
X245062500Y-67337500D02*
X245062500Y-63437500D01*
X247062500Y-67337500D02*
X247062500Y-63437500D01*
X228012500Y-67337500D02*
X226012500Y-67337500D01*
X226012500Y-67337500D02*
X226012500Y-63437500D01*
X228012500Y-67337500D02*
X228012500Y-63437500D01*
X208962500Y-67337500D02*
X206962500Y-67337500D01*
X206962500Y-67337500D02*
X206962500Y-63437500D01*
X208962500Y-67337500D02*
X208962500Y-63437500D01*
X189912500Y-67337500D02*
X189912500Y-63437500D01*
X187912500Y-67337500D02*
X187912500Y-63437500D01*
X189912500Y-67337500D02*
X187912500Y-67337500D01*
X170862500Y-67337500D02*
X168862500Y-67337500D01*
X168862500Y-67337500D02*
X168862500Y-63437500D01*
X170862500Y-67337500D02*
X170862500Y-63437500D01*
X151812500Y-67337500D02*
X149812500Y-67337500D01*
X149812500Y-67337500D02*
X149812500Y-63437500D01*
X151812500Y-67337500D02*
X151812500Y-63437500D01*
X132762500Y-67337500D02*
X130762500Y-67337500D01*
X130762500Y-67337500D02*
X130762500Y-63437500D01*
X132762500Y-67337500D02*
X132762500Y-63437500D01*
X113712500Y-67337500D02*
X111712500Y-67337500D01*
X111712500Y-67337500D02*
X111712500Y-63437500D01*
X113712500Y-67337500D02*
X113712500Y-63437500D01*
X94662500Y-67337500D02*
X92662500Y-67337500D01*
X92662500Y-67337500D02*
X92662500Y-63437500D01*
X94662500Y-67337500D02*
X94662500Y-63437500D01*
X75612500Y-67337500D02*
X73612500Y-67337500D01*
X73612500Y-67337500D02*
X73612500Y-63437500D01*
X75612500Y-67337500D02*
X75612500Y-63437500D01*
X56562500Y-67337500D02*
X54562500Y-67337500D01*
X54562500Y-67337500D02*
X54562500Y-63437500D01*
X56562500Y-67337500D02*
X56562500Y-63437500D01*
X32750000Y-67337500D02*
X30750000Y-67337500D01*
X30750000Y-67337500D02*
X30750000Y-63437500D01*
X32750000Y-67337500D02*
X32750000Y-63437500D01*
X323262500Y-48287500D02*
X321262500Y-48287500D01*
X321262500Y-48287500D02*
X321262500Y-44387500D01*
X323262500Y-48287500D02*
X323262500Y-44387500D01*
X285162500Y-48287500D02*
X283162500Y-48287500D01*
X283162500Y-48287500D02*
X283162500Y-44387500D01*
X285162500Y-48287500D02*
X285162500Y-44387500D01*
X256587500Y-48287500D02*
X254587500Y-48287500D01*
X254587500Y-48287500D02*
X254587500Y-44387500D01*
X256587500Y-48287500D02*
X256587500Y-44387500D01*
X237537500Y-48287500D02*
X235537500Y-48287500D01*
X235537500Y-48287500D02*
X235537500Y-44387500D01*
X237537500Y-48287500D02*
X237537500Y-44387500D01*
X218487500Y-48287500D02*
X216487500Y-48287500D01*
X216487500Y-48287500D02*
X216487500Y-44387500D01*
X218487500Y-48287500D02*
X218487500Y-44387500D01*
X199437500Y-48287500D02*
X197437500Y-48287500D01*
X197437500Y-48287500D02*
X197437500Y-44387500D01*
X199437500Y-48287500D02*
X199437500Y-44387500D01*
X180387500Y-48287500D02*
X178387500Y-48287500D01*
X178387500Y-48287500D02*
X178387500Y-44387500D01*
X180387500Y-48287500D02*
X180387500Y-44387500D01*
X161337500Y-48287500D02*
X159337500Y-48287500D01*
X159337500Y-48287500D02*
X159337500Y-44387500D01*
X161337500Y-48287500D02*
X161337500Y-44387500D01*
X142287500Y-48287500D02*
X140287500Y-48287500D01*
X140287500Y-48287500D02*
X140287500Y-44387500D01*
X142287500Y-48287500D02*
X142287500Y-44387500D01*
X123237500Y-48287500D02*
X121237500Y-48287500D01*
X121237500Y-48287500D02*
X121237500Y-44387500D01*
X123237500Y-48287500D02*
X123237500Y-44387500D01*
X104187500Y-48287500D02*
X102187500Y-48287500D01*
X102187500Y-48287500D02*
X102187500Y-44387500D01*
X104187500Y-48287500D02*
X104187500Y-44387500D01*
X85137500Y-48287500D02*
X83137500Y-48287500D01*
X83137500Y-48287500D02*
X83137500Y-44387500D01*
X85137500Y-48287500D02*
X85137500Y-44387500D01*
X66087500Y-48287500D02*
X64087500Y-48287500D01*
X64087500Y-48287500D02*
X64087500Y-44387500D01*
X66087500Y-48287500D02*
X66087500Y-44387500D01*
X47037500Y-48287500D02*
X45037500Y-48287500D01*
X45037500Y-48287500D02*
X45037500Y-44387500D01*
X47037500Y-48287500D02*
X47037500Y-44387500D01*
X12112500Y-48287500D02*
X10112500Y-48287500D01*
X10112500Y-48287500D02*
X10112500Y-44387500D01*
X12112500Y-48287500D02*
X12112500Y-44387500D01*
X180078748Y-119328000D02*
X180601252Y-119328000D01*
X180078748Y-117908000D02*
X180601252Y-117908000D01*
X180078748Y-122376000D02*
X180601252Y-122376000D01*
X180078748Y-120956000D02*
X180601252Y-120956000D01*
X151840000Y-124467252D02*
X151840000Y-123944748D01*
X150420000Y-124467252D02*
X150420000Y-123944748D01*
X171652000Y-127007252D02*
X171652000Y-126484748D01*
X170232000Y-127007252D02*
X170232000Y-126484748D01*
X172518000Y-114038748D02*
X172518000Y-114561252D01*
X173938000Y-114038748D02*
X173938000Y-114561252D01*
D12*
X37917333Y-34346571D02*
X38250666Y-34346571D01*
X38250666Y-34870380D02*
X38250666Y-33870380D01*
X37774476Y-33870380D01*
X37060190Y-34346571D02*
X36917333Y-34394190D01*
X36869714Y-34441809D01*
X36822095Y-34537047D01*
X36822095Y-34679904D01*
X36869714Y-34775142D01*
X36917333Y-34822761D01*
X37012571Y-34870380D01*
X37393523Y-34870380D01*
X37393523Y-33870380D01*
X37060190Y-33870380D01*
X36964952Y-33918000D01*
X36917333Y-33965619D01*
X36869714Y-34060857D01*
X36869714Y-34156095D01*
X36917333Y-34251333D01*
X36964952Y-34298952D01*
X37060190Y-34346571D01*
X37393523Y-34346571D01*
X35869714Y-34870380D02*
X36441142Y-34870380D01*
X36155428Y-34870380D02*
X36155428Y-33870380D01*
X36250666Y-34013238D01*
X36345904Y-34108476D01*
X36441142Y-34156095D01*
X161964666Y-106403142D02*
X162012285Y-106450761D01*
X162155142Y-106498380D01*
X162250380Y-106498380D01*
X162393238Y-106450761D01*
X162488476Y-106355523D01*
X162536095Y-106260285D01*
X162583714Y-106069809D01*
X162583714Y-105926952D01*
X162536095Y-105736476D01*
X162488476Y-105641238D01*
X162393238Y-105546000D01*
X162250380Y-105498380D01*
X162155142Y-105498380D01*
X162012285Y-105546000D01*
X161964666Y-105593619D01*
X161107523Y-105498380D02*
X161298000Y-105498380D01*
X161393238Y-105546000D01*
X161440857Y-105593619D01*
X161536095Y-105736476D01*
X161583714Y-105926952D01*
X161583714Y-106307904D01*
X161536095Y-106403142D01*
X161488476Y-106450761D01*
X161393238Y-106498380D01*
X161202761Y-106498380D01*
X161107523Y-106450761D01*
X161059904Y-106403142D01*
X161012285Y-106307904D01*
X161012285Y-106069809D01*
X161059904Y-105974571D01*
X161107523Y-105926952D01*
X161202761Y-105879333D01*
X161393238Y-105879333D01*
X161488476Y-105926952D01*
X161536095Y-105974571D01*
X161583714Y-106069809D01*
X151550666Y-110721142D02*
X151598285Y-110768761D01*
X151741142Y-110816380D01*
X151836380Y-110816380D01*
X151979238Y-110768761D01*
X152074476Y-110673523D01*
X152122095Y-110578285D01*
X152169714Y-110387809D01*
X152169714Y-110244952D01*
X152122095Y-110054476D01*
X152074476Y-109959238D01*
X151979238Y-109864000D01*
X151836380Y-109816380D01*
X151741142Y-109816380D01*
X151598285Y-109864000D01*
X151550666Y-109911619D01*
X150645904Y-109816380D02*
X151122095Y-109816380D01*
X151169714Y-110292571D01*
X151122095Y-110244952D01*
X151026857Y-110197333D01*
X150788761Y-110197333D01*
X150693523Y-110244952D01*
X150645904Y-110292571D01*
X150598285Y-110387809D01*
X150598285Y-110625904D01*
X150645904Y-110721142D01*
X150693523Y-110768761D01*
X150788761Y-110816380D01*
X151026857Y-110816380D01*
X151122095Y-110768761D01*
X151169714Y-110721142D01*
X29209904Y-44754380D02*
X29209904Y-45563904D01*
X29162285Y-45659142D01*
X29114666Y-45706761D01*
X29019428Y-45754380D01*
X28828952Y-45754380D01*
X28733714Y-45706761D01*
X28686095Y-45659142D01*
X28638476Y-45563904D01*
X28638476Y-44754380D01*
X28209904Y-44849619D02*
X28162285Y-44802000D01*
X28067047Y-44754380D01*
X27828952Y-44754380D01*
X27733714Y-44802000D01*
X27686095Y-44849619D01*
X27638476Y-44944857D01*
X27638476Y-45040095D01*
X27686095Y-45182952D01*
X28257523Y-45754380D01*
X27638476Y-45754380D01*
X177434380Y-119212476D02*
X178434380Y-119879142D01*
X177434380Y-119879142D02*
X178434380Y-119212476D01*
X178434380Y-120783904D02*
X178434380Y-120212476D01*
X178434380Y-120498190D02*
X177434380Y-120498190D01*
X177577238Y-120402952D01*
X177672476Y-120307714D01*
X177720095Y-120212476D01*
X30313095Y-39021130D02*
X30313095Y-39830654D01*
X30265476Y-39925892D01*
X30217857Y-39973511D01*
X30122619Y-40021130D01*
X29932142Y-40021130D01*
X29836904Y-39973511D01*
X29789285Y-39925892D01*
X29741666Y-39830654D01*
X29741666Y-39021130D01*
X29313095Y-39973511D02*
X29170238Y-40021130D01*
X28932142Y-40021130D01*
X28836904Y-39973511D01*
X28789285Y-39925892D01*
X28741666Y-39830654D01*
X28741666Y-39735416D01*
X28789285Y-39640178D01*
X28836904Y-39592559D01*
X28932142Y-39544940D01*
X29122619Y-39497321D01*
X29217857Y-39449702D01*
X29265476Y-39402083D01*
X29313095Y-39306845D01*
X29313095Y-39211607D01*
X29265476Y-39116369D01*
X29217857Y-39068750D01*
X29122619Y-39021130D01*
X28884523Y-39021130D01*
X28741666Y-39068750D01*
X27979761Y-39497321D02*
X27836904Y-39544940D01*
X27789285Y-39592559D01*
X27741666Y-39687797D01*
X27741666Y-39830654D01*
X27789285Y-39925892D01*
X27836904Y-39973511D01*
X27932142Y-40021130D01*
X28313095Y-40021130D01*
X28313095Y-39021130D01*
X27979761Y-39021130D01*
X27884523Y-39068750D01*
X27836904Y-39116369D01*
X27789285Y-39211607D01*
X27789285Y-39306845D01*
X27836904Y-39402083D01*
X27884523Y-39449702D01*
X27979761Y-39497321D01*
X28313095Y-39497321D01*
X26789285Y-40021130D02*
X27360714Y-40021130D01*
X27074999Y-40021130D02*
X27074999Y-39021130D01*
X27170238Y-39163988D01*
X27265476Y-39259226D01*
X27360714Y-39306845D01*
X153038380Y-119380095D02*
X153847904Y-119380095D01*
X153943142Y-119427714D01*
X153990761Y-119475333D01*
X154038380Y-119570571D01*
X154038380Y-119761047D01*
X153990761Y-119856285D01*
X153943142Y-119903904D01*
X153847904Y-119951523D01*
X153038380Y-119951523D01*
X154038380Y-120951523D02*
X154038380Y-120380095D01*
X154038380Y-120665809D02*
X153038380Y-120665809D01*
X153181238Y-120570571D01*
X153276476Y-120475333D01*
X153324095Y-120380095D01*
X100393333Y-117708761D02*
X100250476Y-117756380D01*
X100012380Y-117756380D01*
X99917142Y-117708761D01*
X99869523Y-117661142D01*
X99821904Y-117565904D01*
X99821904Y-117470666D01*
X99869523Y-117375428D01*
X99917142Y-117327809D01*
X100012380Y-117280190D01*
X100202857Y-117232571D01*
X100298095Y-117184952D01*
X100345714Y-117137333D01*
X100393333Y-117042095D01*
X100393333Y-116946857D01*
X100345714Y-116851619D01*
X100298095Y-116804000D01*
X100202857Y-116756380D01*
X99964761Y-116756380D01*
X99821904Y-116804000D01*
X99488571Y-116756380D02*
X99250476Y-117756380D01*
X99060000Y-117042095D01*
X98869523Y-117756380D01*
X98631428Y-116756380D01*
X97726666Y-117756380D02*
X98298095Y-117756380D01*
X98012380Y-117756380D02*
X98012380Y-116756380D01*
X98107619Y-116899238D01*
X98202857Y-116994476D01*
X98298095Y-117042095D01*
X25557666Y-44171130D02*
X25891000Y-43694940D01*
X26129095Y-44171130D02*
X26129095Y-43171130D01*
X25748142Y-43171130D01*
X25652904Y-43218750D01*
X25605285Y-43266369D01*
X25557666Y-43361607D01*
X25557666Y-43504464D01*
X25605285Y-43599702D01*
X25652904Y-43647321D01*
X25748142Y-43694940D01*
X26129095Y-43694940D01*
X24700523Y-43171130D02*
X24891000Y-43171130D01*
X24986238Y-43218750D01*
X25033857Y-43266369D01*
X25129095Y-43409226D01*
X25176714Y-43599702D01*
X25176714Y-43980654D01*
X25129095Y-44075892D01*
X25081476Y-44123511D01*
X24986238Y-44171130D01*
X24795761Y-44171130D01*
X24700523Y-44123511D01*
X24652904Y-44075892D01*
X24605285Y-43980654D01*
X24605285Y-43742559D01*
X24652904Y-43647321D01*
X24700523Y-43599702D01*
X24795761Y-43552083D01*
X24986238Y-43552083D01*
X25081476Y-43599702D01*
X25129095Y-43647321D01*
X25176714Y-43742559D01*
X31122916Y-40871130D02*
X31456250Y-40394940D01*
X31694345Y-40871130D02*
X31694345Y-39871130D01*
X31313392Y-39871130D01*
X31218154Y-39918750D01*
X31170535Y-39966369D01*
X31122916Y-40061607D01*
X31122916Y-40204464D01*
X31170535Y-40299702D01*
X31218154Y-40347321D01*
X31313392Y-40394940D01*
X31694345Y-40394940D01*
X30218154Y-39871130D02*
X30694345Y-39871130D01*
X30741964Y-40347321D01*
X30694345Y-40299702D01*
X30599107Y-40252083D01*
X30361011Y-40252083D01*
X30265773Y-40299702D01*
X30218154Y-40347321D01*
X30170535Y-40442559D01*
X30170535Y-40680654D01*
X30218154Y-40775892D01*
X30265773Y-40823511D01*
X30361011Y-40871130D01*
X30599107Y-40871130D01*
X30694345Y-40823511D01*
X30741964Y-40775892D01*
X152312666Y-129864380D02*
X152646000Y-129388190D01*
X152884095Y-129864380D02*
X152884095Y-128864380D01*
X152503142Y-128864380D01*
X152407904Y-128912000D01*
X152360285Y-128959619D01*
X152312666Y-129054857D01*
X152312666Y-129197714D01*
X152360285Y-129292952D01*
X152407904Y-129340571D01*
X152503142Y-129388190D01*
X152884095Y-129388190D01*
X151455523Y-129197714D02*
X151455523Y-129864380D01*
X151693619Y-128816761D02*
X151931714Y-129531047D01*
X151312666Y-129531047D01*
X155614666Y-107768380D02*
X155948000Y-107292190D01*
X156186095Y-107768380D02*
X156186095Y-106768380D01*
X155805142Y-106768380D01*
X155709904Y-106816000D01*
X155662285Y-106863619D01*
X155614666Y-106958857D01*
X155614666Y-107101714D01*
X155662285Y-107196952D01*
X155709904Y-107244571D01*
X155805142Y-107292190D01*
X156186095Y-107292190D01*
X155281333Y-106768380D02*
X154662285Y-106768380D01*
X154995619Y-107149333D01*
X154852761Y-107149333D01*
X154757523Y-107196952D01*
X154709904Y-107244571D01*
X154662285Y-107339809D01*
X154662285Y-107577904D01*
X154709904Y-107673142D01*
X154757523Y-107720761D01*
X154852761Y-107768380D01*
X155138476Y-107768380D01*
X155233714Y-107720761D01*
X155281333Y-107673142D01*
X155614666Y-105482380D02*
X155948000Y-105006190D01*
X156186095Y-105482380D02*
X156186095Y-104482380D01*
X155805142Y-104482380D01*
X155709904Y-104530000D01*
X155662285Y-104577619D01*
X155614666Y-104672857D01*
X155614666Y-104815714D01*
X155662285Y-104910952D01*
X155709904Y-104958571D01*
X155805142Y-105006190D01*
X156186095Y-105006190D01*
X155233714Y-104577619D02*
X155186095Y-104530000D01*
X155090857Y-104482380D01*
X154852761Y-104482380D01*
X154757523Y-104530000D01*
X154709904Y-104577619D01*
X154662285Y-104672857D01*
X154662285Y-104768095D01*
X154709904Y-104910952D01*
X155281333Y-105482380D01*
X154662285Y-105482380D01*
X106338666Y-124784380D02*
X106672000Y-124308190D01*
X106910095Y-124784380D02*
X106910095Y-123784380D01*
X106529142Y-123784380D01*
X106433904Y-123832000D01*
X106386285Y-123879619D01*
X106338666Y-123974857D01*
X106338666Y-124117714D01*
X106386285Y-124212952D01*
X106433904Y-124260571D01*
X106529142Y-124308190D01*
X106910095Y-124308190D01*
X105386285Y-124784380D02*
X105957714Y-124784380D01*
X105672000Y-124784380D02*
X105672000Y-123784380D01*
X105767238Y-123927238D01*
X105862476Y-124022476D01*
X105957714Y-124070095D01*
X123169428Y-117840380D02*
X123169428Y-116840380D01*
X122836095Y-117554666D01*
X122502761Y-116840380D01*
X122502761Y-117840380D01*
X122026571Y-117840380D02*
X122026571Y-116840380D01*
X121598000Y-117792761D02*
X121455142Y-117840380D01*
X121217047Y-117840380D01*
X121121809Y-117792761D01*
X121074190Y-117745142D01*
X121026571Y-117649904D01*
X121026571Y-117554666D01*
X121074190Y-117459428D01*
X121121809Y-117411809D01*
X121217047Y-117364190D01*
X121407523Y-117316571D01*
X121502761Y-117268952D01*
X121550380Y-117221333D01*
X121598000Y-117126095D01*
X121598000Y-117030857D01*
X121550380Y-116935619D01*
X121502761Y-116888000D01*
X121407523Y-116840380D01*
X121169428Y-116840380D01*
X121026571Y-116888000D01*
X120407523Y-116840380D02*
X120217047Y-116840380D01*
X120121809Y-116888000D01*
X120026571Y-116983238D01*
X119978952Y-117173714D01*
X119978952Y-117507047D01*
X120026571Y-117697523D01*
X120121809Y-117792761D01*
X120217047Y-117840380D01*
X120407523Y-117840380D01*
X120502761Y-117792761D01*
X120598000Y-117697523D01*
X120645619Y-117507047D01*
X120645619Y-117173714D01*
X120598000Y-116983238D01*
X120502761Y-116888000D01*
X120407523Y-116840380D01*
X114681333Y-116840380D02*
X114348000Y-117840380D01*
X114014666Y-116840380D01*
X113109904Y-117745142D02*
X113157523Y-117792761D01*
X113300380Y-117840380D01*
X113395619Y-117840380D01*
X113538476Y-117792761D01*
X113633714Y-117697523D01*
X113681333Y-117602285D01*
X113728952Y-117411809D01*
X113728952Y-117268952D01*
X113681333Y-117078476D01*
X113633714Y-116983238D01*
X113538476Y-116888000D01*
X113395619Y-116840380D01*
X113300380Y-116840380D01*
X113157523Y-116888000D01*
X113109904Y-116935619D01*
X112109904Y-117745142D02*
X112157523Y-117792761D01*
X112300380Y-117840380D01*
X112395619Y-117840380D01*
X112538476Y-117792761D01*
X112633714Y-117697523D01*
X112681333Y-117602285D01*
X112728952Y-117411809D01*
X112728952Y-117268952D01*
X112681333Y-117078476D01*
X112633714Y-116983238D01*
X112538476Y-116888000D01*
X112395619Y-116840380D01*
X112300380Y-116840380D01*
X112157523Y-116888000D01*
X112109904Y-116935619D01*
X122633714Y-120292761D02*
X122490857Y-120340380D01*
X122252761Y-120340380D01*
X122157523Y-120292761D01*
X122109904Y-120245142D01*
X122062285Y-120149904D01*
X122062285Y-120054666D01*
X122109904Y-119959428D01*
X122157523Y-119911809D01*
X122252761Y-119864190D01*
X122443238Y-119816571D01*
X122538476Y-119768952D01*
X122586095Y-119721333D01*
X122633714Y-119626095D01*
X122633714Y-119530857D01*
X122586095Y-119435619D01*
X122538476Y-119388000D01*
X122443238Y-119340380D01*
X122205142Y-119340380D01*
X122062285Y-119388000D01*
X121062285Y-120245142D02*
X121109904Y-120292761D01*
X121252761Y-120340380D01*
X121348000Y-120340380D01*
X121490857Y-120292761D01*
X121586095Y-120197523D01*
X121633714Y-120102285D01*
X121681333Y-119911809D01*
X121681333Y-119768952D01*
X121633714Y-119578476D01*
X121586095Y-119483238D01*
X121490857Y-119388000D01*
X121348000Y-119340380D01*
X121252761Y-119340380D01*
X121109904Y-119388000D01*
X121062285Y-119435619D01*
X120633714Y-120340380D02*
X120633714Y-119340380D01*
X120062285Y-120340380D02*
X120490857Y-119768952D01*
X120062285Y-119340380D02*
X120633714Y-119911809D01*
X114669428Y-120340380D02*
X114669428Y-119340380D01*
X114336095Y-120054666D01*
X114002761Y-119340380D01*
X114002761Y-120340380D01*
X113336095Y-119340380D02*
X113145619Y-119340380D01*
X113050380Y-119388000D01*
X112955142Y-119483238D01*
X112907523Y-119673714D01*
X112907523Y-120007047D01*
X112955142Y-120197523D01*
X113050380Y-120292761D01*
X113145619Y-120340380D01*
X113336095Y-120340380D01*
X113431333Y-120292761D01*
X113526571Y-120197523D01*
X113574190Y-120007047D01*
X113574190Y-119673714D01*
X113526571Y-119483238D01*
X113431333Y-119388000D01*
X113336095Y-119340380D01*
X112526571Y-120292761D02*
X112383714Y-120340380D01*
X112145619Y-120340380D01*
X112050380Y-120292761D01*
X112002761Y-120245142D01*
X111955142Y-120149904D01*
X111955142Y-120054666D01*
X112002761Y-119959428D01*
X112050380Y-119911809D01*
X112145619Y-119864190D01*
X112336095Y-119816571D01*
X112431333Y-119768952D01*
X112478952Y-119721333D01*
X112526571Y-119626095D01*
X112526571Y-119530857D01*
X112478952Y-119435619D01*
X112431333Y-119388000D01*
X112336095Y-119340380D01*
X112098000Y-119340380D01*
X111955142Y-119388000D01*
X111526571Y-120340380D02*
X111526571Y-119340380D01*
X122145619Y-122840380D02*
X122478952Y-122364190D01*
X122717047Y-122840380D02*
X122717047Y-121840380D01*
X122336095Y-121840380D01*
X122240857Y-121888000D01*
X122193238Y-121935619D01*
X122145619Y-122030857D01*
X122145619Y-122173714D01*
X122193238Y-122268952D01*
X122240857Y-122316571D01*
X122336095Y-122364190D01*
X122717047Y-122364190D01*
X121764666Y-122792761D02*
X121621809Y-122840380D01*
X121383714Y-122840380D01*
X121288476Y-122792761D01*
X121240857Y-122745142D01*
X121193238Y-122649904D01*
X121193238Y-122554666D01*
X121240857Y-122459428D01*
X121288476Y-122411809D01*
X121383714Y-122364190D01*
X121574190Y-122316571D01*
X121669428Y-122268952D01*
X121717047Y-122221333D01*
X121764666Y-122126095D01*
X121764666Y-122030857D01*
X121717047Y-121935619D01*
X121669428Y-121888000D01*
X121574190Y-121840380D01*
X121336095Y-121840380D01*
X121193238Y-121888000D01*
X120907523Y-121840380D02*
X120336095Y-121840380D01*
X120621809Y-122840380D02*
X120621809Y-121840380D01*
X113859904Y-121888000D02*
X113955142Y-121840380D01*
X114098000Y-121840380D01*
X114240857Y-121888000D01*
X114336095Y-121983238D01*
X114383714Y-122078476D01*
X114431333Y-122268952D01*
X114431333Y-122411809D01*
X114383714Y-122602285D01*
X114336095Y-122697523D01*
X114240857Y-122792761D01*
X114098000Y-122840380D01*
X114002761Y-122840380D01*
X113859904Y-122792761D01*
X113812285Y-122745142D01*
X113812285Y-122411809D01*
X114002761Y-122411809D01*
X113383714Y-122840380D02*
X113383714Y-121840380D01*
X112812285Y-122840380D01*
X112812285Y-121840380D01*
X112336095Y-122840380D02*
X112336095Y-121840380D01*
X112098000Y-121840380D01*
X111955142Y-121888000D01*
X111859904Y-121983238D01*
X111812285Y-122078476D01*
X111764666Y-122268952D01*
X111764666Y-122411809D01*
X111812285Y-122602285D01*
X111859904Y-122697523D01*
X111955142Y-122792761D01*
X112098000Y-122840380D01*
X112336095Y-122840380D01*
X24354571Y-48688666D02*
X24354571Y-48355333D01*
X24878380Y-48355333D02*
X23878380Y-48355333D01*
X23878380Y-48831523D01*
X24878380Y-49736285D02*
X24878380Y-49164857D01*
X24878380Y-49450571D02*
X23878380Y-49450571D01*
X24021238Y-49355333D01*
X24116476Y-49260095D01*
X24164095Y-49164857D01*
X324714880Y-121023214D02*
X323714880Y-121023214D01*
X323714880Y-121261309D01*
X323762500Y-121404166D01*
X323857738Y-121499404D01*
X323952976Y-121547023D01*
X324143452Y-121594642D01*
X324286309Y-121594642D01*
X324476785Y-121547023D01*
X324572023Y-121499404D01*
X324667261Y-121404166D01*
X324714880Y-121261309D01*
X324714880Y-121023214D01*
X323714880Y-122451785D02*
X323714880Y-122261309D01*
X323762500Y-122166071D01*
X323810119Y-122118452D01*
X323952976Y-122023214D01*
X324143452Y-121975595D01*
X324524404Y-121975595D01*
X324619642Y-122023214D01*
X324667261Y-122070833D01*
X324714880Y-122166071D01*
X324714880Y-122356547D01*
X324667261Y-122451785D01*
X324619642Y-122499404D01*
X324524404Y-122547023D01*
X324286309Y-122547023D01*
X324191071Y-122499404D01*
X324143452Y-122451785D01*
X324095833Y-122356547D01*
X324095833Y-122166071D01*
X324143452Y-122070833D01*
X324191071Y-122023214D01*
X324286309Y-121975595D01*
X323714880Y-123404166D02*
X323714880Y-123213690D01*
X323762500Y-123118452D01*
X323810119Y-123070833D01*
X323952976Y-122975595D01*
X324143452Y-122927976D01*
X324524404Y-122927976D01*
X324619642Y-122975595D01*
X324667261Y-123023214D01*
X324714880Y-123118452D01*
X324714880Y-123308928D01*
X324667261Y-123404166D01*
X324619642Y-123451785D01*
X324524404Y-123499404D01*
X324286309Y-123499404D01*
X324191071Y-123451785D01*
X324143452Y-123404166D01*
X324095833Y-123308928D01*
X324095833Y-123118452D01*
X324143452Y-123023214D01*
X324191071Y-122975595D01*
X324286309Y-122927976D01*
X305664880Y-121023214D02*
X304664880Y-121023214D01*
X304664880Y-121261309D01*
X304712500Y-121404166D01*
X304807738Y-121499404D01*
X304902976Y-121547023D01*
X305093452Y-121594642D01*
X305236309Y-121594642D01*
X305426785Y-121547023D01*
X305522023Y-121499404D01*
X305617261Y-121404166D01*
X305664880Y-121261309D01*
X305664880Y-121023214D01*
X304664880Y-122451785D02*
X304664880Y-122261309D01*
X304712500Y-122166071D01*
X304760119Y-122118452D01*
X304902976Y-122023214D01*
X305093452Y-121975595D01*
X305474404Y-121975595D01*
X305569642Y-122023214D01*
X305617261Y-122070833D01*
X305664880Y-122166071D01*
X305664880Y-122356547D01*
X305617261Y-122451785D01*
X305569642Y-122499404D01*
X305474404Y-122547023D01*
X305236309Y-122547023D01*
X305141071Y-122499404D01*
X305093452Y-122451785D01*
X305045833Y-122356547D01*
X305045833Y-122166071D01*
X305093452Y-122070833D01*
X305141071Y-122023214D01*
X305236309Y-121975595D01*
X304664880Y-123451785D02*
X304664880Y-122975595D01*
X305141071Y-122927976D01*
X305093452Y-122975595D01*
X305045833Y-123070833D01*
X305045833Y-123308928D01*
X305093452Y-123404166D01*
X305141071Y-123451785D01*
X305236309Y-123499404D01*
X305474404Y-123499404D01*
X305569642Y-123451785D01*
X305617261Y-123404166D01*
X305664880Y-123308928D01*
X305664880Y-123070833D01*
X305617261Y-122975595D01*
X305569642Y-122927976D01*
X286614880Y-121023214D02*
X285614880Y-121023214D01*
X285614880Y-121261309D01*
X285662500Y-121404166D01*
X285757738Y-121499404D01*
X285852976Y-121547023D01*
X286043452Y-121594642D01*
X286186309Y-121594642D01*
X286376785Y-121547023D01*
X286472023Y-121499404D01*
X286567261Y-121404166D01*
X286614880Y-121261309D01*
X286614880Y-121023214D01*
X285614880Y-122451785D02*
X285614880Y-122261309D01*
X285662500Y-122166071D01*
X285710119Y-122118452D01*
X285852976Y-122023214D01*
X286043452Y-121975595D01*
X286424404Y-121975595D01*
X286519642Y-122023214D01*
X286567261Y-122070833D01*
X286614880Y-122166071D01*
X286614880Y-122356547D01*
X286567261Y-122451785D01*
X286519642Y-122499404D01*
X286424404Y-122547023D01*
X286186309Y-122547023D01*
X286091071Y-122499404D01*
X286043452Y-122451785D01*
X285995833Y-122356547D01*
X285995833Y-122166071D01*
X286043452Y-122070833D01*
X286091071Y-122023214D01*
X286186309Y-121975595D01*
X285948214Y-123404166D02*
X286614880Y-123404166D01*
X285567261Y-123166071D02*
X286281547Y-122927976D01*
X286281547Y-123547023D01*
X265183630Y-121023214D02*
X264183630Y-121023214D01*
X264183630Y-121261309D01*
X264231250Y-121404166D01*
X264326488Y-121499404D01*
X264421726Y-121547023D01*
X264612202Y-121594642D01*
X264755059Y-121594642D01*
X264945535Y-121547023D01*
X265040773Y-121499404D01*
X265136011Y-121404166D01*
X265183630Y-121261309D01*
X265183630Y-121023214D01*
X264183630Y-122451785D02*
X264183630Y-122261309D01*
X264231250Y-122166071D01*
X264278869Y-122118452D01*
X264421726Y-122023214D01*
X264612202Y-121975595D01*
X264993154Y-121975595D01*
X265088392Y-122023214D01*
X265136011Y-122070833D01*
X265183630Y-122166071D01*
X265183630Y-122356547D01*
X265136011Y-122451785D01*
X265088392Y-122499404D01*
X264993154Y-122547023D01*
X264755059Y-122547023D01*
X264659821Y-122499404D01*
X264612202Y-122451785D01*
X264564583Y-122356547D01*
X264564583Y-122166071D01*
X264612202Y-122070833D01*
X264659821Y-122023214D01*
X264755059Y-121975595D01*
X264183630Y-122880357D02*
X264183630Y-123499404D01*
X264564583Y-123166071D01*
X264564583Y-123308928D01*
X264612202Y-123404166D01*
X264659821Y-123451785D01*
X264755059Y-123499404D01*
X264993154Y-123499404D01*
X265088392Y-123451785D01*
X265136011Y-123404166D01*
X265183630Y-123308928D01*
X265183630Y-123023214D01*
X265136011Y-122927976D01*
X265088392Y-122880357D01*
X241371130Y-121023214D02*
X240371130Y-121023214D01*
X240371130Y-121261309D01*
X240418750Y-121404166D01*
X240513988Y-121499404D01*
X240609226Y-121547023D01*
X240799702Y-121594642D01*
X240942559Y-121594642D01*
X241133035Y-121547023D01*
X241228273Y-121499404D01*
X241323511Y-121404166D01*
X241371130Y-121261309D01*
X241371130Y-121023214D01*
X240371130Y-122451785D02*
X240371130Y-122261309D01*
X240418750Y-122166071D01*
X240466369Y-122118452D01*
X240609226Y-122023214D01*
X240799702Y-121975595D01*
X241180654Y-121975595D01*
X241275892Y-122023214D01*
X241323511Y-122070833D01*
X241371130Y-122166071D01*
X241371130Y-122356547D01*
X241323511Y-122451785D01*
X241275892Y-122499404D01*
X241180654Y-122547023D01*
X240942559Y-122547023D01*
X240847321Y-122499404D01*
X240799702Y-122451785D01*
X240752083Y-122356547D01*
X240752083Y-122166071D01*
X240799702Y-122070833D01*
X240847321Y-122023214D01*
X240942559Y-121975595D01*
X240466369Y-122927976D02*
X240418750Y-122975595D01*
X240371130Y-123070833D01*
X240371130Y-123308928D01*
X240418750Y-123404166D01*
X240466369Y-123451785D01*
X240561607Y-123499404D01*
X240656845Y-123499404D01*
X240799702Y-123451785D01*
X241371130Y-122880357D01*
X241371130Y-123499404D01*
X217558630Y-121023214D02*
X216558630Y-121023214D01*
X216558630Y-121261309D01*
X216606250Y-121404166D01*
X216701488Y-121499404D01*
X216796726Y-121547023D01*
X216987202Y-121594642D01*
X217130059Y-121594642D01*
X217320535Y-121547023D01*
X217415773Y-121499404D01*
X217511011Y-121404166D01*
X217558630Y-121261309D01*
X217558630Y-121023214D01*
X216558630Y-122451785D02*
X216558630Y-122261309D01*
X216606250Y-122166071D01*
X216653869Y-122118452D01*
X216796726Y-122023214D01*
X216987202Y-121975595D01*
X217368154Y-121975595D01*
X217463392Y-122023214D01*
X217511011Y-122070833D01*
X217558630Y-122166071D01*
X217558630Y-122356547D01*
X217511011Y-122451785D01*
X217463392Y-122499404D01*
X217368154Y-122547023D01*
X217130059Y-122547023D01*
X217034821Y-122499404D01*
X216987202Y-122451785D01*
X216939583Y-122356547D01*
X216939583Y-122166071D01*
X216987202Y-122070833D01*
X217034821Y-122023214D01*
X217130059Y-121975595D01*
X217558630Y-123499404D02*
X217558630Y-122927976D01*
X217558630Y-123213690D02*
X216558630Y-123213690D01*
X216701488Y-123118452D01*
X216796726Y-123023214D01*
X216844345Y-122927976D01*
X146121130Y-121023214D02*
X145121130Y-121023214D01*
X145121130Y-121261309D01*
X145168750Y-121404166D01*
X145263988Y-121499404D01*
X145359226Y-121547023D01*
X145549702Y-121594642D01*
X145692559Y-121594642D01*
X145883035Y-121547023D01*
X145978273Y-121499404D01*
X146073511Y-121404166D01*
X146121130Y-121261309D01*
X146121130Y-121023214D01*
X145121130Y-122451785D02*
X145121130Y-122261309D01*
X145168750Y-122166071D01*
X145216369Y-122118452D01*
X145359226Y-122023214D01*
X145549702Y-121975595D01*
X145930654Y-121975595D01*
X146025892Y-122023214D01*
X146073511Y-122070833D01*
X146121130Y-122166071D01*
X146121130Y-122356547D01*
X146073511Y-122451785D01*
X146025892Y-122499404D01*
X145930654Y-122547023D01*
X145692559Y-122547023D01*
X145597321Y-122499404D01*
X145549702Y-122451785D01*
X145502083Y-122356547D01*
X145502083Y-122166071D01*
X145549702Y-122070833D01*
X145597321Y-122023214D01*
X145692559Y-121975595D01*
X145121130Y-123166071D02*
X145121130Y-123261309D01*
X145168750Y-123356547D01*
X145216369Y-123404166D01*
X145311607Y-123451785D01*
X145502083Y-123499404D01*
X145740178Y-123499404D01*
X145930654Y-123451785D01*
X146025892Y-123404166D01*
X146073511Y-123356547D01*
X146121130Y-123261309D01*
X146121130Y-123166071D01*
X146073511Y-123070833D01*
X146025892Y-123023214D01*
X145930654Y-122975595D01*
X145740178Y-122927976D01*
X145502083Y-122927976D01*
X145311607Y-122975595D01*
X145216369Y-123023214D01*
X145168750Y-123070833D01*
X145121130Y-123166071D01*
X74683630Y-121023214D02*
X73683630Y-121023214D01*
X73683630Y-121261309D01*
X73731250Y-121404166D01*
X73826488Y-121499404D01*
X73921726Y-121547023D01*
X74112202Y-121594642D01*
X74255059Y-121594642D01*
X74445535Y-121547023D01*
X74540773Y-121499404D01*
X74636011Y-121404166D01*
X74683630Y-121261309D01*
X74683630Y-121023214D01*
X73683630Y-122499404D02*
X73683630Y-122023214D01*
X74159821Y-121975595D01*
X74112202Y-122023214D01*
X74064583Y-122118452D01*
X74064583Y-122356547D01*
X74112202Y-122451785D01*
X74159821Y-122499404D01*
X74255059Y-122547023D01*
X74493154Y-122547023D01*
X74588392Y-122499404D01*
X74636011Y-122451785D01*
X74683630Y-122356547D01*
X74683630Y-122118452D01*
X74636011Y-122023214D01*
X74588392Y-121975595D01*
X74683630Y-123023214D02*
X74683630Y-123213690D01*
X74636011Y-123308928D01*
X74588392Y-123356547D01*
X74445535Y-123451785D01*
X74255059Y-123499404D01*
X73874107Y-123499404D01*
X73778869Y-123451785D01*
X73731250Y-123404166D01*
X73683630Y-123308928D01*
X73683630Y-123118452D01*
X73731250Y-123023214D01*
X73778869Y-122975595D01*
X73874107Y-122927976D01*
X74112202Y-122927976D01*
X74207440Y-122975595D01*
X74255059Y-123023214D01*
X74302678Y-123118452D01*
X74302678Y-123308928D01*
X74255059Y-123404166D01*
X74207440Y-123451785D01*
X74112202Y-123499404D01*
X53252380Y-121023214D02*
X52252380Y-121023214D01*
X52252380Y-121261309D01*
X52300000Y-121404166D01*
X52395238Y-121499404D01*
X52490476Y-121547023D01*
X52680952Y-121594642D01*
X52823809Y-121594642D01*
X53014285Y-121547023D01*
X53109523Y-121499404D01*
X53204761Y-121404166D01*
X53252380Y-121261309D01*
X53252380Y-121023214D01*
X52252380Y-122499404D02*
X52252380Y-122023214D01*
X52728571Y-121975595D01*
X52680952Y-122023214D01*
X52633333Y-122118452D01*
X52633333Y-122356547D01*
X52680952Y-122451785D01*
X52728571Y-122499404D01*
X52823809Y-122547023D01*
X53061904Y-122547023D01*
X53157142Y-122499404D01*
X53204761Y-122451785D01*
X53252380Y-122356547D01*
X53252380Y-122118452D01*
X53204761Y-122023214D01*
X53157142Y-121975595D01*
X52680952Y-123118452D02*
X52633333Y-123023214D01*
X52585714Y-122975595D01*
X52490476Y-122927976D01*
X52442857Y-122927976D01*
X52347619Y-122975595D01*
X52300000Y-123023214D01*
X52252380Y-123118452D01*
X52252380Y-123308928D01*
X52300000Y-123404166D01*
X52347619Y-123451785D01*
X52442857Y-123499404D01*
X52490476Y-123499404D01*
X52585714Y-123451785D01*
X52633333Y-123404166D01*
X52680952Y-123308928D01*
X52680952Y-123118452D01*
X52728571Y-123023214D01*
X52776190Y-122975595D01*
X52871428Y-122927976D01*
X53061904Y-122927976D01*
X53157142Y-122975595D01*
X53204761Y-123023214D01*
X53252380Y-123118452D01*
X53252380Y-123308928D01*
X53204761Y-123404166D01*
X53157142Y-123451785D01*
X53061904Y-123499404D01*
X52871428Y-123499404D01*
X52776190Y-123451785D01*
X52728571Y-123404166D01*
X52680952Y-123308928D01*
X31821130Y-121023214D02*
X30821130Y-121023214D01*
X30821130Y-121261309D01*
X30868750Y-121404166D01*
X30963988Y-121499404D01*
X31059226Y-121547023D01*
X31249702Y-121594642D01*
X31392559Y-121594642D01*
X31583035Y-121547023D01*
X31678273Y-121499404D01*
X31773511Y-121404166D01*
X31821130Y-121261309D01*
X31821130Y-121023214D01*
X30821130Y-122499404D02*
X30821130Y-122023214D01*
X31297321Y-121975595D01*
X31249702Y-122023214D01*
X31202083Y-122118452D01*
X31202083Y-122356547D01*
X31249702Y-122451785D01*
X31297321Y-122499404D01*
X31392559Y-122547023D01*
X31630654Y-122547023D01*
X31725892Y-122499404D01*
X31773511Y-122451785D01*
X31821130Y-122356547D01*
X31821130Y-122118452D01*
X31773511Y-122023214D01*
X31725892Y-121975595D01*
X30821130Y-122880357D02*
X30821130Y-123547023D01*
X31821130Y-123118452D01*
X305664880Y-101973214D02*
X304664880Y-101973214D01*
X304664880Y-102211309D01*
X304712500Y-102354166D01*
X304807738Y-102449404D01*
X304902976Y-102497023D01*
X305093452Y-102544642D01*
X305236309Y-102544642D01*
X305426785Y-102497023D01*
X305522023Y-102449404D01*
X305617261Y-102354166D01*
X305664880Y-102211309D01*
X305664880Y-101973214D01*
X304664880Y-103449404D02*
X304664880Y-102973214D01*
X305141071Y-102925595D01*
X305093452Y-102973214D01*
X305045833Y-103068452D01*
X305045833Y-103306547D01*
X305093452Y-103401785D01*
X305141071Y-103449404D01*
X305236309Y-103497023D01*
X305474404Y-103497023D01*
X305569642Y-103449404D01*
X305617261Y-103401785D01*
X305664880Y-103306547D01*
X305664880Y-103068452D01*
X305617261Y-102973214D01*
X305569642Y-102925595D01*
X304664880Y-104354166D02*
X304664880Y-104163690D01*
X304712500Y-104068452D01*
X304760119Y-104020833D01*
X304902976Y-103925595D01*
X305093452Y-103877976D01*
X305474404Y-103877976D01*
X305569642Y-103925595D01*
X305617261Y-103973214D01*
X305664880Y-104068452D01*
X305664880Y-104258928D01*
X305617261Y-104354166D01*
X305569642Y-104401785D01*
X305474404Y-104449404D01*
X305236309Y-104449404D01*
X305141071Y-104401785D01*
X305093452Y-104354166D01*
X305045833Y-104258928D01*
X305045833Y-104068452D01*
X305093452Y-103973214D01*
X305141071Y-103925595D01*
X305236309Y-103877976D01*
X274708630Y-101973214D02*
X273708630Y-101973214D01*
X273708630Y-102211309D01*
X273756250Y-102354166D01*
X273851488Y-102449404D01*
X273946726Y-102497023D01*
X274137202Y-102544642D01*
X274280059Y-102544642D01*
X274470535Y-102497023D01*
X274565773Y-102449404D01*
X274661011Y-102354166D01*
X274708630Y-102211309D01*
X274708630Y-101973214D01*
X273708630Y-103449404D02*
X273708630Y-102973214D01*
X274184821Y-102925595D01*
X274137202Y-102973214D01*
X274089583Y-103068452D01*
X274089583Y-103306547D01*
X274137202Y-103401785D01*
X274184821Y-103449404D01*
X274280059Y-103497023D01*
X274518154Y-103497023D01*
X274613392Y-103449404D01*
X274661011Y-103401785D01*
X274708630Y-103306547D01*
X274708630Y-103068452D01*
X274661011Y-102973214D01*
X274613392Y-102925595D01*
X273708630Y-104401785D02*
X273708630Y-103925595D01*
X274184821Y-103877976D01*
X274137202Y-103925595D01*
X274089583Y-104020833D01*
X274089583Y-104258928D01*
X274137202Y-104354166D01*
X274184821Y-104401785D01*
X274280059Y-104449404D01*
X274518154Y-104449404D01*
X274613392Y-104401785D01*
X274661011Y-104354166D01*
X274708630Y-104258928D01*
X274708630Y-104020833D01*
X274661011Y-103925595D01*
X274613392Y-103877976D01*
X243752380Y-101973214D02*
X242752380Y-101973214D01*
X242752380Y-102211309D01*
X242800000Y-102354166D01*
X242895238Y-102449404D01*
X242990476Y-102497023D01*
X243180952Y-102544642D01*
X243323809Y-102544642D01*
X243514285Y-102497023D01*
X243609523Y-102449404D01*
X243704761Y-102354166D01*
X243752380Y-102211309D01*
X243752380Y-101973214D01*
X242752380Y-103449404D02*
X242752380Y-102973214D01*
X243228571Y-102925595D01*
X243180952Y-102973214D01*
X243133333Y-103068452D01*
X243133333Y-103306547D01*
X243180952Y-103401785D01*
X243228571Y-103449404D01*
X243323809Y-103497023D01*
X243561904Y-103497023D01*
X243657142Y-103449404D01*
X243704761Y-103401785D01*
X243752380Y-103306547D01*
X243752380Y-103068452D01*
X243704761Y-102973214D01*
X243657142Y-102925595D01*
X243085714Y-104354166D02*
X243752380Y-104354166D01*
X242704761Y-104116071D02*
X243419047Y-103877976D01*
X243419047Y-104497023D01*
X224702380Y-101973214D02*
X223702380Y-101973214D01*
X223702380Y-102211309D01*
X223750000Y-102354166D01*
X223845238Y-102449404D01*
X223940476Y-102497023D01*
X224130952Y-102544642D01*
X224273809Y-102544642D01*
X224464285Y-102497023D01*
X224559523Y-102449404D01*
X224654761Y-102354166D01*
X224702380Y-102211309D01*
X224702380Y-101973214D01*
X223702380Y-103449404D02*
X223702380Y-102973214D01*
X224178571Y-102925595D01*
X224130952Y-102973214D01*
X224083333Y-103068452D01*
X224083333Y-103306547D01*
X224130952Y-103401785D01*
X224178571Y-103449404D01*
X224273809Y-103497023D01*
X224511904Y-103497023D01*
X224607142Y-103449404D01*
X224654761Y-103401785D01*
X224702380Y-103306547D01*
X224702380Y-103068452D01*
X224654761Y-102973214D01*
X224607142Y-102925595D01*
X223702380Y-103830357D02*
X223702380Y-104449404D01*
X224083333Y-104116071D01*
X224083333Y-104258928D01*
X224130952Y-104354166D01*
X224178571Y-104401785D01*
X224273809Y-104449404D01*
X224511904Y-104449404D01*
X224607142Y-104401785D01*
X224654761Y-104354166D01*
X224702380Y-104258928D01*
X224702380Y-103973214D01*
X224654761Y-103877976D01*
X224607142Y-103830357D01*
X205652380Y-101973214D02*
X204652380Y-101973214D01*
X204652380Y-102211309D01*
X204700000Y-102354166D01*
X204795238Y-102449404D01*
X204890476Y-102497023D01*
X205080952Y-102544642D01*
X205223809Y-102544642D01*
X205414285Y-102497023D01*
X205509523Y-102449404D01*
X205604761Y-102354166D01*
X205652380Y-102211309D01*
X205652380Y-101973214D01*
X204652380Y-103449404D02*
X204652380Y-102973214D01*
X205128571Y-102925595D01*
X205080952Y-102973214D01*
X205033333Y-103068452D01*
X205033333Y-103306547D01*
X205080952Y-103401785D01*
X205128571Y-103449404D01*
X205223809Y-103497023D01*
X205461904Y-103497023D01*
X205557142Y-103449404D01*
X205604761Y-103401785D01*
X205652380Y-103306547D01*
X205652380Y-103068452D01*
X205604761Y-102973214D01*
X205557142Y-102925595D01*
X204747619Y-103877976D02*
X204700000Y-103925595D01*
X204652380Y-104020833D01*
X204652380Y-104258928D01*
X204700000Y-104354166D01*
X204747619Y-104401785D01*
X204842857Y-104449404D01*
X204938095Y-104449404D01*
X205080952Y-104401785D01*
X205652380Y-103830357D01*
X205652380Y-104449404D01*
X186602380Y-101973214D02*
X185602380Y-101973214D01*
X185602380Y-102211309D01*
X185650000Y-102354166D01*
X185745238Y-102449404D01*
X185840476Y-102497023D01*
X186030952Y-102544642D01*
X186173809Y-102544642D01*
X186364285Y-102497023D01*
X186459523Y-102449404D01*
X186554761Y-102354166D01*
X186602380Y-102211309D01*
X186602380Y-101973214D01*
X185602380Y-103449404D02*
X185602380Y-102973214D01*
X186078571Y-102925595D01*
X186030952Y-102973214D01*
X185983333Y-103068452D01*
X185983333Y-103306547D01*
X186030952Y-103401785D01*
X186078571Y-103449404D01*
X186173809Y-103497023D01*
X186411904Y-103497023D01*
X186507142Y-103449404D01*
X186554761Y-103401785D01*
X186602380Y-103306547D01*
X186602380Y-103068452D01*
X186554761Y-102973214D01*
X186507142Y-102925595D01*
X186602380Y-104449404D02*
X186602380Y-103877976D01*
X186602380Y-104163690D02*
X185602380Y-104163690D01*
X185745238Y-104068452D01*
X185840476Y-103973214D01*
X185888095Y-103877976D01*
X167552380Y-101973214D02*
X166552380Y-101973214D01*
X166552380Y-102211309D01*
X166600000Y-102354166D01*
X166695238Y-102449404D01*
X166790476Y-102497023D01*
X166980952Y-102544642D01*
X167123809Y-102544642D01*
X167314285Y-102497023D01*
X167409523Y-102449404D01*
X167504761Y-102354166D01*
X167552380Y-102211309D01*
X167552380Y-101973214D01*
X166552380Y-103449404D02*
X166552380Y-102973214D01*
X167028571Y-102925595D01*
X166980952Y-102973214D01*
X166933333Y-103068452D01*
X166933333Y-103306547D01*
X166980952Y-103401785D01*
X167028571Y-103449404D01*
X167123809Y-103497023D01*
X167361904Y-103497023D01*
X167457142Y-103449404D01*
X167504761Y-103401785D01*
X167552380Y-103306547D01*
X167552380Y-103068452D01*
X167504761Y-102973214D01*
X167457142Y-102925595D01*
X166552380Y-104116071D02*
X166552380Y-104211309D01*
X166600000Y-104306547D01*
X166647619Y-104354166D01*
X166742857Y-104401785D01*
X166933333Y-104449404D01*
X167171428Y-104449404D01*
X167361904Y-104401785D01*
X167457142Y-104354166D01*
X167504761Y-104306547D01*
X167552380Y-104211309D01*
X167552380Y-104116071D01*
X167504761Y-104020833D01*
X167457142Y-103973214D01*
X167361904Y-103925595D01*
X167171428Y-103877976D01*
X166933333Y-103877976D01*
X166742857Y-103925595D01*
X166647619Y-103973214D01*
X166600000Y-104020833D01*
X166552380Y-104116071D01*
X132627380Y-101973214D02*
X131627380Y-101973214D01*
X131627380Y-102211309D01*
X131675000Y-102354166D01*
X131770238Y-102449404D01*
X131865476Y-102497023D01*
X132055952Y-102544642D01*
X132198809Y-102544642D01*
X132389285Y-102497023D01*
X132484523Y-102449404D01*
X132579761Y-102354166D01*
X132627380Y-102211309D01*
X132627380Y-101973214D01*
X131960714Y-103401785D02*
X132627380Y-103401785D01*
X131579761Y-103163690D02*
X132294047Y-102925595D01*
X132294047Y-103544642D01*
X132627380Y-103973214D02*
X132627380Y-104163690D01*
X132579761Y-104258928D01*
X132532142Y-104306547D01*
X132389285Y-104401785D01*
X132198809Y-104449404D01*
X131817857Y-104449404D01*
X131722619Y-104401785D01*
X131675000Y-104354166D01*
X131627380Y-104258928D01*
X131627380Y-104068452D01*
X131675000Y-103973214D01*
X131722619Y-103925595D01*
X131817857Y-103877976D01*
X132055952Y-103877976D01*
X132151190Y-103925595D01*
X132198809Y-103973214D01*
X132246428Y-104068452D01*
X132246428Y-104258928D01*
X132198809Y-104354166D01*
X132151190Y-104401785D01*
X132055952Y-104449404D01*
X129452380Y-101973214D02*
X128452380Y-101973214D01*
X128452380Y-102211309D01*
X128500000Y-102354166D01*
X128595238Y-102449404D01*
X128690476Y-102497023D01*
X128880952Y-102544642D01*
X129023809Y-102544642D01*
X129214285Y-102497023D01*
X129309523Y-102449404D01*
X129404761Y-102354166D01*
X129452380Y-102211309D01*
X129452380Y-101973214D01*
X128785714Y-103401785D02*
X129452380Y-103401785D01*
X128404761Y-103163690D02*
X129119047Y-102925595D01*
X129119047Y-103544642D01*
X128880952Y-104068452D02*
X128833333Y-103973214D01*
X128785714Y-103925595D01*
X128690476Y-103877976D01*
X128642857Y-103877976D01*
X128547619Y-103925595D01*
X128500000Y-103973214D01*
X128452380Y-104068452D01*
X128452380Y-104258928D01*
X128500000Y-104354166D01*
X128547619Y-104401785D01*
X128642857Y-104449404D01*
X128690476Y-104449404D01*
X128785714Y-104401785D01*
X128833333Y-104354166D01*
X128880952Y-104258928D01*
X128880952Y-104068452D01*
X128928571Y-103973214D01*
X128976190Y-103925595D01*
X129071428Y-103877976D01*
X129261904Y-103877976D01*
X129357142Y-103925595D01*
X129404761Y-103973214D01*
X129452380Y-104068452D01*
X129452380Y-104258928D01*
X129404761Y-104354166D01*
X129357142Y-104401785D01*
X129261904Y-104449404D01*
X129071428Y-104449404D01*
X128976190Y-104401785D01*
X128928571Y-104354166D01*
X128880952Y-104258928D01*
X110402380Y-101973214D02*
X109402380Y-101973214D01*
X109402380Y-102211309D01*
X109450000Y-102354166D01*
X109545238Y-102449404D01*
X109640476Y-102497023D01*
X109830952Y-102544642D01*
X109973809Y-102544642D01*
X110164285Y-102497023D01*
X110259523Y-102449404D01*
X110354761Y-102354166D01*
X110402380Y-102211309D01*
X110402380Y-101973214D01*
X109735714Y-103401785D02*
X110402380Y-103401785D01*
X109354761Y-103163690D02*
X110069047Y-102925595D01*
X110069047Y-103544642D01*
X109402380Y-103830357D02*
X109402380Y-104497023D01*
X110402380Y-104068452D01*
X91352380Y-101973214D02*
X90352380Y-101973214D01*
X90352380Y-102211309D01*
X90400000Y-102354166D01*
X90495238Y-102449404D01*
X90590476Y-102497023D01*
X90780952Y-102544642D01*
X90923809Y-102544642D01*
X91114285Y-102497023D01*
X91209523Y-102449404D01*
X91304761Y-102354166D01*
X91352380Y-102211309D01*
X91352380Y-101973214D01*
X90685714Y-103401785D02*
X91352380Y-103401785D01*
X90304761Y-103163690D02*
X91019047Y-102925595D01*
X91019047Y-103544642D01*
X90352380Y-104354166D02*
X90352380Y-104163690D01*
X90400000Y-104068452D01*
X90447619Y-104020833D01*
X90590476Y-103925595D01*
X90780952Y-103877976D01*
X91161904Y-103877976D01*
X91257142Y-103925595D01*
X91304761Y-103973214D01*
X91352380Y-104068452D01*
X91352380Y-104258928D01*
X91304761Y-104354166D01*
X91257142Y-104401785D01*
X91161904Y-104449404D01*
X90923809Y-104449404D01*
X90828571Y-104401785D01*
X90780952Y-104354166D01*
X90733333Y-104258928D01*
X90733333Y-104068452D01*
X90780952Y-103973214D01*
X90828571Y-103925595D01*
X90923809Y-103877976D01*
X72302380Y-101973214D02*
X71302380Y-101973214D01*
X71302380Y-102211309D01*
X71350000Y-102354166D01*
X71445238Y-102449404D01*
X71540476Y-102497023D01*
X71730952Y-102544642D01*
X71873809Y-102544642D01*
X72064285Y-102497023D01*
X72159523Y-102449404D01*
X72254761Y-102354166D01*
X72302380Y-102211309D01*
X72302380Y-101973214D01*
X71635714Y-103401785D02*
X72302380Y-103401785D01*
X71254761Y-103163690D02*
X71969047Y-102925595D01*
X71969047Y-103544642D01*
X71302380Y-104401785D02*
X71302380Y-103925595D01*
X71778571Y-103877976D01*
X71730952Y-103925595D01*
X71683333Y-104020833D01*
X71683333Y-104258928D01*
X71730952Y-104354166D01*
X71778571Y-104401785D01*
X71873809Y-104449404D01*
X72111904Y-104449404D01*
X72207142Y-104401785D01*
X72254761Y-104354166D01*
X72302380Y-104258928D01*
X72302380Y-104020833D01*
X72254761Y-103925595D01*
X72207142Y-103877976D01*
X41346130Y-101973214D02*
X40346130Y-101973214D01*
X40346130Y-102211309D01*
X40393750Y-102354166D01*
X40488988Y-102449404D01*
X40584226Y-102497023D01*
X40774702Y-102544642D01*
X40917559Y-102544642D01*
X41108035Y-102497023D01*
X41203273Y-102449404D01*
X41298511Y-102354166D01*
X41346130Y-102211309D01*
X41346130Y-101973214D01*
X40679464Y-103401785D02*
X41346130Y-103401785D01*
X40298511Y-103163690D02*
X41012797Y-102925595D01*
X41012797Y-103544642D01*
X40679464Y-104354166D02*
X41346130Y-104354166D01*
X40298511Y-104116071D02*
X41012797Y-103877976D01*
X41012797Y-104497023D01*
X284233630Y-82923214D02*
X283233630Y-82923214D01*
X283233630Y-83161309D01*
X283281250Y-83304166D01*
X283376488Y-83399404D01*
X283471726Y-83447023D01*
X283662202Y-83494642D01*
X283805059Y-83494642D01*
X283995535Y-83447023D01*
X284090773Y-83399404D01*
X284186011Y-83304166D01*
X284233630Y-83161309D01*
X284233630Y-82923214D01*
X283566964Y-84351785D02*
X284233630Y-84351785D01*
X283186011Y-84113690D02*
X283900297Y-83875595D01*
X283900297Y-84494642D01*
X283233630Y-84780357D02*
X283233630Y-85399404D01*
X283614583Y-85066071D01*
X283614583Y-85208928D01*
X283662202Y-85304166D01*
X283709821Y-85351785D01*
X283805059Y-85399404D01*
X284043154Y-85399404D01*
X284138392Y-85351785D01*
X284186011Y-85304166D01*
X284233630Y-85208928D01*
X284233630Y-84923214D01*
X284186011Y-84827976D01*
X284138392Y-84780357D01*
X253277380Y-82923214D02*
X252277380Y-82923214D01*
X252277380Y-83161309D01*
X252325000Y-83304166D01*
X252420238Y-83399404D01*
X252515476Y-83447023D01*
X252705952Y-83494642D01*
X252848809Y-83494642D01*
X253039285Y-83447023D01*
X253134523Y-83399404D01*
X253229761Y-83304166D01*
X253277380Y-83161309D01*
X253277380Y-82923214D01*
X252610714Y-84351785D02*
X253277380Y-84351785D01*
X252229761Y-84113690D02*
X252944047Y-83875595D01*
X252944047Y-84494642D01*
X252372619Y-84827976D02*
X252325000Y-84875595D01*
X252277380Y-84970833D01*
X252277380Y-85208928D01*
X252325000Y-85304166D01*
X252372619Y-85351785D01*
X252467857Y-85399404D01*
X252563095Y-85399404D01*
X252705952Y-85351785D01*
X253277380Y-84780357D01*
X253277380Y-85399404D01*
X234227380Y-82923214D02*
X233227380Y-82923214D01*
X233227380Y-83161309D01*
X233275000Y-83304166D01*
X233370238Y-83399404D01*
X233465476Y-83447023D01*
X233655952Y-83494642D01*
X233798809Y-83494642D01*
X233989285Y-83447023D01*
X234084523Y-83399404D01*
X234179761Y-83304166D01*
X234227380Y-83161309D01*
X234227380Y-82923214D01*
X233560714Y-84351785D02*
X234227380Y-84351785D01*
X233179761Y-84113690D02*
X233894047Y-83875595D01*
X233894047Y-84494642D01*
X234227380Y-85399404D02*
X234227380Y-84827976D01*
X234227380Y-85113690D02*
X233227380Y-85113690D01*
X233370238Y-85018452D01*
X233465476Y-84923214D01*
X233513095Y-84827976D01*
X215177380Y-82923214D02*
X214177380Y-82923214D01*
X214177380Y-83161309D01*
X214225000Y-83304166D01*
X214320238Y-83399404D01*
X214415476Y-83447023D01*
X214605952Y-83494642D01*
X214748809Y-83494642D01*
X214939285Y-83447023D01*
X215034523Y-83399404D01*
X215129761Y-83304166D01*
X215177380Y-83161309D01*
X215177380Y-82923214D01*
X214510714Y-84351785D02*
X215177380Y-84351785D01*
X214129761Y-84113690D02*
X214844047Y-83875595D01*
X214844047Y-84494642D01*
X214177380Y-85066071D02*
X214177380Y-85161309D01*
X214225000Y-85256547D01*
X214272619Y-85304166D01*
X214367857Y-85351785D01*
X214558333Y-85399404D01*
X214796428Y-85399404D01*
X214986904Y-85351785D01*
X215082142Y-85304166D01*
X215129761Y-85256547D01*
X215177380Y-85161309D01*
X215177380Y-85066071D01*
X215129761Y-84970833D01*
X215082142Y-84923214D01*
X214986904Y-84875595D01*
X214796428Y-84827976D01*
X214558333Y-84827976D01*
X214367857Y-84875595D01*
X214272619Y-84923214D01*
X214225000Y-84970833D01*
X214177380Y-85066071D01*
X196127380Y-82923214D02*
X195127380Y-82923214D01*
X195127380Y-83161309D01*
X195175000Y-83304166D01*
X195270238Y-83399404D01*
X195365476Y-83447023D01*
X195555952Y-83494642D01*
X195698809Y-83494642D01*
X195889285Y-83447023D01*
X195984523Y-83399404D01*
X196079761Y-83304166D01*
X196127380Y-83161309D01*
X196127380Y-82923214D01*
X195127380Y-83827976D02*
X195127380Y-84447023D01*
X195508333Y-84113690D01*
X195508333Y-84256547D01*
X195555952Y-84351785D01*
X195603571Y-84399404D01*
X195698809Y-84447023D01*
X195936904Y-84447023D01*
X196032142Y-84399404D01*
X196079761Y-84351785D01*
X196127380Y-84256547D01*
X196127380Y-83970833D01*
X196079761Y-83875595D01*
X196032142Y-83827976D01*
X196127380Y-84923214D02*
X196127380Y-85113690D01*
X196079761Y-85208928D01*
X196032142Y-85256547D01*
X195889285Y-85351785D01*
X195698809Y-85399404D01*
X195317857Y-85399404D01*
X195222619Y-85351785D01*
X195175000Y-85304166D01*
X195127380Y-85208928D01*
X195127380Y-85018452D01*
X195175000Y-84923214D01*
X195222619Y-84875595D01*
X195317857Y-84827976D01*
X195555952Y-84827976D01*
X195651190Y-84875595D01*
X195698809Y-84923214D01*
X195746428Y-85018452D01*
X195746428Y-85208928D01*
X195698809Y-85304166D01*
X195651190Y-85351785D01*
X195555952Y-85399404D01*
X177077380Y-82923214D02*
X176077380Y-82923214D01*
X176077380Y-83161309D01*
X176125000Y-83304166D01*
X176220238Y-83399404D01*
X176315476Y-83447023D01*
X176505952Y-83494642D01*
X176648809Y-83494642D01*
X176839285Y-83447023D01*
X176934523Y-83399404D01*
X177029761Y-83304166D01*
X177077380Y-83161309D01*
X177077380Y-82923214D01*
X176077380Y-83827976D02*
X176077380Y-84447023D01*
X176458333Y-84113690D01*
X176458333Y-84256547D01*
X176505952Y-84351785D01*
X176553571Y-84399404D01*
X176648809Y-84447023D01*
X176886904Y-84447023D01*
X176982142Y-84399404D01*
X177029761Y-84351785D01*
X177077380Y-84256547D01*
X177077380Y-83970833D01*
X177029761Y-83875595D01*
X176982142Y-83827976D01*
X176505952Y-85018452D02*
X176458333Y-84923214D01*
X176410714Y-84875595D01*
X176315476Y-84827976D01*
X176267857Y-84827976D01*
X176172619Y-84875595D01*
X176125000Y-84923214D01*
X176077380Y-85018452D01*
X176077380Y-85208928D01*
X176125000Y-85304166D01*
X176172619Y-85351785D01*
X176267857Y-85399404D01*
X176315476Y-85399404D01*
X176410714Y-85351785D01*
X176458333Y-85304166D01*
X176505952Y-85208928D01*
X176505952Y-85018452D01*
X176553571Y-84923214D01*
X176601190Y-84875595D01*
X176696428Y-84827976D01*
X176886904Y-84827976D01*
X176982142Y-84875595D01*
X177029761Y-84923214D01*
X177077380Y-85018452D01*
X177077380Y-85208928D01*
X177029761Y-85304166D01*
X176982142Y-85351785D01*
X176886904Y-85399404D01*
X176696428Y-85399404D01*
X176601190Y-85351785D01*
X176553571Y-85304166D01*
X176505952Y-85208928D01*
X158027380Y-82923214D02*
X157027380Y-82923214D01*
X157027380Y-83161309D01*
X157075000Y-83304166D01*
X157170238Y-83399404D01*
X157265476Y-83447023D01*
X157455952Y-83494642D01*
X157598809Y-83494642D01*
X157789285Y-83447023D01*
X157884523Y-83399404D01*
X157979761Y-83304166D01*
X158027380Y-83161309D01*
X158027380Y-82923214D01*
X157027380Y-83827976D02*
X157027380Y-84447023D01*
X157408333Y-84113690D01*
X157408333Y-84256547D01*
X157455952Y-84351785D01*
X157503571Y-84399404D01*
X157598809Y-84447023D01*
X157836904Y-84447023D01*
X157932142Y-84399404D01*
X157979761Y-84351785D01*
X158027380Y-84256547D01*
X158027380Y-83970833D01*
X157979761Y-83875595D01*
X157932142Y-83827976D01*
X157027380Y-84780357D02*
X157027380Y-85447023D01*
X158027380Y-85018452D01*
X138977380Y-82923214D02*
X137977380Y-82923214D01*
X137977380Y-83161309D01*
X138025000Y-83304166D01*
X138120238Y-83399404D01*
X138215476Y-83447023D01*
X138405952Y-83494642D01*
X138548809Y-83494642D01*
X138739285Y-83447023D01*
X138834523Y-83399404D01*
X138929761Y-83304166D01*
X138977380Y-83161309D01*
X138977380Y-82923214D01*
X137977380Y-83827976D02*
X137977380Y-84447023D01*
X138358333Y-84113690D01*
X138358333Y-84256547D01*
X138405952Y-84351785D01*
X138453571Y-84399404D01*
X138548809Y-84447023D01*
X138786904Y-84447023D01*
X138882142Y-84399404D01*
X138929761Y-84351785D01*
X138977380Y-84256547D01*
X138977380Y-83970833D01*
X138929761Y-83875595D01*
X138882142Y-83827976D01*
X137977380Y-85304166D02*
X137977380Y-85113690D01*
X138025000Y-85018452D01*
X138072619Y-84970833D01*
X138215476Y-84875595D01*
X138405952Y-84827976D01*
X138786904Y-84827976D01*
X138882142Y-84875595D01*
X138929761Y-84923214D01*
X138977380Y-85018452D01*
X138977380Y-85208928D01*
X138929761Y-85304166D01*
X138882142Y-85351785D01*
X138786904Y-85399404D01*
X138548809Y-85399404D01*
X138453571Y-85351785D01*
X138405952Y-85304166D01*
X138358333Y-85208928D01*
X138358333Y-85018452D01*
X138405952Y-84923214D01*
X138453571Y-84875595D01*
X138548809Y-84827976D01*
X119927380Y-82923214D02*
X118927380Y-82923214D01*
X118927380Y-83161309D01*
X118975000Y-83304166D01*
X119070238Y-83399404D01*
X119165476Y-83447023D01*
X119355952Y-83494642D01*
X119498809Y-83494642D01*
X119689285Y-83447023D01*
X119784523Y-83399404D01*
X119879761Y-83304166D01*
X119927380Y-83161309D01*
X119927380Y-82923214D01*
X118927380Y-83827976D02*
X118927380Y-84447023D01*
X119308333Y-84113690D01*
X119308333Y-84256547D01*
X119355952Y-84351785D01*
X119403571Y-84399404D01*
X119498809Y-84447023D01*
X119736904Y-84447023D01*
X119832142Y-84399404D01*
X119879761Y-84351785D01*
X119927380Y-84256547D01*
X119927380Y-83970833D01*
X119879761Y-83875595D01*
X119832142Y-83827976D01*
X118927380Y-85351785D02*
X118927380Y-84875595D01*
X119403571Y-84827976D01*
X119355952Y-84875595D01*
X119308333Y-84970833D01*
X119308333Y-85208928D01*
X119355952Y-85304166D01*
X119403571Y-85351785D01*
X119498809Y-85399404D01*
X119736904Y-85399404D01*
X119832142Y-85351785D01*
X119879761Y-85304166D01*
X119927380Y-85208928D01*
X119927380Y-84970833D01*
X119879761Y-84875595D01*
X119832142Y-84827976D01*
X100877380Y-82923214D02*
X99877380Y-82923214D01*
X99877380Y-83161309D01*
X99925000Y-83304166D01*
X100020238Y-83399404D01*
X100115476Y-83447023D01*
X100305952Y-83494642D01*
X100448809Y-83494642D01*
X100639285Y-83447023D01*
X100734523Y-83399404D01*
X100829761Y-83304166D01*
X100877380Y-83161309D01*
X100877380Y-82923214D01*
X99877380Y-83827976D02*
X99877380Y-84447023D01*
X100258333Y-84113690D01*
X100258333Y-84256547D01*
X100305952Y-84351785D01*
X100353571Y-84399404D01*
X100448809Y-84447023D01*
X100686904Y-84447023D01*
X100782142Y-84399404D01*
X100829761Y-84351785D01*
X100877380Y-84256547D01*
X100877380Y-83970833D01*
X100829761Y-83875595D01*
X100782142Y-83827976D01*
X100210714Y-85304166D02*
X100877380Y-85304166D01*
X99829761Y-85066071D02*
X100544047Y-84827976D01*
X100544047Y-85447023D01*
X81827380Y-82923214D02*
X80827380Y-82923214D01*
X80827380Y-83161309D01*
X80875000Y-83304166D01*
X80970238Y-83399404D01*
X81065476Y-83447023D01*
X81255952Y-83494642D01*
X81398809Y-83494642D01*
X81589285Y-83447023D01*
X81684523Y-83399404D01*
X81779761Y-83304166D01*
X81827380Y-83161309D01*
X81827380Y-82923214D01*
X80827380Y-83827976D02*
X80827380Y-84447023D01*
X81208333Y-84113690D01*
X81208333Y-84256547D01*
X81255952Y-84351785D01*
X81303571Y-84399404D01*
X81398809Y-84447023D01*
X81636904Y-84447023D01*
X81732142Y-84399404D01*
X81779761Y-84351785D01*
X81827380Y-84256547D01*
X81827380Y-83970833D01*
X81779761Y-83875595D01*
X81732142Y-83827976D01*
X80827380Y-84780357D02*
X80827380Y-85399404D01*
X81208333Y-85066071D01*
X81208333Y-85208928D01*
X81255952Y-85304166D01*
X81303571Y-85351785D01*
X81398809Y-85399404D01*
X81636904Y-85399404D01*
X81732142Y-85351785D01*
X81779761Y-85304166D01*
X81827380Y-85208928D01*
X81827380Y-84923214D01*
X81779761Y-84827976D01*
X81732142Y-84780357D01*
X62777380Y-82923214D02*
X61777380Y-82923214D01*
X61777380Y-83161309D01*
X61825000Y-83304166D01*
X61920238Y-83399404D01*
X62015476Y-83447023D01*
X62205952Y-83494642D01*
X62348809Y-83494642D01*
X62539285Y-83447023D01*
X62634523Y-83399404D01*
X62729761Y-83304166D01*
X62777380Y-83161309D01*
X62777380Y-82923214D01*
X61777380Y-83827976D02*
X61777380Y-84447023D01*
X62158333Y-84113690D01*
X62158333Y-84256547D01*
X62205952Y-84351785D01*
X62253571Y-84399404D01*
X62348809Y-84447023D01*
X62586904Y-84447023D01*
X62682142Y-84399404D01*
X62729761Y-84351785D01*
X62777380Y-84256547D01*
X62777380Y-83970833D01*
X62729761Y-83875595D01*
X62682142Y-83827976D01*
X61872619Y-84827976D02*
X61825000Y-84875595D01*
X61777380Y-84970833D01*
X61777380Y-85208928D01*
X61825000Y-85304166D01*
X61872619Y-85351785D01*
X61967857Y-85399404D01*
X62063095Y-85399404D01*
X62205952Y-85351785D01*
X62777380Y-84780357D01*
X62777380Y-85399404D01*
X36583630Y-82923214D02*
X35583630Y-82923214D01*
X35583630Y-83161309D01*
X35631250Y-83304166D01*
X35726488Y-83399404D01*
X35821726Y-83447023D01*
X36012202Y-83494642D01*
X36155059Y-83494642D01*
X36345535Y-83447023D01*
X36440773Y-83399404D01*
X36536011Y-83304166D01*
X36583630Y-83161309D01*
X36583630Y-82923214D01*
X35583630Y-83827976D02*
X35583630Y-84447023D01*
X35964583Y-84113690D01*
X35964583Y-84256547D01*
X36012202Y-84351785D01*
X36059821Y-84399404D01*
X36155059Y-84447023D01*
X36393154Y-84447023D01*
X36488392Y-84399404D01*
X36536011Y-84351785D01*
X36583630Y-84256547D01*
X36583630Y-83970833D01*
X36536011Y-83875595D01*
X36488392Y-83827976D01*
X36583630Y-85399404D02*
X36583630Y-84827976D01*
X36583630Y-85113690D02*
X35583630Y-85113690D01*
X35726488Y-85018452D01*
X35821726Y-84923214D01*
X35869345Y-84827976D01*
X324714880Y-63873214D02*
X323714880Y-63873214D01*
X323714880Y-64111309D01*
X323762500Y-64254166D01*
X323857738Y-64349404D01*
X323952976Y-64397023D01*
X324143452Y-64444642D01*
X324286309Y-64444642D01*
X324476785Y-64397023D01*
X324572023Y-64349404D01*
X324667261Y-64254166D01*
X324714880Y-64111309D01*
X324714880Y-63873214D01*
X323714880Y-64777976D02*
X323714880Y-65397023D01*
X324095833Y-65063690D01*
X324095833Y-65206547D01*
X324143452Y-65301785D01*
X324191071Y-65349404D01*
X324286309Y-65397023D01*
X324524404Y-65397023D01*
X324619642Y-65349404D01*
X324667261Y-65301785D01*
X324714880Y-65206547D01*
X324714880Y-64920833D01*
X324667261Y-64825595D01*
X324619642Y-64777976D01*
X323714880Y-66016071D02*
X323714880Y-66111309D01*
X323762500Y-66206547D01*
X323810119Y-66254166D01*
X323905357Y-66301785D01*
X324095833Y-66349404D01*
X324333928Y-66349404D01*
X324524404Y-66301785D01*
X324619642Y-66254166D01*
X324667261Y-66206547D01*
X324714880Y-66111309D01*
X324714880Y-66016071D01*
X324667261Y-65920833D01*
X324619642Y-65873214D01*
X324524404Y-65825595D01*
X324333928Y-65777976D01*
X324095833Y-65777976D01*
X323905357Y-65825595D01*
X323810119Y-65873214D01*
X323762500Y-65920833D01*
X323714880Y-66016071D01*
X291377380Y-63873214D02*
X290377380Y-63873214D01*
X290377380Y-64111309D01*
X290425000Y-64254166D01*
X290520238Y-64349404D01*
X290615476Y-64397023D01*
X290805952Y-64444642D01*
X290948809Y-64444642D01*
X291139285Y-64397023D01*
X291234523Y-64349404D01*
X291329761Y-64254166D01*
X291377380Y-64111309D01*
X291377380Y-63873214D01*
X290472619Y-64825595D02*
X290425000Y-64873214D01*
X290377380Y-64968452D01*
X290377380Y-65206547D01*
X290425000Y-65301785D01*
X290472619Y-65349404D01*
X290567857Y-65397023D01*
X290663095Y-65397023D01*
X290805952Y-65349404D01*
X291377380Y-64777976D01*
X291377380Y-65397023D01*
X291377380Y-65873214D02*
X291377380Y-66063690D01*
X291329761Y-66158928D01*
X291282142Y-66206547D01*
X291139285Y-66301785D01*
X290948809Y-66349404D01*
X290567857Y-66349404D01*
X290472619Y-66301785D01*
X290425000Y-66254166D01*
X290377380Y-66158928D01*
X290377380Y-65968452D01*
X290425000Y-65873214D01*
X290472619Y-65825595D01*
X290567857Y-65777976D01*
X290805952Y-65777976D01*
X290901190Y-65825595D01*
X290948809Y-65873214D01*
X290996428Y-65968452D01*
X290996428Y-66158928D01*
X290948809Y-66254166D01*
X290901190Y-66301785D01*
X290805952Y-66349404D01*
X267564880Y-63873214D02*
X266564880Y-63873214D01*
X266564880Y-64111309D01*
X266612500Y-64254166D01*
X266707738Y-64349404D01*
X266802976Y-64397023D01*
X266993452Y-64444642D01*
X267136309Y-64444642D01*
X267326785Y-64397023D01*
X267422023Y-64349404D01*
X267517261Y-64254166D01*
X267564880Y-64111309D01*
X267564880Y-63873214D01*
X266660119Y-64825595D02*
X266612500Y-64873214D01*
X266564880Y-64968452D01*
X266564880Y-65206547D01*
X266612500Y-65301785D01*
X266660119Y-65349404D01*
X266755357Y-65397023D01*
X266850595Y-65397023D01*
X266993452Y-65349404D01*
X267564880Y-64777976D01*
X267564880Y-65397023D01*
X266993452Y-65968452D02*
X266945833Y-65873214D01*
X266898214Y-65825595D01*
X266802976Y-65777976D01*
X266755357Y-65777976D01*
X266660119Y-65825595D01*
X266612500Y-65873214D01*
X266564880Y-65968452D01*
X266564880Y-66158928D01*
X266612500Y-66254166D01*
X266660119Y-66301785D01*
X266755357Y-66349404D01*
X266802976Y-66349404D01*
X266898214Y-66301785D01*
X266945833Y-66254166D01*
X266993452Y-66158928D01*
X266993452Y-65968452D01*
X267041071Y-65873214D01*
X267088690Y-65825595D01*
X267183928Y-65777976D01*
X267374404Y-65777976D01*
X267469642Y-65825595D01*
X267517261Y-65873214D01*
X267564880Y-65968452D01*
X267564880Y-66158928D01*
X267517261Y-66254166D01*
X267469642Y-66301785D01*
X267374404Y-66349404D01*
X267183928Y-66349404D01*
X267088690Y-66301785D01*
X267041071Y-66254166D01*
X266993452Y-66158928D01*
X248514880Y-63873214D02*
X247514880Y-63873214D01*
X247514880Y-64111309D01*
X247562500Y-64254166D01*
X247657738Y-64349404D01*
X247752976Y-64397023D01*
X247943452Y-64444642D01*
X248086309Y-64444642D01*
X248276785Y-64397023D01*
X248372023Y-64349404D01*
X248467261Y-64254166D01*
X248514880Y-64111309D01*
X248514880Y-63873214D01*
X247610119Y-64825595D02*
X247562500Y-64873214D01*
X247514880Y-64968452D01*
X247514880Y-65206547D01*
X247562500Y-65301785D01*
X247610119Y-65349404D01*
X247705357Y-65397023D01*
X247800595Y-65397023D01*
X247943452Y-65349404D01*
X248514880Y-64777976D01*
X248514880Y-65397023D01*
X247514880Y-65730357D02*
X247514880Y-66397023D01*
X248514880Y-65968452D01*
X229464880Y-63873214D02*
X228464880Y-63873214D01*
X228464880Y-64111309D01*
X228512500Y-64254166D01*
X228607738Y-64349404D01*
X228702976Y-64397023D01*
X228893452Y-64444642D01*
X229036309Y-64444642D01*
X229226785Y-64397023D01*
X229322023Y-64349404D01*
X229417261Y-64254166D01*
X229464880Y-64111309D01*
X229464880Y-63873214D01*
X228560119Y-64825595D02*
X228512500Y-64873214D01*
X228464880Y-64968452D01*
X228464880Y-65206547D01*
X228512500Y-65301785D01*
X228560119Y-65349404D01*
X228655357Y-65397023D01*
X228750595Y-65397023D01*
X228893452Y-65349404D01*
X229464880Y-64777976D01*
X229464880Y-65397023D01*
X228464880Y-66254166D02*
X228464880Y-66063690D01*
X228512500Y-65968452D01*
X228560119Y-65920833D01*
X228702976Y-65825595D01*
X228893452Y-65777976D01*
X229274404Y-65777976D01*
X229369642Y-65825595D01*
X229417261Y-65873214D01*
X229464880Y-65968452D01*
X229464880Y-66158928D01*
X229417261Y-66254166D01*
X229369642Y-66301785D01*
X229274404Y-66349404D01*
X229036309Y-66349404D01*
X228941071Y-66301785D01*
X228893452Y-66254166D01*
X228845833Y-66158928D01*
X228845833Y-65968452D01*
X228893452Y-65873214D01*
X228941071Y-65825595D01*
X229036309Y-65777976D01*
X210414880Y-63873214D02*
X209414880Y-63873214D01*
X209414880Y-64111309D01*
X209462500Y-64254166D01*
X209557738Y-64349404D01*
X209652976Y-64397023D01*
X209843452Y-64444642D01*
X209986309Y-64444642D01*
X210176785Y-64397023D01*
X210272023Y-64349404D01*
X210367261Y-64254166D01*
X210414880Y-64111309D01*
X210414880Y-63873214D01*
X209510119Y-64825595D02*
X209462500Y-64873214D01*
X209414880Y-64968452D01*
X209414880Y-65206547D01*
X209462500Y-65301785D01*
X209510119Y-65349404D01*
X209605357Y-65397023D01*
X209700595Y-65397023D01*
X209843452Y-65349404D01*
X210414880Y-64777976D01*
X210414880Y-65397023D01*
X209414880Y-66301785D02*
X209414880Y-65825595D01*
X209891071Y-65777976D01*
X209843452Y-65825595D01*
X209795833Y-65920833D01*
X209795833Y-66158928D01*
X209843452Y-66254166D01*
X209891071Y-66301785D01*
X209986309Y-66349404D01*
X210224404Y-66349404D01*
X210319642Y-66301785D01*
X210367261Y-66254166D01*
X210414880Y-66158928D01*
X210414880Y-65920833D01*
X210367261Y-65825595D01*
X210319642Y-65777976D01*
X191364880Y-63873214D02*
X190364880Y-63873214D01*
X190364880Y-64111309D01*
X190412500Y-64254166D01*
X190507738Y-64349404D01*
X190602976Y-64397023D01*
X190793452Y-64444642D01*
X190936309Y-64444642D01*
X191126785Y-64397023D01*
X191222023Y-64349404D01*
X191317261Y-64254166D01*
X191364880Y-64111309D01*
X191364880Y-63873214D01*
X190460119Y-64825595D02*
X190412500Y-64873214D01*
X190364880Y-64968452D01*
X190364880Y-65206547D01*
X190412500Y-65301785D01*
X190460119Y-65349404D01*
X190555357Y-65397023D01*
X190650595Y-65397023D01*
X190793452Y-65349404D01*
X191364880Y-64777976D01*
X191364880Y-65397023D01*
X190698214Y-66254166D02*
X191364880Y-66254166D01*
X190317261Y-66016071D02*
X191031547Y-65777976D01*
X191031547Y-66397023D01*
X172314880Y-63873214D02*
X171314880Y-63873214D01*
X171314880Y-64111309D01*
X171362500Y-64254166D01*
X171457738Y-64349404D01*
X171552976Y-64397023D01*
X171743452Y-64444642D01*
X171886309Y-64444642D01*
X172076785Y-64397023D01*
X172172023Y-64349404D01*
X172267261Y-64254166D01*
X172314880Y-64111309D01*
X172314880Y-63873214D01*
X171410119Y-64825595D02*
X171362500Y-64873214D01*
X171314880Y-64968452D01*
X171314880Y-65206547D01*
X171362500Y-65301785D01*
X171410119Y-65349404D01*
X171505357Y-65397023D01*
X171600595Y-65397023D01*
X171743452Y-65349404D01*
X172314880Y-64777976D01*
X172314880Y-65397023D01*
X171314880Y-65730357D02*
X171314880Y-66349404D01*
X171695833Y-66016071D01*
X171695833Y-66158928D01*
X171743452Y-66254166D01*
X171791071Y-66301785D01*
X171886309Y-66349404D01*
X172124404Y-66349404D01*
X172219642Y-66301785D01*
X172267261Y-66254166D01*
X172314880Y-66158928D01*
X172314880Y-65873214D01*
X172267261Y-65777976D01*
X172219642Y-65730357D01*
X153264880Y-63873214D02*
X152264880Y-63873214D01*
X152264880Y-64111309D01*
X152312500Y-64254166D01*
X152407738Y-64349404D01*
X152502976Y-64397023D01*
X152693452Y-64444642D01*
X152836309Y-64444642D01*
X153026785Y-64397023D01*
X153122023Y-64349404D01*
X153217261Y-64254166D01*
X153264880Y-64111309D01*
X153264880Y-63873214D01*
X152360119Y-64825595D02*
X152312500Y-64873214D01*
X152264880Y-64968452D01*
X152264880Y-65206547D01*
X152312500Y-65301785D01*
X152360119Y-65349404D01*
X152455357Y-65397023D01*
X152550595Y-65397023D01*
X152693452Y-65349404D01*
X153264880Y-64777976D01*
X153264880Y-65397023D01*
X152360119Y-65777976D02*
X152312500Y-65825595D01*
X152264880Y-65920833D01*
X152264880Y-66158928D01*
X152312500Y-66254166D01*
X152360119Y-66301785D01*
X152455357Y-66349404D01*
X152550595Y-66349404D01*
X152693452Y-66301785D01*
X153264880Y-65730357D01*
X153264880Y-66349404D01*
X134214880Y-63873214D02*
X133214880Y-63873214D01*
X133214880Y-64111309D01*
X133262500Y-64254166D01*
X133357738Y-64349404D01*
X133452976Y-64397023D01*
X133643452Y-64444642D01*
X133786309Y-64444642D01*
X133976785Y-64397023D01*
X134072023Y-64349404D01*
X134167261Y-64254166D01*
X134214880Y-64111309D01*
X134214880Y-63873214D01*
X133310119Y-64825595D02*
X133262500Y-64873214D01*
X133214880Y-64968452D01*
X133214880Y-65206547D01*
X133262500Y-65301785D01*
X133310119Y-65349404D01*
X133405357Y-65397023D01*
X133500595Y-65397023D01*
X133643452Y-65349404D01*
X134214880Y-64777976D01*
X134214880Y-65397023D01*
X134214880Y-66349404D02*
X134214880Y-65777976D01*
X134214880Y-66063690D02*
X133214880Y-66063690D01*
X133357738Y-65968452D01*
X133452976Y-65873214D01*
X133500595Y-65777976D01*
X115164880Y-63873214D02*
X114164880Y-63873214D01*
X114164880Y-64111309D01*
X114212500Y-64254166D01*
X114307738Y-64349404D01*
X114402976Y-64397023D01*
X114593452Y-64444642D01*
X114736309Y-64444642D01*
X114926785Y-64397023D01*
X115022023Y-64349404D01*
X115117261Y-64254166D01*
X115164880Y-64111309D01*
X115164880Y-63873214D01*
X114260119Y-64825595D02*
X114212500Y-64873214D01*
X114164880Y-64968452D01*
X114164880Y-65206547D01*
X114212500Y-65301785D01*
X114260119Y-65349404D01*
X114355357Y-65397023D01*
X114450595Y-65397023D01*
X114593452Y-65349404D01*
X115164880Y-64777976D01*
X115164880Y-65397023D01*
X114164880Y-66016071D02*
X114164880Y-66111309D01*
X114212500Y-66206547D01*
X114260119Y-66254166D01*
X114355357Y-66301785D01*
X114545833Y-66349404D01*
X114783928Y-66349404D01*
X114974404Y-66301785D01*
X115069642Y-66254166D01*
X115117261Y-66206547D01*
X115164880Y-66111309D01*
X115164880Y-66016071D01*
X115117261Y-65920833D01*
X115069642Y-65873214D01*
X114974404Y-65825595D01*
X114783928Y-65777976D01*
X114545833Y-65777976D01*
X114355357Y-65825595D01*
X114260119Y-65873214D01*
X114212500Y-65920833D01*
X114164880Y-66016071D01*
X96114880Y-63873214D02*
X95114880Y-63873214D01*
X95114880Y-64111309D01*
X95162500Y-64254166D01*
X95257738Y-64349404D01*
X95352976Y-64397023D01*
X95543452Y-64444642D01*
X95686309Y-64444642D01*
X95876785Y-64397023D01*
X95972023Y-64349404D01*
X96067261Y-64254166D01*
X96114880Y-64111309D01*
X96114880Y-63873214D01*
X96114880Y-65397023D02*
X96114880Y-64825595D01*
X96114880Y-65111309D02*
X95114880Y-65111309D01*
X95257738Y-65016071D01*
X95352976Y-64920833D01*
X95400595Y-64825595D01*
X96114880Y-65873214D02*
X96114880Y-66063690D01*
X96067261Y-66158928D01*
X96019642Y-66206547D01*
X95876785Y-66301785D01*
X95686309Y-66349404D01*
X95305357Y-66349404D01*
X95210119Y-66301785D01*
X95162500Y-66254166D01*
X95114880Y-66158928D01*
X95114880Y-65968452D01*
X95162500Y-65873214D01*
X95210119Y-65825595D01*
X95305357Y-65777976D01*
X95543452Y-65777976D01*
X95638690Y-65825595D01*
X95686309Y-65873214D01*
X95733928Y-65968452D01*
X95733928Y-66158928D01*
X95686309Y-66254166D01*
X95638690Y-66301785D01*
X95543452Y-66349404D01*
X77064880Y-63873214D02*
X76064880Y-63873214D01*
X76064880Y-64111309D01*
X76112500Y-64254166D01*
X76207738Y-64349404D01*
X76302976Y-64397023D01*
X76493452Y-64444642D01*
X76636309Y-64444642D01*
X76826785Y-64397023D01*
X76922023Y-64349404D01*
X77017261Y-64254166D01*
X77064880Y-64111309D01*
X77064880Y-63873214D01*
X77064880Y-65397023D02*
X77064880Y-64825595D01*
X77064880Y-65111309D02*
X76064880Y-65111309D01*
X76207738Y-65016071D01*
X76302976Y-64920833D01*
X76350595Y-64825595D01*
X76493452Y-65968452D02*
X76445833Y-65873214D01*
X76398214Y-65825595D01*
X76302976Y-65777976D01*
X76255357Y-65777976D01*
X76160119Y-65825595D01*
X76112500Y-65873214D01*
X76064880Y-65968452D01*
X76064880Y-66158928D01*
X76112500Y-66254166D01*
X76160119Y-66301785D01*
X76255357Y-66349404D01*
X76302976Y-66349404D01*
X76398214Y-66301785D01*
X76445833Y-66254166D01*
X76493452Y-66158928D01*
X76493452Y-65968452D01*
X76541071Y-65873214D01*
X76588690Y-65825595D01*
X76683928Y-65777976D01*
X76874404Y-65777976D01*
X76969642Y-65825595D01*
X77017261Y-65873214D01*
X77064880Y-65968452D01*
X77064880Y-66158928D01*
X77017261Y-66254166D01*
X76969642Y-66301785D01*
X76874404Y-66349404D01*
X76683928Y-66349404D01*
X76588690Y-66301785D01*
X76541071Y-66254166D01*
X76493452Y-66158928D01*
X58014880Y-63873214D02*
X57014880Y-63873214D01*
X57014880Y-64111309D01*
X57062500Y-64254166D01*
X57157738Y-64349404D01*
X57252976Y-64397023D01*
X57443452Y-64444642D01*
X57586309Y-64444642D01*
X57776785Y-64397023D01*
X57872023Y-64349404D01*
X57967261Y-64254166D01*
X58014880Y-64111309D01*
X58014880Y-63873214D01*
X58014880Y-65397023D02*
X58014880Y-64825595D01*
X58014880Y-65111309D02*
X57014880Y-65111309D01*
X57157738Y-65016071D01*
X57252976Y-64920833D01*
X57300595Y-64825595D01*
X57014880Y-65730357D02*
X57014880Y-66397023D01*
X58014880Y-65968452D01*
X34202380Y-63873214D02*
X33202380Y-63873214D01*
X33202380Y-64111309D01*
X33250000Y-64254166D01*
X33345238Y-64349404D01*
X33440476Y-64397023D01*
X33630952Y-64444642D01*
X33773809Y-64444642D01*
X33964285Y-64397023D01*
X34059523Y-64349404D01*
X34154761Y-64254166D01*
X34202380Y-64111309D01*
X34202380Y-63873214D01*
X34202380Y-65397023D02*
X34202380Y-64825595D01*
X34202380Y-65111309D02*
X33202380Y-65111309D01*
X33345238Y-65016071D01*
X33440476Y-64920833D01*
X33488095Y-64825595D01*
X33202380Y-66254166D02*
X33202380Y-66063690D01*
X33250000Y-65968452D01*
X33297619Y-65920833D01*
X33440476Y-65825595D01*
X33630952Y-65777976D01*
X34011904Y-65777976D01*
X34107142Y-65825595D01*
X34154761Y-65873214D01*
X34202380Y-65968452D01*
X34202380Y-66158928D01*
X34154761Y-66254166D01*
X34107142Y-66301785D01*
X34011904Y-66349404D01*
X33773809Y-66349404D01*
X33678571Y-66301785D01*
X33630952Y-66254166D01*
X33583333Y-66158928D01*
X33583333Y-65968452D01*
X33630952Y-65873214D01*
X33678571Y-65825595D01*
X33773809Y-65777976D01*
X324714880Y-44823214D02*
X323714880Y-44823214D01*
X323714880Y-45061309D01*
X323762500Y-45204166D01*
X323857738Y-45299404D01*
X323952976Y-45347023D01*
X324143452Y-45394642D01*
X324286309Y-45394642D01*
X324476785Y-45347023D01*
X324572023Y-45299404D01*
X324667261Y-45204166D01*
X324714880Y-45061309D01*
X324714880Y-44823214D01*
X324714880Y-46347023D02*
X324714880Y-45775595D01*
X324714880Y-46061309D02*
X323714880Y-46061309D01*
X323857738Y-45966071D01*
X323952976Y-45870833D01*
X324000595Y-45775595D01*
X323714880Y-47251785D02*
X323714880Y-46775595D01*
X324191071Y-46727976D01*
X324143452Y-46775595D01*
X324095833Y-46870833D01*
X324095833Y-47108928D01*
X324143452Y-47204166D01*
X324191071Y-47251785D01*
X324286309Y-47299404D01*
X324524404Y-47299404D01*
X324619642Y-47251785D01*
X324667261Y-47204166D01*
X324714880Y-47108928D01*
X324714880Y-46870833D01*
X324667261Y-46775595D01*
X324619642Y-46727976D01*
X286614880Y-44823214D02*
X285614880Y-44823214D01*
X285614880Y-45061309D01*
X285662500Y-45204166D01*
X285757738Y-45299404D01*
X285852976Y-45347023D01*
X286043452Y-45394642D01*
X286186309Y-45394642D01*
X286376785Y-45347023D01*
X286472023Y-45299404D01*
X286567261Y-45204166D01*
X286614880Y-45061309D01*
X286614880Y-44823214D01*
X286614880Y-46347023D02*
X286614880Y-45775595D01*
X286614880Y-46061309D02*
X285614880Y-46061309D01*
X285757738Y-45966071D01*
X285852976Y-45870833D01*
X285900595Y-45775595D01*
X285948214Y-47204166D02*
X286614880Y-47204166D01*
X285567261Y-46966071D02*
X286281547Y-46727976D01*
X286281547Y-47347023D01*
X258039880Y-44823214D02*
X257039880Y-44823214D01*
X257039880Y-45061309D01*
X257087500Y-45204166D01*
X257182738Y-45299404D01*
X257277976Y-45347023D01*
X257468452Y-45394642D01*
X257611309Y-45394642D01*
X257801785Y-45347023D01*
X257897023Y-45299404D01*
X257992261Y-45204166D01*
X258039880Y-45061309D01*
X258039880Y-44823214D01*
X258039880Y-46347023D02*
X258039880Y-45775595D01*
X258039880Y-46061309D02*
X257039880Y-46061309D01*
X257182738Y-45966071D01*
X257277976Y-45870833D01*
X257325595Y-45775595D01*
X257039880Y-46680357D02*
X257039880Y-47299404D01*
X257420833Y-46966071D01*
X257420833Y-47108928D01*
X257468452Y-47204166D01*
X257516071Y-47251785D01*
X257611309Y-47299404D01*
X257849404Y-47299404D01*
X257944642Y-47251785D01*
X257992261Y-47204166D01*
X258039880Y-47108928D01*
X258039880Y-46823214D01*
X257992261Y-46727976D01*
X257944642Y-46680357D01*
X238989880Y-44823214D02*
X237989880Y-44823214D01*
X237989880Y-45061309D01*
X238037500Y-45204166D01*
X238132738Y-45299404D01*
X238227976Y-45347023D01*
X238418452Y-45394642D01*
X238561309Y-45394642D01*
X238751785Y-45347023D01*
X238847023Y-45299404D01*
X238942261Y-45204166D01*
X238989880Y-45061309D01*
X238989880Y-44823214D01*
X238989880Y-46347023D02*
X238989880Y-45775595D01*
X238989880Y-46061309D02*
X237989880Y-46061309D01*
X238132738Y-45966071D01*
X238227976Y-45870833D01*
X238275595Y-45775595D01*
X238085119Y-46727976D02*
X238037500Y-46775595D01*
X237989880Y-46870833D01*
X237989880Y-47108928D01*
X238037500Y-47204166D01*
X238085119Y-47251785D01*
X238180357Y-47299404D01*
X238275595Y-47299404D01*
X238418452Y-47251785D01*
X238989880Y-46680357D01*
X238989880Y-47299404D01*
X219939880Y-44823214D02*
X218939880Y-44823214D01*
X218939880Y-45061309D01*
X218987500Y-45204166D01*
X219082738Y-45299404D01*
X219177976Y-45347023D01*
X219368452Y-45394642D01*
X219511309Y-45394642D01*
X219701785Y-45347023D01*
X219797023Y-45299404D01*
X219892261Y-45204166D01*
X219939880Y-45061309D01*
X219939880Y-44823214D01*
X219939880Y-46347023D02*
X219939880Y-45775595D01*
X219939880Y-46061309D02*
X218939880Y-46061309D01*
X219082738Y-45966071D01*
X219177976Y-45870833D01*
X219225595Y-45775595D01*
X219939880Y-47299404D02*
X219939880Y-46727976D01*
X219939880Y-47013690D02*
X218939880Y-47013690D01*
X219082738Y-46918452D01*
X219177976Y-46823214D01*
X219225595Y-46727976D01*
X200889880Y-44823214D02*
X199889880Y-44823214D01*
X199889880Y-45061309D01*
X199937500Y-45204166D01*
X200032738Y-45299404D01*
X200127976Y-45347023D01*
X200318452Y-45394642D01*
X200461309Y-45394642D01*
X200651785Y-45347023D01*
X200747023Y-45299404D01*
X200842261Y-45204166D01*
X200889880Y-45061309D01*
X200889880Y-44823214D01*
X200889880Y-46347023D02*
X200889880Y-45775595D01*
X200889880Y-46061309D02*
X199889880Y-46061309D01*
X200032738Y-45966071D01*
X200127976Y-45870833D01*
X200175595Y-45775595D01*
X199889880Y-46966071D02*
X199889880Y-47061309D01*
X199937500Y-47156547D01*
X199985119Y-47204166D01*
X200080357Y-47251785D01*
X200270833Y-47299404D01*
X200508928Y-47299404D01*
X200699404Y-47251785D01*
X200794642Y-47204166D01*
X200842261Y-47156547D01*
X200889880Y-47061309D01*
X200889880Y-46966071D01*
X200842261Y-46870833D01*
X200794642Y-46823214D01*
X200699404Y-46775595D01*
X200508928Y-46727976D01*
X200270833Y-46727976D01*
X200080357Y-46775595D01*
X199985119Y-46823214D01*
X199937500Y-46870833D01*
X199889880Y-46966071D01*
X181839880Y-45299404D02*
X180839880Y-45299404D01*
X180839880Y-45537500D01*
X180887500Y-45680357D01*
X180982738Y-45775595D01*
X181077976Y-45823214D01*
X181268452Y-45870833D01*
X181411309Y-45870833D01*
X181601785Y-45823214D01*
X181697023Y-45775595D01*
X181792261Y-45680357D01*
X181839880Y-45537500D01*
X181839880Y-45299404D01*
X181839880Y-46347023D02*
X181839880Y-46537500D01*
X181792261Y-46632738D01*
X181744642Y-46680357D01*
X181601785Y-46775595D01*
X181411309Y-46823214D01*
X181030357Y-46823214D01*
X180935119Y-46775595D01*
X180887500Y-46727976D01*
X180839880Y-46632738D01*
X180839880Y-46442261D01*
X180887500Y-46347023D01*
X180935119Y-46299404D01*
X181030357Y-46251785D01*
X181268452Y-46251785D01*
X181363690Y-46299404D01*
X181411309Y-46347023D01*
X181458928Y-46442261D01*
X181458928Y-46632738D01*
X181411309Y-46727976D01*
X181363690Y-46775595D01*
X181268452Y-46823214D01*
X162789880Y-45299404D02*
X161789880Y-45299404D01*
X161789880Y-45537500D01*
X161837500Y-45680357D01*
X161932738Y-45775595D01*
X162027976Y-45823214D01*
X162218452Y-45870833D01*
X162361309Y-45870833D01*
X162551785Y-45823214D01*
X162647023Y-45775595D01*
X162742261Y-45680357D01*
X162789880Y-45537500D01*
X162789880Y-45299404D01*
X162218452Y-46442261D02*
X162170833Y-46347023D01*
X162123214Y-46299404D01*
X162027976Y-46251785D01*
X161980357Y-46251785D01*
X161885119Y-46299404D01*
X161837500Y-46347023D01*
X161789880Y-46442261D01*
X161789880Y-46632738D01*
X161837500Y-46727976D01*
X161885119Y-46775595D01*
X161980357Y-46823214D01*
X162027976Y-46823214D01*
X162123214Y-46775595D01*
X162170833Y-46727976D01*
X162218452Y-46632738D01*
X162218452Y-46442261D01*
X162266071Y-46347023D01*
X162313690Y-46299404D01*
X162408928Y-46251785D01*
X162599404Y-46251785D01*
X162694642Y-46299404D01*
X162742261Y-46347023D01*
X162789880Y-46442261D01*
X162789880Y-46632738D01*
X162742261Y-46727976D01*
X162694642Y-46775595D01*
X162599404Y-46823214D01*
X162408928Y-46823214D01*
X162313690Y-46775595D01*
X162266071Y-46727976D01*
X162218452Y-46632738D01*
X143739880Y-45299404D02*
X142739880Y-45299404D01*
X142739880Y-45537500D01*
X142787500Y-45680357D01*
X142882738Y-45775595D01*
X142977976Y-45823214D01*
X143168452Y-45870833D01*
X143311309Y-45870833D01*
X143501785Y-45823214D01*
X143597023Y-45775595D01*
X143692261Y-45680357D01*
X143739880Y-45537500D01*
X143739880Y-45299404D01*
X142739880Y-46204166D02*
X142739880Y-46870833D01*
X143739880Y-46442261D01*
X124689880Y-45299404D02*
X123689880Y-45299404D01*
X123689880Y-45537500D01*
X123737500Y-45680357D01*
X123832738Y-45775595D01*
X123927976Y-45823214D01*
X124118452Y-45870833D01*
X124261309Y-45870833D01*
X124451785Y-45823214D01*
X124547023Y-45775595D01*
X124642261Y-45680357D01*
X124689880Y-45537500D01*
X124689880Y-45299404D01*
X123689880Y-46727976D02*
X123689880Y-46537500D01*
X123737500Y-46442261D01*
X123785119Y-46394642D01*
X123927976Y-46299404D01*
X124118452Y-46251785D01*
X124499404Y-46251785D01*
X124594642Y-46299404D01*
X124642261Y-46347023D01*
X124689880Y-46442261D01*
X124689880Y-46632738D01*
X124642261Y-46727976D01*
X124594642Y-46775595D01*
X124499404Y-46823214D01*
X124261309Y-46823214D01*
X124166071Y-46775595D01*
X124118452Y-46727976D01*
X124070833Y-46632738D01*
X124070833Y-46442261D01*
X124118452Y-46347023D01*
X124166071Y-46299404D01*
X124261309Y-46251785D01*
X105639880Y-45299404D02*
X104639880Y-45299404D01*
X104639880Y-45537500D01*
X104687500Y-45680357D01*
X104782738Y-45775595D01*
X104877976Y-45823214D01*
X105068452Y-45870833D01*
X105211309Y-45870833D01*
X105401785Y-45823214D01*
X105497023Y-45775595D01*
X105592261Y-45680357D01*
X105639880Y-45537500D01*
X105639880Y-45299404D01*
X104639880Y-46775595D02*
X104639880Y-46299404D01*
X105116071Y-46251785D01*
X105068452Y-46299404D01*
X105020833Y-46394642D01*
X105020833Y-46632738D01*
X105068452Y-46727976D01*
X105116071Y-46775595D01*
X105211309Y-46823214D01*
X105449404Y-46823214D01*
X105544642Y-46775595D01*
X105592261Y-46727976D01*
X105639880Y-46632738D01*
X105639880Y-46394642D01*
X105592261Y-46299404D01*
X105544642Y-46251785D01*
X86589880Y-45299404D02*
X85589880Y-45299404D01*
X85589880Y-45537500D01*
X85637500Y-45680357D01*
X85732738Y-45775595D01*
X85827976Y-45823214D01*
X86018452Y-45870833D01*
X86161309Y-45870833D01*
X86351785Y-45823214D01*
X86447023Y-45775595D01*
X86542261Y-45680357D01*
X86589880Y-45537500D01*
X86589880Y-45299404D01*
X85923214Y-46727976D02*
X86589880Y-46727976D01*
X85542261Y-46489880D02*
X86256547Y-46251785D01*
X86256547Y-46870833D01*
X67539880Y-45299404D02*
X66539880Y-45299404D01*
X66539880Y-45537500D01*
X66587500Y-45680357D01*
X66682738Y-45775595D01*
X66777976Y-45823214D01*
X66968452Y-45870833D01*
X67111309Y-45870833D01*
X67301785Y-45823214D01*
X67397023Y-45775595D01*
X67492261Y-45680357D01*
X67539880Y-45537500D01*
X67539880Y-45299404D01*
X66539880Y-46204166D02*
X66539880Y-46823214D01*
X66920833Y-46489880D01*
X66920833Y-46632738D01*
X66968452Y-46727976D01*
X67016071Y-46775595D01*
X67111309Y-46823214D01*
X67349404Y-46823214D01*
X67444642Y-46775595D01*
X67492261Y-46727976D01*
X67539880Y-46632738D01*
X67539880Y-46347023D01*
X67492261Y-46251785D01*
X67444642Y-46204166D01*
X48489880Y-45299404D02*
X47489880Y-45299404D01*
X47489880Y-45537500D01*
X47537500Y-45680357D01*
X47632738Y-45775595D01*
X47727976Y-45823214D01*
X47918452Y-45870833D01*
X48061309Y-45870833D01*
X48251785Y-45823214D01*
X48347023Y-45775595D01*
X48442261Y-45680357D01*
X48489880Y-45537500D01*
X48489880Y-45299404D01*
X47585119Y-46251785D02*
X47537500Y-46299404D01*
X47489880Y-46394642D01*
X47489880Y-46632738D01*
X47537500Y-46727976D01*
X47585119Y-46775595D01*
X47680357Y-46823214D01*
X47775595Y-46823214D01*
X47918452Y-46775595D01*
X48489880Y-46204166D01*
X48489880Y-46823214D01*
X13564880Y-45299404D02*
X12564880Y-45299404D01*
X12564880Y-45537500D01*
X12612500Y-45680357D01*
X12707738Y-45775595D01*
X12802976Y-45823214D01*
X12993452Y-45870833D01*
X13136309Y-45870833D01*
X13326785Y-45823214D01*
X13422023Y-45775595D01*
X13517261Y-45680357D01*
X13564880Y-45537500D01*
X13564880Y-45299404D01*
X13564880Y-46823214D02*
X13564880Y-46251785D01*
X13564880Y-46537500D02*
X12564880Y-46537500D01*
X12707738Y-46442261D01*
X12802976Y-46347023D01*
X12850595Y-46251785D01*
X180506666Y-120625142D02*
X180554285Y-120672761D01*
X180697142Y-120720380D01*
X180792380Y-120720380D01*
X180935238Y-120672761D01*
X181030476Y-120577523D01*
X181078095Y-120482285D01*
X181125714Y-120291809D01*
X181125714Y-120148952D01*
X181078095Y-119958476D01*
X181030476Y-119863238D01*
X180935238Y-119768000D01*
X180792380Y-119720380D01*
X180697142Y-119720380D01*
X180554285Y-119768000D01*
X180506666Y-119815619D01*
X179935238Y-120148952D02*
X180030476Y-120101333D01*
X180078095Y-120053714D01*
X180125714Y-119958476D01*
X180125714Y-119910857D01*
X180078095Y-119815619D01*
X180030476Y-119768000D01*
X179935238Y-119720380D01*
X179744761Y-119720380D01*
X179649523Y-119768000D01*
X179601904Y-119815619D01*
X179554285Y-119910857D01*
X179554285Y-119958476D01*
X179601904Y-120053714D01*
X179649523Y-120101333D01*
X179744761Y-120148952D01*
X179935238Y-120148952D01*
X180030476Y-120196571D01*
X180078095Y-120244190D01*
X180125714Y-120339428D01*
X180125714Y-120529904D01*
X180078095Y-120625142D01*
X180030476Y-120672761D01*
X179935238Y-120720380D01*
X179744761Y-120720380D01*
X179649523Y-120672761D01*
X179601904Y-120625142D01*
X179554285Y-120529904D01*
X179554285Y-120339428D01*
X179601904Y-120244190D01*
X179649523Y-120196571D01*
X179744761Y-120148952D01*
X180506666Y-123673142D02*
X180554285Y-123720761D01*
X180697142Y-123768380D01*
X180792380Y-123768380D01*
X180935238Y-123720761D01*
X181030476Y-123625523D01*
X181078095Y-123530285D01*
X181125714Y-123339809D01*
X181125714Y-123196952D01*
X181078095Y-123006476D01*
X181030476Y-122911238D01*
X180935238Y-122816000D01*
X180792380Y-122768380D01*
X180697142Y-122768380D01*
X180554285Y-122816000D01*
X180506666Y-122863619D01*
X180173333Y-122768380D02*
X179506666Y-122768380D01*
X179935238Y-123768380D01*
X153137142Y-124039333D02*
X153184761Y-123991714D01*
X153232380Y-123848857D01*
X153232380Y-123753619D01*
X153184761Y-123610761D01*
X153089523Y-123515523D01*
X152994285Y-123467904D01*
X152803809Y-123420285D01*
X152660952Y-123420285D01*
X152470476Y-123467904D01*
X152375238Y-123515523D01*
X152280000Y-123610761D01*
X152232380Y-123753619D01*
X152232380Y-123848857D01*
X152280000Y-123991714D01*
X152327619Y-124039333D01*
X152232380Y-124372666D02*
X152232380Y-124991714D01*
X152613333Y-124658380D01*
X152613333Y-124801238D01*
X152660952Y-124896476D01*
X152708571Y-124944095D01*
X152803809Y-124991714D01*
X153041904Y-124991714D01*
X153137142Y-124944095D01*
X153184761Y-124896476D01*
X153232380Y-124801238D01*
X153232380Y-124515523D01*
X153184761Y-124420285D01*
X153137142Y-124372666D01*
X172949142Y-126579333D02*
X172996761Y-126531714D01*
X173044380Y-126388857D01*
X173044380Y-126293619D01*
X172996761Y-126150761D01*
X172901523Y-126055523D01*
X172806285Y-126007904D01*
X172615809Y-125960285D01*
X172472952Y-125960285D01*
X172282476Y-126007904D01*
X172187238Y-126055523D01*
X172092000Y-126150761D01*
X172044380Y-126293619D01*
X172044380Y-126388857D01*
X172092000Y-126531714D01*
X172139619Y-126579333D01*
X172139619Y-126960285D02*
X172092000Y-127007904D01*
X172044380Y-127103142D01*
X172044380Y-127341238D01*
X172092000Y-127436476D01*
X172139619Y-127484095D01*
X172234857Y-127531714D01*
X172330095Y-127531714D01*
X172472952Y-127484095D01*
X173044380Y-126912666D01*
X173044380Y-127531714D01*
X171935142Y-114133333D02*
X171982761Y-114085714D01*
X172030380Y-113942857D01*
X172030380Y-113847619D01*
X171982761Y-113704761D01*
X171887523Y-113609523D01*
X171792285Y-113561904D01*
X171601809Y-113514285D01*
X171458952Y-113514285D01*
X171268476Y-113561904D01*
X171173238Y-113609523D01*
X171078000Y-113704761D01*
X171030380Y-113847619D01*
X171030380Y-113942857D01*
X171078000Y-114085714D01*
X171125619Y-114133333D01*
X172030380Y-115085714D02*
X172030380Y-114514285D01*
X172030380Y-114800000D02*
X171030380Y-114800000D01*
X171173238Y-114704761D01*
X171268476Y-114609523D01*
X171316095Y-114514285D01*
M02*
