G04 #@! TF.GenerationSoftware,KiCad,Pcbnew,(5.1.4)-1*
G04 #@! TF.CreationDate,2021-09-28T20:31:06+02:00*
G04 #@! TF.ProjectId,CrowMiniMk2,43726f77-4d69-46e6-994d-6b322e6b6963,rev?*
G04 #@! TF.SameCoordinates,Original*
G04 #@! TF.FileFunction,Copper,L2,Bot*
G04 #@! TF.FilePolarity,Positive*
%FSLAX46Y46*%
G04 Gerber Fmt 4.6, Leading zero omitted, Abs format (unit mm)*
G04 Created by KiCad (PCBNEW (5.1.4)-1) date 2021-09-28 20:31:06*
%MOMM*%
%LPD*%
G04 APERTURE LIST*
%ADD10C,4.400000*%
%ADD11C,2.250000*%
%ADD12C,0.100000*%
%ADD13C,1.150000*%
%ADD14R,0.700000X1.000000*%
%ADD15R,0.700000X0.600000*%
%ADD16R,1.800000X2.100000*%
%ADD17O,1.000000X1.600000*%
%ADD18O,1.000000X2.100000*%
%ADD19R,0.300000X2.450000*%
%ADD20R,0.600000X2.450000*%
%ADD21R,1.500000X0.550000*%
%ADD22R,0.550000X1.500000*%
%ADD23R,1.800000X1.100000*%
%ADD24R,1.700000X1.700000*%
%ADD25C,1.700000*%
%ADD26C,1.425000*%
%ADD27R,1.200000X0.900000*%
%ADD28C,0.800000*%
%ADD29C,0.381000*%
%ADD30C,0.250000*%
%ADD31C,0.200000*%
%ADD32C,0.254000*%
G04 APERTURE END LIST*
D10*
X143668750Y-71437500D03*
X14287500Y-69056250D03*
X48418750Y-100012500D03*
X317500000Y-127000000D03*
X261937500Y-43656250D03*
D11*
X276383750Y-77470000D03*
X270033750Y-80010000D03*
X266858750Y-96520000D03*
X260508750Y-99060000D03*
X33496250Y-96520000D03*
X27146250Y-99060000D03*
X28733750Y-77470000D03*
X22383750Y-80010000D03*
X278765000Y-39370000D03*
X272415000Y-41910000D03*
X283527500Y-58420000D03*
X277177500Y-60960000D03*
X26352500Y-58420000D03*
X20002500Y-60960000D03*
X257333750Y-115570000D03*
X250983750Y-118110000D03*
X233521250Y-115570000D03*
X227171250Y-118110000D03*
X209708750Y-115570000D03*
X203358750Y-118110000D03*
X66833750Y-115570000D03*
X60483750Y-118110000D03*
X45402500Y-115570000D03*
X39052500Y-118110000D03*
X23971250Y-115570000D03*
X17621250Y-118110000D03*
X138271250Y-115570000D03*
X131921250Y-118110000D03*
X316865000Y-115570000D03*
X310515000Y-118110000D03*
X297815000Y-115570000D03*
X291465000Y-118110000D03*
X278765000Y-115570000D03*
X272415000Y-118110000D03*
X297815000Y-96520000D03*
X291465000Y-99060000D03*
X235902500Y-96520000D03*
X229552500Y-99060000D03*
X216852500Y-96520000D03*
X210502500Y-99060000D03*
X197802500Y-96520000D03*
X191452500Y-99060000D03*
X178752500Y-96520000D03*
X172402500Y-99060000D03*
X159702500Y-96520000D03*
X153352500Y-99060000D03*
X140652500Y-96520000D03*
X134302500Y-99060000D03*
X121602500Y-96520000D03*
X115252500Y-99060000D03*
X102552500Y-96520000D03*
X96202500Y-99060000D03*
X83502500Y-96520000D03*
X77152500Y-99060000D03*
X64452500Y-96520000D03*
X58102500Y-99060000D03*
X245427500Y-77470000D03*
X239077500Y-80010000D03*
X226377500Y-77470000D03*
X220027500Y-80010000D03*
X207327500Y-77470000D03*
X200977500Y-80010000D03*
X188277500Y-77470000D03*
X181927500Y-80010000D03*
X169227500Y-77470000D03*
X162877500Y-80010000D03*
X150177500Y-77470000D03*
X143827500Y-80010000D03*
X131127500Y-77470000D03*
X124777500Y-80010000D03*
X112077500Y-77470000D03*
X105727500Y-80010000D03*
X93027500Y-77470000D03*
X86677500Y-80010000D03*
X73977500Y-77470000D03*
X67627500Y-80010000D03*
X54927500Y-77470000D03*
X48577500Y-80010000D03*
X316865000Y-58420000D03*
X310515000Y-60960000D03*
X259715000Y-58420000D03*
X253365000Y-60960000D03*
X240665000Y-58420000D03*
X234315000Y-60960000D03*
X221615000Y-58420000D03*
X215265000Y-60960000D03*
X202565000Y-58420000D03*
X196215000Y-60960000D03*
X183515000Y-58420000D03*
X177165000Y-60960000D03*
X164465000Y-58420000D03*
X158115000Y-60960000D03*
X145415000Y-58420000D03*
X139065000Y-60960000D03*
X126365000Y-58420000D03*
X120015000Y-60960000D03*
X107315000Y-58420000D03*
X100965000Y-60960000D03*
X88265000Y-58420000D03*
X81915000Y-60960000D03*
X69215000Y-58420000D03*
X62865000Y-60960000D03*
X50165000Y-58420000D03*
X43815000Y-60960000D03*
X316865000Y-39370000D03*
X310515000Y-41910000D03*
X250190000Y-39370000D03*
X243840000Y-41910000D03*
X231140000Y-39370000D03*
X224790000Y-41910000D03*
X212090000Y-39370000D03*
X205740000Y-41910000D03*
X193040000Y-39370000D03*
X186690000Y-41910000D03*
X173990000Y-39370000D03*
X167640000Y-41910000D03*
X154940000Y-39370000D03*
X148590000Y-41910000D03*
X135890000Y-39370000D03*
X129540000Y-41910000D03*
X116840000Y-39370000D03*
X110490000Y-41910000D03*
X97790000Y-39370000D03*
X91440000Y-41910000D03*
X78740000Y-39370000D03*
X72390000Y-41910000D03*
X59690000Y-39370000D03*
X53340000Y-41910000D03*
X40640000Y-39370000D03*
X34290000Y-41910000D03*
X21590000Y-39370000D03*
X15240000Y-41910000D03*
D12*
G36*
X36408505Y-35369204D02*
G01*
X36432773Y-35372804D01*
X36456572Y-35378765D01*
X36479671Y-35387030D01*
X36501850Y-35397520D01*
X36522893Y-35410132D01*
X36542599Y-35424747D01*
X36560777Y-35441223D01*
X36577253Y-35459401D01*
X36591868Y-35479107D01*
X36604480Y-35500150D01*
X36614970Y-35522329D01*
X36623235Y-35545428D01*
X36629196Y-35569227D01*
X36632796Y-35593495D01*
X36634000Y-35617999D01*
X36634000Y-36518001D01*
X36632796Y-36542505D01*
X36629196Y-36566773D01*
X36623235Y-36590572D01*
X36614970Y-36613671D01*
X36604480Y-36635850D01*
X36591868Y-36656893D01*
X36577253Y-36676599D01*
X36560777Y-36694777D01*
X36542599Y-36711253D01*
X36522893Y-36725868D01*
X36501850Y-36738480D01*
X36479671Y-36748970D01*
X36456572Y-36757235D01*
X36432773Y-36763196D01*
X36408505Y-36766796D01*
X36384001Y-36768000D01*
X35733999Y-36768000D01*
X35709495Y-36766796D01*
X35685227Y-36763196D01*
X35661428Y-36757235D01*
X35638329Y-36748970D01*
X35616150Y-36738480D01*
X35595107Y-36725868D01*
X35575401Y-36711253D01*
X35557223Y-36694777D01*
X35540747Y-36676599D01*
X35526132Y-36656893D01*
X35513520Y-36635850D01*
X35503030Y-36613671D01*
X35494765Y-36590572D01*
X35488804Y-36566773D01*
X35485204Y-36542505D01*
X35484000Y-36518001D01*
X35484000Y-35617999D01*
X35485204Y-35593495D01*
X35488804Y-35569227D01*
X35494765Y-35545428D01*
X35503030Y-35522329D01*
X35513520Y-35500150D01*
X35526132Y-35479107D01*
X35540747Y-35459401D01*
X35557223Y-35441223D01*
X35575401Y-35424747D01*
X35595107Y-35410132D01*
X35616150Y-35397520D01*
X35638329Y-35387030D01*
X35661428Y-35378765D01*
X35685227Y-35372804D01*
X35709495Y-35369204D01*
X35733999Y-35368000D01*
X36384001Y-35368000D01*
X36408505Y-35369204D01*
X36408505Y-35369204D01*
G37*
D13*
X36059000Y-36068000D03*
D12*
G36*
X38458505Y-35369204D02*
G01*
X38482773Y-35372804D01*
X38506572Y-35378765D01*
X38529671Y-35387030D01*
X38551850Y-35397520D01*
X38572893Y-35410132D01*
X38592599Y-35424747D01*
X38610777Y-35441223D01*
X38627253Y-35459401D01*
X38641868Y-35479107D01*
X38654480Y-35500150D01*
X38664970Y-35522329D01*
X38673235Y-35545428D01*
X38679196Y-35569227D01*
X38682796Y-35593495D01*
X38684000Y-35617999D01*
X38684000Y-36518001D01*
X38682796Y-36542505D01*
X38679196Y-36566773D01*
X38673235Y-36590572D01*
X38664970Y-36613671D01*
X38654480Y-36635850D01*
X38641868Y-36656893D01*
X38627253Y-36676599D01*
X38610777Y-36694777D01*
X38592599Y-36711253D01*
X38572893Y-36725868D01*
X38551850Y-36738480D01*
X38529671Y-36748970D01*
X38506572Y-36757235D01*
X38482773Y-36763196D01*
X38458505Y-36766796D01*
X38434001Y-36768000D01*
X37783999Y-36768000D01*
X37759495Y-36766796D01*
X37735227Y-36763196D01*
X37711428Y-36757235D01*
X37688329Y-36748970D01*
X37666150Y-36738480D01*
X37645107Y-36725868D01*
X37625401Y-36711253D01*
X37607223Y-36694777D01*
X37590747Y-36676599D01*
X37576132Y-36656893D01*
X37563520Y-36635850D01*
X37553030Y-36613671D01*
X37544765Y-36590572D01*
X37538804Y-36566773D01*
X37535204Y-36542505D01*
X37534000Y-36518001D01*
X37534000Y-35617999D01*
X37535204Y-35593495D01*
X37538804Y-35569227D01*
X37544765Y-35545428D01*
X37553030Y-35522329D01*
X37563520Y-35500150D01*
X37576132Y-35479107D01*
X37590747Y-35459401D01*
X37607223Y-35441223D01*
X37625401Y-35424747D01*
X37645107Y-35410132D01*
X37666150Y-35397520D01*
X37688329Y-35387030D01*
X37711428Y-35378765D01*
X37735227Y-35372804D01*
X37759495Y-35369204D01*
X37783999Y-35368000D01*
X38434001Y-35368000D01*
X38458505Y-35369204D01*
X38458505Y-35369204D01*
G37*
D13*
X38109000Y-36068000D03*
D12*
G36*
X161122505Y-106997204D02*
G01*
X161146773Y-107000804D01*
X161170572Y-107006765D01*
X161193671Y-107015030D01*
X161215850Y-107025520D01*
X161236893Y-107038132D01*
X161256599Y-107052747D01*
X161274777Y-107069223D01*
X161291253Y-107087401D01*
X161305868Y-107107107D01*
X161318480Y-107128150D01*
X161328970Y-107150329D01*
X161337235Y-107173428D01*
X161343196Y-107197227D01*
X161346796Y-107221495D01*
X161348000Y-107245999D01*
X161348000Y-108146001D01*
X161346796Y-108170505D01*
X161343196Y-108194773D01*
X161337235Y-108218572D01*
X161328970Y-108241671D01*
X161318480Y-108263850D01*
X161305868Y-108284893D01*
X161291253Y-108304599D01*
X161274777Y-108322777D01*
X161256599Y-108339253D01*
X161236893Y-108353868D01*
X161215850Y-108366480D01*
X161193671Y-108376970D01*
X161170572Y-108385235D01*
X161146773Y-108391196D01*
X161122505Y-108394796D01*
X161098001Y-108396000D01*
X160447999Y-108396000D01*
X160423495Y-108394796D01*
X160399227Y-108391196D01*
X160375428Y-108385235D01*
X160352329Y-108376970D01*
X160330150Y-108366480D01*
X160309107Y-108353868D01*
X160289401Y-108339253D01*
X160271223Y-108322777D01*
X160254747Y-108304599D01*
X160240132Y-108284893D01*
X160227520Y-108263850D01*
X160217030Y-108241671D01*
X160208765Y-108218572D01*
X160202804Y-108194773D01*
X160199204Y-108170505D01*
X160198000Y-108146001D01*
X160198000Y-107245999D01*
X160199204Y-107221495D01*
X160202804Y-107197227D01*
X160208765Y-107173428D01*
X160217030Y-107150329D01*
X160227520Y-107128150D01*
X160240132Y-107107107D01*
X160254747Y-107087401D01*
X160271223Y-107069223D01*
X160289401Y-107052747D01*
X160309107Y-107038132D01*
X160330150Y-107025520D01*
X160352329Y-107015030D01*
X160375428Y-107006765D01*
X160399227Y-107000804D01*
X160423495Y-106997204D01*
X160447999Y-106996000D01*
X161098001Y-106996000D01*
X161122505Y-106997204D01*
X161122505Y-106997204D01*
G37*
D13*
X160773000Y-107696000D03*
D12*
G36*
X163172505Y-106997204D02*
G01*
X163196773Y-107000804D01*
X163220572Y-107006765D01*
X163243671Y-107015030D01*
X163265850Y-107025520D01*
X163286893Y-107038132D01*
X163306599Y-107052747D01*
X163324777Y-107069223D01*
X163341253Y-107087401D01*
X163355868Y-107107107D01*
X163368480Y-107128150D01*
X163378970Y-107150329D01*
X163387235Y-107173428D01*
X163393196Y-107197227D01*
X163396796Y-107221495D01*
X163398000Y-107245999D01*
X163398000Y-108146001D01*
X163396796Y-108170505D01*
X163393196Y-108194773D01*
X163387235Y-108218572D01*
X163378970Y-108241671D01*
X163368480Y-108263850D01*
X163355868Y-108284893D01*
X163341253Y-108304599D01*
X163324777Y-108322777D01*
X163306599Y-108339253D01*
X163286893Y-108353868D01*
X163265850Y-108366480D01*
X163243671Y-108376970D01*
X163220572Y-108385235D01*
X163196773Y-108391196D01*
X163172505Y-108394796D01*
X163148001Y-108396000D01*
X162497999Y-108396000D01*
X162473495Y-108394796D01*
X162449227Y-108391196D01*
X162425428Y-108385235D01*
X162402329Y-108376970D01*
X162380150Y-108366480D01*
X162359107Y-108353868D01*
X162339401Y-108339253D01*
X162321223Y-108322777D01*
X162304747Y-108304599D01*
X162290132Y-108284893D01*
X162277520Y-108263850D01*
X162267030Y-108241671D01*
X162258765Y-108218572D01*
X162252804Y-108194773D01*
X162249204Y-108170505D01*
X162248000Y-108146001D01*
X162248000Y-107245999D01*
X162249204Y-107221495D01*
X162252804Y-107197227D01*
X162258765Y-107173428D01*
X162267030Y-107150329D01*
X162277520Y-107128150D01*
X162290132Y-107107107D01*
X162304747Y-107087401D01*
X162321223Y-107069223D01*
X162339401Y-107052747D01*
X162359107Y-107038132D01*
X162380150Y-107025520D01*
X162402329Y-107015030D01*
X162425428Y-107006765D01*
X162449227Y-107000804D01*
X162473495Y-106997204D01*
X162497999Y-106996000D01*
X163148001Y-106996000D01*
X163172505Y-106997204D01*
X163172505Y-106997204D01*
G37*
D13*
X162823000Y-107696000D03*
D12*
G36*
X150708505Y-111315204D02*
G01*
X150732773Y-111318804D01*
X150756572Y-111324765D01*
X150779671Y-111333030D01*
X150801850Y-111343520D01*
X150822893Y-111356132D01*
X150842599Y-111370747D01*
X150860777Y-111387223D01*
X150877253Y-111405401D01*
X150891868Y-111425107D01*
X150904480Y-111446150D01*
X150914970Y-111468329D01*
X150923235Y-111491428D01*
X150929196Y-111515227D01*
X150932796Y-111539495D01*
X150934000Y-111563999D01*
X150934000Y-112464001D01*
X150932796Y-112488505D01*
X150929196Y-112512773D01*
X150923235Y-112536572D01*
X150914970Y-112559671D01*
X150904480Y-112581850D01*
X150891868Y-112602893D01*
X150877253Y-112622599D01*
X150860777Y-112640777D01*
X150842599Y-112657253D01*
X150822893Y-112671868D01*
X150801850Y-112684480D01*
X150779671Y-112694970D01*
X150756572Y-112703235D01*
X150732773Y-112709196D01*
X150708505Y-112712796D01*
X150684001Y-112714000D01*
X150033999Y-112714000D01*
X150009495Y-112712796D01*
X149985227Y-112709196D01*
X149961428Y-112703235D01*
X149938329Y-112694970D01*
X149916150Y-112684480D01*
X149895107Y-112671868D01*
X149875401Y-112657253D01*
X149857223Y-112640777D01*
X149840747Y-112622599D01*
X149826132Y-112602893D01*
X149813520Y-112581850D01*
X149803030Y-112559671D01*
X149794765Y-112536572D01*
X149788804Y-112512773D01*
X149785204Y-112488505D01*
X149784000Y-112464001D01*
X149784000Y-111563999D01*
X149785204Y-111539495D01*
X149788804Y-111515227D01*
X149794765Y-111491428D01*
X149803030Y-111468329D01*
X149813520Y-111446150D01*
X149826132Y-111425107D01*
X149840747Y-111405401D01*
X149857223Y-111387223D01*
X149875401Y-111370747D01*
X149895107Y-111356132D01*
X149916150Y-111343520D01*
X149938329Y-111333030D01*
X149961428Y-111324765D01*
X149985227Y-111318804D01*
X150009495Y-111315204D01*
X150033999Y-111314000D01*
X150684001Y-111314000D01*
X150708505Y-111315204D01*
X150708505Y-111315204D01*
G37*
D13*
X150359000Y-112014000D03*
D12*
G36*
X152758505Y-111315204D02*
G01*
X152782773Y-111318804D01*
X152806572Y-111324765D01*
X152829671Y-111333030D01*
X152851850Y-111343520D01*
X152872893Y-111356132D01*
X152892599Y-111370747D01*
X152910777Y-111387223D01*
X152927253Y-111405401D01*
X152941868Y-111425107D01*
X152954480Y-111446150D01*
X152964970Y-111468329D01*
X152973235Y-111491428D01*
X152979196Y-111515227D01*
X152982796Y-111539495D01*
X152984000Y-111563999D01*
X152984000Y-112464001D01*
X152982796Y-112488505D01*
X152979196Y-112512773D01*
X152973235Y-112536572D01*
X152964970Y-112559671D01*
X152954480Y-112581850D01*
X152941868Y-112602893D01*
X152927253Y-112622599D01*
X152910777Y-112640777D01*
X152892599Y-112657253D01*
X152872893Y-112671868D01*
X152851850Y-112684480D01*
X152829671Y-112694970D01*
X152806572Y-112703235D01*
X152782773Y-112709196D01*
X152758505Y-112712796D01*
X152734001Y-112714000D01*
X152083999Y-112714000D01*
X152059495Y-112712796D01*
X152035227Y-112709196D01*
X152011428Y-112703235D01*
X151988329Y-112694970D01*
X151966150Y-112684480D01*
X151945107Y-112671868D01*
X151925401Y-112657253D01*
X151907223Y-112640777D01*
X151890747Y-112622599D01*
X151876132Y-112602893D01*
X151863520Y-112581850D01*
X151853030Y-112559671D01*
X151844765Y-112536572D01*
X151838804Y-112512773D01*
X151835204Y-112488505D01*
X151834000Y-112464001D01*
X151834000Y-111563999D01*
X151835204Y-111539495D01*
X151838804Y-111515227D01*
X151844765Y-111491428D01*
X151853030Y-111468329D01*
X151863520Y-111446150D01*
X151876132Y-111425107D01*
X151890747Y-111405401D01*
X151907223Y-111387223D01*
X151925401Y-111370747D01*
X151945107Y-111356132D01*
X151966150Y-111343520D01*
X151988329Y-111333030D01*
X152011428Y-111324765D01*
X152035227Y-111318804D01*
X152059495Y-111315204D01*
X152083999Y-111314000D01*
X152734001Y-111314000D01*
X152758505Y-111315204D01*
X152758505Y-111315204D01*
G37*
D13*
X152409000Y-112014000D03*
D14*
X27448000Y-48502000D03*
D15*
X29448000Y-48702000D03*
X27448000Y-46802000D03*
X29448000Y-46802000D03*
D16*
X176082000Y-121472000D03*
X176082000Y-118572000D03*
X173782000Y-118572000D03*
X173782000Y-121472000D03*
D17*
X32895000Y-31968750D03*
X24255000Y-31968750D03*
D18*
X32895000Y-36148750D03*
X24255000Y-36148750D03*
D19*
X28325000Y-37563750D03*
X28825000Y-37563750D03*
X29325000Y-37563750D03*
X27825000Y-37563750D03*
X29825000Y-37563750D03*
X27325000Y-37563750D03*
X30325000Y-37563750D03*
X26825000Y-37563750D03*
D20*
X26125000Y-37563750D03*
X31025000Y-37563750D03*
X25350000Y-37563750D03*
X31800000Y-37563750D03*
D21*
X155336000Y-116142000D03*
X155336000Y-116942000D03*
X155336000Y-117742000D03*
X155336000Y-118542000D03*
X155336000Y-119342000D03*
X155336000Y-120142000D03*
X155336000Y-120942000D03*
X155336000Y-121742000D03*
X155336000Y-122542000D03*
X155336000Y-123342000D03*
X155336000Y-124142000D03*
D22*
X157036000Y-125842000D03*
X157836000Y-125842000D03*
X158636000Y-125842000D03*
X159436000Y-125842000D03*
X160236000Y-125842000D03*
X161036000Y-125842000D03*
X161836000Y-125842000D03*
X162636000Y-125842000D03*
X163436000Y-125842000D03*
X164236000Y-125842000D03*
X165036000Y-125842000D03*
D21*
X166736000Y-124142000D03*
X166736000Y-123342000D03*
X166736000Y-122542000D03*
X166736000Y-121742000D03*
X166736000Y-120942000D03*
X166736000Y-120142000D03*
X166736000Y-119342000D03*
X166736000Y-118542000D03*
X166736000Y-117742000D03*
X166736000Y-116942000D03*
X166736000Y-116142000D03*
D22*
X165036000Y-114442000D03*
X164236000Y-114442000D03*
X163436000Y-114442000D03*
X162636000Y-114442000D03*
X161836000Y-114442000D03*
X161036000Y-114442000D03*
X160236000Y-114442000D03*
X159436000Y-114442000D03*
X158636000Y-114442000D03*
X157836000Y-114442000D03*
X157036000Y-114442000D03*
D23*
X95960000Y-122754000D03*
X102160000Y-122754000D03*
X95960000Y-119054000D03*
X102160000Y-119054000D03*
D12*
G36*
X26765505Y-41369954D02*
G01*
X26789773Y-41373554D01*
X26813572Y-41379515D01*
X26836671Y-41387780D01*
X26858850Y-41398270D01*
X26879893Y-41410882D01*
X26899599Y-41425497D01*
X26917777Y-41441973D01*
X26934253Y-41460151D01*
X26948868Y-41479857D01*
X26961480Y-41500900D01*
X26971970Y-41523079D01*
X26980235Y-41546178D01*
X26986196Y-41569977D01*
X26989796Y-41594245D01*
X26991000Y-41618749D01*
X26991000Y-42518751D01*
X26989796Y-42543255D01*
X26986196Y-42567523D01*
X26980235Y-42591322D01*
X26971970Y-42614421D01*
X26961480Y-42636600D01*
X26948868Y-42657643D01*
X26934253Y-42677349D01*
X26917777Y-42695527D01*
X26899599Y-42712003D01*
X26879893Y-42726618D01*
X26858850Y-42739230D01*
X26836671Y-42749720D01*
X26813572Y-42757985D01*
X26789773Y-42763946D01*
X26765505Y-42767546D01*
X26741001Y-42768750D01*
X26090999Y-42768750D01*
X26066495Y-42767546D01*
X26042227Y-42763946D01*
X26018428Y-42757985D01*
X25995329Y-42749720D01*
X25973150Y-42739230D01*
X25952107Y-42726618D01*
X25932401Y-42712003D01*
X25914223Y-42695527D01*
X25897747Y-42677349D01*
X25883132Y-42657643D01*
X25870520Y-42636600D01*
X25860030Y-42614421D01*
X25851765Y-42591322D01*
X25845804Y-42567523D01*
X25842204Y-42543255D01*
X25841000Y-42518751D01*
X25841000Y-41618749D01*
X25842204Y-41594245D01*
X25845804Y-41569977D01*
X25851765Y-41546178D01*
X25860030Y-41523079D01*
X25870520Y-41500900D01*
X25883132Y-41479857D01*
X25897747Y-41460151D01*
X25914223Y-41441973D01*
X25932401Y-41425497D01*
X25952107Y-41410882D01*
X25973150Y-41398270D01*
X25995329Y-41387780D01*
X26018428Y-41379515D01*
X26042227Y-41373554D01*
X26066495Y-41369954D01*
X26090999Y-41368750D01*
X26741001Y-41368750D01*
X26765505Y-41369954D01*
X26765505Y-41369954D01*
G37*
D13*
X26416000Y-42068750D03*
D12*
G36*
X24715505Y-41369954D02*
G01*
X24739773Y-41373554D01*
X24763572Y-41379515D01*
X24786671Y-41387780D01*
X24808850Y-41398270D01*
X24829893Y-41410882D01*
X24849599Y-41425497D01*
X24867777Y-41441973D01*
X24884253Y-41460151D01*
X24898868Y-41479857D01*
X24911480Y-41500900D01*
X24921970Y-41523079D01*
X24930235Y-41546178D01*
X24936196Y-41569977D01*
X24939796Y-41594245D01*
X24941000Y-41618749D01*
X24941000Y-42518751D01*
X24939796Y-42543255D01*
X24936196Y-42567523D01*
X24930235Y-42591322D01*
X24921970Y-42614421D01*
X24911480Y-42636600D01*
X24898868Y-42657643D01*
X24884253Y-42677349D01*
X24867777Y-42695527D01*
X24849599Y-42712003D01*
X24829893Y-42726618D01*
X24808850Y-42739230D01*
X24786671Y-42749720D01*
X24763572Y-42757985D01*
X24739773Y-42763946D01*
X24715505Y-42767546D01*
X24691001Y-42768750D01*
X24040999Y-42768750D01*
X24016495Y-42767546D01*
X23992227Y-42763946D01*
X23968428Y-42757985D01*
X23945329Y-42749720D01*
X23923150Y-42739230D01*
X23902107Y-42726618D01*
X23882401Y-42712003D01*
X23864223Y-42695527D01*
X23847747Y-42677349D01*
X23833132Y-42657643D01*
X23820520Y-42636600D01*
X23810030Y-42614421D01*
X23801765Y-42591322D01*
X23795804Y-42567523D01*
X23792204Y-42543255D01*
X23791000Y-42518751D01*
X23791000Y-41618749D01*
X23792204Y-41594245D01*
X23795804Y-41569977D01*
X23801765Y-41546178D01*
X23810030Y-41523079D01*
X23820520Y-41500900D01*
X23833132Y-41479857D01*
X23847747Y-41460151D01*
X23864223Y-41441973D01*
X23882401Y-41425497D01*
X23902107Y-41410882D01*
X23923150Y-41398270D01*
X23945329Y-41387780D01*
X23968428Y-41379515D01*
X23992227Y-41373554D01*
X24016495Y-41369954D01*
X24040999Y-41368750D01*
X24691001Y-41368750D01*
X24715505Y-41369954D01*
X24715505Y-41369954D01*
G37*
D13*
X24366000Y-42068750D03*
D12*
G36*
X30280755Y-41369954D02*
G01*
X30305023Y-41373554D01*
X30328822Y-41379515D01*
X30351921Y-41387780D01*
X30374100Y-41398270D01*
X30395143Y-41410882D01*
X30414849Y-41425497D01*
X30433027Y-41441973D01*
X30449503Y-41460151D01*
X30464118Y-41479857D01*
X30476730Y-41500900D01*
X30487220Y-41523079D01*
X30495485Y-41546178D01*
X30501446Y-41569977D01*
X30505046Y-41594245D01*
X30506250Y-41618749D01*
X30506250Y-42518751D01*
X30505046Y-42543255D01*
X30501446Y-42567523D01*
X30495485Y-42591322D01*
X30487220Y-42614421D01*
X30476730Y-42636600D01*
X30464118Y-42657643D01*
X30449503Y-42677349D01*
X30433027Y-42695527D01*
X30414849Y-42712003D01*
X30395143Y-42726618D01*
X30374100Y-42739230D01*
X30351921Y-42749720D01*
X30328822Y-42757985D01*
X30305023Y-42763946D01*
X30280755Y-42767546D01*
X30256251Y-42768750D01*
X29606249Y-42768750D01*
X29581745Y-42767546D01*
X29557477Y-42763946D01*
X29533678Y-42757985D01*
X29510579Y-42749720D01*
X29488400Y-42739230D01*
X29467357Y-42726618D01*
X29447651Y-42712003D01*
X29429473Y-42695527D01*
X29412997Y-42677349D01*
X29398382Y-42657643D01*
X29385770Y-42636600D01*
X29375280Y-42614421D01*
X29367015Y-42591322D01*
X29361054Y-42567523D01*
X29357454Y-42543255D01*
X29356250Y-42518751D01*
X29356250Y-41618749D01*
X29357454Y-41594245D01*
X29361054Y-41569977D01*
X29367015Y-41546178D01*
X29375280Y-41523079D01*
X29385770Y-41500900D01*
X29398382Y-41479857D01*
X29412997Y-41460151D01*
X29429473Y-41441973D01*
X29447651Y-41425497D01*
X29467357Y-41410882D01*
X29488400Y-41398270D01*
X29510579Y-41387780D01*
X29533678Y-41379515D01*
X29557477Y-41373554D01*
X29581745Y-41369954D01*
X29606249Y-41368750D01*
X30256251Y-41368750D01*
X30280755Y-41369954D01*
X30280755Y-41369954D01*
G37*
D13*
X29931250Y-42068750D03*
D12*
G36*
X32330755Y-41369954D02*
G01*
X32355023Y-41373554D01*
X32378822Y-41379515D01*
X32401921Y-41387780D01*
X32424100Y-41398270D01*
X32445143Y-41410882D01*
X32464849Y-41425497D01*
X32483027Y-41441973D01*
X32499503Y-41460151D01*
X32514118Y-41479857D01*
X32526730Y-41500900D01*
X32537220Y-41523079D01*
X32545485Y-41546178D01*
X32551446Y-41569977D01*
X32555046Y-41594245D01*
X32556250Y-41618749D01*
X32556250Y-42518751D01*
X32555046Y-42543255D01*
X32551446Y-42567523D01*
X32545485Y-42591322D01*
X32537220Y-42614421D01*
X32526730Y-42636600D01*
X32514118Y-42657643D01*
X32499503Y-42677349D01*
X32483027Y-42695527D01*
X32464849Y-42712003D01*
X32445143Y-42726618D01*
X32424100Y-42739230D01*
X32401921Y-42749720D01*
X32378822Y-42757985D01*
X32355023Y-42763946D01*
X32330755Y-42767546D01*
X32306251Y-42768750D01*
X31656249Y-42768750D01*
X31631745Y-42767546D01*
X31607477Y-42763946D01*
X31583678Y-42757985D01*
X31560579Y-42749720D01*
X31538400Y-42739230D01*
X31517357Y-42726618D01*
X31497651Y-42712003D01*
X31479473Y-42695527D01*
X31462997Y-42677349D01*
X31448382Y-42657643D01*
X31435770Y-42636600D01*
X31425280Y-42614421D01*
X31417015Y-42591322D01*
X31411054Y-42567523D01*
X31407454Y-42543255D01*
X31406250Y-42518751D01*
X31406250Y-41618749D01*
X31407454Y-41594245D01*
X31411054Y-41569977D01*
X31417015Y-41546178D01*
X31425280Y-41523079D01*
X31435770Y-41500900D01*
X31448382Y-41479857D01*
X31462997Y-41460151D01*
X31479473Y-41441973D01*
X31497651Y-41425497D01*
X31517357Y-41410882D01*
X31538400Y-41398270D01*
X31560579Y-41387780D01*
X31583678Y-41379515D01*
X31607477Y-41373554D01*
X31631745Y-41369954D01*
X31656249Y-41368750D01*
X32306251Y-41368750D01*
X32330755Y-41369954D01*
X32330755Y-41369954D01*
G37*
D13*
X31981250Y-42068750D03*
D12*
G36*
X153520505Y-127063204D02*
G01*
X153544773Y-127066804D01*
X153568572Y-127072765D01*
X153591671Y-127081030D01*
X153613850Y-127091520D01*
X153634893Y-127104132D01*
X153654599Y-127118747D01*
X153672777Y-127135223D01*
X153689253Y-127153401D01*
X153703868Y-127173107D01*
X153716480Y-127194150D01*
X153726970Y-127216329D01*
X153735235Y-127239428D01*
X153741196Y-127263227D01*
X153744796Y-127287495D01*
X153746000Y-127311999D01*
X153746000Y-128212001D01*
X153744796Y-128236505D01*
X153741196Y-128260773D01*
X153735235Y-128284572D01*
X153726970Y-128307671D01*
X153716480Y-128329850D01*
X153703868Y-128350893D01*
X153689253Y-128370599D01*
X153672777Y-128388777D01*
X153654599Y-128405253D01*
X153634893Y-128419868D01*
X153613850Y-128432480D01*
X153591671Y-128442970D01*
X153568572Y-128451235D01*
X153544773Y-128457196D01*
X153520505Y-128460796D01*
X153496001Y-128462000D01*
X152845999Y-128462000D01*
X152821495Y-128460796D01*
X152797227Y-128457196D01*
X152773428Y-128451235D01*
X152750329Y-128442970D01*
X152728150Y-128432480D01*
X152707107Y-128419868D01*
X152687401Y-128405253D01*
X152669223Y-128388777D01*
X152652747Y-128370599D01*
X152638132Y-128350893D01*
X152625520Y-128329850D01*
X152615030Y-128307671D01*
X152606765Y-128284572D01*
X152600804Y-128260773D01*
X152597204Y-128236505D01*
X152596000Y-128212001D01*
X152596000Y-127311999D01*
X152597204Y-127287495D01*
X152600804Y-127263227D01*
X152606765Y-127239428D01*
X152615030Y-127216329D01*
X152625520Y-127194150D01*
X152638132Y-127173107D01*
X152652747Y-127153401D01*
X152669223Y-127135223D01*
X152687401Y-127118747D01*
X152707107Y-127104132D01*
X152728150Y-127091520D01*
X152750329Y-127081030D01*
X152773428Y-127072765D01*
X152797227Y-127066804D01*
X152821495Y-127063204D01*
X152845999Y-127062000D01*
X153496001Y-127062000D01*
X153520505Y-127063204D01*
X153520505Y-127063204D01*
G37*
D13*
X153171000Y-127762000D03*
D12*
G36*
X151470505Y-127063204D02*
G01*
X151494773Y-127066804D01*
X151518572Y-127072765D01*
X151541671Y-127081030D01*
X151563850Y-127091520D01*
X151584893Y-127104132D01*
X151604599Y-127118747D01*
X151622777Y-127135223D01*
X151639253Y-127153401D01*
X151653868Y-127173107D01*
X151666480Y-127194150D01*
X151676970Y-127216329D01*
X151685235Y-127239428D01*
X151691196Y-127263227D01*
X151694796Y-127287495D01*
X151696000Y-127311999D01*
X151696000Y-128212001D01*
X151694796Y-128236505D01*
X151691196Y-128260773D01*
X151685235Y-128284572D01*
X151676970Y-128307671D01*
X151666480Y-128329850D01*
X151653868Y-128350893D01*
X151639253Y-128370599D01*
X151622777Y-128388777D01*
X151604599Y-128405253D01*
X151584893Y-128419868D01*
X151563850Y-128432480D01*
X151541671Y-128442970D01*
X151518572Y-128451235D01*
X151494773Y-128457196D01*
X151470505Y-128460796D01*
X151446001Y-128462000D01*
X150795999Y-128462000D01*
X150771495Y-128460796D01*
X150747227Y-128457196D01*
X150723428Y-128451235D01*
X150700329Y-128442970D01*
X150678150Y-128432480D01*
X150657107Y-128419868D01*
X150637401Y-128405253D01*
X150619223Y-128388777D01*
X150602747Y-128370599D01*
X150588132Y-128350893D01*
X150575520Y-128329850D01*
X150565030Y-128307671D01*
X150556765Y-128284572D01*
X150550804Y-128260773D01*
X150547204Y-128236505D01*
X150546000Y-128212001D01*
X150546000Y-127311999D01*
X150547204Y-127287495D01*
X150550804Y-127263227D01*
X150556765Y-127239428D01*
X150565030Y-127216329D01*
X150575520Y-127194150D01*
X150588132Y-127173107D01*
X150602747Y-127153401D01*
X150619223Y-127135223D01*
X150637401Y-127118747D01*
X150657107Y-127104132D01*
X150678150Y-127091520D01*
X150700329Y-127081030D01*
X150723428Y-127072765D01*
X150747227Y-127066804D01*
X150771495Y-127063204D01*
X150795999Y-127062000D01*
X151446001Y-127062000D01*
X151470505Y-127063204D01*
X151470505Y-127063204D01*
G37*
D13*
X151121000Y-127762000D03*
D12*
G36*
X154772505Y-108267204D02*
G01*
X154796773Y-108270804D01*
X154820572Y-108276765D01*
X154843671Y-108285030D01*
X154865850Y-108295520D01*
X154886893Y-108308132D01*
X154906599Y-108322747D01*
X154924777Y-108339223D01*
X154941253Y-108357401D01*
X154955868Y-108377107D01*
X154968480Y-108398150D01*
X154978970Y-108420329D01*
X154987235Y-108443428D01*
X154993196Y-108467227D01*
X154996796Y-108491495D01*
X154998000Y-108515999D01*
X154998000Y-109416001D01*
X154996796Y-109440505D01*
X154993196Y-109464773D01*
X154987235Y-109488572D01*
X154978970Y-109511671D01*
X154968480Y-109533850D01*
X154955868Y-109554893D01*
X154941253Y-109574599D01*
X154924777Y-109592777D01*
X154906599Y-109609253D01*
X154886893Y-109623868D01*
X154865850Y-109636480D01*
X154843671Y-109646970D01*
X154820572Y-109655235D01*
X154796773Y-109661196D01*
X154772505Y-109664796D01*
X154748001Y-109666000D01*
X154097999Y-109666000D01*
X154073495Y-109664796D01*
X154049227Y-109661196D01*
X154025428Y-109655235D01*
X154002329Y-109646970D01*
X153980150Y-109636480D01*
X153959107Y-109623868D01*
X153939401Y-109609253D01*
X153921223Y-109592777D01*
X153904747Y-109574599D01*
X153890132Y-109554893D01*
X153877520Y-109533850D01*
X153867030Y-109511671D01*
X153858765Y-109488572D01*
X153852804Y-109464773D01*
X153849204Y-109440505D01*
X153848000Y-109416001D01*
X153848000Y-108515999D01*
X153849204Y-108491495D01*
X153852804Y-108467227D01*
X153858765Y-108443428D01*
X153867030Y-108420329D01*
X153877520Y-108398150D01*
X153890132Y-108377107D01*
X153904747Y-108357401D01*
X153921223Y-108339223D01*
X153939401Y-108322747D01*
X153959107Y-108308132D01*
X153980150Y-108295520D01*
X154002329Y-108285030D01*
X154025428Y-108276765D01*
X154049227Y-108270804D01*
X154073495Y-108267204D01*
X154097999Y-108266000D01*
X154748001Y-108266000D01*
X154772505Y-108267204D01*
X154772505Y-108267204D01*
G37*
D13*
X154423000Y-108966000D03*
D12*
G36*
X156822505Y-108267204D02*
G01*
X156846773Y-108270804D01*
X156870572Y-108276765D01*
X156893671Y-108285030D01*
X156915850Y-108295520D01*
X156936893Y-108308132D01*
X156956599Y-108322747D01*
X156974777Y-108339223D01*
X156991253Y-108357401D01*
X157005868Y-108377107D01*
X157018480Y-108398150D01*
X157028970Y-108420329D01*
X157037235Y-108443428D01*
X157043196Y-108467227D01*
X157046796Y-108491495D01*
X157048000Y-108515999D01*
X157048000Y-109416001D01*
X157046796Y-109440505D01*
X157043196Y-109464773D01*
X157037235Y-109488572D01*
X157028970Y-109511671D01*
X157018480Y-109533850D01*
X157005868Y-109554893D01*
X156991253Y-109574599D01*
X156974777Y-109592777D01*
X156956599Y-109609253D01*
X156936893Y-109623868D01*
X156915850Y-109636480D01*
X156893671Y-109646970D01*
X156870572Y-109655235D01*
X156846773Y-109661196D01*
X156822505Y-109664796D01*
X156798001Y-109666000D01*
X156147999Y-109666000D01*
X156123495Y-109664796D01*
X156099227Y-109661196D01*
X156075428Y-109655235D01*
X156052329Y-109646970D01*
X156030150Y-109636480D01*
X156009107Y-109623868D01*
X155989401Y-109609253D01*
X155971223Y-109592777D01*
X155954747Y-109574599D01*
X155940132Y-109554893D01*
X155927520Y-109533850D01*
X155917030Y-109511671D01*
X155908765Y-109488572D01*
X155902804Y-109464773D01*
X155899204Y-109440505D01*
X155898000Y-109416001D01*
X155898000Y-108515999D01*
X155899204Y-108491495D01*
X155902804Y-108467227D01*
X155908765Y-108443428D01*
X155917030Y-108420329D01*
X155927520Y-108398150D01*
X155940132Y-108377107D01*
X155954747Y-108357401D01*
X155971223Y-108339223D01*
X155989401Y-108322747D01*
X156009107Y-108308132D01*
X156030150Y-108295520D01*
X156052329Y-108285030D01*
X156075428Y-108276765D01*
X156099227Y-108270804D01*
X156123495Y-108267204D01*
X156147999Y-108266000D01*
X156798001Y-108266000D01*
X156822505Y-108267204D01*
X156822505Y-108267204D01*
G37*
D13*
X156473000Y-108966000D03*
D12*
G36*
X154772505Y-105981204D02*
G01*
X154796773Y-105984804D01*
X154820572Y-105990765D01*
X154843671Y-105999030D01*
X154865850Y-106009520D01*
X154886893Y-106022132D01*
X154906599Y-106036747D01*
X154924777Y-106053223D01*
X154941253Y-106071401D01*
X154955868Y-106091107D01*
X154968480Y-106112150D01*
X154978970Y-106134329D01*
X154987235Y-106157428D01*
X154993196Y-106181227D01*
X154996796Y-106205495D01*
X154998000Y-106229999D01*
X154998000Y-107130001D01*
X154996796Y-107154505D01*
X154993196Y-107178773D01*
X154987235Y-107202572D01*
X154978970Y-107225671D01*
X154968480Y-107247850D01*
X154955868Y-107268893D01*
X154941253Y-107288599D01*
X154924777Y-107306777D01*
X154906599Y-107323253D01*
X154886893Y-107337868D01*
X154865850Y-107350480D01*
X154843671Y-107360970D01*
X154820572Y-107369235D01*
X154796773Y-107375196D01*
X154772505Y-107378796D01*
X154748001Y-107380000D01*
X154097999Y-107380000D01*
X154073495Y-107378796D01*
X154049227Y-107375196D01*
X154025428Y-107369235D01*
X154002329Y-107360970D01*
X153980150Y-107350480D01*
X153959107Y-107337868D01*
X153939401Y-107323253D01*
X153921223Y-107306777D01*
X153904747Y-107288599D01*
X153890132Y-107268893D01*
X153877520Y-107247850D01*
X153867030Y-107225671D01*
X153858765Y-107202572D01*
X153852804Y-107178773D01*
X153849204Y-107154505D01*
X153848000Y-107130001D01*
X153848000Y-106229999D01*
X153849204Y-106205495D01*
X153852804Y-106181227D01*
X153858765Y-106157428D01*
X153867030Y-106134329D01*
X153877520Y-106112150D01*
X153890132Y-106091107D01*
X153904747Y-106071401D01*
X153921223Y-106053223D01*
X153939401Y-106036747D01*
X153959107Y-106022132D01*
X153980150Y-106009520D01*
X154002329Y-105999030D01*
X154025428Y-105990765D01*
X154049227Y-105984804D01*
X154073495Y-105981204D01*
X154097999Y-105980000D01*
X154748001Y-105980000D01*
X154772505Y-105981204D01*
X154772505Y-105981204D01*
G37*
D13*
X154423000Y-106680000D03*
D12*
G36*
X156822505Y-105981204D02*
G01*
X156846773Y-105984804D01*
X156870572Y-105990765D01*
X156893671Y-105999030D01*
X156915850Y-106009520D01*
X156936893Y-106022132D01*
X156956599Y-106036747D01*
X156974777Y-106053223D01*
X156991253Y-106071401D01*
X157005868Y-106091107D01*
X157018480Y-106112150D01*
X157028970Y-106134329D01*
X157037235Y-106157428D01*
X157043196Y-106181227D01*
X157046796Y-106205495D01*
X157048000Y-106229999D01*
X157048000Y-107130001D01*
X157046796Y-107154505D01*
X157043196Y-107178773D01*
X157037235Y-107202572D01*
X157028970Y-107225671D01*
X157018480Y-107247850D01*
X157005868Y-107268893D01*
X156991253Y-107288599D01*
X156974777Y-107306777D01*
X156956599Y-107323253D01*
X156936893Y-107337868D01*
X156915850Y-107350480D01*
X156893671Y-107360970D01*
X156870572Y-107369235D01*
X156846773Y-107375196D01*
X156822505Y-107378796D01*
X156798001Y-107380000D01*
X156147999Y-107380000D01*
X156123495Y-107378796D01*
X156099227Y-107375196D01*
X156075428Y-107369235D01*
X156052329Y-107360970D01*
X156030150Y-107350480D01*
X156009107Y-107337868D01*
X155989401Y-107323253D01*
X155971223Y-107306777D01*
X155954747Y-107288599D01*
X155940132Y-107268893D01*
X155927520Y-107247850D01*
X155917030Y-107225671D01*
X155908765Y-107202572D01*
X155902804Y-107178773D01*
X155899204Y-107154505D01*
X155898000Y-107130001D01*
X155898000Y-106229999D01*
X155899204Y-106205495D01*
X155902804Y-106181227D01*
X155908765Y-106157428D01*
X155917030Y-106134329D01*
X155927520Y-106112150D01*
X155940132Y-106091107D01*
X155954747Y-106071401D01*
X155971223Y-106053223D01*
X155989401Y-106036747D01*
X156009107Y-106022132D01*
X156030150Y-106009520D01*
X156052329Y-105999030D01*
X156075428Y-105990765D01*
X156099227Y-105984804D01*
X156123495Y-105981204D01*
X156147999Y-105980000D01*
X156798001Y-105980000D01*
X156822505Y-105981204D01*
X156822505Y-105981204D01*
G37*
D13*
X156473000Y-106680000D03*
D12*
G36*
X107546505Y-121983204D02*
G01*
X107570773Y-121986804D01*
X107594572Y-121992765D01*
X107617671Y-122001030D01*
X107639850Y-122011520D01*
X107660893Y-122024132D01*
X107680599Y-122038747D01*
X107698777Y-122055223D01*
X107715253Y-122073401D01*
X107729868Y-122093107D01*
X107742480Y-122114150D01*
X107752970Y-122136329D01*
X107761235Y-122159428D01*
X107767196Y-122183227D01*
X107770796Y-122207495D01*
X107772000Y-122231999D01*
X107772000Y-123132001D01*
X107770796Y-123156505D01*
X107767196Y-123180773D01*
X107761235Y-123204572D01*
X107752970Y-123227671D01*
X107742480Y-123249850D01*
X107729868Y-123270893D01*
X107715253Y-123290599D01*
X107698777Y-123308777D01*
X107680599Y-123325253D01*
X107660893Y-123339868D01*
X107639850Y-123352480D01*
X107617671Y-123362970D01*
X107594572Y-123371235D01*
X107570773Y-123377196D01*
X107546505Y-123380796D01*
X107522001Y-123382000D01*
X106871999Y-123382000D01*
X106847495Y-123380796D01*
X106823227Y-123377196D01*
X106799428Y-123371235D01*
X106776329Y-123362970D01*
X106754150Y-123352480D01*
X106733107Y-123339868D01*
X106713401Y-123325253D01*
X106695223Y-123308777D01*
X106678747Y-123290599D01*
X106664132Y-123270893D01*
X106651520Y-123249850D01*
X106641030Y-123227671D01*
X106632765Y-123204572D01*
X106626804Y-123180773D01*
X106623204Y-123156505D01*
X106622000Y-123132001D01*
X106622000Y-122231999D01*
X106623204Y-122207495D01*
X106626804Y-122183227D01*
X106632765Y-122159428D01*
X106641030Y-122136329D01*
X106651520Y-122114150D01*
X106664132Y-122093107D01*
X106678747Y-122073401D01*
X106695223Y-122055223D01*
X106713401Y-122038747D01*
X106733107Y-122024132D01*
X106754150Y-122011520D01*
X106776329Y-122001030D01*
X106799428Y-121992765D01*
X106823227Y-121986804D01*
X106847495Y-121983204D01*
X106871999Y-121982000D01*
X107522001Y-121982000D01*
X107546505Y-121983204D01*
X107546505Y-121983204D01*
G37*
D13*
X107197000Y-122682000D03*
D12*
G36*
X105496505Y-121983204D02*
G01*
X105520773Y-121986804D01*
X105544572Y-121992765D01*
X105567671Y-122001030D01*
X105589850Y-122011520D01*
X105610893Y-122024132D01*
X105630599Y-122038747D01*
X105648777Y-122055223D01*
X105665253Y-122073401D01*
X105679868Y-122093107D01*
X105692480Y-122114150D01*
X105702970Y-122136329D01*
X105711235Y-122159428D01*
X105717196Y-122183227D01*
X105720796Y-122207495D01*
X105722000Y-122231999D01*
X105722000Y-123132001D01*
X105720796Y-123156505D01*
X105717196Y-123180773D01*
X105711235Y-123204572D01*
X105702970Y-123227671D01*
X105692480Y-123249850D01*
X105679868Y-123270893D01*
X105665253Y-123290599D01*
X105648777Y-123308777D01*
X105630599Y-123325253D01*
X105610893Y-123339868D01*
X105589850Y-123352480D01*
X105567671Y-123362970D01*
X105544572Y-123371235D01*
X105520773Y-123377196D01*
X105496505Y-123380796D01*
X105472001Y-123382000D01*
X104821999Y-123382000D01*
X104797495Y-123380796D01*
X104773227Y-123377196D01*
X104749428Y-123371235D01*
X104726329Y-123362970D01*
X104704150Y-123352480D01*
X104683107Y-123339868D01*
X104663401Y-123325253D01*
X104645223Y-123308777D01*
X104628747Y-123290599D01*
X104614132Y-123270893D01*
X104601520Y-123249850D01*
X104591030Y-123227671D01*
X104582765Y-123204572D01*
X104576804Y-123180773D01*
X104573204Y-123156505D01*
X104572000Y-123132001D01*
X104572000Y-122231999D01*
X104573204Y-122207495D01*
X104576804Y-122183227D01*
X104582765Y-122159428D01*
X104591030Y-122136329D01*
X104601520Y-122114150D01*
X104614132Y-122093107D01*
X104628747Y-122073401D01*
X104645223Y-122055223D01*
X104663401Y-122038747D01*
X104683107Y-122024132D01*
X104704150Y-122011520D01*
X104726329Y-122001030D01*
X104749428Y-121992765D01*
X104773227Y-121986804D01*
X104797495Y-121983204D01*
X104821999Y-121982000D01*
X105472001Y-121982000D01*
X105496505Y-121983204D01*
X105496505Y-121983204D01*
G37*
D13*
X105147000Y-122682000D03*
D24*
X116078000Y-122428000D03*
D25*
X118618000Y-122428000D03*
X116078000Y-119888000D03*
X118618000Y-119888000D03*
X116078000Y-117348000D03*
X118618000Y-117348000D03*
D12*
G36*
X23255504Y-46823204D02*
G01*
X23279773Y-46826804D01*
X23303571Y-46832765D01*
X23326671Y-46841030D01*
X23348849Y-46851520D01*
X23369893Y-46864133D01*
X23389598Y-46878747D01*
X23407777Y-46895223D01*
X23424253Y-46913402D01*
X23438867Y-46933107D01*
X23451480Y-46954151D01*
X23461970Y-46976329D01*
X23470235Y-46999429D01*
X23476196Y-47023227D01*
X23479796Y-47047496D01*
X23481000Y-47072000D01*
X23481000Y-47997000D01*
X23479796Y-48021504D01*
X23476196Y-48045773D01*
X23470235Y-48069571D01*
X23461970Y-48092671D01*
X23451480Y-48114849D01*
X23438867Y-48135893D01*
X23424253Y-48155598D01*
X23407777Y-48173777D01*
X23389598Y-48190253D01*
X23369893Y-48204867D01*
X23348849Y-48217480D01*
X23326671Y-48227970D01*
X23303571Y-48236235D01*
X23279773Y-48242196D01*
X23255504Y-48245796D01*
X23231000Y-48247000D01*
X21981000Y-48247000D01*
X21956496Y-48245796D01*
X21932227Y-48242196D01*
X21908429Y-48236235D01*
X21885329Y-48227970D01*
X21863151Y-48217480D01*
X21842107Y-48204867D01*
X21822402Y-48190253D01*
X21804223Y-48173777D01*
X21787747Y-48155598D01*
X21773133Y-48135893D01*
X21760520Y-48114849D01*
X21750030Y-48092671D01*
X21741765Y-48069571D01*
X21735804Y-48045773D01*
X21732204Y-48021504D01*
X21731000Y-47997000D01*
X21731000Y-47072000D01*
X21732204Y-47047496D01*
X21735804Y-47023227D01*
X21741765Y-46999429D01*
X21750030Y-46976329D01*
X21760520Y-46954151D01*
X21773133Y-46933107D01*
X21787747Y-46913402D01*
X21804223Y-46895223D01*
X21822402Y-46878747D01*
X21842107Y-46864133D01*
X21863151Y-46851520D01*
X21885329Y-46841030D01*
X21908429Y-46832765D01*
X21932227Y-46826804D01*
X21956496Y-46823204D01*
X21981000Y-46822000D01*
X23231000Y-46822000D01*
X23255504Y-46823204D01*
X23255504Y-46823204D01*
G37*
D26*
X22606000Y-47534500D03*
D12*
G36*
X23255504Y-49798204D02*
G01*
X23279773Y-49801804D01*
X23303571Y-49807765D01*
X23326671Y-49816030D01*
X23348849Y-49826520D01*
X23369893Y-49839133D01*
X23389598Y-49853747D01*
X23407777Y-49870223D01*
X23424253Y-49888402D01*
X23438867Y-49908107D01*
X23451480Y-49929151D01*
X23461970Y-49951329D01*
X23470235Y-49974429D01*
X23476196Y-49998227D01*
X23479796Y-50022496D01*
X23481000Y-50047000D01*
X23481000Y-50972000D01*
X23479796Y-50996504D01*
X23476196Y-51020773D01*
X23470235Y-51044571D01*
X23461970Y-51067671D01*
X23451480Y-51089849D01*
X23438867Y-51110893D01*
X23424253Y-51130598D01*
X23407777Y-51148777D01*
X23389598Y-51165253D01*
X23369893Y-51179867D01*
X23348849Y-51192480D01*
X23326671Y-51202970D01*
X23303571Y-51211235D01*
X23279773Y-51217196D01*
X23255504Y-51220796D01*
X23231000Y-51222000D01*
X21981000Y-51222000D01*
X21956496Y-51220796D01*
X21932227Y-51217196D01*
X21908429Y-51211235D01*
X21885329Y-51202970D01*
X21863151Y-51192480D01*
X21842107Y-51179867D01*
X21822402Y-51165253D01*
X21804223Y-51148777D01*
X21787747Y-51130598D01*
X21773133Y-51110893D01*
X21760520Y-51089849D01*
X21750030Y-51067671D01*
X21741765Y-51044571D01*
X21735804Y-51020773D01*
X21732204Y-50996504D01*
X21731000Y-50972000D01*
X21731000Y-50047000D01*
X21732204Y-50022496D01*
X21735804Y-49998227D01*
X21741765Y-49974429D01*
X21750030Y-49951329D01*
X21760520Y-49929151D01*
X21773133Y-49908107D01*
X21787747Y-49888402D01*
X21804223Y-49870223D01*
X21822402Y-49853747D01*
X21842107Y-49839133D01*
X21863151Y-49826520D01*
X21885329Y-49816030D01*
X21908429Y-49807765D01*
X21932227Y-49801804D01*
X21956496Y-49798204D01*
X21981000Y-49797000D01*
X23231000Y-49797000D01*
X23255504Y-49798204D01*
X23255504Y-49798204D01*
G37*
D26*
X22606000Y-50509500D03*
D27*
X322262500Y-120587500D03*
X322262500Y-123887500D03*
X303212500Y-120587500D03*
X303212500Y-123887500D03*
X284162500Y-120587500D03*
X284162500Y-123887500D03*
X262731250Y-120587500D03*
X262731250Y-123887500D03*
X238918750Y-120587500D03*
X238918750Y-123887500D03*
X215106250Y-120587500D03*
X215106250Y-123887500D03*
X143668750Y-120587500D03*
X143668750Y-123887500D03*
X72231250Y-120587500D03*
X72231250Y-123887500D03*
X50800000Y-120587500D03*
X50800000Y-123887500D03*
X29368750Y-123887500D03*
X29368750Y-120587500D03*
X303212500Y-101537500D03*
X303212500Y-104837500D03*
X272256250Y-101537500D03*
X272256250Y-104837500D03*
X241300000Y-104837500D03*
X241300000Y-101537500D03*
X222250000Y-104837500D03*
X222250000Y-101537500D03*
X203200000Y-104837500D03*
X203200000Y-101537500D03*
X184150000Y-101537500D03*
X184150000Y-104837500D03*
X165100000Y-104837500D03*
X165100000Y-101537500D03*
X130175000Y-104837500D03*
X130175000Y-101537500D03*
X127000000Y-104837500D03*
X127000000Y-101537500D03*
X107950000Y-104837500D03*
X107950000Y-101537500D03*
X88900000Y-104837500D03*
X88900000Y-101537500D03*
X69850000Y-104837500D03*
X69850000Y-101537500D03*
X38893750Y-101537500D03*
X38893750Y-104837500D03*
X281781250Y-82487500D03*
X281781250Y-85787500D03*
X250825000Y-82487500D03*
X250825000Y-85787500D03*
X231775000Y-82487500D03*
X231775000Y-85787500D03*
X212725000Y-82487500D03*
X212725000Y-85787500D03*
X193675000Y-82487500D03*
X193675000Y-85787500D03*
X174625000Y-82487500D03*
X174625000Y-85787500D03*
X155575000Y-82487500D03*
X155575000Y-85787500D03*
X136525000Y-82487500D03*
X136525000Y-85787500D03*
X117475000Y-82487500D03*
X117475000Y-85787500D03*
X98425000Y-82487500D03*
X98425000Y-85787500D03*
X79375000Y-82487500D03*
X79375000Y-85787500D03*
X60325000Y-82487500D03*
X60325000Y-85787500D03*
X34131250Y-82487500D03*
X34131250Y-85787500D03*
X322262500Y-63437500D03*
X322262500Y-66737500D03*
X288925000Y-63437500D03*
X288925000Y-66737500D03*
X265112500Y-63437500D03*
X265112500Y-66737500D03*
X246062500Y-63437500D03*
X246062500Y-66737500D03*
X227012500Y-63437500D03*
X227012500Y-66737500D03*
X207962500Y-63437500D03*
X207962500Y-66737500D03*
X188912500Y-66737500D03*
X188912500Y-63437500D03*
X169862500Y-63437500D03*
X169862500Y-66737500D03*
X150812500Y-63437500D03*
X150812500Y-66737500D03*
X131762500Y-63437500D03*
X131762500Y-66737500D03*
X112712500Y-63437500D03*
X112712500Y-66737500D03*
X93662500Y-63437500D03*
X93662500Y-66737500D03*
X74612500Y-63437500D03*
X74612500Y-66737500D03*
X55562500Y-63437500D03*
X55562500Y-66737500D03*
X31750000Y-63437500D03*
X31750000Y-66737500D03*
X322262500Y-44387500D03*
X322262500Y-47687500D03*
X284162500Y-44387500D03*
X284162500Y-47687500D03*
X255587500Y-44387500D03*
X255587500Y-47687500D03*
X236537500Y-44387500D03*
X236537500Y-47687500D03*
X217487500Y-44387500D03*
X217487500Y-47687500D03*
X198437500Y-44387500D03*
X198437500Y-47687500D03*
X179387500Y-44387500D03*
X179387500Y-47687500D03*
X160337500Y-44387500D03*
X160337500Y-47687500D03*
X141287500Y-44387500D03*
X141287500Y-47687500D03*
X122237500Y-44387500D03*
X122237500Y-47687500D03*
X103187500Y-44387500D03*
X103187500Y-47687500D03*
X84137500Y-44387500D03*
X84137500Y-47687500D03*
X65087500Y-44387500D03*
X65087500Y-47687500D03*
X46037500Y-44387500D03*
X46037500Y-47687500D03*
X11112500Y-44387500D03*
X11112500Y-47687500D03*
D12*
G36*
X181714505Y-117919204D02*
G01*
X181738773Y-117922804D01*
X181762572Y-117928765D01*
X181785671Y-117937030D01*
X181807850Y-117947520D01*
X181828893Y-117960132D01*
X181848599Y-117974747D01*
X181866777Y-117991223D01*
X181883253Y-118009401D01*
X181897868Y-118029107D01*
X181910480Y-118050150D01*
X181920970Y-118072329D01*
X181929235Y-118095428D01*
X181935196Y-118119227D01*
X181938796Y-118143495D01*
X181940000Y-118167999D01*
X181940000Y-119068001D01*
X181938796Y-119092505D01*
X181935196Y-119116773D01*
X181929235Y-119140572D01*
X181920970Y-119163671D01*
X181910480Y-119185850D01*
X181897868Y-119206893D01*
X181883253Y-119226599D01*
X181866777Y-119244777D01*
X181848599Y-119261253D01*
X181828893Y-119275868D01*
X181807850Y-119288480D01*
X181785671Y-119298970D01*
X181762572Y-119307235D01*
X181738773Y-119313196D01*
X181714505Y-119316796D01*
X181690001Y-119318000D01*
X181039999Y-119318000D01*
X181015495Y-119316796D01*
X180991227Y-119313196D01*
X180967428Y-119307235D01*
X180944329Y-119298970D01*
X180922150Y-119288480D01*
X180901107Y-119275868D01*
X180881401Y-119261253D01*
X180863223Y-119244777D01*
X180846747Y-119226599D01*
X180832132Y-119206893D01*
X180819520Y-119185850D01*
X180809030Y-119163671D01*
X180800765Y-119140572D01*
X180794804Y-119116773D01*
X180791204Y-119092505D01*
X180790000Y-119068001D01*
X180790000Y-118167999D01*
X180791204Y-118143495D01*
X180794804Y-118119227D01*
X180800765Y-118095428D01*
X180809030Y-118072329D01*
X180819520Y-118050150D01*
X180832132Y-118029107D01*
X180846747Y-118009401D01*
X180863223Y-117991223D01*
X180881401Y-117974747D01*
X180901107Y-117960132D01*
X180922150Y-117947520D01*
X180944329Y-117937030D01*
X180967428Y-117928765D01*
X180991227Y-117922804D01*
X181015495Y-117919204D01*
X181039999Y-117918000D01*
X181690001Y-117918000D01*
X181714505Y-117919204D01*
X181714505Y-117919204D01*
G37*
D13*
X181365000Y-118618000D03*
D12*
G36*
X179664505Y-117919204D02*
G01*
X179688773Y-117922804D01*
X179712572Y-117928765D01*
X179735671Y-117937030D01*
X179757850Y-117947520D01*
X179778893Y-117960132D01*
X179798599Y-117974747D01*
X179816777Y-117991223D01*
X179833253Y-118009401D01*
X179847868Y-118029107D01*
X179860480Y-118050150D01*
X179870970Y-118072329D01*
X179879235Y-118095428D01*
X179885196Y-118119227D01*
X179888796Y-118143495D01*
X179890000Y-118167999D01*
X179890000Y-119068001D01*
X179888796Y-119092505D01*
X179885196Y-119116773D01*
X179879235Y-119140572D01*
X179870970Y-119163671D01*
X179860480Y-119185850D01*
X179847868Y-119206893D01*
X179833253Y-119226599D01*
X179816777Y-119244777D01*
X179798599Y-119261253D01*
X179778893Y-119275868D01*
X179757850Y-119288480D01*
X179735671Y-119298970D01*
X179712572Y-119307235D01*
X179688773Y-119313196D01*
X179664505Y-119316796D01*
X179640001Y-119318000D01*
X178989999Y-119318000D01*
X178965495Y-119316796D01*
X178941227Y-119313196D01*
X178917428Y-119307235D01*
X178894329Y-119298970D01*
X178872150Y-119288480D01*
X178851107Y-119275868D01*
X178831401Y-119261253D01*
X178813223Y-119244777D01*
X178796747Y-119226599D01*
X178782132Y-119206893D01*
X178769520Y-119185850D01*
X178759030Y-119163671D01*
X178750765Y-119140572D01*
X178744804Y-119116773D01*
X178741204Y-119092505D01*
X178740000Y-119068001D01*
X178740000Y-118167999D01*
X178741204Y-118143495D01*
X178744804Y-118119227D01*
X178750765Y-118095428D01*
X178759030Y-118072329D01*
X178769520Y-118050150D01*
X178782132Y-118029107D01*
X178796747Y-118009401D01*
X178813223Y-117991223D01*
X178831401Y-117974747D01*
X178851107Y-117960132D01*
X178872150Y-117947520D01*
X178894329Y-117937030D01*
X178917428Y-117928765D01*
X178941227Y-117922804D01*
X178965495Y-117919204D01*
X178989999Y-117918000D01*
X179640001Y-117918000D01*
X179664505Y-117919204D01*
X179664505Y-117919204D01*
G37*
D13*
X179315000Y-118618000D03*
D12*
G36*
X181714505Y-120967204D02*
G01*
X181738773Y-120970804D01*
X181762572Y-120976765D01*
X181785671Y-120985030D01*
X181807850Y-120995520D01*
X181828893Y-121008132D01*
X181848599Y-121022747D01*
X181866777Y-121039223D01*
X181883253Y-121057401D01*
X181897868Y-121077107D01*
X181910480Y-121098150D01*
X181920970Y-121120329D01*
X181929235Y-121143428D01*
X181935196Y-121167227D01*
X181938796Y-121191495D01*
X181940000Y-121215999D01*
X181940000Y-122116001D01*
X181938796Y-122140505D01*
X181935196Y-122164773D01*
X181929235Y-122188572D01*
X181920970Y-122211671D01*
X181910480Y-122233850D01*
X181897868Y-122254893D01*
X181883253Y-122274599D01*
X181866777Y-122292777D01*
X181848599Y-122309253D01*
X181828893Y-122323868D01*
X181807850Y-122336480D01*
X181785671Y-122346970D01*
X181762572Y-122355235D01*
X181738773Y-122361196D01*
X181714505Y-122364796D01*
X181690001Y-122366000D01*
X181039999Y-122366000D01*
X181015495Y-122364796D01*
X180991227Y-122361196D01*
X180967428Y-122355235D01*
X180944329Y-122346970D01*
X180922150Y-122336480D01*
X180901107Y-122323868D01*
X180881401Y-122309253D01*
X180863223Y-122292777D01*
X180846747Y-122274599D01*
X180832132Y-122254893D01*
X180819520Y-122233850D01*
X180809030Y-122211671D01*
X180800765Y-122188572D01*
X180794804Y-122164773D01*
X180791204Y-122140505D01*
X180790000Y-122116001D01*
X180790000Y-121215999D01*
X180791204Y-121191495D01*
X180794804Y-121167227D01*
X180800765Y-121143428D01*
X180809030Y-121120329D01*
X180819520Y-121098150D01*
X180832132Y-121077107D01*
X180846747Y-121057401D01*
X180863223Y-121039223D01*
X180881401Y-121022747D01*
X180901107Y-121008132D01*
X180922150Y-120995520D01*
X180944329Y-120985030D01*
X180967428Y-120976765D01*
X180991227Y-120970804D01*
X181015495Y-120967204D01*
X181039999Y-120966000D01*
X181690001Y-120966000D01*
X181714505Y-120967204D01*
X181714505Y-120967204D01*
G37*
D13*
X181365000Y-121666000D03*
D12*
G36*
X179664505Y-120967204D02*
G01*
X179688773Y-120970804D01*
X179712572Y-120976765D01*
X179735671Y-120985030D01*
X179757850Y-120995520D01*
X179778893Y-121008132D01*
X179798599Y-121022747D01*
X179816777Y-121039223D01*
X179833253Y-121057401D01*
X179847868Y-121077107D01*
X179860480Y-121098150D01*
X179870970Y-121120329D01*
X179879235Y-121143428D01*
X179885196Y-121167227D01*
X179888796Y-121191495D01*
X179890000Y-121215999D01*
X179890000Y-122116001D01*
X179888796Y-122140505D01*
X179885196Y-122164773D01*
X179879235Y-122188572D01*
X179870970Y-122211671D01*
X179860480Y-122233850D01*
X179847868Y-122254893D01*
X179833253Y-122274599D01*
X179816777Y-122292777D01*
X179798599Y-122309253D01*
X179778893Y-122323868D01*
X179757850Y-122336480D01*
X179735671Y-122346970D01*
X179712572Y-122355235D01*
X179688773Y-122361196D01*
X179664505Y-122364796D01*
X179640001Y-122366000D01*
X178989999Y-122366000D01*
X178965495Y-122364796D01*
X178941227Y-122361196D01*
X178917428Y-122355235D01*
X178894329Y-122346970D01*
X178872150Y-122336480D01*
X178851107Y-122323868D01*
X178831401Y-122309253D01*
X178813223Y-122292777D01*
X178796747Y-122274599D01*
X178782132Y-122254893D01*
X178769520Y-122233850D01*
X178759030Y-122211671D01*
X178750765Y-122188572D01*
X178744804Y-122164773D01*
X178741204Y-122140505D01*
X178740000Y-122116001D01*
X178740000Y-121215999D01*
X178741204Y-121191495D01*
X178744804Y-121167227D01*
X178750765Y-121143428D01*
X178759030Y-121120329D01*
X178769520Y-121098150D01*
X178782132Y-121077107D01*
X178796747Y-121057401D01*
X178813223Y-121039223D01*
X178831401Y-121022747D01*
X178851107Y-121008132D01*
X178872150Y-120995520D01*
X178894329Y-120985030D01*
X178917428Y-120976765D01*
X178941227Y-120970804D01*
X178965495Y-120967204D01*
X178989999Y-120966000D01*
X179640001Y-120966000D01*
X179664505Y-120967204D01*
X179664505Y-120967204D01*
G37*
D13*
X179315000Y-121666000D03*
D12*
G36*
X151604505Y-122607204D02*
G01*
X151628773Y-122610804D01*
X151652572Y-122616765D01*
X151675671Y-122625030D01*
X151697850Y-122635520D01*
X151718893Y-122648132D01*
X151738599Y-122662747D01*
X151756777Y-122679223D01*
X151773253Y-122697401D01*
X151787868Y-122717107D01*
X151800480Y-122738150D01*
X151810970Y-122760329D01*
X151819235Y-122783428D01*
X151825196Y-122807227D01*
X151828796Y-122831495D01*
X151830000Y-122855999D01*
X151830000Y-123506001D01*
X151828796Y-123530505D01*
X151825196Y-123554773D01*
X151819235Y-123578572D01*
X151810970Y-123601671D01*
X151800480Y-123623850D01*
X151787868Y-123644893D01*
X151773253Y-123664599D01*
X151756777Y-123682777D01*
X151738599Y-123699253D01*
X151718893Y-123713868D01*
X151697850Y-123726480D01*
X151675671Y-123736970D01*
X151652572Y-123745235D01*
X151628773Y-123751196D01*
X151604505Y-123754796D01*
X151580001Y-123756000D01*
X150679999Y-123756000D01*
X150655495Y-123754796D01*
X150631227Y-123751196D01*
X150607428Y-123745235D01*
X150584329Y-123736970D01*
X150562150Y-123726480D01*
X150541107Y-123713868D01*
X150521401Y-123699253D01*
X150503223Y-123682777D01*
X150486747Y-123664599D01*
X150472132Y-123644893D01*
X150459520Y-123623850D01*
X150449030Y-123601671D01*
X150440765Y-123578572D01*
X150434804Y-123554773D01*
X150431204Y-123530505D01*
X150430000Y-123506001D01*
X150430000Y-122855999D01*
X150431204Y-122831495D01*
X150434804Y-122807227D01*
X150440765Y-122783428D01*
X150449030Y-122760329D01*
X150459520Y-122738150D01*
X150472132Y-122717107D01*
X150486747Y-122697401D01*
X150503223Y-122679223D01*
X150521401Y-122662747D01*
X150541107Y-122648132D01*
X150562150Y-122635520D01*
X150584329Y-122625030D01*
X150607428Y-122616765D01*
X150631227Y-122610804D01*
X150655495Y-122607204D01*
X150679999Y-122606000D01*
X151580001Y-122606000D01*
X151604505Y-122607204D01*
X151604505Y-122607204D01*
G37*
D13*
X151130000Y-123181000D03*
D12*
G36*
X151604505Y-124657204D02*
G01*
X151628773Y-124660804D01*
X151652572Y-124666765D01*
X151675671Y-124675030D01*
X151697850Y-124685520D01*
X151718893Y-124698132D01*
X151738599Y-124712747D01*
X151756777Y-124729223D01*
X151773253Y-124747401D01*
X151787868Y-124767107D01*
X151800480Y-124788150D01*
X151810970Y-124810329D01*
X151819235Y-124833428D01*
X151825196Y-124857227D01*
X151828796Y-124881495D01*
X151830000Y-124905999D01*
X151830000Y-125556001D01*
X151828796Y-125580505D01*
X151825196Y-125604773D01*
X151819235Y-125628572D01*
X151810970Y-125651671D01*
X151800480Y-125673850D01*
X151787868Y-125694893D01*
X151773253Y-125714599D01*
X151756777Y-125732777D01*
X151738599Y-125749253D01*
X151718893Y-125763868D01*
X151697850Y-125776480D01*
X151675671Y-125786970D01*
X151652572Y-125795235D01*
X151628773Y-125801196D01*
X151604505Y-125804796D01*
X151580001Y-125806000D01*
X150679999Y-125806000D01*
X150655495Y-125804796D01*
X150631227Y-125801196D01*
X150607428Y-125795235D01*
X150584329Y-125786970D01*
X150562150Y-125776480D01*
X150541107Y-125763868D01*
X150521401Y-125749253D01*
X150503223Y-125732777D01*
X150486747Y-125714599D01*
X150472132Y-125694893D01*
X150459520Y-125673850D01*
X150449030Y-125651671D01*
X150440765Y-125628572D01*
X150434804Y-125604773D01*
X150431204Y-125580505D01*
X150430000Y-125556001D01*
X150430000Y-124905999D01*
X150431204Y-124881495D01*
X150434804Y-124857227D01*
X150440765Y-124833428D01*
X150449030Y-124810329D01*
X150459520Y-124788150D01*
X150472132Y-124767107D01*
X150486747Y-124747401D01*
X150503223Y-124729223D01*
X150521401Y-124712747D01*
X150541107Y-124698132D01*
X150562150Y-124685520D01*
X150584329Y-124675030D01*
X150607428Y-124666765D01*
X150631227Y-124660804D01*
X150655495Y-124657204D01*
X150679999Y-124656000D01*
X151580001Y-124656000D01*
X151604505Y-124657204D01*
X151604505Y-124657204D01*
G37*
D13*
X151130000Y-125231000D03*
D12*
G36*
X171416505Y-125147204D02*
G01*
X171440773Y-125150804D01*
X171464572Y-125156765D01*
X171487671Y-125165030D01*
X171509850Y-125175520D01*
X171530893Y-125188132D01*
X171550599Y-125202747D01*
X171568777Y-125219223D01*
X171585253Y-125237401D01*
X171599868Y-125257107D01*
X171612480Y-125278150D01*
X171622970Y-125300329D01*
X171631235Y-125323428D01*
X171637196Y-125347227D01*
X171640796Y-125371495D01*
X171642000Y-125395999D01*
X171642000Y-126046001D01*
X171640796Y-126070505D01*
X171637196Y-126094773D01*
X171631235Y-126118572D01*
X171622970Y-126141671D01*
X171612480Y-126163850D01*
X171599868Y-126184893D01*
X171585253Y-126204599D01*
X171568777Y-126222777D01*
X171550599Y-126239253D01*
X171530893Y-126253868D01*
X171509850Y-126266480D01*
X171487671Y-126276970D01*
X171464572Y-126285235D01*
X171440773Y-126291196D01*
X171416505Y-126294796D01*
X171392001Y-126296000D01*
X170491999Y-126296000D01*
X170467495Y-126294796D01*
X170443227Y-126291196D01*
X170419428Y-126285235D01*
X170396329Y-126276970D01*
X170374150Y-126266480D01*
X170353107Y-126253868D01*
X170333401Y-126239253D01*
X170315223Y-126222777D01*
X170298747Y-126204599D01*
X170284132Y-126184893D01*
X170271520Y-126163850D01*
X170261030Y-126141671D01*
X170252765Y-126118572D01*
X170246804Y-126094773D01*
X170243204Y-126070505D01*
X170242000Y-126046001D01*
X170242000Y-125395999D01*
X170243204Y-125371495D01*
X170246804Y-125347227D01*
X170252765Y-125323428D01*
X170261030Y-125300329D01*
X170271520Y-125278150D01*
X170284132Y-125257107D01*
X170298747Y-125237401D01*
X170315223Y-125219223D01*
X170333401Y-125202747D01*
X170353107Y-125188132D01*
X170374150Y-125175520D01*
X170396329Y-125165030D01*
X170419428Y-125156765D01*
X170443227Y-125150804D01*
X170467495Y-125147204D01*
X170491999Y-125146000D01*
X171392001Y-125146000D01*
X171416505Y-125147204D01*
X171416505Y-125147204D01*
G37*
D13*
X170942000Y-125721000D03*
D12*
G36*
X171416505Y-127197204D02*
G01*
X171440773Y-127200804D01*
X171464572Y-127206765D01*
X171487671Y-127215030D01*
X171509850Y-127225520D01*
X171530893Y-127238132D01*
X171550599Y-127252747D01*
X171568777Y-127269223D01*
X171585253Y-127287401D01*
X171599868Y-127307107D01*
X171612480Y-127328150D01*
X171622970Y-127350329D01*
X171631235Y-127373428D01*
X171637196Y-127397227D01*
X171640796Y-127421495D01*
X171642000Y-127445999D01*
X171642000Y-128096001D01*
X171640796Y-128120505D01*
X171637196Y-128144773D01*
X171631235Y-128168572D01*
X171622970Y-128191671D01*
X171612480Y-128213850D01*
X171599868Y-128234893D01*
X171585253Y-128254599D01*
X171568777Y-128272777D01*
X171550599Y-128289253D01*
X171530893Y-128303868D01*
X171509850Y-128316480D01*
X171487671Y-128326970D01*
X171464572Y-128335235D01*
X171440773Y-128341196D01*
X171416505Y-128344796D01*
X171392001Y-128346000D01*
X170491999Y-128346000D01*
X170467495Y-128344796D01*
X170443227Y-128341196D01*
X170419428Y-128335235D01*
X170396329Y-128326970D01*
X170374150Y-128316480D01*
X170353107Y-128303868D01*
X170333401Y-128289253D01*
X170315223Y-128272777D01*
X170298747Y-128254599D01*
X170284132Y-128234893D01*
X170271520Y-128213850D01*
X170261030Y-128191671D01*
X170252765Y-128168572D01*
X170246804Y-128144773D01*
X170243204Y-128120505D01*
X170242000Y-128096001D01*
X170242000Y-127445999D01*
X170243204Y-127421495D01*
X170246804Y-127397227D01*
X170252765Y-127373428D01*
X170261030Y-127350329D01*
X170271520Y-127328150D01*
X170284132Y-127307107D01*
X170298747Y-127287401D01*
X170315223Y-127269223D01*
X170333401Y-127252747D01*
X170353107Y-127238132D01*
X170374150Y-127225520D01*
X170396329Y-127215030D01*
X170419428Y-127206765D01*
X170443227Y-127200804D01*
X170467495Y-127197204D01*
X170491999Y-127196000D01*
X171392001Y-127196000D01*
X171416505Y-127197204D01*
X171416505Y-127197204D01*
G37*
D13*
X170942000Y-127771000D03*
D12*
G36*
X173702505Y-114751204D02*
G01*
X173726773Y-114754804D01*
X173750572Y-114760765D01*
X173773671Y-114769030D01*
X173795850Y-114779520D01*
X173816893Y-114792132D01*
X173836599Y-114806747D01*
X173854777Y-114823223D01*
X173871253Y-114841401D01*
X173885868Y-114861107D01*
X173898480Y-114882150D01*
X173908970Y-114904329D01*
X173917235Y-114927428D01*
X173923196Y-114951227D01*
X173926796Y-114975495D01*
X173928000Y-114999999D01*
X173928000Y-115650001D01*
X173926796Y-115674505D01*
X173923196Y-115698773D01*
X173917235Y-115722572D01*
X173908970Y-115745671D01*
X173898480Y-115767850D01*
X173885868Y-115788893D01*
X173871253Y-115808599D01*
X173854777Y-115826777D01*
X173836599Y-115843253D01*
X173816893Y-115857868D01*
X173795850Y-115870480D01*
X173773671Y-115880970D01*
X173750572Y-115889235D01*
X173726773Y-115895196D01*
X173702505Y-115898796D01*
X173678001Y-115900000D01*
X172777999Y-115900000D01*
X172753495Y-115898796D01*
X172729227Y-115895196D01*
X172705428Y-115889235D01*
X172682329Y-115880970D01*
X172660150Y-115870480D01*
X172639107Y-115857868D01*
X172619401Y-115843253D01*
X172601223Y-115826777D01*
X172584747Y-115808599D01*
X172570132Y-115788893D01*
X172557520Y-115767850D01*
X172547030Y-115745671D01*
X172538765Y-115722572D01*
X172532804Y-115698773D01*
X172529204Y-115674505D01*
X172528000Y-115650001D01*
X172528000Y-114999999D01*
X172529204Y-114975495D01*
X172532804Y-114951227D01*
X172538765Y-114927428D01*
X172547030Y-114904329D01*
X172557520Y-114882150D01*
X172570132Y-114861107D01*
X172584747Y-114841401D01*
X172601223Y-114823223D01*
X172619401Y-114806747D01*
X172639107Y-114792132D01*
X172660150Y-114779520D01*
X172682329Y-114769030D01*
X172705428Y-114760765D01*
X172729227Y-114754804D01*
X172753495Y-114751204D01*
X172777999Y-114750000D01*
X173678001Y-114750000D01*
X173702505Y-114751204D01*
X173702505Y-114751204D01*
G37*
D13*
X173228000Y-115325000D03*
D12*
G36*
X173702505Y-112701204D02*
G01*
X173726773Y-112704804D01*
X173750572Y-112710765D01*
X173773671Y-112719030D01*
X173795850Y-112729520D01*
X173816893Y-112742132D01*
X173836599Y-112756747D01*
X173854777Y-112773223D01*
X173871253Y-112791401D01*
X173885868Y-112811107D01*
X173898480Y-112832150D01*
X173908970Y-112854329D01*
X173917235Y-112877428D01*
X173923196Y-112901227D01*
X173926796Y-112925495D01*
X173928000Y-112949999D01*
X173928000Y-113600001D01*
X173926796Y-113624505D01*
X173923196Y-113648773D01*
X173917235Y-113672572D01*
X173908970Y-113695671D01*
X173898480Y-113717850D01*
X173885868Y-113738893D01*
X173871253Y-113758599D01*
X173854777Y-113776777D01*
X173836599Y-113793253D01*
X173816893Y-113807868D01*
X173795850Y-113820480D01*
X173773671Y-113830970D01*
X173750572Y-113839235D01*
X173726773Y-113845196D01*
X173702505Y-113848796D01*
X173678001Y-113850000D01*
X172777999Y-113850000D01*
X172753495Y-113848796D01*
X172729227Y-113845196D01*
X172705428Y-113839235D01*
X172682329Y-113830970D01*
X172660150Y-113820480D01*
X172639107Y-113807868D01*
X172619401Y-113793253D01*
X172601223Y-113776777D01*
X172584747Y-113758599D01*
X172570132Y-113738893D01*
X172557520Y-113717850D01*
X172547030Y-113695671D01*
X172538765Y-113672572D01*
X172532804Y-113648773D01*
X172529204Y-113624505D01*
X172528000Y-113600001D01*
X172528000Y-112949999D01*
X172529204Y-112925495D01*
X172532804Y-112901227D01*
X172538765Y-112877428D01*
X172547030Y-112854329D01*
X172557520Y-112832150D01*
X172570132Y-112811107D01*
X172584747Y-112791401D01*
X172601223Y-112773223D01*
X172619401Y-112756747D01*
X172639107Y-112742132D01*
X172660150Y-112729520D01*
X172682329Y-112719030D01*
X172705428Y-112710765D01*
X172729227Y-112704804D01*
X172753495Y-112701204D01*
X172777999Y-112700000D01*
X173678001Y-112700000D01*
X173702505Y-112701204D01*
X173702505Y-112701204D01*
G37*
D13*
X173228000Y-113275000D03*
D28*
X32512000Y-48006000D03*
X26162000Y-51308000D03*
X36068000Y-65786000D03*
X36068000Y-67818000D03*
X83820000Y-74422000D03*
X88138000Y-92979997D03*
X110744000Y-103632000D03*
X114554000Y-124968000D03*
X144780000Y-125222000D03*
X119380000Y-125984000D03*
X171704000Y-119126000D03*
X179324000Y-115316000D03*
X181356000Y-120142000D03*
X25908000Y-45720000D03*
X30988000Y-44958000D03*
X35052000Y-65786000D03*
X35052000Y-67818000D03*
X162052000Y-111760000D03*
X170688000Y-111760000D03*
X149098000Y-126238000D03*
X151892000Y-109982000D03*
X173482000Y-128016000D03*
X106680000Y-120396000D03*
X106426000Y-117856000D03*
X82804000Y-74168000D03*
X88138000Y-93980000D03*
X109728000Y-103632000D03*
X109728000Y-113538000D03*
X141478000Y-111760000D03*
X129540000Y-114046000D03*
X130810000Y-115570000D03*
X141732000Y-112522000D03*
X18796000Y-52832000D03*
X33528000Y-50800000D03*
X153416000Y-114046000D03*
X150114000Y-115062000D03*
X145780003Y-106680000D03*
X136398000Y-65532000D03*
X131064000Y-55118000D03*
X122428000Y-49276000D03*
X151892000Y-68580000D03*
X157226000Y-68580000D03*
X144780000Y-106680000D03*
X135128000Y-71120000D03*
X155702000Y-88392000D03*
X160020000Y-88392000D03*
X143764000Y-106680000D03*
X137668000Y-88138000D03*
X146558000Y-104902000D03*
X150622000Y-104902000D03*
X144272000Y-126746000D03*
X178054000Y-130556000D03*
X26416000Y-39878000D03*
X30734000Y-40386000D03*
X106934000Y-124460000D03*
X137922000Y-126746000D03*
X141732000Y-126746000D03*
X150046685Y-126554228D03*
X169889000Y-114300000D03*
X113030000Y-118618000D03*
X166370000Y-109474000D03*
X147320000Y-103886000D03*
X129032000Y-109474000D03*
X140208000Y-103886000D03*
X137160000Y-108458000D03*
X161290000Y-116840000D03*
X149994142Y-118737858D03*
X143768653Y-113279347D03*
X133858000Y-113538000D03*
X118618000Y-115316000D03*
X166915000Y-108635563D03*
X147320000Y-102885997D03*
X129032000Y-110490000D03*
X143764000Y-103124000D03*
X142748000Y-105664000D03*
X141478000Y-107696000D03*
X138430000Y-109474000D03*
X141296341Y-130426299D03*
X142121636Y-129861595D03*
X142990012Y-129365686D03*
X143947949Y-129078701D03*
X144780000Y-128524000D03*
X147574000Y-122682000D03*
X132842000Y-112522000D03*
X130556000Y-112522000D03*
X148307500Y-123444000D03*
X165608000Y-106934000D03*
X169164000Y-121412000D03*
X169164000Y-113030000D03*
X167640000Y-110490000D03*
X184404000Y-120396000D03*
X205486000Y-114300000D03*
X209296000Y-112014000D03*
X247142000Y-115570000D03*
X174752000Y-128778000D03*
X175752003Y-128778000D03*
X176784000Y-129032000D03*
D29*
X173782000Y-118924902D02*
X173782000Y-118572000D01*
X176082000Y-121224902D02*
X173782000Y-118924902D01*
X176082000Y-121472000D02*
X176082000Y-121224902D01*
X167685574Y-118542000D02*
X166736000Y-118542000D01*
X170902574Y-115325000D02*
X167685574Y-118542000D01*
X173228000Y-115325000D02*
X170902574Y-115325000D01*
X177363000Y-121472000D02*
X177800000Y-121035000D01*
X176082000Y-121472000D02*
X177363000Y-121472000D01*
X177800000Y-121035000D02*
X177800000Y-120650000D01*
X177800000Y-120650000D02*
X178308000Y-120142000D01*
X179841000Y-120142000D02*
X181365000Y-118618000D01*
X178308000Y-120142000D02*
X179841000Y-120142000D01*
X179841000Y-120142000D02*
X181365000Y-121666000D01*
X180741628Y-117994628D02*
X181365000Y-118618000D01*
X177448628Y-114701628D02*
X180741628Y-117994628D01*
X173851372Y-114701628D02*
X177448628Y-114701628D01*
X173228000Y-115325000D02*
X173851372Y-114701628D01*
X31800000Y-37563750D02*
X31800000Y-39674000D01*
X31981250Y-39855250D02*
X31981250Y-42068750D01*
X31800000Y-39674000D02*
X31981250Y-39855250D01*
X31800000Y-37563750D02*
X31800000Y-37243750D01*
X25350000Y-37563750D02*
X25350000Y-37243750D01*
X24366000Y-41268750D02*
X24366000Y-42068750D01*
X24366000Y-40153750D02*
X24366000Y-41268750D01*
X25350000Y-39169750D02*
X24366000Y-40153750D01*
X25350000Y-37563750D02*
X25350000Y-39169750D01*
X29448000Y-46802000D02*
X31308000Y-46802000D01*
X31308000Y-46802000D02*
X32512000Y-48006000D01*
X26162000Y-51308000D02*
X26162000Y-54056328D01*
X27658662Y-55552990D02*
X32752663Y-55552991D01*
X26162000Y-54056328D02*
X27658662Y-55552990D01*
X35633010Y-58433338D02*
X35633010Y-64008000D01*
X32752663Y-55552991D02*
X35633010Y-58433338D01*
X35633010Y-64008000D02*
X36068000Y-64442990D01*
X36068000Y-64442990D02*
X36068000Y-65786000D01*
X36068000Y-68383685D02*
X38550315Y-70866000D01*
X36068000Y-67818000D02*
X36068000Y-68383685D01*
X38550315Y-70866000D02*
X56642000Y-70866000D01*
X160236000Y-115573000D02*
X160236000Y-114442000D01*
X158867000Y-116942000D02*
X160236000Y-115573000D01*
X155336000Y-116942000D02*
X158867000Y-116942000D01*
X160467000Y-118542000D02*
X166736000Y-118542000D01*
X158867000Y-116942000D02*
X160467000Y-118542000D01*
X156467000Y-123342000D02*
X155336000Y-123342000D01*
X158867000Y-120942000D02*
X156467000Y-123342000D01*
X158867000Y-116942000D02*
X158867000Y-120942000D01*
X156476501Y-123554599D02*
X156476501Y-124729401D01*
X156467000Y-123342000D02*
X156467000Y-123545098D01*
X156467000Y-123545098D02*
X156476501Y-123554599D01*
X151291000Y-123342000D02*
X151130000Y-123181000D01*
X165036000Y-124711000D02*
X165036000Y-125842000D01*
X161267000Y-120942000D02*
X165036000Y-124711000D01*
X158867000Y-120942000D02*
X161267000Y-120942000D01*
X160236000Y-108233000D02*
X160773000Y-107696000D01*
X160236000Y-114442000D02*
X160236000Y-108233000D01*
X150359000Y-113842672D02*
X150359000Y-112014000D01*
X155336000Y-116942000D02*
X153458328Y-116942000D01*
X153458328Y-116942000D02*
X150359000Y-113842672D01*
X170821000Y-125842000D02*
X170942000Y-125721000D01*
X165036000Y-125842000D02*
X170821000Y-125842000D01*
X155393892Y-125812010D02*
X156476501Y-124729401D01*
X153070990Y-125812010D02*
X155393892Y-125812010D01*
X151121000Y-127762000D02*
X153070990Y-125812010D01*
X95960000Y-119054000D02*
X102160000Y-119054000D01*
X102160000Y-119054000D02*
X107116000Y-119054000D01*
X110490000Y-122428000D02*
X116078000Y-122428000D01*
X107116000Y-119054000D02*
X110490000Y-122428000D01*
X56642000Y-70866000D02*
X82296000Y-70866000D01*
X82296000Y-70866000D02*
X83820000Y-72390000D01*
X83820000Y-72390000D02*
X83820000Y-74422000D01*
X89122678Y-93398990D02*
X108190662Y-93398990D01*
X88138000Y-92979997D02*
X88703685Y-92979997D01*
X88703685Y-92979997D02*
X89122678Y-93398990D01*
X108190662Y-93398990D02*
X110309009Y-95517337D01*
X110309009Y-95517337D02*
X110744000Y-95952328D01*
X110744000Y-95952328D02*
X110744000Y-103632000D01*
X114554000Y-124968000D02*
X115570000Y-124968000D01*
X115570000Y-124968000D02*
X116078000Y-124460000D01*
X154205000Y-123342000D02*
X155336000Y-123342000D01*
X152091000Y-123342000D02*
X154205000Y-123342000D01*
X151930000Y-123181000D02*
X152091000Y-123342000D01*
X151130000Y-123181000D02*
X151930000Y-123181000D01*
X151130000Y-123181000D02*
X149089000Y-125222000D01*
X149089000Y-125222000D02*
X144780000Y-125222000D01*
X117710001Y-125584001D02*
X116078000Y-123952000D01*
X118980001Y-125584001D02*
X117710001Y-125584001D01*
X119380000Y-125984000D02*
X118980001Y-125584001D01*
X116078000Y-124460000D02*
X116078000Y-123952000D01*
X116078000Y-123952000D02*
X116078000Y-122428000D01*
X23691000Y-42068750D02*
X22352000Y-43407750D01*
X24366000Y-42068750D02*
X23691000Y-42068750D01*
X22352000Y-43407750D02*
X22352000Y-44544942D01*
X22352000Y-44544942D02*
X22352000Y-45466000D01*
X22352000Y-45466000D02*
X22860000Y-45974000D01*
X22860000Y-45974000D02*
X25654000Y-45974000D01*
X25654000Y-45974000D02*
X25908000Y-45720000D01*
X30988000Y-44196000D02*
X30421000Y-43629000D01*
X30988000Y-44958000D02*
X30988000Y-44196000D01*
X29448000Y-44602000D02*
X30421000Y-43629000D01*
X30421000Y-43629000D02*
X31981250Y-42068750D01*
X38109000Y-36068000D02*
X36576000Y-37601000D01*
X36576000Y-37601000D02*
X36576000Y-41910000D01*
X36576000Y-41910000D02*
X34544000Y-43942000D01*
X34544000Y-43942000D02*
X34544000Y-45466000D01*
X34544000Y-45466000D02*
X34036000Y-45974000D01*
X29972000Y-45974000D02*
X29448000Y-45450000D01*
X34036000Y-45974000D02*
X29972000Y-45974000D01*
X29448000Y-46802000D02*
X29448000Y-45450000D01*
X29448000Y-45450000D02*
X29448000Y-44602000D01*
X167663902Y-117742000D02*
X170688000Y-114717902D01*
X166736000Y-117742000D02*
X167663902Y-117742000D01*
X170688000Y-114717902D02*
X170688000Y-113792000D01*
X171205000Y-113275000D02*
X173228000Y-113275000D01*
X170688000Y-113792000D02*
X171205000Y-113275000D01*
X22606000Y-51322000D02*
X27418000Y-56134000D01*
X22606000Y-50509500D02*
X22606000Y-51322000D01*
X27418000Y-56134000D02*
X32512000Y-56134000D01*
X32512000Y-56134000D02*
X35052000Y-58674000D01*
X35052000Y-58674000D02*
X35052000Y-64008000D01*
X35052000Y-64008000D02*
X35052000Y-65786000D01*
X35052000Y-68189357D02*
X38309653Y-71447010D01*
X38309653Y-71447010D02*
X56642000Y-71447010D01*
X35052000Y-67818000D02*
X35052000Y-68189357D01*
X151930000Y-125231000D02*
X151130000Y-125231000D01*
X154903000Y-125231000D02*
X151930000Y-125231000D01*
X155336000Y-124798000D02*
X154903000Y-125231000D01*
X155336000Y-124142000D02*
X155336000Y-124798000D01*
X157836000Y-113514098D02*
X156843902Y-112522000D01*
X157836000Y-114442000D02*
X157836000Y-113514098D01*
X161836000Y-111976000D02*
X162052000Y-111760000D01*
X161836000Y-114442000D02*
X161836000Y-111976000D01*
X172974000Y-111760000D02*
X170688000Y-111760000D01*
X173228000Y-113275000D02*
X173228000Y-112014000D01*
X173228000Y-112014000D02*
X172974000Y-111760000D01*
X150105000Y-125231000D02*
X149098000Y-126238000D01*
X151130000Y-125231000D02*
X150105000Y-125231000D01*
X152409000Y-115071000D02*
X152409000Y-112014000D01*
X155336000Y-116142000D02*
X153480000Y-116142000D01*
X153480000Y-116142000D02*
X152409000Y-115071000D01*
X156843902Y-112522000D02*
X153924000Y-112522000D01*
X153416000Y-112014000D02*
X152409000Y-112014000D01*
X153924000Y-112522000D02*
X153416000Y-112014000D01*
X152409000Y-110499000D02*
X151892000Y-109982000D01*
X152409000Y-112014000D02*
X152409000Y-110499000D01*
X170142000Y-127771000D02*
X170942000Y-127771000D01*
X165034000Y-127771000D02*
X170142000Y-127771000D01*
X164236000Y-126973000D02*
X165034000Y-127771000D01*
X164236000Y-125842000D02*
X164236000Y-126973000D01*
X171187000Y-128016000D02*
X170942000Y-127771000D01*
X173482000Y-128016000D02*
X171187000Y-128016000D01*
X107197000Y-122682000D02*
X107197000Y-120913000D01*
X107197000Y-120913000D02*
X106680000Y-120396000D01*
X106934000Y-117348000D02*
X116078000Y-117348000D01*
X106426000Y-117856000D02*
X106934000Y-117348000D01*
X56642000Y-71447010D02*
X81861010Y-71447010D01*
X81861010Y-71447010D02*
X82804000Y-72390000D01*
X82804000Y-72390000D02*
X82804000Y-74168000D01*
X88138000Y-93980000D02*
X107950000Y-93980000D01*
X107950000Y-93980000D02*
X109728000Y-95758000D01*
X109728000Y-95758000D02*
X109728000Y-103632000D01*
X109728000Y-113538000D02*
X127000000Y-113538000D01*
X141449499Y-111731499D02*
X141478000Y-111760000D01*
X127000000Y-113538000D02*
X128806501Y-111731499D01*
X128806501Y-111731499D02*
X141449499Y-111731499D01*
X116078000Y-116145919D02*
X118177919Y-114046000D01*
X116078000Y-117348000D02*
X116078000Y-116145919D01*
X118177919Y-114046000D02*
X129540000Y-114046000D01*
X132995942Y-115570000D02*
X136043942Y-112522000D01*
X130810000Y-115570000D02*
X132995942Y-115570000D01*
X136043942Y-112522000D02*
X141732000Y-112522000D01*
D30*
X161036000Y-114442000D02*
X161036000Y-109728000D01*
X161036000Y-109728000D02*
X161290000Y-109474000D01*
X161290000Y-109474000D02*
X162306000Y-109474000D01*
X162823000Y-108957000D02*
X162823000Y-107696000D01*
X162306000Y-109474000D02*
X162823000Y-108957000D01*
X166736000Y-120142000D02*
X170434000Y-120142000D01*
X171764000Y-121472000D02*
X173782000Y-121472000D01*
X170434000Y-120142000D02*
X171764000Y-121472000D01*
X178691628Y-122289372D02*
X178691628Y-122806372D01*
X179315000Y-121666000D02*
X178691628Y-122289372D01*
X178691628Y-122806372D02*
X177800000Y-123698000D01*
X177800000Y-123698000D02*
X174244000Y-123698000D01*
X173782000Y-123236000D02*
X173782000Y-121472000D01*
X174244000Y-123698000D02*
X173782000Y-123236000D01*
X176082000Y-116900000D02*
X176082000Y-118572000D01*
X175768000Y-116586000D02*
X176082000Y-116900000D01*
X172212000Y-116586000D02*
X175768000Y-116586000D01*
X166736000Y-119342000D02*
X169456000Y-119342000D01*
X169456000Y-119342000D02*
X172212000Y-116586000D01*
X176128000Y-118618000D02*
X176082000Y-118572000D01*
X179315000Y-118618000D02*
X176128000Y-118618000D01*
X20465001Y-38245001D02*
X13316999Y-38245001D01*
X21590000Y-39370000D02*
X20465001Y-38245001D01*
X11112500Y-40449500D02*
X11112500Y-44387500D01*
X13316999Y-38245001D02*
X11112500Y-40449500D01*
X16407000Y-52832000D02*
X18796000Y-52832000D01*
X11112500Y-47687500D02*
X11262500Y-47687500D01*
X11262500Y-47687500D02*
X16407000Y-52832000D01*
X46037500Y-48387500D02*
X46037500Y-47687500D01*
X43625000Y-50800000D02*
X46037500Y-48387500D01*
X33528000Y-50800000D02*
X43625000Y-50800000D01*
X46037500Y-47687500D02*
X65087500Y-47687500D01*
X65087500Y-47687500D02*
X84137500Y-47687500D01*
X84987500Y-47687500D02*
X103187500Y-47687500D01*
X84137500Y-47687500D02*
X84987500Y-47687500D01*
X103187500Y-47687500D02*
X122237500Y-47687500D01*
X123087500Y-47687500D02*
X141287500Y-47687500D01*
X122237500Y-47687500D02*
X123087500Y-47687500D01*
X141287500Y-47687500D02*
X160337500Y-47687500D01*
X160337500Y-47687500D02*
X179387500Y-47687500D01*
X179387500Y-47687500D02*
X198437500Y-47687500D01*
X198437500Y-47687500D02*
X217487500Y-47687500D01*
X218337500Y-47687500D02*
X236537500Y-47687500D01*
X217487500Y-47687500D02*
X218337500Y-47687500D01*
X236537500Y-47687500D02*
X255587500Y-47687500D01*
X256437500Y-47687500D02*
X284162500Y-47687500D01*
X255587500Y-47687500D02*
X256437500Y-47687500D01*
X157036000Y-114442000D02*
X153812000Y-114442000D01*
X153812000Y-114442000D02*
X153416000Y-114046000D01*
X150114000Y-115062000D02*
X148844000Y-115062000D01*
X148844000Y-115062000D02*
X145780003Y-111998003D01*
X145780003Y-111998003D02*
X145780003Y-106680000D01*
X135998001Y-65132001D02*
X134728001Y-65132001D01*
X136398000Y-65532000D02*
X135998001Y-65132001D01*
X134728001Y-65132001D02*
X132842000Y-63246000D01*
X132842000Y-63246000D02*
X132842000Y-56896000D01*
X132842000Y-56896000D02*
X131064000Y-55118000D01*
X122428000Y-47878000D02*
X122237500Y-47687500D01*
X122428000Y-49276000D02*
X122428000Y-47878000D01*
X284162500Y-47687500D02*
X322262500Y-47687500D01*
X40640000Y-39370000D02*
X44958000Y-39370000D01*
X46037500Y-40449500D02*
X46037500Y-44387500D01*
X44958000Y-39370000D02*
X46037500Y-40449500D01*
X59690000Y-39370000D02*
X64516000Y-39370000D01*
X65087500Y-39941500D02*
X65087500Y-44387500D01*
X64516000Y-39370000D02*
X65087500Y-39941500D01*
X78740000Y-39370000D02*
X82804000Y-39370000D01*
X84137500Y-40703500D02*
X84137500Y-44387500D01*
X82804000Y-39370000D02*
X84137500Y-40703500D01*
X97790000Y-39370000D02*
X101600000Y-39370000D01*
X103187500Y-40957500D02*
X103187500Y-44387500D01*
X101600000Y-39370000D02*
X103187500Y-40957500D01*
X116840000Y-39370000D02*
X121412000Y-39370000D01*
X122237500Y-40195500D02*
X122237500Y-44387500D01*
X121412000Y-39370000D02*
X122237500Y-40195500D01*
X135890000Y-39370000D02*
X140462000Y-39370000D01*
X141287500Y-40195500D02*
X141287500Y-44387500D01*
X140462000Y-39370000D02*
X141287500Y-40195500D01*
X154940000Y-39370000D02*
X159512000Y-39370000D01*
X160337500Y-40195500D02*
X160337500Y-44387500D01*
X159512000Y-39370000D02*
X160337500Y-40195500D01*
X173990000Y-39370000D02*
X178816000Y-39370000D01*
X179387500Y-39941500D02*
X179387500Y-44387500D01*
X178816000Y-39370000D02*
X179387500Y-39941500D01*
X193040000Y-39370000D02*
X197866000Y-39370000D01*
X198437500Y-39941500D02*
X198437500Y-44387500D01*
X197866000Y-39370000D02*
X198437500Y-39941500D01*
X212090000Y-39370000D02*
X216408000Y-39370000D01*
X217487500Y-40449500D02*
X217487500Y-44387500D01*
X216408000Y-39370000D02*
X217487500Y-40449500D01*
X231140000Y-39370000D02*
X236220000Y-39370000D01*
X236537500Y-39687500D02*
X236537500Y-44387500D01*
X236220000Y-39370000D02*
X236537500Y-39687500D01*
X250190000Y-39370000D02*
X255016000Y-39370000D01*
X255587500Y-39941500D02*
X255587500Y-44387500D01*
X255016000Y-39370000D02*
X255587500Y-39941500D01*
X278765000Y-39370000D02*
X282956000Y-39370000D01*
X284162500Y-40576500D02*
X284162500Y-44387500D01*
X282956000Y-39370000D02*
X284162500Y-40576500D01*
X316865000Y-39370000D02*
X321818000Y-39370000D01*
X322262500Y-39814500D02*
X322262500Y-44387500D01*
X321818000Y-39370000D02*
X322262500Y-39814500D01*
X26352500Y-58420000D02*
X30734000Y-58420000D01*
X31750000Y-59436000D02*
X31750000Y-63437500D01*
X30734000Y-58420000D02*
X31750000Y-59436000D01*
X32600000Y-66737500D02*
X55562500Y-66737500D01*
X31750000Y-66737500D02*
X32600000Y-66737500D01*
X55562500Y-66737500D02*
X74612500Y-66737500D01*
X75462500Y-66737500D02*
X93662500Y-66737500D01*
X74612500Y-66737500D02*
X75462500Y-66737500D01*
X93662500Y-66737500D02*
X112712500Y-66737500D01*
X113562500Y-66737500D02*
X131762500Y-66737500D01*
X112712500Y-66737500D02*
X113562500Y-66737500D01*
X132612500Y-66737500D02*
X150812500Y-66737500D01*
X131762500Y-66737500D02*
X132612500Y-66737500D01*
X150812500Y-66737500D02*
X150812500Y-67500500D01*
X150812500Y-67500500D02*
X151892000Y-68580000D01*
X169862500Y-67437500D02*
X169862500Y-66737500D01*
X168720000Y-68580000D02*
X169862500Y-67437500D01*
X157226000Y-68580000D02*
X168720000Y-68580000D01*
X170712500Y-66737500D02*
X188912500Y-66737500D01*
X169862500Y-66737500D02*
X170712500Y-66737500D01*
X188912500Y-66737500D02*
X207962500Y-66737500D01*
X227012500Y-66737500D02*
X207962500Y-66737500D01*
X227012500Y-66737500D02*
X246062500Y-66737500D01*
X246062500Y-66737500D02*
X265112500Y-66737500D01*
X265962500Y-66737500D02*
X288925000Y-66737500D01*
X265112500Y-66737500D02*
X265962500Y-66737500D01*
X289775000Y-66737500D02*
X322262500Y-66737500D01*
X288925000Y-66737500D02*
X289775000Y-66737500D01*
X155336000Y-118542000D02*
X151460000Y-118542000D01*
X151460000Y-118542000D02*
X144780000Y-111862000D01*
X144780000Y-111862000D02*
X144780000Y-106680000D01*
X135128000Y-70554315D02*
X133915685Y-69342000D01*
X135128000Y-71120000D02*
X135128000Y-70554315D01*
X133915685Y-69342000D02*
X132334000Y-69342000D01*
X131762500Y-68770500D02*
X131762500Y-66737500D01*
X132334000Y-69342000D02*
X131762500Y-68770500D01*
X50165000Y-58420000D02*
X54864000Y-58420000D01*
X55562500Y-59118500D02*
X55562500Y-63437500D01*
X54864000Y-58420000D02*
X55562500Y-59118500D01*
X69215000Y-58420000D02*
X73152000Y-58420000D01*
X74612500Y-59880500D02*
X74612500Y-63437500D01*
X73152000Y-58420000D02*
X74612500Y-59880500D01*
X88265000Y-58420000D02*
X92710000Y-58420000D01*
X93662500Y-59372500D02*
X93662500Y-63437500D01*
X92710000Y-58420000D02*
X93662500Y-59372500D01*
X107315000Y-58420000D02*
X110490000Y-58420000D01*
X112712500Y-60642500D02*
X112712500Y-63437500D01*
X110490000Y-58420000D02*
X112712500Y-60642500D01*
X126365000Y-58420000D02*
X131064000Y-58420000D01*
X131762500Y-59118500D02*
X131762500Y-63437500D01*
X131064000Y-58420000D02*
X131762500Y-59118500D01*
X145415000Y-58420000D02*
X150114000Y-58420000D01*
X150812500Y-59118500D02*
X150812500Y-63437500D01*
X150114000Y-58420000D02*
X150812500Y-59118500D01*
X164465000Y-58420000D02*
X168910000Y-58420000D01*
X169862500Y-59372500D02*
X169862500Y-63437500D01*
X168910000Y-58420000D02*
X169862500Y-59372500D01*
X183515000Y-58420000D02*
X188214000Y-58420000D01*
X188912500Y-59118500D02*
X188912500Y-63437500D01*
X188214000Y-58420000D02*
X188912500Y-59118500D01*
X202565000Y-58420000D02*
X207264000Y-58420000D01*
X207962500Y-59118500D02*
X207962500Y-63437500D01*
X207264000Y-58420000D02*
X207962500Y-59118500D01*
X221615000Y-58420000D02*
X226314000Y-58420000D01*
X227012500Y-59118500D02*
X227012500Y-63437500D01*
X226314000Y-58420000D02*
X227012500Y-59118500D01*
X240665000Y-58420000D02*
X244348000Y-58420000D01*
X246062500Y-60134500D02*
X246062500Y-63437500D01*
X244348000Y-58420000D02*
X246062500Y-60134500D01*
X259715000Y-58420000D02*
X264414000Y-58420000D01*
X265112500Y-59118500D02*
X265112500Y-63437500D01*
X264414000Y-58420000D02*
X265112500Y-59118500D01*
X283527500Y-58420000D02*
X287782000Y-58420000D01*
X288925000Y-59563000D02*
X288925000Y-63437500D01*
X287782000Y-58420000D02*
X288925000Y-59563000D01*
X316865000Y-58420000D02*
X321310000Y-58420000D01*
X322262500Y-59372500D02*
X322262500Y-63437500D01*
X321310000Y-58420000D02*
X322262500Y-59372500D01*
X28733750Y-77470000D02*
X33274000Y-77470000D01*
X34131250Y-78327250D02*
X34131250Y-82487500D01*
X33274000Y-77470000D02*
X34131250Y-78327250D01*
X34131250Y-85787500D02*
X60325000Y-85787500D01*
X78525000Y-85787500D02*
X60325000Y-85787500D01*
X79375000Y-85787500D02*
X78525000Y-85787500D01*
X80225000Y-85787500D02*
X98425000Y-85787500D01*
X79375000Y-85787500D02*
X80225000Y-85787500D01*
X98425000Y-85787500D02*
X117475000Y-85787500D01*
X118325000Y-85787500D02*
X136525000Y-85787500D01*
X117475000Y-85787500D02*
X118325000Y-85787500D01*
X137375000Y-85787500D02*
X155575000Y-85787500D01*
X136525000Y-85787500D02*
X137375000Y-85787500D01*
X155575000Y-85787500D02*
X155575000Y-88265000D01*
X155575000Y-88265000D02*
X155702000Y-88392000D01*
X174625000Y-86487500D02*
X174625000Y-85787500D01*
X172720500Y-88392000D02*
X174625000Y-86487500D01*
X175475000Y-85787500D02*
X193675000Y-85787500D01*
X174625000Y-85787500D02*
X175475000Y-85787500D01*
X194525000Y-85787500D02*
X212725000Y-85787500D01*
X193675000Y-85787500D02*
X194525000Y-85787500D01*
X213575000Y-85787500D02*
X231775000Y-85787500D01*
X212725000Y-85787500D02*
X213575000Y-85787500D01*
X231775000Y-85787500D02*
X250825000Y-85787500D01*
X251675000Y-85787500D02*
X281781250Y-85787500D01*
X250825000Y-85787500D02*
X251675000Y-85787500D01*
X154336000Y-119342000D02*
X154120000Y-119126000D01*
X155336000Y-119342000D02*
X154336000Y-119342000D01*
X154120000Y-119126000D02*
X151638000Y-119126000D01*
X143764000Y-111482410D02*
X143764000Y-106680000D01*
X151638000Y-119126000D02*
X151407590Y-119126000D01*
X151407590Y-119126000D02*
X143764000Y-111482410D01*
X136675000Y-85787500D02*
X136525000Y-85787500D01*
X137668000Y-86780500D02*
X136675000Y-85787500D01*
X137668000Y-88138000D02*
X137668000Y-86780500D01*
X160020000Y-88392000D02*
X172720500Y-88392000D01*
X54927500Y-77470000D02*
X59690000Y-77470000D01*
X60325000Y-78105000D02*
X60325000Y-82487500D01*
X59690000Y-77470000D02*
X60325000Y-78105000D01*
X73977500Y-77470000D02*
X78740000Y-77470000D01*
X79375000Y-78105000D02*
X79375000Y-82487500D01*
X78740000Y-77470000D02*
X79375000Y-78105000D01*
X93027500Y-77470000D02*
X97536000Y-77470000D01*
X98425000Y-78359000D02*
X98425000Y-82487500D01*
X97536000Y-77470000D02*
X98425000Y-78359000D01*
X112077500Y-77470000D02*
X116586000Y-77470000D01*
X117475000Y-78359000D02*
X117475000Y-82487500D01*
X116586000Y-77470000D02*
X117475000Y-78359000D01*
X131127500Y-77470000D02*
X135890000Y-77470000D01*
X136525000Y-78105000D02*
X136525000Y-82487500D01*
X135890000Y-77470000D02*
X136525000Y-78105000D01*
X155575000Y-79375000D02*
X155575000Y-82487500D01*
X150177500Y-77470000D02*
X153670000Y-77470000D01*
X153670000Y-77470000D02*
X155575000Y-79375000D01*
X169227500Y-77470000D02*
X173990000Y-77470000D01*
X174625000Y-78105000D02*
X174625000Y-82487500D01*
X173990000Y-77470000D02*
X174625000Y-78105000D01*
X188277500Y-77470000D02*
X193294000Y-77470000D01*
X193675000Y-77851000D02*
X193675000Y-82487500D01*
X193294000Y-77470000D02*
X193675000Y-77851000D01*
X207327500Y-77470000D02*
X211582000Y-77470000D01*
X212725000Y-78613000D02*
X212725000Y-82487500D01*
X211582000Y-77470000D02*
X212725000Y-78613000D01*
X226377500Y-77470000D02*
X231140000Y-77470000D01*
X231775000Y-78105000D02*
X231775000Y-82487500D01*
X231140000Y-77470000D02*
X231775000Y-78105000D01*
X245427500Y-77470000D02*
X250190000Y-77470000D01*
X250825000Y-78105000D02*
X250825000Y-82487500D01*
X250190000Y-77470000D02*
X250825000Y-78105000D01*
X276383750Y-77470000D02*
X280924000Y-77470000D01*
X281781250Y-78327250D02*
X281781250Y-82487500D01*
X280924000Y-77470000D02*
X281781250Y-78327250D01*
X33496250Y-96520000D02*
X38100000Y-96520000D01*
X38893750Y-97313750D02*
X38893750Y-101537500D01*
X38100000Y-96520000D02*
X38893750Y-97313750D01*
X38893750Y-104837500D02*
X69850000Y-104837500D01*
X70700000Y-104837500D02*
X88900000Y-104837500D01*
X69850000Y-104837500D02*
X70700000Y-104837500D01*
X88900000Y-104837500D02*
X107950000Y-104837500D01*
X107950000Y-104837500D02*
X127000000Y-104837500D01*
X127000000Y-104837500D02*
X130175000Y-104837500D01*
X130175000Y-104837500D02*
X146493500Y-104837500D01*
X146493500Y-104837500D02*
X146558000Y-104902000D01*
X165035500Y-104902000D02*
X165100000Y-104837500D01*
X150622000Y-104902000D02*
X165035500Y-104902000D01*
X165950000Y-104837500D02*
X184150000Y-104837500D01*
X165100000Y-104837500D02*
X165950000Y-104837500D01*
X185000000Y-104837500D02*
X203200000Y-104837500D01*
X184150000Y-104837500D02*
X185000000Y-104837500D01*
X203200000Y-104837500D02*
X222250000Y-104837500D01*
X222250000Y-104837500D02*
X241300000Y-104837500D01*
X241300000Y-104837500D02*
X272256250Y-104837500D01*
X272256250Y-104837500D02*
X303212500Y-104837500D01*
X130175000Y-106045000D02*
X130175000Y-104837500D01*
X139192000Y-106680000D02*
X130810000Y-106680000D01*
X153924000Y-120142000D02*
X153358010Y-119576010D01*
X155336000Y-120142000D02*
X153924000Y-120142000D01*
X153358010Y-119576010D02*
X149040010Y-119576010D01*
X130810000Y-106680000D02*
X130175000Y-106045000D01*
X149040010Y-119576010D02*
X143002000Y-113538000D01*
X143002000Y-113538000D02*
X143002000Y-110490000D01*
X143002000Y-110490000D02*
X139192000Y-106680000D01*
X64452500Y-96520000D02*
X69088000Y-96520000D01*
X69850000Y-97282000D02*
X69850000Y-101537500D01*
X69088000Y-96520000D02*
X69850000Y-97282000D01*
X83502500Y-96520000D02*
X88138000Y-96520000D01*
X88900000Y-97282000D02*
X88900000Y-101537500D01*
X88138000Y-96520000D02*
X88900000Y-97282000D01*
X102552500Y-96520000D02*
X107188000Y-96520000D01*
X107950000Y-97282000D02*
X107950000Y-101537500D01*
X107188000Y-96520000D02*
X107950000Y-97282000D01*
X121602500Y-96520000D02*
X125984000Y-96520000D01*
X127000000Y-97536000D02*
X127000000Y-101537500D01*
X125984000Y-96520000D02*
X127000000Y-97536000D01*
X139061510Y-96520000D02*
X138299510Y-95758000D01*
X140652500Y-96520000D02*
X139061510Y-96520000D01*
X138299510Y-95758000D02*
X131318000Y-95758000D01*
X130175000Y-96901000D02*
X130175000Y-101537500D01*
X131318000Y-95758000D02*
X130175000Y-96901000D01*
X159702500Y-96520000D02*
X164592000Y-96520000D01*
X165100000Y-97028000D02*
X165100000Y-101537500D01*
X164592000Y-96520000D02*
X165100000Y-97028000D01*
X178752500Y-96520000D02*
X183134000Y-96520000D01*
X184150000Y-97536000D02*
X184150000Y-101537500D01*
X183134000Y-96520000D02*
X184150000Y-97536000D01*
X197802500Y-96520000D02*
X202438000Y-96520000D01*
X203200000Y-97282000D02*
X203200000Y-101537500D01*
X202438000Y-96520000D02*
X203200000Y-97282000D01*
X216852500Y-96520000D02*
X221234000Y-96520000D01*
X222250000Y-97536000D02*
X222250000Y-101537500D01*
X221234000Y-96520000D02*
X222250000Y-97536000D01*
X235902500Y-96520000D02*
X240284000Y-96520000D01*
X241300000Y-97536000D02*
X241300000Y-101537500D01*
X240284000Y-96520000D02*
X241300000Y-97536000D01*
X266858750Y-96520000D02*
X271018000Y-96520000D01*
X272256250Y-97758250D02*
X272256250Y-101537500D01*
X271018000Y-96520000D02*
X272256250Y-97758250D01*
X297815000Y-96520000D02*
X302514000Y-96520000D01*
X303212500Y-97218500D02*
X303212500Y-101537500D01*
X302514000Y-96520000D02*
X303212500Y-97218500D01*
X23971250Y-115570000D02*
X27686000Y-115570000D01*
X29368750Y-117252750D02*
X29368750Y-120587500D01*
X27686000Y-115570000D02*
X29368750Y-117252750D01*
X30218750Y-123887500D02*
X50800000Y-123887500D01*
X29368750Y-123887500D02*
X30218750Y-123887500D01*
X51650000Y-123887500D02*
X72231250Y-123887500D01*
X50800000Y-123887500D02*
X51650000Y-123887500D01*
X72231250Y-123887500D02*
X86295500Y-123887500D01*
X86295500Y-123887500D02*
X90678000Y-128270000D01*
X142818750Y-123887500D02*
X143668750Y-123887500D01*
X138436250Y-128270000D02*
X142818750Y-123887500D01*
X90678000Y-128270000D02*
X138436250Y-128270000D01*
X321412500Y-123887500D02*
X303212500Y-123887500D01*
X322262500Y-123887500D02*
X321412500Y-123887500D01*
X302362500Y-123887500D02*
X284162500Y-123887500D01*
X303212500Y-123887500D02*
X302362500Y-123887500D01*
X284162500Y-123887500D02*
X262731250Y-123887500D01*
X261881250Y-123887500D02*
X238918750Y-123887500D01*
X262731250Y-123887500D02*
X261881250Y-123887500D01*
X238918750Y-123887500D02*
X215106250Y-123887500D01*
X214256250Y-123887500D02*
X215106250Y-123887500D01*
X143668750Y-123887500D02*
X143668750Y-125888750D01*
X179324000Y-130556000D02*
X183896000Y-125984000D01*
X183896000Y-125984000D02*
X212159750Y-125984000D01*
X212159750Y-125984000D02*
X214256250Y-123887500D01*
X143668750Y-125888750D02*
X143668750Y-126142750D01*
X143668750Y-126142750D02*
X144272000Y-126746000D01*
X178054000Y-130556000D02*
X179324000Y-130556000D01*
X145098500Y-123887500D02*
X143668750Y-123887500D01*
X148959980Y-120026020D02*
X145098500Y-123887500D01*
X153046020Y-120026020D02*
X148959980Y-120026020D01*
X155336000Y-120942000D02*
X153962000Y-120942000D01*
X153962000Y-120942000D02*
X153046020Y-120026020D01*
X45402500Y-115570000D02*
X50038000Y-115570000D01*
X50800000Y-116332000D02*
X50800000Y-120587500D01*
X50038000Y-115570000D02*
X50800000Y-116332000D01*
X66833750Y-115570000D02*
X71374000Y-115570000D01*
X72231250Y-116427250D02*
X72231250Y-120587500D01*
X71374000Y-115570000D02*
X72231250Y-116427250D01*
X138271250Y-115570000D02*
X143002000Y-115570000D01*
X143668750Y-116236750D02*
X143668750Y-120587500D01*
X143002000Y-115570000D02*
X143668750Y-116236750D01*
X209708750Y-115570000D02*
X214376000Y-115570000D01*
X215106250Y-116300250D02*
X215106250Y-120587500D01*
X214376000Y-115570000D02*
X215106250Y-116300250D01*
X233521250Y-115570000D02*
X237744000Y-115570000D01*
X238918750Y-116744750D02*
X238918750Y-120587500D01*
X237744000Y-115570000D02*
X238918750Y-116744750D01*
X257333750Y-115570000D02*
X261366000Y-115570000D01*
X262731250Y-116935250D02*
X262731250Y-120587500D01*
X261366000Y-115570000D02*
X262731250Y-116935250D01*
X278765000Y-115570000D02*
X282448000Y-115570000D01*
X284162500Y-117284500D02*
X284162500Y-120587500D01*
X282448000Y-115570000D02*
X284162500Y-117284500D01*
X297815000Y-115570000D02*
X302006000Y-115570000D01*
X303212500Y-116776500D02*
X303212500Y-120587500D01*
X302006000Y-115570000D02*
X303212500Y-116776500D01*
X316865000Y-115570000D02*
X321056000Y-115570000D01*
X322262500Y-116776500D02*
X322262500Y-120587500D01*
X321056000Y-115570000D02*
X322262500Y-116776500D01*
D29*
X26125000Y-37563750D02*
X26125000Y-39587000D01*
X26125000Y-39587000D02*
X26416000Y-39878000D01*
X31025000Y-40095000D02*
X31025000Y-37563750D01*
X30734000Y-40386000D02*
X31025000Y-40095000D01*
X23338500Y-46802000D02*
X22606000Y-47534500D01*
X27448000Y-46802000D02*
X23338500Y-46802000D01*
X25450490Y-40843510D02*
X25450490Y-43230490D01*
X26416000Y-39878000D02*
X25450490Y-40843510D01*
X27448000Y-45228000D02*
X27448000Y-46802000D01*
X25450490Y-43230490D02*
X27448000Y-45228000D01*
D30*
X95960000Y-122754000D02*
X102160000Y-122754000D01*
X105075000Y-122754000D02*
X105147000Y-122682000D01*
X102160000Y-122754000D02*
X105075000Y-122754000D01*
X105147000Y-122682000D02*
X105147000Y-124197000D01*
X105147000Y-124197000D02*
X105410000Y-124460000D01*
X105410000Y-124460000D02*
X106934000Y-124460000D01*
X118618000Y-122428000D02*
X123952000Y-127762000D01*
X123952000Y-127762000D02*
X136906000Y-127762000D01*
X136906000Y-127762000D02*
X137922000Y-126746000D01*
X149129912Y-127471001D02*
X150046685Y-126554228D01*
X141732000Y-126746000D02*
X142457001Y-127471001D01*
X142457001Y-127471001D02*
X149129912Y-127471001D01*
X167546002Y-116942000D02*
X166736000Y-116942000D01*
X169489001Y-114999001D02*
X167546002Y-116942000D01*
X169489001Y-114699999D02*
X169489001Y-114999001D01*
X169889000Y-114300000D02*
X169489001Y-114699999D01*
X116078000Y-119888000D02*
X114300000Y-119888000D01*
X114300000Y-119888000D02*
X113030000Y-118618000D01*
X166370000Y-110344410D02*
X166370000Y-109474000D01*
X164236000Y-114442000D02*
X164236000Y-112478410D01*
X164236000Y-112478410D02*
X166370000Y-110344410D01*
X147320000Y-103886000D02*
X140208000Y-103886000D01*
X136398000Y-109220000D02*
X137160000Y-108458000D01*
X129032000Y-109474000D02*
X136144000Y-109474000D01*
X136144000Y-109474000D02*
X136398000Y-109220000D01*
X162038000Y-116840000D02*
X161290000Y-116840000D01*
X163436000Y-114442000D02*
X163436000Y-115442000D01*
X163436000Y-115442000D02*
X162038000Y-116840000D01*
X149994142Y-118737858D02*
X144535631Y-113279347D01*
X144535631Y-113279347D02*
X143768653Y-113279347D01*
X133858000Y-113538000D02*
X132842000Y-114554000D01*
X132842000Y-114554000D02*
X130556000Y-114554000D01*
X125222000Y-119888000D02*
X118618000Y-119888000D01*
X130556000Y-114554000D02*
X125222000Y-119888000D01*
X118618000Y-117348000D02*
X118618000Y-115316000D01*
X165036000Y-113442000D02*
X166820010Y-111657990D01*
X165036000Y-114442000D02*
X165036000Y-113442000D01*
X166820010Y-111657990D02*
X166820010Y-110096992D01*
X166820010Y-110096992D02*
X167095001Y-109822001D01*
X167095001Y-109822001D02*
X167095001Y-108815564D01*
X167095001Y-108815564D02*
X166915000Y-108635563D01*
X147320000Y-102885997D02*
X144002003Y-102885997D01*
X144002003Y-102885997D02*
X143764000Y-103124000D01*
X142748000Y-105664000D02*
X142748000Y-106426000D01*
X142748000Y-106426000D02*
X141478000Y-107696000D01*
X137864315Y-109474000D02*
X138430000Y-109474000D01*
X129032000Y-110490000D02*
X136848315Y-110490000D01*
X136848315Y-110490000D02*
X137864315Y-109474000D01*
X159364380Y-128350030D02*
X158683612Y-128350030D01*
X161036000Y-125842000D02*
X161036000Y-126678410D01*
X161036000Y-126678410D02*
X159364380Y-128350030D01*
X158683612Y-128350030D02*
X156201602Y-130832040D01*
X156201602Y-130832040D02*
X153670000Y-130832040D01*
X153670000Y-130832040D02*
X141702082Y-130832040D01*
X141702082Y-130832040D02*
X141296341Y-130426299D01*
X159177980Y-127900020D02*
X158497212Y-127900020D01*
X160236000Y-125842000D02*
X160236000Y-126842000D01*
X160236000Y-126842000D02*
X159177980Y-127900020D01*
X158497212Y-127900020D02*
X158184616Y-128212616D01*
X158184616Y-128212616D02*
X156015202Y-130382030D01*
X156015202Y-130382030D02*
X153670000Y-130382030D01*
X153670000Y-130382030D02*
X142642071Y-130382030D01*
X142642071Y-130382030D02*
X142121636Y-129861595D01*
X158664400Y-127450010D02*
X158310812Y-127450010D01*
X159436000Y-125842000D02*
X159436000Y-126678410D01*
X159436000Y-126678410D02*
X158664400Y-127450010D01*
X158310812Y-127450010D02*
X155828802Y-129932020D01*
X155828802Y-129932020D02*
X153670000Y-129932020D01*
X153670000Y-129932020D02*
X143556346Y-129932020D01*
X143556346Y-129932020D02*
X142990012Y-129365686D01*
X158478000Y-127000000D02*
X158124412Y-127000000D01*
X158636000Y-125842000D02*
X158636000Y-126842000D01*
X158636000Y-126842000D02*
X158478000Y-127000000D01*
X158124412Y-127000000D02*
X157548206Y-127576206D01*
X157548206Y-127576206D02*
X155642402Y-129482010D01*
X155642402Y-129482010D02*
X153670000Y-129482010D01*
X153670000Y-129482010D02*
X144351258Y-129482010D01*
X144351258Y-129482010D02*
X143947949Y-129078701D01*
X157836000Y-126652002D02*
X155456002Y-129032000D01*
X157836000Y-125842000D02*
X157836000Y-126652002D01*
X155456002Y-129032000D02*
X153670000Y-129032000D01*
X153670000Y-129032000D02*
X145288000Y-129032000D01*
X145288000Y-129032000D02*
X144780000Y-128524000D01*
X154000000Y-121742000D02*
X152734030Y-120476030D01*
X155336000Y-121742000D02*
X154000000Y-121742000D01*
X152734030Y-120476030D02*
X151638000Y-120476030D01*
X151638000Y-120476030D02*
X149779970Y-120476030D01*
X149779970Y-120476030D02*
X147574000Y-122682000D01*
X132842000Y-112522000D02*
X130556000Y-112522000D01*
X154163590Y-122542000D02*
X153813599Y-122192009D01*
X155336000Y-122542000D02*
X154163590Y-122542000D01*
X153813599Y-122192009D02*
X153287590Y-121666000D01*
X153162000Y-121666000D02*
X152422040Y-120926040D01*
X153287590Y-121666000D02*
X153162000Y-121666000D01*
X152422040Y-120926040D02*
X151638000Y-120926040D01*
X151638000Y-120926040D02*
X150825460Y-120926040D01*
X150825460Y-120926040D02*
X148307500Y-123444000D01*
X162636000Y-113442000D02*
X165608000Y-110470000D01*
X162636000Y-114442000D02*
X162636000Y-113442000D01*
X165608000Y-110470000D02*
X165608000Y-108204000D01*
X165608000Y-108204000D02*
X165608000Y-106934000D01*
X166736000Y-121742000D02*
X168834000Y-121742000D01*
X168834000Y-121742000D02*
X169164000Y-121412000D01*
X169164000Y-113030000D02*
X169164000Y-112014000D01*
X169164000Y-112014000D02*
X167640000Y-110490000D01*
X166736000Y-122542000D02*
X167738225Y-122542000D01*
X172517980Y-123241980D02*
X174809990Y-125533990D01*
X167738225Y-122542000D02*
X168438205Y-123241980D01*
X168438205Y-123241980D02*
X172517980Y-123241980D01*
X174809990Y-125533990D02*
X175260000Y-125533990D01*
X175260000Y-125533990D02*
X177038000Y-125533990D01*
X177038000Y-125533990D02*
X177742010Y-125533990D01*
X177742010Y-125533990D02*
X179324000Y-123952000D01*
X179324000Y-123952000D02*
X182880000Y-123952000D01*
X182880000Y-123952000D02*
X184404000Y-122428000D01*
X184404000Y-122428000D02*
X184404000Y-120396000D01*
X217678000Y-113284000D02*
X222504000Y-118110000D01*
X198882000Y-113284000D02*
X217678000Y-113284000D01*
X189551599Y-122614401D02*
X198882000Y-113284000D01*
X183008410Y-124460000D02*
X184854009Y-122614401D01*
X179452410Y-124460000D02*
X183008410Y-124460000D01*
X167736000Y-123342000D02*
X168085990Y-123691990D01*
X166736000Y-123342000D02*
X167736000Y-123342000D01*
X184854009Y-122614401D02*
X189551599Y-122614401D01*
X168085990Y-123691990D02*
X172080400Y-123691990D01*
X172080400Y-123691990D02*
X174372410Y-125984000D01*
X174372410Y-125984000D02*
X177928411Y-125983999D01*
X222504000Y-118110000D02*
X227171250Y-118110000D01*
X177928411Y-125983999D02*
X179452410Y-124460000D01*
X166736000Y-124142000D02*
X171894000Y-124142000D01*
X171894000Y-124142000D02*
X172466000Y-124714000D01*
X172466000Y-124714000D02*
X174244000Y-126492000D01*
X174244000Y-126492000D02*
X175260000Y-126492000D01*
X175260000Y-126492000D02*
X177038000Y-126492000D01*
X178056820Y-126492000D02*
X178114812Y-126434008D01*
X177038000Y-126492000D02*
X178056820Y-126492000D01*
X179638810Y-124910010D02*
X183194811Y-124910009D01*
X178114812Y-126434008D02*
X179638810Y-124910010D01*
X185040409Y-123064411D02*
X190117589Y-123064411D01*
X183194811Y-124910009D02*
X185040409Y-123064411D01*
X190117589Y-123064411D02*
X198882000Y-114300000D01*
X198882000Y-114300000D02*
X205486000Y-114300000D01*
X209296000Y-112014000D02*
X243586000Y-112014000D01*
X243586000Y-112014000D02*
X247142000Y-115570000D01*
X163436000Y-126902040D02*
X165565960Y-129032000D01*
X163436000Y-125842000D02*
X163436000Y-126902040D01*
X165565960Y-129032000D02*
X166116000Y-129032000D01*
X166116000Y-129032000D02*
X174498000Y-129032000D01*
X174498000Y-129032000D02*
X174752000Y-128778000D01*
X165276010Y-129482010D02*
X165379560Y-129482010D01*
X162636000Y-125842000D02*
X162636000Y-126842000D01*
X162636000Y-126842000D02*
X165276010Y-129482010D01*
X165379560Y-129482010D02*
X166116000Y-129482010D01*
X175752003Y-128850999D02*
X175752003Y-128778000D01*
X175100001Y-129503001D02*
X175752003Y-128850999D01*
X174403999Y-129503001D02*
X175100001Y-129503001D01*
X166116000Y-129482010D02*
X174383008Y-129482010D01*
X174383008Y-129482010D02*
X174403999Y-129503001D01*
X164926020Y-129932020D02*
X165193160Y-129932020D01*
X161836000Y-125842000D02*
X161836000Y-126842000D01*
X161836000Y-126842000D02*
X164926020Y-129932020D01*
X165193160Y-129932020D02*
X166116000Y-129932020D01*
X175862989Y-129953011D02*
X176784000Y-129032000D01*
X166116000Y-129932020D02*
X166136991Y-129953011D01*
X166136991Y-129953011D02*
X175862989Y-129953011D01*
X28325000Y-36088750D02*
X28599750Y-35814000D01*
X28325000Y-37563750D02*
X28325000Y-36088750D01*
X29325000Y-36088750D02*
X29325000Y-37563750D01*
X29050250Y-35814000D02*
X29325000Y-36088750D01*
X28599750Y-35814000D02*
X29050250Y-35814000D01*
X29325000Y-37563750D02*
X29325000Y-39255000D01*
X29325000Y-39255000D02*
X28956000Y-39624000D01*
X151892000Y-106680000D02*
X154423000Y-106680000D01*
X151477200Y-53369000D02*
X154149000Y-56040800D01*
X28702000Y-50546000D02*
X28702000Y-52767800D01*
X29303200Y-53369000D02*
X151477200Y-53369000D01*
X29448000Y-48702000D02*
X29448000Y-49800000D01*
X29448000Y-49800000D02*
X28702000Y-50546000D01*
X154149000Y-56040800D02*
X154149000Y-75598800D01*
X149069000Y-97629200D02*
X149069000Y-106332800D01*
X154149000Y-75598800D02*
X158213000Y-79662800D01*
X154779200Y-94713000D02*
X151985200Y-94713000D01*
X149069000Y-106332800D02*
X150207200Y-107471000D01*
X151384000Y-107188000D02*
X151892000Y-106680000D01*
X150207200Y-107471000D02*
X151384000Y-107471000D01*
X158213000Y-79662800D02*
X158213000Y-91279200D01*
X28702000Y-52767800D02*
X29303200Y-53369000D01*
X158213000Y-91279200D02*
X154779200Y-94713000D01*
X151985200Y-94713000D02*
X149069000Y-97629200D01*
X151384000Y-107471000D02*
X151384000Y-107188000D01*
X29398000Y-48702000D02*
X28575000Y-47879000D01*
X29448000Y-48702000D02*
X29398000Y-48702000D01*
X28575000Y-47879000D02*
X28575000Y-46037500D01*
D31*
X28575000Y-46037500D02*
X28575000Y-40482250D01*
D30*
X28575000Y-39925160D02*
X28575000Y-40482250D01*
X28876160Y-39624000D02*
X28575000Y-39925160D01*
X28956000Y-39624000D02*
X28876160Y-39624000D01*
X159436000Y-109643000D02*
X156473000Y-106680000D01*
X159436000Y-114442000D02*
X159436000Y-109643000D01*
X27825000Y-39038750D02*
X28156250Y-39370000D01*
X27825000Y-37563750D02*
X27825000Y-39038750D01*
X28825000Y-39038750D02*
X28825000Y-37563750D01*
X28493750Y-39370000D02*
X28825000Y-39038750D01*
X28156250Y-39370000D02*
X28493750Y-39370000D01*
X151892000Y-108966000D02*
X154423000Y-108966000D01*
X151384000Y-108458000D02*
X151892000Y-108966000D01*
X151290800Y-53819000D02*
X153699000Y-56227200D01*
X28194000Y-52896200D02*
X29116800Y-53819000D01*
X29116800Y-53819000D02*
X151290800Y-53819000D01*
X28194000Y-50292000D02*
X28194000Y-52896200D01*
X150020800Y-107921000D02*
X151384000Y-107921000D01*
X27448000Y-48502000D02*
X27448000Y-49546000D01*
X153699000Y-56227200D02*
X153699000Y-75785200D01*
X27448000Y-49546000D02*
X28194000Y-50292000D01*
X157763000Y-79849200D02*
X157763000Y-91092800D01*
X153699000Y-75785200D02*
X157763000Y-79849200D01*
X157763000Y-91092800D02*
X154592800Y-94263000D01*
X154592800Y-94263000D02*
X151798800Y-94263000D01*
X151798800Y-94263000D02*
X148619000Y-97442800D01*
X148619000Y-97442800D02*
X148619000Y-106519200D01*
X148619000Y-106519200D02*
X150020800Y-107921000D01*
X151384000Y-107921000D02*
X151384000Y-108458000D01*
X27448000Y-48352000D02*
X27448000Y-48502000D01*
X28123001Y-47676999D02*
X27448000Y-48352000D01*
X28123001Y-46241999D02*
X28123001Y-47676999D01*
D31*
X28123001Y-46241999D02*
X28123001Y-40482249D01*
D30*
X28123001Y-39403249D02*
X28123001Y-40482249D01*
X28156250Y-39370000D02*
X28123001Y-39403249D01*
X158636000Y-113442000D02*
X158636000Y-114442000D01*
X158636000Y-110454000D02*
X158636000Y-113442000D01*
X157148000Y-108966000D02*
X158636000Y-110454000D01*
X156473000Y-108966000D02*
X157148000Y-108966000D01*
X157036000Y-126317000D02*
X157036000Y-125842000D01*
X153171000Y-127762000D02*
X154605480Y-126327520D01*
X156511000Y-125842000D02*
X157036000Y-125842000D01*
X156025480Y-126327520D02*
X156511000Y-125842000D01*
X154605480Y-126327520D02*
X156025480Y-126327520D01*
X30325000Y-37563750D02*
X30325000Y-39525000D01*
X29931250Y-39918750D02*
X29931250Y-42068750D01*
X30325000Y-39525000D02*
X29931250Y-39918750D01*
X27325000Y-41159750D02*
X27325000Y-37563750D01*
X26416000Y-42068750D02*
X27325000Y-41159750D01*
X24255000Y-34848750D02*
X24255000Y-31968750D01*
X24255000Y-36148750D02*
X24255000Y-34848750D01*
X24255000Y-31968750D02*
X32895000Y-31968750D01*
X32895000Y-33018750D02*
X32895000Y-36148750D01*
X32895000Y-31968750D02*
X32895000Y-33018750D01*
X35978250Y-36148750D02*
X36059000Y-36068000D01*
X32895000Y-36148750D02*
X35978250Y-36148750D01*
D32*
G36*
X182757724Y-122999475D02*
G01*
X182696866Y-123060332D01*
X179423180Y-123012888D01*
X179425854Y-123004072D01*
X179640001Y-123004072D01*
X179813255Y-122987008D01*
X179979851Y-122936472D01*
X180133387Y-122854405D01*
X180267962Y-122743962D01*
X180273342Y-122737406D01*
X180338815Y-122817185D01*
X180435506Y-122896537D01*
X180545820Y-122955502D01*
X180665518Y-122991812D01*
X180790000Y-123004072D01*
X181079250Y-123001000D01*
X181238000Y-122842250D01*
X181238000Y-121793000D01*
X181492000Y-121793000D01*
X181492000Y-122842250D01*
X181650750Y-123001000D01*
X181940000Y-123004072D01*
X182064482Y-122991812D01*
X182184180Y-122955502D01*
X182294494Y-122896537D01*
X182391185Y-122817185D01*
X182470537Y-122720494D01*
X182529502Y-122610180D01*
X182565812Y-122490482D01*
X182578072Y-122366000D01*
X182575000Y-121951750D01*
X182416250Y-121793000D01*
X181492000Y-121793000D01*
X181238000Y-121793000D01*
X181218000Y-121793000D01*
X181218000Y-121539000D01*
X181238000Y-121539000D01*
X181238000Y-120489750D01*
X181492000Y-120489750D01*
X181492000Y-121539000D01*
X182416250Y-121539000D01*
X182575000Y-121380250D01*
X182578072Y-120966000D01*
X182565812Y-120841518D01*
X182529502Y-120721820D01*
X182470537Y-120611506D01*
X182391185Y-120514815D01*
X182294494Y-120435463D01*
X182184180Y-120376498D01*
X182064482Y-120340188D01*
X181940000Y-120327928D01*
X181650750Y-120331000D01*
X181492000Y-120489750D01*
X181238000Y-120489750D01*
X181079250Y-120331000D01*
X180790000Y-120327928D01*
X180665518Y-120340188D01*
X180545820Y-120376498D01*
X180435506Y-120435463D01*
X180338815Y-120514815D01*
X180273342Y-120594594D01*
X180267962Y-120588038D01*
X180133387Y-120477595D01*
X179979851Y-120395528D01*
X179813255Y-120344992D01*
X179640001Y-120327928D01*
X178989999Y-120327928D01*
X178816745Y-120344992D01*
X178650149Y-120395528D01*
X178496613Y-120477595D01*
X178362038Y-120588038D01*
X178251595Y-120722613D01*
X178169528Y-120876149D01*
X178118992Y-121042745D01*
X178101928Y-121215999D01*
X178101928Y-121809930D01*
X178056654Y-121865096D01*
X177996198Y-121978201D01*
X177986082Y-121997126D01*
X177942625Y-122140387D01*
X177931628Y-122252040D01*
X177931628Y-122252050D01*
X177927952Y-122289372D01*
X177931628Y-122326694D01*
X177931628Y-122491570D01*
X177485198Y-122938000D01*
X177462060Y-122938000D01*
X177512537Y-122876494D01*
X177571502Y-122766180D01*
X177607812Y-122646482D01*
X177620072Y-122522000D01*
X177617000Y-121757750D01*
X177458250Y-121599000D01*
X176209000Y-121599000D01*
X176209000Y-121619000D01*
X175955000Y-121619000D01*
X175955000Y-121599000D01*
X175935000Y-121599000D01*
X175935000Y-121345000D01*
X175955000Y-121345000D01*
X175955000Y-121325000D01*
X176209000Y-121325000D01*
X176209000Y-121345000D01*
X177458250Y-121345000D01*
X177617000Y-121186250D01*
X177620072Y-120422000D01*
X177607812Y-120297518D01*
X177571502Y-120177820D01*
X177512537Y-120067506D01*
X177475191Y-120022000D01*
X177512537Y-119976494D01*
X177571502Y-119866180D01*
X177607812Y-119746482D01*
X177620072Y-119622000D01*
X177620072Y-119378000D01*
X178160473Y-119378000D01*
X178169528Y-119407851D01*
X178251595Y-119561387D01*
X178362038Y-119695962D01*
X178496613Y-119806405D01*
X178650149Y-119888472D01*
X178816745Y-119939008D01*
X178989999Y-119956072D01*
X179640001Y-119956072D01*
X179813255Y-119939008D01*
X179979851Y-119888472D01*
X180133387Y-119806405D01*
X180267962Y-119695962D01*
X180273342Y-119689406D01*
X180338815Y-119769185D01*
X180435506Y-119848537D01*
X180545820Y-119907502D01*
X180665518Y-119943812D01*
X180790000Y-119956072D01*
X181079250Y-119953000D01*
X181238000Y-119794250D01*
X181238000Y-118745000D01*
X181492000Y-118745000D01*
X181492000Y-119794250D01*
X181650750Y-119953000D01*
X181940000Y-119956072D01*
X182064482Y-119943812D01*
X182184180Y-119907502D01*
X182294494Y-119848537D01*
X182391185Y-119769185D01*
X182470537Y-119672494D01*
X182529502Y-119562180D01*
X182565812Y-119442482D01*
X182578072Y-119318000D01*
X182575000Y-118903750D01*
X182416250Y-118745000D01*
X181492000Y-118745000D01*
X181238000Y-118745000D01*
X181218000Y-118745000D01*
X181218000Y-118491000D01*
X181238000Y-118491000D01*
X181238000Y-117441750D01*
X181492000Y-117441750D01*
X181492000Y-118491000D01*
X182416250Y-118491000D01*
X182575000Y-118332250D01*
X182578072Y-117918000D01*
X182565812Y-117793518D01*
X182529502Y-117673820D01*
X182470537Y-117563506D01*
X182391185Y-117466815D01*
X182294494Y-117387463D01*
X182184180Y-117328498D01*
X182064482Y-117292188D01*
X181940000Y-117279928D01*
X181650750Y-117283000D01*
X181492000Y-117441750D01*
X181238000Y-117441750D01*
X181079250Y-117283000D01*
X180790000Y-117279928D01*
X180665518Y-117292188D01*
X180545820Y-117328498D01*
X180435506Y-117387463D01*
X180338815Y-117466815D01*
X180273342Y-117546594D01*
X180267962Y-117540038D01*
X180133387Y-117429595D01*
X179979851Y-117347528D01*
X179813255Y-117296992D01*
X179640001Y-117279928D01*
X178989999Y-117279928D01*
X178816745Y-117296992D01*
X178650149Y-117347528D01*
X178496613Y-117429595D01*
X178362038Y-117540038D01*
X178251595Y-117674613D01*
X178169528Y-117828149D01*
X178160473Y-117858000D01*
X177620072Y-117858000D01*
X177620072Y-117522000D01*
X177607812Y-117397518D01*
X177571502Y-117277820D01*
X177512537Y-117167506D01*
X177433185Y-117070815D01*
X177336494Y-116991463D01*
X177226180Y-116932498D01*
X177106482Y-116896188D01*
X176982000Y-116883928D01*
X176844093Y-116883928D01*
X176842000Y-116862676D01*
X176842000Y-116862667D01*
X176831003Y-116751014D01*
X176787546Y-116607753D01*
X176716974Y-116475724D01*
X176622001Y-116359999D01*
X176592998Y-116336197D01*
X176331804Y-116075003D01*
X176308001Y-116045999D01*
X176192276Y-115951026D01*
X176060247Y-115880454D01*
X175916986Y-115836997D01*
X175805333Y-115826000D01*
X175805322Y-115826000D01*
X175768000Y-115822324D01*
X175730678Y-115826000D01*
X174565286Y-115826000D01*
X174563000Y-115610750D01*
X174404250Y-115452000D01*
X173355000Y-115452000D01*
X173355000Y-115472000D01*
X173101000Y-115472000D01*
X173101000Y-115452000D01*
X172051750Y-115452000D01*
X171893000Y-115610750D01*
X171889966Y-115896375D01*
X171787724Y-115951026D01*
X171671999Y-116045999D01*
X171648201Y-116074997D01*
X169141199Y-118582000D01*
X167895981Y-118582000D01*
X167853495Y-118547133D01*
X167981336Y-118508353D01*
X168124744Y-118431699D01*
X168250443Y-118328541D01*
X168276300Y-118297034D01*
X171243041Y-115330294D01*
X171274541Y-115304443D01*
X171377699Y-115178744D01*
X171454353Y-115035336D01*
X171501556Y-114879728D01*
X171513500Y-114758455D01*
X171513500Y-114758446D01*
X171517493Y-114717903D01*
X171513500Y-114677360D01*
X171513500Y-114133932D01*
X171546932Y-114100500D01*
X172045432Y-114100500D01*
X172150038Y-114227962D01*
X172156594Y-114233342D01*
X172076815Y-114298815D01*
X171997463Y-114395506D01*
X171938498Y-114505820D01*
X171902188Y-114625518D01*
X171889928Y-114750000D01*
X171893000Y-115039250D01*
X172051750Y-115198000D01*
X173101000Y-115198000D01*
X173101000Y-115178000D01*
X173355000Y-115178000D01*
X173355000Y-115198000D01*
X174404250Y-115198000D01*
X174563000Y-115039250D01*
X174566072Y-114750000D01*
X174553812Y-114625518D01*
X174517502Y-114505820D01*
X174458537Y-114395506D01*
X174379185Y-114298815D01*
X174299406Y-114233342D01*
X174305962Y-114227962D01*
X174416405Y-114093387D01*
X174498472Y-113939851D01*
X174549008Y-113773255D01*
X174566072Y-113600001D01*
X174566072Y-113281187D01*
X183003738Y-113158902D01*
X182757724Y-122999475D01*
X182757724Y-122999475D01*
G37*
X182757724Y-122999475D02*
X182696866Y-123060332D01*
X179423180Y-123012888D01*
X179425854Y-123004072D01*
X179640001Y-123004072D01*
X179813255Y-122987008D01*
X179979851Y-122936472D01*
X180133387Y-122854405D01*
X180267962Y-122743962D01*
X180273342Y-122737406D01*
X180338815Y-122817185D01*
X180435506Y-122896537D01*
X180545820Y-122955502D01*
X180665518Y-122991812D01*
X180790000Y-123004072D01*
X181079250Y-123001000D01*
X181238000Y-122842250D01*
X181238000Y-121793000D01*
X181492000Y-121793000D01*
X181492000Y-122842250D01*
X181650750Y-123001000D01*
X181940000Y-123004072D01*
X182064482Y-122991812D01*
X182184180Y-122955502D01*
X182294494Y-122896537D01*
X182391185Y-122817185D01*
X182470537Y-122720494D01*
X182529502Y-122610180D01*
X182565812Y-122490482D01*
X182578072Y-122366000D01*
X182575000Y-121951750D01*
X182416250Y-121793000D01*
X181492000Y-121793000D01*
X181238000Y-121793000D01*
X181218000Y-121793000D01*
X181218000Y-121539000D01*
X181238000Y-121539000D01*
X181238000Y-120489750D01*
X181492000Y-120489750D01*
X181492000Y-121539000D01*
X182416250Y-121539000D01*
X182575000Y-121380250D01*
X182578072Y-120966000D01*
X182565812Y-120841518D01*
X182529502Y-120721820D01*
X182470537Y-120611506D01*
X182391185Y-120514815D01*
X182294494Y-120435463D01*
X182184180Y-120376498D01*
X182064482Y-120340188D01*
X181940000Y-120327928D01*
X181650750Y-120331000D01*
X181492000Y-120489750D01*
X181238000Y-120489750D01*
X181079250Y-120331000D01*
X180790000Y-120327928D01*
X180665518Y-120340188D01*
X180545820Y-120376498D01*
X180435506Y-120435463D01*
X180338815Y-120514815D01*
X180273342Y-120594594D01*
X180267962Y-120588038D01*
X180133387Y-120477595D01*
X179979851Y-120395528D01*
X179813255Y-120344992D01*
X179640001Y-120327928D01*
X178989999Y-120327928D01*
X178816745Y-120344992D01*
X178650149Y-120395528D01*
X178496613Y-120477595D01*
X178362038Y-120588038D01*
X178251595Y-120722613D01*
X178169528Y-120876149D01*
X178118992Y-121042745D01*
X178101928Y-121215999D01*
X178101928Y-121809930D01*
X178056654Y-121865096D01*
X177996198Y-121978201D01*
X177986082Y-121997126D01*
X177942625Y-122140387D01*
X177931628Y-122252040D01*
X177931628Y-122252050D01*
X177927952Y-122289372D01*
X177931628Y-122326694D01*
X177931628Y-122491570D01*
X177485198Y-122938000D01*
X177462060Y-122938000D01*
X177512537Y-122876494D01*
X177571502Y-122766180D01*
X177607812Y-122646482D01*
X177620072Y-122522000D01*
X177617000Y-121757750D01*
X177458250Y-121599000D01*
X176209000Y-121599000D01*
X176209000Y-121619000D01*
X175955000Y-121619000D01*
X175955000Y-121599000D01*
X175935000Y-121599000D01*
X175935000Y-121345000D01*
X175955000Y-121345000D01*
X175955000Y-121325000D01*
X176209000Y-121325000D01*
X176209000Y-121345000D01*
X177458250Y-121345000D01*
X177617000Y-121186250D01*
X177620072Y-120422000D01*
X177607812Y-120297518D01*
X177571502Y-120177820D01*
X177512537Y-120067506D01*
X177475191Y-120022000D01*
X177512537Y-119976494D01*
X177571502Y-119866180D01*
X177607812Y-119746482D01*
X177620072Y-119622000D01*
X177620072Y-119378000D01*
X178160473Y-119378000D01*
X178169528Y-119407851D01*
X178251595Y-119561387D01*
X178362038Y-119695962D01*
X178496613Y-119806405D01*
X178650149Y-119888472D01*
X178816745Y-119939008D01*
X178989999Y-119956072D01*
X179640001Y-119956072D01*
X179813255Y-119939008D01*
X179979851Y-119888472D01*
X180133387Y-119806405D01*
X180267962Y-119695962D01*
X180273342Y-119689406D01*
X180338815Y-119769185D01*
X180435506Y-119848537D01*
X180545820Y-119907502D01*
X180665518Y-119943812D01*
X180790000Y-119956072D01*
X181079250Y-119953000D01*
X181238000Y-119794250D01*
X181238000Y-118745000D01*
X181492000Y-118745000D01*
X181492000Y-119794250D01*
X181650750Y-119953000D01*
X181940000Y-119956072D01*
X182064482Y-119943812D01*
X182184180Y-119907502D01*
X182294494Y-119848537D01*
X182391185Y-119769185D01*
X182470537Y-119672494D01*
X182529502Y-119562180D01*
X182565812Y-119442482D01*
X182578072Y-119318000D01*
X182575000Y-118903750D01*
X182416250Y-118745000D01*
X181492000Y-118745000D01*
X181238000Y-118745000D01*
X181218000Y-118745000D01*
X181218000Y-118491000D01*
X181238000Y-118491000D01*
X181238000Y-117441750D01*
X181492000Y-117441750D01*
X181492000Y-118491000D01*
X182416250Y-118491000D01*
X182575000Y-118332250D01*
X182578072Y-117918000D01*
X182565812Y-117793518D01*
X182529502Y-117673820D01*
X182470537Y-117563506D01*
X182391185Y-117466815D01*
X182294494Y-117387463D01*
X182184180Y-117328498D01*
X182064482Y-117292188D01*
X181940000Y-117279928D01*
X181650750Y-117283000D01*
X181492000Y-117441750D01*
X181238000Y-117441750D01*
X181079250Y-117283000D01*
X180790000Y-117279928D01*
X180665518Y-117292188D01*
X180545820Y-117328498D01*
X180435506Y-117387463D01*
X180338815Y-117466815D01*
X180273342Y-117546594D01*
X180267962Y-117540038D01*
X180133387Y-117429595D01*
X179979851Y-117347528D01*
X179813255Y-117296992D01*
X179640001Y-117279928D01*
X178989999Y-117279928D01*
X178816745Y-117296992D01*
X178650149Y-117347528D01*
X178496613Y-117429595D01*
X178362038Y-117540038D01*
X178251595Y-117674613D01*
X178169528Y-117828149D01*
X178160473Y-117858000D01*
X177620072Y-117858000D01*
X177620072Y-117522000D01*
X177607812Y-117397518D01*
X177571502Y-117277820D01*
X177512537Y-117167506D01*
X177433185Y-117070815D01*
X177336494Y-116991463D01*
X177226180Y-116932498D01*
X177106482Y-116896188D01*
X176982000Y-116883928D01*
X176844093Y-116883928D01*
X176842000Y-116862676D01*
X176842000Y-116862667D01*
X176831003Y-116751014D01*
X176787546Y-116607753D01*
X176716974Y-116475724D01*
X176622001Y-116359999D01*
X176592998Y-116336197D01*
X176331804Y-116075003D01*
X176308001Y-116045999D01*
X176192276Y-115951026D01*
X176060247Y-115880454D01*
X175916986Y-115836997D01*
X175805333Y-115826000D01*
X175805322Y-115826000D01*
X175768000Y-115822324D01*
X175730678Y-115826000D01*
X174565286Y-115826000D01*
X174563000Y-115610750D01*
X174404250Y-115452000D01*
X173355000Y-115452000D01*
X173355000Y-115472000D01*
X173101000Y-115472000D01*
X173101000Y-115452000D01*
X172051750Y-115452000D01*
X171893000Y-115610750D01*
X171889966Y-115896375D01*
X171787724Y-115951026D01*
X171671999Y-116045999D01*
X171648201Y-116074997D01*
X169141199Y-118582000D01*
X167895981Y-118582000D01*
X167853495Y-118547133D01*
X167981336Y-118508353D01*
X168124744Y-118431699D01*
X168250443Y-118328541D01*
X168276300Y-118297034D01*
X171243041Y-115330294D01*
X171274541Y-115304443D01*
X171377699Y-115178744D01*
X171454353Y-115035336D01*
X171501556Y-114879728D01*
X171513500Y-114758455D01*
X171513500Y-114758446D01*
X171517493Y-114717903D01*
X171513500Y-114677360D01*
X171513500Y-114133932D01*
X171546932Y-114100500D01*
X172045432Y-114100500D01*
X172150038Y-114227962D01*
X172156594Y-114233342D01*
X172076815Y-114298815D01*
X171997463Y-114395506D01*
X171938498Y-114505820D01*
X171902188Y-114625518D01*
X171889928Y-114750000D01*
X171893000Y-115039250D01*
X172051750Y-115198000D01*
X173101000Y-115198000D01*
X173101000Y-115178000D01*
X173355000Y-115178000D01*
X173355000Y-115198000D01*
X174404250Y-115198000D01*
X174563000Y-115039250D01*
X174566072Y-114750000D01*
X174553812Y-114625518D01*
X174517502Y-114505820D01*
X174458537Y-114395506D01*
X174379185Y-114298815D01*
X174299406Y-114233342D01*
X174305962Y-114227962D01*
X174416405Y-114093387D01*
X174498472Y-113939851D01*
X174549008Y-113773255D01*
X174566072Y-113600001D01*
X174566072Y-113281187D01*
X183003738Y-113158902D01*
X182757724Y-122999475D01*
G36*
X172247000Y-118286250D02*
G01*
X172405750Y-118445000D01*
X173655000Y-118445000D01*
X173655000Y-118425000D01*
X173909000Y-118425000D01*
X173909000Y-118445000D01*
X173929000Y-118445000D01*
X173929000Y-118699000D01*
X173909000Y-118699000D01*
X173909000Y-118719000D01*
X173655000Y-118719000D01*
X173655000Y-118699000D01*
X172405750Y-118699000D01*
X172247000Y-118857750D01*
X172243928Y-119622000D01*
X172256188Y-119746482D01*
X172292498Y-119866180D01*
X172351463Y-119976494D01*
X172388809Y-120022000D01*
X172351463Y-120067506D01*
X172292498Y-120177820D01*
X172256188Y-120297518D01*
X172243928Y-120422000D01*
X172243928Y-120712000D01*
X172078802Y-120712000D01*
X170997804Y-119631003D01*
X170974001Y-119601999D01*
X170858276Y-119507026D01*
X170726247Y-119436454D01*
X170582986Y-119392997D01*
X170489056Y-119383746D01*
X172244356Y-117628446D01*
X172247000Y-118286250D01*
X172247000Y-118286250D01*
G37*
X172247000Y-118286250D02*
X172405750Y-118445000D01*
X173655000Y-118445000D01*
X173655000Y-118425000D01*
X173909000Y-118425000D01*
X173909000Y-118445000D01*
X173929000Y-118445000D01*
X173929000Y-118699000D01*
X173909000Y-118699000D01*
X173909000Y-118719000D01*
X173655000Y-118719000D01*
X173655000Y-118699000D01*
X172405750Y-118699000D01*
X172247000Y-118857750D01*
X172243928Y-119622000D01*
X172256188Y-119746482D01*
X172292498Y-119866180D01*
X172351463Y-119976494D01*
X172388809Y-120022000D01*
X172351463Y-120067506D01*
X172292498Y-120177820D01*
X172256188Y-120297518D01*
X172243928Y-120422000D01*
X172243928Y-120712000D01*
X172078802Y-120712000D01*
X170997804Y-119631003D01*
X170974001Y-119601999D01*
X170858276Y-119507026D01*
X170726247Y-119436454D01*
X170582986Y-119392997D01*
X170489056Y-119383746D01*
X172244356Y-117628446D01*
X172247000Y-118286250D01*
G36*
X160309815Y-115643185D02*
G01*
X160406506Y-115722537D01*
X160429667Y-115734917D01*
X160521750Y-115827000D01*
X160635337Y-115817454D01*
X160636518Y-115817812D01*
X160761000Y-115830072D01*
X161062015Y-115830072D01*
X160988102Y-115844774D01*
X160799744Y-115922795D01*
X160630226Y-116036063D01*
X160486063Y-116180226D01*
X160372795Y-116349744D01*
X160294774Y-116538102D01*
X160255000Y-116738061D01*
X160255000Y-116941939D01*
X160294774Y-117141898D01*
X160372795Y-117330256D01*
X160486063Y-117499774D01*
X160630226Y-117643937D01*
X160799744Y-117757205D01*
X160988102Y-117835226D01*
X161188061Y-117875000D01*
X161391939Y-117875000D01*
X161591898Y-117835226D01*
X161780256Y-117757205D01*
X161949774Y-117643937D01*
X161993711Y-117600000D01*
X162000678Y-117600000D01*
X162038000Y-117603676D01*
X162075322Y-117600000D01*
X162075333Y-117600000D01*
X162186986Y-117589003D01*
X162330247Y-117545546D01*
X162462276Y-117474974D01*
X162578001Y-117380001D01*
X162601804Y-117350997D01*
X163947003Y-116005799D01*
X163976001Y-115982001D01*
X164070974Y-115866276D01*
X164090326Y-115830072D01*
X164511000Y-115830072D01*
X164635482Y-115817812D01*
X164636000Y-115817655D01*
X164636518Y-115817812D01*
X164761000Y-115830072D01*
X165311000Y-115830072D01*
X165351962Y-115826038D01*
X165347928Y-115867000D01*
X165347928Y-116417000D01*
X165360188Y-116541482D01*
X165360345Y-116542000D01*
X165360188Y-116542518D01*
X165347928Y-116667000D01*
X165347928Y-117217000D01*
X165360188Y-117341482D01*
X165360345Y-117342000D01*
X165360188Y-117342518D01*
X165347928Y-117467000D01*
X165347928Y-118017000D01*
X165360188Y-118141482D01*
X165360546Y-118142663D01*
X165351000Y-118256250D01*
X165443083Y-118348333D01*
X165455463Y-118371494D01*
X165534815Y-118468185D01*
X165624759Y-118542000D01*
X165534815Y-118615815D01*
X165455463Y-118712506D01*
X165443083Y-118735667D01*
X165351000Y-118827750D01*
X165360546Y-118941337D01*
X165360188Y-118942518D01*
X165347928Y-119067000D01*
X165347928Y-119617000D01*
X165360188Y-119741482D01*
X165360345Y-119742000D01*
X165360188Y-119742518D01*
X165347928Y-119867000D01*
X165347928Y-120417000D01*
X165360188Y-120541482D01*
X165360345Y-120542000D01*
X165360188Y-120542518D01*
X165347928Y-120667000D01*
X165347928Y-121217000D01*
X165360188Y-121341482D01*
X165360345Y-121342000D01*
X165360188Y-121342518D01*
X165347928Y-121467000D01*
X165347928Y-122017000D01*
X165360188Y-122141482D01*
X165360345Y-122142000D01*
X165360188Y-122142518D01*
X165347928Y-122267000D01*
X165347928Y-122817000D01*
X165360188Y-122941482D01*
X165360345Y-122942000D01*
X165360188Y-122942518D01*
X165347928Y-123067000D01*
X165347928Y-123617000D01*
X165360188Y-123741482D01*
X165360345Y-123742000D01*
X165360188Y-123742518D01*
X165347928Y-123867000D01*
X165347928Y-124417000D01*
X165352119Y-124459552D01*
X165321750Y-124457000D01*
X165163000Y-124615750D01*
X165163000Y-125715000D01*
X165787250Y-125715000D01*
X165946000Y-125556250D01*
X165949064Y-125095213D01*
X165944936Y-125051028D01*
X165986000Y-125055072D01*
X167486000Y-125055072D01*
X167513000Y-125052413D01*
X167513000Y-126616534D01*
X165949049Y-126586458D01*
X165946000Y-126127750D01*
X165787250Y-125969000D01*
X165163000Y-125969000D01*
X165163000Y-125989000D01*
X165149072Y-125989000D01*
X165149072Y-125092000D01*
X165136812Y-124967518D01*
X165100502Y-124847820D01*
X165041537Y-124737506D01*
X164962185Y-124640815D01*
X164865494Y-124561463D01*
X164842333Y-124549083D01*
X164750250Y-124457000D01*
X164636663Y-124466546D01*
X164635482Y-124466188D01*
X164511000Y-124453928D01*
X163961000Y-124453928D01*
X163836518Y-124466188D01*
X163836000Y-124466345D01*
X163835482Y-124466188D01*
X163711000Y-124453928D01*
X163161000Y-124453928D01*
X163036518Y-124466188D01*
X163036000Y-124466345D01*
X163035482Y-124466188D01*
X162911000Y-124453928D01*
X162361000Y-124453928D01*
X162236518Y-124466188D01*
X162236000Y-124466345D01*
X162235482Y-124466188D01*
X162111000Y-124453928D01*
X161561000Y-124453928D01*
X161436518Y-124466188D01*
X161436000Y-124466345D01*
X161435482Y-124466188D01*
X161311000Y-124453928D01*
X160761000Y-124453928D01*
X160636518Y-124466188D01*
X160636000Y-124466345D01*
X160635482Y-124466188D01*
X160511000Y-124453928D01*
X159961000Y-124453928D01*
X159836518Y-124466188D01*
X159836000Y-124466345D01*
X159835482Y-124466188D01*
X159711000Y-124453928D01*
X159161000Y-124453928D01*
X159036518Y-124466188D01*
X159036000Y-124466345D01*
X159035482Y-124466188D01*
X158911000Y-124453928D01*
X158361000Y-124453928D01*
X158236518Y-124466188D01*
X158236000Y-124466345D01*
X158235482Y-124466188D01*
X158111000Y-124453928D01*
X157561000Y-124453928D01*
X157436518Y-124466188D01*
X157436000Y-124466345D01*
X157435482Y-124466188D01*
X157311000Y-124453928D01*
X156761000Y-124453928D01*
X156720038Y-124457962D01*
X156724072Y-124417000D01*
X156724072Y-123867000D01*
X156711812Y-123742518D01*
X156711454Y-123741337D01*
X156721000Y-123627750D01*
X156628917Y-123535667D01*
X156616537Y-123512506D01*
X156537185Y-123415815D01*
X156447241Y-123342000D01*
X156537185Y-123268185D01*
X156616537Y-123171494D01*
X156628917Y-123148333D01*
X156721000Y-123056250D01*
X156711454Y-122942663D01*
X156711812Y-122941482D01*
X156724072Y-122817000D01*
X156724072Y-122267000D01*
X156711812Y-122142518D01*
X156711655Y-122142000D01*
X156711812Y-122141482D01*
X156724072Y-122017000D01*
X156724072Y-121467000D01*
X156711812Y-121342518D01*
X156711655Y-121342000D01*
X156711812Y-121341482D01*
X156724072Y-121217000D01*
X156724072Y-120667000D01*
X156711812Y-120542518D01*
X156711655Y-120542000D01*
X156711812Y-120541482D01*
X156724072Y-120417000D01*
X156724072Y-119867000D01*
X156711812Y-119742518D01*
X156711655Y-119742000D01*
X156711812Y-119741482D01*
X156724072Y-119617000D01*
X156724072Y-119067000D01*
X156711812Y-118942518D01*
X156711655Y-118942000D01*
X156711812Y-118941482D01*
X156724072Y-118817000D01*
X156724072Y-118267000D01*
X156711812Y-118142518D01*
X156711655Y-118142000D01*
X156711812Y-118141482D01*
X156724072Y-118017000D01*
X156724072Y-117467000D01*
X156711812Y-117342518D01*
X156711454Y-117341337D01*
X156721000Y-117227750D01*
X156628917Y-117135667D01*
X156616537Y-117112506D01*
X156537185Y-117015815D01*
X156447241Y-116942000D01*
X156537185Y-116868185D01*
X156616537Y-116771494D01*
X156628917Y-116748333D01*
X156721000Y-116656250D01*
X156711454Y-116542663D01*
X156711812Y-116541482D01*
X156724072Y-116417000D01*
X156724072Y-115867000D01*
X156720038Y-115826038D01*
X156761000Y-115830072D01*
X157311000Y-115830072D01*
X157435482Y-115817812D01*
X157436000Y-115817655D01*
X157436518Y-115817812D01*
X157561000Y-115830072D01*
X158111000Y-115830072D01*
X158235482Y-115817812D01*
X158236000Y-115817655D01*
X158236518Y-115817812D01*
X158361000Y-115830072D01*
X158911000Y-115830072D01*
X159035482Y-115817812D01*
X159036000Y-115817655D01*
X159036518Y-115817812D01*
X159161000Y-115830072D01*
X159711000Y-115830072D01*
X159835482Y-115817812D01*
X159836663Y-115817454D01*
X159950250Y-115827000D01*
X160042333Y-115734917D01*
X160065494Y-115722537D01*
X160162185Y-115643185D01*
X160236000Y-115553241D01*
X160309815Y-115643185D01*
X160309815Y-115643185D01*
G37*
X160309815Y-115643185D02*
X160406506Y-115722537D01*
X160429667Y-115734917D01*
X160521750Y-115827000D01*
X160635337Y-115817454D01*
X160636518Y-115817812D01*
X160761000Y-115830072D01*
X161062015Y-115830072D01*
X160988102Y-115844774D01*
X160799744Y-115922795D01*
X160630226Y-116036063D01*
X160486063Y-116180226D01*
X160372795Y-116349744D01*
X160294774Y-116538102D01*
X160255000Y-116738061D01*
X160255000Y-116941939D01*
X160294774Y-117141898D01*
X160372795Y-117330256D01*
X160486063Y-117499774D01*
X160630226Y-117643937D01*
X160799744Y-117757205D01*
X160988102Y-117835226D01*
X161188061Y-117875000D01*
X161391939Y-117875000D01*
X161591898Y-117835226D01*
X161780256Y-117757205D01*
X161949774Y-117643937D01*
X161993711Y-117600000D01*
X162000678Y-117600000D01*
X162038000Y-117603676D01*
X162075322Y-117600000D01*
X162075333Y-117600000D01*
X162186986Y-117589003D01*
X162330247Y-117545546D01*
X162462276Y-117474974D01*
X162578001Y-117380001D01*
X162601804Y-117350997D01*
X163947003Y-116005799D01*
X163976001Y-115982001D01*
X164070974Y-115866276D01*
X164090326Y-115830072D01*
X164511000Y-115830072D01*
X164635482Y-115817812D01*
X164636000Y-115817655D01*
X164636518Y-115817812D01*
X164761000Y-115830072D01*
X165311000Y-115830072D01*
X165351962Y-115826038D01*
X165347928Y-115867000D01*
X165347928Y-116417000D01*
X165360188Y-116541482D01*
X165360345Y-116542000D01*
X165360188Y-116542518D01*
X165347928Y-116667000D01*
X165347928Y-117217000D01*
X165360188Y-117341482D01*
X165360345Y-117342000D01*
X165360188Y-117342518D01*
X165347928Y-117467000D01*
X165347928Y-118017000D01*
X165360188Y-118141482D01*
X165360546Y-118142663D01*
X165351000Y-118256250D01*
X165443083Y-118348333D01*
X165455463Y-118371494D01*
X165534815Y-118468185D01*
X165624759Y-118542000D01*
X165534815Y-118615815D01*
X165455463Y-118712506D01*
X165443083Y-118735667D01*
X165351000Y-118827750D01*
X165360546Y-118941337D01*
X165360188Y-118942518D01*
X165347928Y-119067000D01*
X165347928Y-119617000D01*
X165360188Y-119741482D01*
X165360345Y-119742000D01*
X165360188Y-119742518D01*
X165347928Y-119867000D01*
X165347928Y-120417000D01*
X165360188Y-120541482D01*
X165360345Y-120542000D01*
X165360188Y-120542518D01*
X165347928Y-120667000D01*
X165347928Y-121217000D01*
X165360188Y-121341482D01*
X165360345Y-121342000D01*
X165360188Y-121342518D01*
X165347928Y-121467000D01*
X165347928Y-122017000D01*
X165360188Y-122141482D01*
X165360345Y-122142000D01*
X165360188Y-122142518D01*
X165347928Y-122267000D01*
X165347928Y-122817000D01*
X165360188Y-122941482D01*
X165360345Y-122942000D01*
X165360188Y-122942518D01*
X165347928Y-123067000D01*
X165347928Y-123617000D01*
X165360188Y-123741482D01*
X165360345Y-123742000D01*
X165360188Y-123742518D01*
X165347928Y-123867000D01*
X165347928Y-124417000D01*
X165352119Y-124459552D01*
X165321750Y-124457000D01*
X165163000Y-124615750D01*
X165163000Y-125715000D01*
X165787250Y-125715000D01*
X165946000Y-125556250D01*
X165949064Y-125095213D01*
X165944936Y-125051028D01*
X165986000Y-125055072D01*
X167486000Y-125055072D01*
X167513000Y-125052413D01*
X167513000Y-126616534D01*
X165949049Y-126586458D01*
X165946000Y-126127750D01*
X165787250Y-125969000D01*
X165163000Y-125969000D01*
X165163000Y-125989000D01*
X165149072Y-125989000D01*
X165149072Y-125092000D01*
X165136812Y-124967518D01*
X165100502Y-124847820D01*
X165041537Y-124737506D01*
X164962185Y-124640815D01*
X164865494Y-124561463D01*
X164842333Y-124549083D01*
X164750250Y-124457000D01*
X164636663Y-124466546D01*
X164635482Y-124466188D01*
X164511000Y-124453928D01*
X163961000Y-124453928D01*
X163836518Y-124466188D01*
X163836000Y-124466345D01*
X163835482Y-124466188D01*
X163711000Y-124453928D01*
X163161000Y-124453928D01*
X163036518Y-124466188D01*
X163036000Y-124466345D01*
X163035482Y-124466188D01*
X162911000Y-124453928D01*
X162361000Y-124453928D01*
X162236518Y-124466188D01*
X162236000Y-124466345D01*
X162235482Y-124466188D01*
X162111000Y-124453928D01*
X161561000Y-124453928D01*
X161436518Y-124466188D01*
X161436000Y-124466345D01*
X161435482Y-124466188D01*
X161311000Y-124453928D01*
X160761000Y-124453928D01*
X160636518Y-124466188D01*
X160636000Y-124466345D01*
X160635482Y-124466188D01*
X160511000Y-124453928D01*
X159961000Y-124453928D01*
X159836518Y-124466188D01*
X159836000Y-124466345D01*
X159835482Y-124466188D01*
X159711000Y-124453928D01*
X159161000Y-124453928D01*
X159036518Y-124466188D01*
X159036000Y-124466345D01*
X159035482Y-124466188D01*
X158911000Y-124453928D01*
X158361000Y-124453928D01*
X158236518Y-124466188D01*
X158236000Y-124466345D01*
X158235482Y-124466188D01*
X158111000Y-124453928D01*
X157561000Y-124453928D01*
X157436518Y-124466188D01*
X157436000Y-124466345D01*
X157435482Y-124466188D01*
X157311000Y-124453928D01*
X156761000Y-124453928D01*
X156720038Y-124457962D01*
X156724072Y-124417000D01*
X156724072Y-123867000D01*
X156711812Y-123742518D01*
X156711454Y-123741337D01*
X156721000Y-123627750D01*
X156628917Y-123535667D01*
X156616537Y-123512506D01*
X156537185Y-123415815D01*
X156447241Y-123342000D01*
X156537185Y-123268185D01*
X156616537Y-123171494D01*
X156628917Y-123148333D01*
X156721000Y-123056250D01*
X156711454Y-122942663D01*
X156711812Y-122941482D01*
X156724072Y-122817000D01*
X156724072Y-122267000D01*
X156711812Y-122142518D01*
X156711655Y-122142000D01*
X156711812Y-122141482D01*
X156724072Y-122017000D01*
X156724072Y-121467000D01*
X156711812Y-121342518D01*
X156711655Y-121342000D01*
X156711812Y-121341482D01*
X156724072Y-121217000D01*
X156724072Y-120667000D01*
X156711812Y-120542518D01*
X156711655Y-120542000D01*
X156711812Y-120541482D01*
X156724072Y-120417000D01*
X156724072Y-119867000D01*
X156711812Y-119742518D01*
X156711655Y-119742000D01*
X156711812Y-119741482D01*
X156724072Y-119617000D01*
X156724072Y-119067000D01*
X156711812Y-118942518D01*
X156711655Y-118942000D01*
X156711812Y-118941482D01*
X156724072Y-118817000D01*
X156724072Y-118267000D01*
X156711812Y-118142518D01*
X156711655Y-118142000D01*
X156711812Y-118141482D01*
X156724072Y-118017000D01*
X156724072Y-117467000D01*
X156711812Y-117342518D01*
X156711454Y-117341337D01*
X156721000Y-117227750D01*
X156628917Y-117135667D01*
X156616537Y-117112506D01*
X156537185Y-117015815D01*
X156447241Y-116942000D01*
X156537185Y-116868185D01*
X156616537Y-116771494D01*
X156628917Y-116748333D01*
X156721000Y-116656250D01*
X156711454Y-116542663D01*
X156711812Y-116541482D01*
X156724072Y-116417000D01*
X156724072Y-115867000D01*
X156720038Y-115826038D01*
X156761000Y-115830072D01*
X157311000Y-115830072D01*
X157435482Y-115817812D01*
X157436000Y-115817655D01*
X157436518Y-115817812D01*
X157561000Y-115830072D01*
X158111000Y-115830072D01*
X158235482Y-115817812D01*
X158236000Y-115817655D01*
X158236518Y-115817812D01*
X158361000Y-115830072D01*
X158911000Y-115830072D01*
X159035482Y-115817812D01*
X159036000Y-115817655D01*
X159036518Y-115817812D01*
X159161000Y-115830072D01*
X159711000Y-115830072D01*
X159835482Y-115817812D01*
X159836663Y-115817454D01*
X159950250Y-115827000D01*
X160042333Y-115734917D01*
X160065494Y-115722537D01*
X160162185Y-115643185D01*
X160236000Y-115553241D01*
X160309815Y-115643185D01*
M02*
